G04 Layer_Color=8388736*
%FSLAX44Y44*%
%MOMM*%
G71*
G01*
G75*
%ADD25C,0.2500*%
%ADD26R,1.3032X1.2032*%
%ADD27R,1.2032X1.3032*%
%ADD28R,1.8032X1.0032*%
%ADD29R,3.2032X2.3032*%
G04:AMPARAMS|DCode=30|XSize=1.8032mm|YSize=0.5532mm|CornerRadius=0.1891mm|HoleSize=0mm|Usage=FLASHONLY|Rotation=0.000|XOffset=0mm|YOffset=0mm|HoleType=Round|Shape=RoundedRectangle|*
%AMROUNDEDRECTD30*
21,1,1.8032,0.1750,0,0,0.0*
21,1,1.4250,0.5532,0,0,0.0*
1,1,0.3782,0.7125,-0.0875*
1,1,0.3782,-0.7125,-0.0875*
1,1,0.3782,-0.7125,0.0875*
1,1,0.3782,0.7125,0.0875*
%
%ADD30ROUNDEDRECTD30*%
%ADD31R,1.8032X0.5532*%
%ADD32C,7.2032*%
%ADD33C,4.2032*%
%ADD34C,2.0032*%
D25*
X107995Y23000D02*
X97998D01*
X93000Y18002D01*
X97998Y13003D01*
X107995D01*
X105496Y8005D02*
X107995Y5506D01*
Y507D01*
X105496Y-1992D01*
X95499D01*
X93000Y507D01*
Y5506D01*
X95499Y8005D01*
X105496D01*
X93000Y-6990D02*
X95499D01*
Y-9489D01*
X93000D01*
Y-6990D01*
Y-19486D02*
Y-24485D01*
Y-21985D01*
X107995D01*
X105496Y-19486D01*
X130995Y69000D02*
Y64002D01*
Y66501D01*
X116000D01*
Y69000D01*
Y64002D01*
Y56504D02*
X130995D01*
X125997Y51506D01*
X130995Y46507D01*
X116000D01*
X130995Y41509D02*
X118499D01*
X116000Y39010D01*
Y34011D01*
X118499Y31512D01*
X130995D01*
X123498Y26514D02*
Y16517D01*
X128496Y1522D02*
X130995Y4021D01*
Y9019D01*
X128496Y11519D01*
X125997D01*
X123498Y9019D01*
Y4021D01*
X120998Y1522D01*
X118499D01*
X116000Y4021D01*
Y9019D01*
X118499Y11519D01*
X130995Y-3476D02*
X116000D01*
X123498D01*
X125997Y-5976D01*
Y-10974D01*
X123498Y-13473D01*
X116000D01*
Y-18472D02*
Y-23470D01*
Y-20971D01*
X125997D01*
Y-18472D01*
X116000Y-38465D02*
Y-33467D01*
X118499Y-30968D01*
X123498D01*
X125997Y-33467D01*
Y-38465D01*
X123498Y-40964D01*
X120998D01*
Y-30968D01*
X116000Y-45963D02*
Y-50961D01*
Y-48462D01*
X130995D01*
Y-45963D01*
Y-68456D02*
X116000D01*
Y-60958D01*
X118499Y-58459D01*
X123498D01*
X125997Y-60958D01*
Y-68456D01*
D26*
X243500Y96000D02*
D03*
X226500D02*
D03*
X243500Y-125000D02*
D03*
X226500D02*
D03*
X243500Y112000D02*
D03*
X226500D02*
D03*
X243500Y-110000D02*
D03*
X226500D02*
D03*
Y70000D02*
D03*
X243500D02*
D03*
X226500Y-149000D02*
D03*
X243500D02*
D03*
X243500Y-95000D02*
D03*
X226500D02*
D03*
D27*
X422000Y39500D02*
D03*
Y56500D02*
D03*
X407000Y39500D02*
D03*
Y56500D02*
D03*
X392000Y39500D02*
D03*
Y56500D02*
D03*
X377000D02*
D03*
Y39500D02*
D03*
D28*
X199000Y110000D02*
D03*
Y97500D02*
D03*
Y85000D02*
D03*
Y147500D02*
D03*
Y135000D02*
D03*
Y122500D02*
D03*
Y72500D02*
D03*
Y-110000D02*
D03*
Y-122500D02*
D03*
Y-135000D02*
D03*
Y-72500D02*
D03*
Y-85000D02*
D03*
Y-97500D02*
D03*
Y-147500D02*
D03*
D29*
X170000Y173000D02*
D03*
Y47000D02*
D03*
Y-47000D02*
D03*
Y-173000D02*
D03*
D30*
X372000Y22750D02*
D03*
D31*
Y16250D02*
D03*
Y9750D02*
D03*
Y3250D02*
D03*
Y-3250D02*
D03*
Y-9750D02*
D03*
Y-16250D02*
D03*
Y-22750D02*
D03*
X428000Y22750D02*
D03*
Y16250D02*
D03*
Y9750D02*
D03*
Y3250D02*
D03*
Y-3250D02*
D03*
Y-9750D02*
D03*
Y-16250D02*
D03*
Y-22750D02*
D03*
D32*
X50000Y0D02*
D03*
X600000D02*
D03*
X295000Y185000D02*
D03*
Y-185000D02*
D03*
D33*
X30000Y-60000D02*
D03*
Y-160000D02*
D03*
Y60000D02*
D03*
Y160000D02*
D03*
D34*
X497600Y203200D02*
D03*
X573800Y-203200D02*
D03*
X396000Y203200D02*
D03*
X345200Y-203200D02*
D03*
X548400D02*
D03*
X421400D02*
D03*
X523000D02*
D03*
X497600D02*
D03*
X472200D02*
D03*
X446800D02*
D03*
X396000D02*
D03*
X370600D02*
D03*
X243600D02*
D03*
X218200D02*
D03*
X192800D02*
D03*
Y203200D02*
D03*
X218200D02*
D03*
X243600D02*
D03*
X421400D02*
D03*
X446800D02*
D03*
X472200D02*
D03*
X523000D02*
D03*
X548400D02*
D03*
X573800D02*
D03*
X345200D02*
D03*
X370600D02*
D03*
M02*
