G04 Layer_Physical_Order=1*
G04 Layer_Color=255*
%FSLAX44Y44*%
%MOMM*%
G71*
G01*
G75*
%ADD10R,1.1000X1.0000*%
%ADD11R,1.0000X1.1000*%
%ADD12R,1.6000X0.8000*%
%ADD13R,3.0000X2.1000*%
G04:AMPARAMS|DCode=14|XSize=1.6mm|YSize=0.35mm|CornerRadius=0.0875mm|HoleSize=0mm|Usage=FLASHONLY|Rotation=0.000|XOffset=0mm|YOffset=0mm|HoleType=Round|Shape=RoundedRectangle|*
%AMROUNDEDRECTD14*
21,1,1.6000,0.1750,0,0,0.0*
21,1,1.4250,0.3500,0,0,0.0*
1,1,0.1750,0.7125,-0.0875*
1,1,0.1750,-0.7125,-0.0875*
1,1,0.1750,-0.7125,0.0875*
1,1,0.1750,0.7125,0.0875*
%
%ADD14ROUNDEDRECTD14*%
%ADD15R,1.6000X0.3500*%
%ADD16C,0.3000*%
%ADD17C,0.5000*%
%ADD18C,7.0000*%
%ADD19C,4.0000*%
%ADD20C,1.8000*%
%ADD21C,0.8000*%
G36*
X629386Y217049D02*
X633603Y215770D01*
X637490Y213692D01*
X640897Y210897D01*
X643692Y207490D01*
X645770Y203603D01*
X647049Y199386D01*
X647471Y195102D01*
X647451Y195000D01*
Y-195000D01*
X647471Y-195102D01*
X647049Y-199386D01*
X645770Y-203603D01*
X643692Y-207490D01*
X640897Y-210897D01*
X637490Y-213692D01*
X633603Y-215770D01*
X629386Y-217049D01*
X625102Y-217471D01*
X625000Y-217451D01*
X315198D01*
X314853Y-216229D01*
X316815Y-215026D01*
X321244Y-211244D01*
X325026Y-206815D01*
X328069Y-201850D01*
X330298Y-196469D01*
X331657Y-190806D01*
X331918Y-187500D01*
X295000D01*
X258082D01*
X258342Y-190806D01*
X259702Y-196469D01*
X261931Y-201850D01*
X264974Y-206815D01*
X268756Y-211244D01*
X273185Y-215026D01*
X275147Y-216229D01*
X274802Y-217451D01*
X25000D01*
X24898Y-217471D01*
X20614Y-217049D01*
X16397Y-215770D01*
X12510Y-213692D01*
X9103Y-210897D01*
X6308Y-207490D01*
X4230Y-203603D01*
X2951Y-199386D01*
X2529Y-195102D01*
X2549Y-195000D01*
Y195000D01*
X2529Y195102D01*
X2951Y199386D01*
X4230Y203603D01*
X6308Y207490D01*
X9103Y210897D01*
X12510Y213692D01*
X16397Y215770D01*
X20614Y217049D01*
X24898Y217471D01*
X25000Y217451D01*
X274802D01*
X275147Y216229D01*
X273185Y215026D01*
X268756Y211244D01*
X264974Y206815D01*
X261931Y201850D01*
X259702Y196469D01*
X258342Y190806D01*
X258082Y187500D01*
X295000D01*
X331918D01*
X331657Y190806D01*
X330298Y196469D01*
X328069Y201850D01*
X325026Y206815D01*
X321244Y211244D01*
X316815Y215026D01*
X314853Y216229D01*
X315198Y217451D01*
X625000D01*
X625102Y217471D01*
X629386Y217049D01*
D02*
G37*
%LPC*%
G36*
X250500Y-103500D02*
X236500D01*
Y-116500D01*
X250500D01*
Y-115135D01*
X251770Y-114457D01*
X252854Y-115181D01*
X255000Y-115608D01*
X257146Y-115181D01*
X258965Y-113965D01*
X260181Y-112146D01*
X260608Y-110000D01*
X260181Y-107854D01*
X258965Y-106035D01*
X257146Y-104819D01*
X255000Y-104392D01*
X252854Y-104819D01*
X251770Y-105543D01*
X250500Y-104865D01*
Y-103500D01*
D02*
G37*
G36*
Y-118500D02*
X236500D01*
Y-131500D01*
X250500D01*
Y-130135D01*
X251770Y-129457D01*
X252854Y-130181D01*
X255000Y-130608D01*
X257146Y-130181D01*
X258965Y-128965D01*
X260181Y-127146D01*
X260608Y-125000D01*
X260181Y-122854D01*
X258965Y-121035D01*
X257146Y-119819D01*
X255000Y-119392D01*
X252854Y-119819D01*
X251770Y-120543D01*
X250500Y-119865D01*
Y-118500D01*
D02*
G37*
G36*
X208500Y-117000D02*
X189500D01*
Y-127730D01*
X189500Y-127937D01*
X189000Y-129000D01*
X189000Y-129063D01*
Y-133500D01*
X199000D01*
X209000D01*
Y-129063D01*
X209000Y-129000D01*
X208500Y-127937D01*
X208500Y-127730D01*
Y-125559D01*
X219500D01*
Y-131500D01*
X233500D01*
Y-118500D01*
X219500D01*
Y-119441D01*
X208500D01*
Y-117000D01*
D02*
G37*
G36*
X168500Y-48500D02*
X153000D01*
Y-59500D01*
X168500D01*
Y-48500D01*
D02*
G37*
G36*
X30000Y-38396D02*
X25785Y-38811D01*
X21732Y-40040D01*
X17997Y-42037D01*
X14724Y-44724D01*
X12037Y-47997D01*
X10041Y-51733D01*
X8811Y-55785D01*
X8396Y-60000D01*
X8811Y-64215D01*
X10041Y-68267D01*
X12037Y-72003D01*
X14724Y-75276D01*
X17997Y-77963D01*
X21732Y-79960D01*
X25785Y-81189D01*
X30000Y-81604D01*
X34215Y-81189D01*
X38268Y-79960D01*
X42003Y-77963D01*
X45276Y-75276D01*
X47963Y-72003D01*
X49960Y-68267D01*
X51189Y-64215D01*
X51604Y-60000D01*
X51189Y-55785D01*
X49960Y-51733D01*
X47963Y-47997D01*
X45276Y-44724D01*
X42003Y-42037D01*
X38268Y-40040D01*
X34215Y-38811D01*
X30000Y-38396D01*
D02*
G37*
G36*
X233500Y-103500D02*
X219500D01*
Y-106941D01*
X208500D01*
Y-104500D01*
X189500D01*
Y-115500D01*
X208500D01*
Y-113059D01*
X219500D01*
Y-116500D01*
X233500D01*
Y-103500D01*
D02*
G37*
G36*
X187000Y-160500D02*
X171500D01*
Y-171500D01*
X187000D01*
Y-160500D01*
D02*
G37*
G36*
X168500D02*
X153000D01*
Y-171500D01*
X168500D01*
Y-160500D01*
D02*
G37*
G36*
X30000Y-138396D02*
X25785Y-138811D01*
X21732Y-140041D01*
X17997Y-142037D01*
X14724Y-144724D01*
X12037Y-147998D01*
X10041Y-151733D01*
X8811Y-155785D01*
X8396Y-160000D01*
X8811Y-164215D01*
X10041Y-168267D01*
X12037Y-172003D01*
X14724Y-175276D01*
X17997Y-177963D01*
X21732Y-179960D01*
X25785Y-181189D01*
X30000Y-181604D01*
X34215Y-181189D01*
X38268Y-179960D01*
X42003Y-177963D01*
X45276Y-175276D01*
X47963Y-172003D01*
X49960Y-168267D01*
X51189Y-164215D01*
X51604Y-160000D01*
X51189Y-155785D01*
X49960Y-151733D01*
X47963Y-147998D01*
X45276Y-144724D01*
X42003Y-142037D01*
X38268Y-140041D01*
X34215Y-138811D01*
X30000Y-138396D01*
D02*
G37*
G36*
X242000Y-150500D02*
X236000D01*
Y-156000D01*
X242000D01*
Y-150500D01*
D02*
G37*
G36*
X251000Y-142000D02*
X245000D01*
Y-147500D01*
X251000D01*
Y-142000D01*
D02*
G37*
G36*
X242000D02*
X236000D01*
Y-147500D01*
X242000D01*
Y-142000D01*
D02*
G37*
G36*
X251000Y-150500D02*
X245000D01*
Y-156000D01*
X251000D01*
Y-150500D01*
D02*
G37*
G36*
X438000Y-17750D02*
X418000D01*
Y-20000D01*
X418500D01*
Y-26000D01*
X437500D01*
Y-20000D01*
X438000D01*
Y-17750D01*
D02*
G37*
G36*
X382000Y-24250D02*
X373500D01*
Y-26500D01*
X382000D01*
Y-24250D01*
D02*
G37*
G36*
X370500D02*
X362000D01*
Y-26500D01*
X370500D01*
Y-24250D01*
D02*
G37*
G36*
X382000Y-4750D02*
X362000D01*
Y-7000D01*
Y-8250D01*
X382000D01*
Y-7000D01*
Y-4750D01*
D02*
G37*
G36*
X438000Y-11250D02*
X418000D01*
Y-13500D01*
Y-14750D01*
X438000D01*
Y-13500D01*
Y-11250D01*
D02*
G37*
G36*
X382000D02*
X362000D01*
Y-13500D01*
X362500D01*
Y-19000D01*
X362000D01*
Y-21250D01*
X382000D01*
Y-19000D01*
X381500D01*
Y-13500D01*
X382000D01*
Y-11250D01*
D02*
G37*
G36*
X636918Y-2500D02*
X602500D01*
Y-36918D01*
X605806Y-36658D01*
X611469Y-35298D01*
X616850Y-33069D01*
X621815Y-30026D01*
X626244Y-26244D01*
X630026Y-21815D01*
X633069Y-16850D01*
X635298Y-11469D01*
X636657Y-5806D01*
X636918Y-2500D01*
D02*
G37*
G36*
X187000Y-34500D02*
X171500D01*
Y-45500D01*
X187000D01*
Y-34500D01*
D02*
G37*
G36*
X168500D02*
X153000D01*
Y-45500D01*
X168500D01*
Y-34500D01*
D02*
G37*
G36*
X187000Y-48500D02*
X171500D01*
Y-59500D01*
X187000D01*
Y-48500D01*
D02*
G37*
G36*
X86918Y-2500D02*
X52500D01*
Y-36918D01*
X55806Y-36658D01*
X61469Y-35298D01*
X66850Y-33069D01*
X71815Y-30026D01*
X76244Y-26244D01*
X80026Y-21815D01*
X83069Y-16850D01*
X85298Y-11469D01*
X86657Y-5806D01*
X86918Y-2500D01*
D02*
G37*
G36*
X47500D02*
X13082D01*
X13342Y-5806D01*
X14702Y-11469D01*
X16931Y-16850D01*
X19974Y-21815D01*
X23756Y-26244D01*
X28185Y-30026D01*
X33150Y-33069D01*
X38531Y-35298D01*
X44194Y-36658D01*
X47500Y-36918D01*
Y-2500D01*
D02*
G37*
G36*
X597500Y-2500D02*
X563082D01*
X563343Y-5806D01*
X564702Y-11469D01*
X566931Y-16850D01*
X569974Y-21815D01*
X573756Y-26244D01*
X578185Y-30026D01*
X583150Y-33069D01*
X588531Y-35298D01*
X594194Y-36658D01*
X597500Y-36918D01*
Y-2500D01*
D02*
G37*
G36*
X370600Y-192609D02*
X367859Y-192970D01*
X365305Y-194028D01*
X363111Y-195711D01*
X361428Y-197905D01*
X360370Y-200459D01*
X360009Y-203200D01*
X360370Y-205941D01*
X361428Y-208495D01*
X363111Y-210689D01*
X365305Y-212372D01*
X367859Y-213430D01*
X370600Y-213791D01*
X373341Y-213430D01*
X375895Y-212372D01*
X378089Y-210689D01*
X379772Y-208495D01*
X380830Y-205941D01*
X381191Y-203200D01*
X380830Y-200459D01*
X379772Y-197905D01*
X378089Y-195711D01*
X375895Y-194028D01*
X373341Y-192970D01*
X370600Y-192609D01*
D02*
G37*
G36*
X345200D02*
X342459Y-192970D01*
X339905Y-194028D01*
X337711Y-195711D01*
X336028Y-197905D01*
X334970Y-200459D01*
X334609Y-203200D01*
X334970Y-205941D01*
X336028Y-208495D01*
X337711Y-210689D01*
X339905Y-212372D01*
X342459Y-213430D01*
X345200Y-213791D01*
X347941Y-213430D01*
X350495Y-212372D01*
X352689Y-210689D01*
X354372Y-208495D01*
X355430Y-205941D01*
X355791Y-203200D01*
X355430Y-200459D01*
X354372Y-197905D01*
X352689Y-195711D01*
X350495Y-194028D01*
X347941Y-192970D01*
X345200Y-192609D01*
D02*
G37*
G36*
X218200D02*
X215459Y-192970D01*
X212905Y-194028D01*
X210711Y-195711D01*
X209028Y-197905D01*
X207970Y-200459D01*
X207609Y-203200D01*
X207970Y-205941D01*
X209028Y-208495D01*
X210711Y-210689D01*
X212905Y-212372D01*
X215459Y-213430D01*
X218200Y-213791D01*
X220941Y-213430D01*
X223495Y-212372D01*
X225689Y-210689D01*
X227372Y-208495D01*
X228430Y-205941D01*
X228791Y-203200D01*
X228430Y-200459D01*
X227372Y-197905D01*
X225689Y-195711D01*
X223495Y-194028D01*
X220941Y-192970D01*
X218200Y-192609D01*
D02*
G37*
G36*
X472200D02*
X469459Y-192970D01*
X466905Y-194028D01*
X464711Y-195711D01*
X463028Y-197905D01*
X461970Y-200459D01*
X461609Y-203200D01*
X461970Y-205941D01*
X463028Y-208495D01*
X464711Y-210689D01*
X466905Y-212372D01*
X469459Y-213430D01*
X472200Y-213791D01*
X474941Y-213430D01*
X477495Y-212372D01*
X479689Y-210689D01*
X481372Y-208495D01*
X482430Y-205941D01*
X482791Y-203200D01*
X482430Y-200459D01*
X481372Y-197905D01*
X479689Y-195711D01*
X477495Y-194028D01*
X474941Y-192970D01*
X472200Y-192609D01*
D02*
G37*
G36*
X446800D02*
X444059Y-192970D01*
X441505Y-194028D01*
X439311Y-195711D01*
X437628Y-197905D01*
X436570Y-200459D01*
X436209Y-203200D01*
X436570Y-205941D01*
X437628Y-208495D01*
X439311Y-210689D01*
X441505Y-212372D01*
X444059Y-213430D01*
X446800Y-213791D01*
X449541Y-213430D01*
X452095Y-212372D01*
X454289Y-210689D01*
X455972Y-208495D01*
X457030Y-205941D01*
X457391Y-203200D01*
X457030Y-200459D01*
X455972Y-197905D01*
X454289Y-195711D01*
X452095Y-194028D01*
X449541Y-192970D01*
X446800Y-192609D01*
D02*
G37*
G36*
X396000D02*
X393259Y-192970D01*
X390705Y-194028D01*
X388511Y-195711D01*
X386828Y-197905D01*
X385770Y-200459D01*
X385409Y-203200D01*
X385770Y-205941D01*
X386828Y-208495D01*
X388511Y-210689D01*
X390705Y-212372D01*
X393259Y-213430D01*
X396000Y-213791D01*
X398741Y-213430D01*
X401295Y-212372D01*
X403489Y-210689D01*
X405172Y-208495D01*
X406230Y-205941D01*
X406591Y-203200D01*
X406230Y-200459D01*
X405172Y-197905D01*
X403489Y-195711D01*
X401295Y-194028D01*
X398741Y-192970D01*
X396000Y-192609D01*
D02*
G37*
G36*
X209000Y-136500D02*
X199000D01*
X189000D01*
Y-140937D01*
X189000Y-141000D01*
X189500Y-142063D01*
X189500Y-142270D01*
Y-153000D01*
X200106D01*
X200500Y-153078D01*
X210922D01*
Y-162311D01*
X189916Y-183316D01*
X189032Y-184639D01*
X188722Y-186200D01*
X188722Y-186200D01*
Y-193524D01*
X187505Y-194028D01*
X185311Y-195711D01*
X183628Y-197905D01*
X182570Y-200459D01*
X182209Y-203200D01*
X182570Y-205941D01*
X183628Y-208495D01*
X185311Y-210689D01*
X187505Y-212372D01*
X190059Y-213430D01*
X192800Y-213791D01*
X195541Y-213430D01*
X198095Y-212372D01*
X200289Y-210689D01*
X201972Y-208495D01*
X203030Y-205941D01*
X203391Y-203200D01*
X203030Y-200459D01*
X201972Y-197905D01*
X200289Y-195711D01*
X198095Y-194028D01*
X196878Y-193524D01*
Y-187889D01*
X217884Y-166884D01*
X217884Y-166884D01*
X218768Y-165561D01*
X219078Y-164000D01*
Y-156595D01*
X219500Y-155500D01*
X233500D01*
Y-142500D01*
X219500D01*
Y-143865D01*
X218230Y-144543D01*
X217146Y-143819D01*
X215000Y-143392D01*
X212854Y-143819D01*
X211204Y-144922D01*
X208500D01*
Y-142270D01*
X208500Y-142063D01*
X209000Y-141000D01*
X209000Y-140937D01*
Y-136500D01*
D02*
G37*
G36*
X508366Y-205700D02*
X500100D01*
Y-213966D01*
X500472Y-213917D01*
X503147Y-212808D01*
X505445Y-211045D01*
X507209Y-208748D01*
X508317Y-206072D01*
X508366Y-205700D01*
D02*
G37*
G36*
X432166D02*
X423900D01*
Y-213966D01*
X424272Y-213917D01*
X426947Y-212808D01*
X429245Y-211045D01*
X431008Y-208748D01*
X432117Y-206072D01*
X432166Y-205700D01*
D02*
G37*
G36*
X254366D02*
X246100D01*
Y-213966D01*
X246472Y-213917D01*
X249147Y-212808D01*
X251445Y-211045D01*
X253209Y-208748D01*
X254317Y-206072D01*
X254366Y-205700D01*
D02*
G37*
G36*
X495100D02*
X486834D01*
X486883Y-206072D01*
X487991Y-208748D01*
X489755Y-211045D01*
X492053Y-212808D01*
X494728Y-213917D01*
X495100Y-213966D01*
Y-205700D01*
D02*
G37*
G36*
X418900D02*
X410634D01*
X410683Y-206072D01*
X411791Y-208748D01*
X413555Y-211045D01*
X415853Y-212808D01*
X418528Y-213917D01*
X418900Y-213966D01*
Y-205700D01*
D02*
G37*
G36*
X241100D02*
X232834D01*
X232883Y-206072D01*
X233992Y-208748D01*
X235755Y-211045D01*
X238053Y-212808D01*
X240728Y-213917D01*
X241100Y-213966D01*
Y-205700D01*
D02*
G37*
G36*
X168500Y-174500D02*
X153000D01*
Y-185500D01*
X168500D01*
Y-174500D01*
D02*
G37*
G36*
X246100Y-192434D02*
Y-200700D01*
X254366D01*
X254317Y-200328D01*
X253209Y-197652D01*
X251445Y-195355D01*
X249147Y-193591D01*
X246472Y-192483D01*
X246100Y-192434D01*
D02*
G37*
G36*
X500100D02*
Y-200700D01*
X508366D01*
X508317Y-200328D01*
X507209Y-197652D01*
X505445Y-195355D01*
X503147Y-193591D01*
X500472Y-192483D01*
X500100Y-192434D01*
D02*
G37*
G36*
X297500Y-148082D02*
Y-182500D01*
X331918D01*
X331657Y-179194D01*
X330298Y-173531D01*
X328069Y-168150D01*
X325026Y-163185D01*
X321244Y-158756D01*
X316815Y-154974D01*
X311850Y-151931D01*
X306469Y-149702D01*
X300806Y-148343D01*
X297500Y-148082D01*
D02*
G37*
G36*
X292500Y-148082D02*
X289194Y-148343D01*
X283531Y-149702D01*
X278150Y-151931D01*
X273185Y-154974D01*
X268756Y-158756D01*
X264974Y-163185D01*
X261931Y-168150D01*
X259702Y-173531D01*
X258342Y-179194D01*
X258082Y-182500D01*
X292500D01*
Y-148082D01*
D02*
G37*
G36*
X187000Y-174500D02*
X171500D01*
Y-185500D01*
X187000D01*
Y-174500D01*
D02*
G37*
G36*
X423900Y-192434D02*
Y-200700D01*
X432166D01*
X432117Y-200328D01*
X431008Y-197652D01*
X429245Y-195355D01*
X426947Y-193591D01*
X424272Y-192483D01*
X423900Y-192434D01*
D02*
G37*
G36*
X573800Y-83592D02*
X571654Y-84019D01*
X569835Y-85235D01*
X568619Y-87054D01*
X568192Y-89200D01*
X568619Y-91346D01*
X569835Y-93165D01*
X570741Y-93771D01*
Y-193102D01*
X568505Y-194028D01*
X566311Y-195711D01*
X564628Y-197905D01*
X563570Y-200459D01*
X563209Y-203200D01*
X563570Y-205941D01*
X564628Y-208495D01*
X566311Y-210689D01*
X568505Y-212372D01*
X571059Y-213430D01*
X573800Y-213791D01*
X576541Y-213430D01*
X579095Y-212372D01*
X581289Y-210689D01*
X582972Y-208495D01*
X584030Y-205941D01*
X584391Y-203200D01*
X584030Y-200459D01*
X582972Y-197905D01*
X581289Y-195711D01*
X579095Y-194028D01*
X576859Y-193102D01*
Y-93771D01*
X577765Y-93165D01*
X578981Y-91346D01*
X579408Y-89200D01*
X578981Y-87054D01*
X577765Y-85235D01*
X575946Y-84019D01*
X573800Y-83592D01*
D02*
G37*
G36*
X208500Y-79500D02*
X189500D01*
Y-90500D01*
X208500D01*
Y-88059D01*
X218413D01*
X219500Y-88500D01*
X219500Y-89329D01*
Y-94441D01*
X218237D01*
X217965Y-94035D01*
X216146Y-92819D01*
X214000Y-92392D01*
X211854Y-92819D01*
X210035Y-94035D01*
X209763Y-94441D01*
X208500D01*
Y-92000D01*
X189500D01*
Y-94441D01*
X184237D01*
X183965Y-94035D01*
X182146Y-92819D01*
X180000Y-92392D01*
X177854Y-92819D01*
X176035Y-94035D01*
X174819Y-95854D01*
X174392Y-98000D01*
X174819Y-100146D01*
X176035Y-101965D01*
X177854Y-103181D01*
X180000Y-103608D01*
X182146Y-103181D01*
X183965Y-101965D01*
X184905Y-100559D01*
X189500D01*
Y-103000D01*
X208500D01*
Y-101954D01*
X209770Y-101569D01*
X210035Y-101965D01*
X211854Y-103181D01*
X214000Y-103608D01*
X216146Y-103181D01*
X217965Y-101965D01*
X218248Y-101543D01*
X219500Y-101500D01*
Y-101500D01*
X233500D01*
X233500Y-88500D01*
X234587Y-88059D01*
X235413D01*
X236500Y-88500D01*
X236500Y-89329D01*
Y-101500D01*
X250500D01*
Y-98059D01*
X295429D01*
X296035Y-98965D01*
X297854Y-100181D01*
X300000Y-100608D01*
X302146Y-100181D01*
X303965Y-98965D01*
X305181Y-97146D01*
X305608Y-95000D01*
X305181Y-92854D01*
X303965Y-91035D01*
X302146Y-89819D01*
X300000Y-89392D01*
X297854Y-89819D01*
X296035Y-91035D01*
X295429Y-91941D01*
X251398D01*
X250500Y-91043D01*
X250500Y-88500D01*
X251587Y-88059D01*
X543733D01*
X545341Y-89667D01*
Y-193102D01*
X543105Y-194028D01*
X540911Y-195711D01*
X539228Y-197905D01*
X538170Y-200459D01*
X537809Y-203200D01*
X538170Y-205941D01*
X539228Y-208495D01*
X540911Y-210689D01*
X543105Y-212372D01*
X545659Y-213430D01*
X548400Y-213791D01*
X551141Y-213430D01*
X553695Y-212372D01*
X555889Y-210689D01*
X557572Y-208495D01*
X558630Y-205941D01*
X558991Y-203200D01*
X558630Y-200459D01*
X557572Y-197905D01*
X555889Y-195711D01*
X553695Y-194028D01*
X551459Y-193102D01*
Y-88400D01*
X551459Y-88400D01*
X551226Y-87229D01*
X550563Y-86237D01*
X550563Y-86237D01*
X547163Y-82837D01*
X546171Y-82174D01*
X545000Y-81941D01*
X545000Y-81941D01*
X208500D01*
Y-79500D01*
D02*
G37*
G36*
X257000Y-132392D02*
X254854Y-132819D01*
X253035Y-134035D01*
X251819Y-135854D01*
X251392Y-138000D01*
X251819Y-140146D01*
X253035Y-141965D01*
X254854Y-143181D01*
X257000Y-143608D01*
X259146Y-143181D01*
X260965Y-141965D01*
X261571Y-141059D01*
X518733D01*
X519941Y-142267D01*
Y-193102D01*
X517705Y-194028D01*
X515511Y-195711D01*
X513828Y-197905D01*
X512770Y-200459D01*
X512409Y-203200D01*
X512770Y-205941D01*
X513828Y-208495D01*
X515511Y-210689D01*
X517705Y-212372D01*
X520259Y-213430D01*
X523000Y-213791D01*
X525741Y-213430D01*
X528295Y-212372D01*
X530489Y-210689D01*
X532172Y-208495D01*
X533230Y-205941D01*
X533591Y-203200D01*
X533230Y-200459D01*
X532172Y-197905D01*
X530489Y-195711D01*
X528295Y-194028D01*
X526059Y-193102D01*
Y-141000D01*
X526059Y-141000D01*
X525826Y-139830D01*
X525163Y-138837D01*
X525163Y-138837D01*
X522163Y-135837D01*
X521171Y-135174D01*
X520000Y-134941D01*
X520000Y-134941D01*
X261571D01*
X260965Y-134035D01*
X259146Y-132819D01*
X257000Y-132392D01*
D02*
G37*
G36*
X495100Y-192434D02*
X494728Y-192483D01*
X492053Y-193591D01*
X489755Y-195355D01*
X487991Y-197652D01*
X486883Y-200328D01*
X486834Y-200700D01*
X495100D01*
Y-192434D01*
D02*
G37*
G36*
X241100D02*
X240728Y-192483D01*
X238053Y-193591D01*
X235755Y-195355D01*
X233992Y-197652D01*
X232883Y-200328D01*
X232834Y-200700D01*
X241100D01*
Y-192434D01*
D02*
G37*
G36*
X418900D02*
X418528Y-192483D01*
X415853Y-193591D01*
X413555Y-195355D01*
X411791Y-197652D01*
X410683Y-200328D01*
X410634Y-200700D01*
X418900D01*
Y-192434D01*
D02*
G37*
G36*
X438000Y1750D02*
X418000D01*
Y-500D01*
X418500D01*
Y-6000D01*
X418000D01*
Y-8250D01*
X438000D01*
Y-6000D01*
X437500D01*
Y-500D01*
X438000D01*
Y1750D01*
D02*
G37*
G36*
X331918Y182500D02*
X297500D01*
Y148082D01*
X300806Y148343D01*
X306469Y149702D01*
X311850Y151931D01*
X316815Y154974D01*
X321244Y158756D01*
X325026Y163185D01*
X328069Y168150D01*
X330298Y173531D01*
X331657Y179194D01*
X331918Y182500D01*
D02*
G37*
G36*
X292500D02*
X258082D01*
X258342Y179194D01*
X259702Y173531D01*
X261931Y168150D01*
X264974Y163185D01*
X268756Y158756D01*
X273185Y154974D01*
X278150Y151931D01*
X283531Y149702D01*
X289194Y148343D01*
X292500Y148082D01*
Y182500D01*
D02*
G37*
G36*
X30000Y181604D02*
X25785Y181189D01*
X21732Y179960D01*
X17997Y177963D01*
X14724Y175276D01*
X12037Y172003D01*
X10041Y168267D01*
X8811Y164215D01*
X8396Y160000D01*
X8811Y155785D01*
X10041Y151733D01*
X12037Y147998D01*
X14724Y144724D01*
X17997Y142037D01*
X21732Y140041D01*
X25785Y138811D01*
X30000Y138396D01*
X34215Y138811D01*
X38268Y140041D01*
X42003Y142037D01*
X45276Y144724D01*
X47963Y147998D01*
X49960Y151733D01*
X51189Y155785D01*
X51604Y160000D01*
X51189Y164215D01*
X49960Y168267D01*
X47963Y172003D01*
X45276Y175276D01*
X42003Y177963D01*
X38268Y179960D01*
X34215Y181189D01*
X30000Y181604D01*
D02*
G37*
G36*
X168500Y185500D02*
X153000D01*
Y174500D01*
X168500D01*
Y185500D01*
D02*
G37*
G36*
X187000Y171500D02*
X171500D01*
Y160500D01*
X187000D01*
Y171500D01*
D02*
G37*
G36*
X168500D02*
X153000D01*
Y160500D01*
X168500D01*
Y171500D01*
D02*
G37*
G36*
X215000Y140608D02*
X212854Y140181D01*
X211035Y138965D01*
X210429Y138059D01*
X208500D01*
Y140500D01*
X189500D01*
Y129500D01*
X208500D01*
Y131941D01*
X210429D01*
X211035Y131035D01*
X212854Y129819D01*
X215000Y129392D01*
X217146Y129819D01*
X218965Y131035D01*
X220181Y132854D01*
X220608Y135000D01*
X220181Y137146D01*
X218965Y138965D01*
X217146Y140181D01*
X215000Y140608D01*
D02*
G37*
G36*
X250500Y118500D02*
X236500D01*
Y105500D01*
X250500D01*
Y106865D01*
X251770Y107543D01*
X252854Y106819D01*
X255000Y106392D01*
X257146Y106819D01*
X258965Y108035D01*
X260181Y109854D01*
X260608Y112000D01*
X260181Y114146D01*
X258965Y115965D01*
X257146Y117181D01*
X255000Y117608D01*
X252854Y117181D01*
X251770Y116457D01*
X250500Y117135D01*
Y118500D01*
D02*
G37*
G36*
X497600Y213791D02*
X494859Y213430D01*
X492305Y212372D01*
X490111Y210689D01*
X488428Y208495D01*
X487370Y205941D01*
X487009Y203200D01*
X487370Y200459D01*
X488428Y197905D01*
X490111Y195711D01*
X492305Y194028D01*
X493941Y193350D01*
Y100571D01*
X493035Y99965D01*
X491819Y98146D01*
X491392Y96000D01*
X491819Y93854D01*
X493035Y92035D01*
X494854Y90819D01*
X497000Y90392D01*
X499146Y90819D01*
X500965Y92035D01*
X502181Y93854D01*
X502608Y96000D01*
X502181Y98146D01*
X500965Y99965D01*
X500059Y100571D01*
Y192933D01*
X500341Y192970D01*
X502895Y194028D01*
X505089Y195711D01*
X506772Y197905D01*
X507830Y200459D01*
X508191Y203200D01*
X507830Y205941D01*
X506772Y208495D01*
X505089Y210689D01*
X502895Y212372D01*
X500341Y213430D01*
X497600Y213791D01*
D02*
G37*
G36*
X472200D02*
X469459Y213430D01*
X466905Y212372D01*
X464711Y210689D01*
X463028Y208495D01*
X461970Y205941D01*
X461609Y203200D01*
X461970Y200459D01*
X463028Y197905D01*
X464711Y195711D01*
X466905Y194028D01*
X468941Y193185D01*
Y100571D01*
X468035Y99965D01*
X466819Y98146D01*
X466392Y96000D01*
X466819Y93854D01*
X468035Y92035D01*
X469854Y90819D01*
X472000Y90392D01*
X474146Y90819D01*
X475965Y92035D01*
X477181Y93854D01*
X477608Y96000D01*
X477181Y98146D01*
X475965Y99965D01*
X475059Y100571D01*
Y193019D01*
X477495Y194028D01*
X479689Y195711D01*
X481372Y197905D01*
X482430Y200459D01*
X482791Y203200D01*
X482430Y205941D01*
X481372Y208495D01*
X479689Y210689D01*
X477495Y212372D01*
X474941Y213430D01*
X472200Y213791D01*
D02*
G37*
G36*
X208500Y128000D02*
X189500D01*
Y125559D01*
X184237D01*
X183965Y125965D01*
X182146Y127181D01*
X180000Y127608D01*
X177854Y127181D01*
X176035Y125965D01*
X174819Y124146D01*
X174392Y122000D01*
X174819Y119854D01*
X176035Y118035D01*
X177854Y116819D01*
X180000Y116392D01*
X182146Y116819D01*
X183965Y118035D01*
X184905Y119441D01*
X189500D01*
Y117000D01*
X208500D01*
Y128000D01*
D02*
G37*
G36*
X233500Y118500D02*
X219500D01*
Y113059D01*
X208500D01*
Y115500D01*
X189500D01*
Y104500D01*
X208500D01*
Y106941D01*
X219500D01*
Y105500D01*
X233500D01*
Y118500D01*
D02*
G37*
G36*
X523000Y213791D02*
X520259Y213430D01*
X517705Y212372D01*
X515511Y210689D01*
X513828Y208495D01*
X512770Y205941D01*
X512409Y203200D01*
X512770Y200459D01*
X513828Y197905D01*
X515511Y195711D01*
X517705Y194028D01*
X519941Y193102D01*
Y116571D01*
X519035Y115965D01*
X517819Y114146D01*
X517392Y112000D01*
X517819Y109854D01*
X519035Y108035D01*
X520854Y106819D01*
X523000Y106392D01*
X525146Y106819D01*
X526965Y108035D01*
X528181Y109854D01*
X528608Y112000D01*
X528181Y114146D01*
X526965Y115965D01*
X526059Y116571D01*
Y193102D01*
X528295Y194028D01*
X530489Y195711D01*
X532172Y197905D01*
X533230Y200459D01*
X533591Y203200D01*
X533230Y205941D01*
X532172Y208495D01*
X530489Y210689D01*
X528295Y212372D01*
X525741Y213430D01*
X523000Y213791D01*
D02*
G37*
G36*
X548400D02*
X545659Y213430D01*
X543105Y212372D01*
X540911Y210689D01*
X539228Y208495D01*
X538170Y205941D01*
X537809Y203200D01*
X538170Y200459D01*
X539228Y197905D01*
X540911Y195711D01*
X543105Y194028D01*
X545659Y192970D01*
X548400Y192609D01*
X551141Y192970D01*
X553695Y194028D01*
X555889Y195711D01*
X557572Y197905D01*
X558630Y200459D01*
X558991Y203200D01*
X558630Y205941D01*
X557572Y208495D01*
X555889Y210689D01*
X553695Y212372D01*
X551141Y213430D01*
X548400Y213791D01*
D02*
G37*
G36*
X396000D02*
X393259Y213430D01*
X390705Y212372D01*
X388511Y210689D01*
X386828Y208495D01*
X385770Y205941D01*
X385409Y203200D01*
X385770Y200459D01*
X386828Y197905D01*
X388511Y195711D01*
X390705Y194028D01*
X393259Y192970D01*
X396000Y192609D01*
X398741Y192970D01*
X401295Y194028D01*
X403489Y195711D01*
X405172Y197905D01*
X406230Y200459D01*
X406591Y203200D01*
X406230Y205941D01*
X405172Y208495D01*
X403489Y210689D01*
X401295Y212372D01*
X398741Y213430D01*
X396000Y213791D01*
D02*
G37*
G36*
X370600D02*
X367859Y213430D01*
X365305Y212372D01*
X363111Y210689D01*
X361428Y208495D01*
X360370Y205941D01*
X360009Y203200D01*
X360370Y200459D01*
X361428Y197905D01*
X363111Y195711D01*
X365305Y194028D01*
X367859Y192970D01*
X370600Y192609D01*
X373341Y192970D01*
X375895Y194028D01*
X378089Y195711D01*
X379772Y197905D01*
X380830Y200459D01*
X381191Y203200D01*
X380830Y205941D01*
X379772Y208495D01*
X378089Y210689D01*
X375895Y212372D01*
X373341Y213430D01*
X370600Y213791D01*
D02*
G37*
G36*
X423900Y213966D02*
Y205700D01*
X432166D01*
X432117Y206072D01*
X431008Y208748D01*
X429245Y211045D01*
X426947Y212808D01*
X424272Y213917D01*
X423900Y213966D01*
D02*
G37*
G36*
X418900Y213966D02*
X418528Y213917D01*
X415853Y212808D01*
X413555Y211045D01*
X411791Y208748D01*
X410683Y206072D01*
X410634Y205700D01*
X418900D01*
Y213966D01*
D02*
G37*
G36*
X573800Y213791D02*
X571059Y213430D01*
X568505Y212372D01*
X566311Y210689D01*
X564628Y208495D01*
X563570Y205941D01*
X563209Y203200D01*
X563570Y200459D01*
X564628Y197905D01*
X566311Y195711D01*
X568505Y194028D01*
X571059Y192970D01*
X573800Y192609D01*
X576541Y192970D01*
X579095Y194028D01*
X581289Y195711D01*
X582972Y197905D01*
X584030Y200459D01*
X584391Y203200D01*
X584030Y205941D01*
X582972Y208495D01*
X581289Y210689D01*
X579095Y212372D01*
X576541Y213430D01*
X573800Y213791D01*
D02*
G37*
G36*
X345200D02*
X342459Y213430D01*
X339905Y212372D01*
X337711Y210689D01*
X336028Y208495D01*
X334970Y205941D01*
X334609Y203200D01*
X334970Y200459D01*
X336028Y197905D01*
X337711Y195711D01*
X339905Y194028D01*
X342459Y192970D01*
X345200Y192609D01*
X347941Y192970D01*
X350495Y194028D01*
X352689Y195711D01*
X354372Y197905D01*
X355430Y200459D01*
X355791Y203200D01*
X355430Y205941D01*
X354372Y208495D01*
X352689Y210689D01*
X350495Y212372D01*
X347941Y213430D01*
X345200Y213791D01*
D02*
G37*
G36*
X418900Y200700D02*
X410634D01*
X410683Y200328D01*
X411791Y197652D01*
X413555Y195355D01*
X415853Y193591D01*
X418528Y192483D01*
X418900Y192434D01*
Y200700D01*
D02*
G37*
G36*
X432166D02*
X423900D01*
Y192434D01*
X424272Y192483D01*
X426947Y193591D01*
X429245Y195355D01*
X431008Y197652D01*
X432117Y200328D01*
X432166Y200700D01*
D02*
G37*
G36*
X187000Y185500D02*
X171500D01*
Y174500D01*
X187000D01*
Y185500D01*
D02*
G37*
G36*
X243600Y213791D02*
X240859Y213430D01*
X238305Y212372D01*
X236111Y210689D01*
X234428Y208495D01*
X233370Y205941D01*
X233009Y203200D01*
X233370Y200459D01*
X234428Y197905D01*
X236111Y195711D01*
X238305Y194028D01*
X240859Y192970D01*
X243600Y192609D01*
X246341Y192970D01*
X248895Y194028D01*
X251089Y195711D01*
X252772Y197905D01*
X253830Y200459D01*
X254191Y203200D01*
X253830Y205941D01*
X252772Y208495D01*
X251089Y210689D01*
X248895Y212372D01*
X246341Y213430D01*
X243600Y213791D01*
D02*
G37*
G36*
X218200D02*
X215459Y213430D01*
X212905Y212372D01*
X210711Y210689D01*
X209028Y208495D01*
X207970Y205941D01*
X207609Y203200D01*
X207970Y200459D01*
X209028Y197905D01*
X210711Y195711D01*
X212905Y194028D01*
X215459Y192970D01*
X218200Y192609D01*
X220941Y192970D01*
X223495Y194028D01*
X225689Y195711D01*
X227372Y197905D01*
X228430Y200459D01*
X228791Y203200D01*
X228430Y205941D01*
X227372Y208495D01*
X225689Y210689D01*
X223495Y212372D01*
X220941Y213430D01*
X218200Y213791D01*
D02*
G37*
G36*
X192800D02*
X190059Y213430D01*
X187505Y212372D01*
X185311Y210689D01*
X183628Y208495D01*
X182570Y205941D01*
X182209Y203200D01*
X182570Y200459D01*
X183628Y197905D01*
X185311Y195711D01*
X187505Y194028D01*
X190059Y192970D01*
X192800Y192609D01*
X195541Y192970D01*
X198095Y194028D01*
X200289Y195711D01*
X201972Y197905D01*
X203030Y200459D01*
X203391Y203200D01*
X203030Y205941D01*
X201972Y208495D01*
X200289Y210689D01*
X198095Y212372D01*
X195541Y213430D01*
X192800Y213791D01*
D02*
G37*
G36*
X187000Y45500D02*
X171500D01*
Y34500D01*
X187000D01*
Y45500D01*
D02*
G37*
G36*
X168500D02*
X153000D01*
Y34500D01*
X168500D01*
Y45500D01*
D02*
G37*
G36*
X428500Y46500D02*
X415500D01*
Y32500D01*
X415644D01*
X416637Y31230D01*
X416392Y30000D01*
X416819Y27854D01*
X418035Y26035D01*
X418500Y25724D01*
Y20000D01*
X418000D01*
Y17750D01*
X438000D01*
Y20000D01*
X437500D01*
Y26000D01*
X427469D01*
X426791Y27270D01*
X427181Y27854D01*
X427608Y30000D01*
X427363Y31230D01*
X428355Y32500D01*
X428500D01*
Y46500D01*
D02*
G37*
G36*
X187000Y59500D02*
X171500D01*
Y48500D01*
X187000D01*
Y59500D01*
D02*
G37*
G36*
X168500D02*
X153000D01*
Y48500D01*
X168500D01*
Y59500D01*
D02*
G37*
G36*
X30000Y81604D02*
X25785Y81189D01*
X21732Y79960D01*
X17997Y77963D01*
X14724Y75276D01*
X12037Y72003D01*
X10041Y68267D01*
X8811Y64215D01*
X8396Y60000D01*
X8811Y55785D01*
X10041Y51733D01*
X12037Y47997D01*
X14724Y44724D01*
X17997Y42037D01*
X21732Y40040D01*
X25785Y38811D01*
X30000Y38396D01*
X34215Y38811D01*
X38268Y40040D01*
X42003Y42037D01*
X45276Y44724D01*
X47963Y47997D01*
X49960Y51733D01*
X51189Y55785D01*
X51604Y60000D01*
X51189Y64215D01*
X49960Y68267D01*
X47963Y72003D01*
X45276Y75276D01*
X42003Y77963D01*
X38268Y79960D01*
X34215Y81189D01*
X30000Y81604D01*
D02*
G37*
G36*
X438000Y14750D02*
X418000D01*
Y12500D01*
Y11250D01*
X438000D01*
Y12500D01*
Y14750D01*
D02*
G37*
G36*
X47500Y36918D02*
X44194Y36658D01*
X38531Y35298D01*
X33150Y33069D01*
X28185Y30026D01*
X23756Y26244D01*
X19974Y21815D01*
X16931Y16850D01*
X14702Y11469D01*
X13342Y5806D01*
X13082Y2500D01*
X47500D01*
Y36918D01*
D02*
G37*
G36*
X602500Y36918D02*
Y2500D01*
X636918D01*
X636657Y5806D01*
X635298Y11469D01*
X633069Y16850D01*
X630026Y21815D01*
X626244Y26244D01*
X621815Y30026D01*
X616850Y33069D01*
X611469Y35298D01*
X605806Y36658D01*
X602500Y36918D01*
D02*
G37*
G36*
X597500Y36918D02*
X594194Y36658D01*
X588531Y35298D01*
X583150Y33069D01*
X578185Y30026D01*
X573756Y26244D01*
X569974Y21815D01*
X566931Y16850D01*
X564702Y11469D01*
X563343Y5806D01*
X563082Y2500D01*
X597500D01*
Y36918D01*
D02*
G37*
G36*
X208500Y153000D02*
X189500D01*
Y142000D01*
X208500D01*
Y144441D01*
X266233D01*
X266941Y143733D01*
Y20000D01*
X266941Y20000D01*
X267174Y18829D01*
X267837Y17837D01*
X271587Y14087D01*
X272158Y13706D01*
X272178Y13653D01*
X272178Y12347D01*
X272158Y12294D01*
X271587Y11913D01*
X271587Y11913D01*
X267837Y8163D01*
X267174Y7171D01*
X266941Y6000D01*
X266941Y6000D01*
Y-67733D01*
X265233Y-69441D01*
X208500D01*
Y-67000D01*
X189500D01*
Y-78000D01*
X208500D01*
Y-75559D01*
X266500D01*
X266500Y-75559D01*
X267670Y-75326D01*
X268663Y-74663D01*
X272163Y-71163D01*
X272163Y-71163D01*
X272826Y-70170D01*
X273059Y-69000D01*
X273059Y-69000D01*
Y4733D01*
X275017Y6691D01*
X361309D01*
X362500Y6500D01*
X362500Y5230D01*
Y500D01*
X362000D01*
Y-1750D01*
X382000D01*
Y191D01*
X384235D01*
X384392Y-0D01*
X384819Y-2146D01*
X386035Y-3965D01*
X387854Y-5181D01*
X390000Y-5608D01*
X392146Y-5181D01*
X393965Y-3965D01*
X395181Y-2146D01*
X395608Y0D01*
X395181Y2146D01*
X393965Y3965D01*
X392146Y5181D01*
X390938Y5421D01*
X391063Y6691D01*
X404750D01*
X404750Y6691D01*
X405920Y6924D01*
X406913Y7587D01*
X409163Y9837D01*
X409163Y9837D01*
X409826Y10829D01*
X410059Y12000D01*
X410059Y12000D01*
Y32500D01*
X413500D01*
Y46500D01*
X400500D01*
Y32500D01*
X403941D01*
Y13267D01*
X403483Y12809D01*
X391786D01*
X391400Y14079D01*
X391413Y14087D01*
X394163Y16837D01*
X394826Y17830D01*
X395059Y19000D01*
Y32500D01*
X398500D01*
Y46500D01*
X385500D01*
Y32500D01*
X388941D01*
Y20267D01*
X387983Y19309D01*
X381678D01*
X381657Y19330D01*
X381481Y19592D01*
X381243Y20770D01*
X381362Y20948D01*
X381547Y21875D01*
Y23625D01*
X381362Y24552D01*
X380837Y25337D01*
X380052Y25862D01*
X380036Y25886D01*
X380059Y26000D01*
X380059Y26000D01*
Y32500D01*
X383500D01*
Y46500D01*
X370500D01*
Y46135D01*
X369230Y45457D01*
X368146Y46181D01*
X366000Y46608D01*
X363854Y46181D01*
X362035Y44965D01*
X360819Y43146D01*
X360392Y41000D01*
X360819Y38854D01*
X362035Y37035D01*
X363854Y35819D01*
X366000Y35392D01*
X368146Y35819D01*
X369230Y36543D01*
X370500Y35865D01*
Y32500D01*
X373941D01*
Y27267D01*
X372721Y26047D01*
X364875D01*
X363948Y25862D01*
X363163Y25337D01*
X362638Y24552D01*
X362453Y23625D01*
Y21875D01*
X362638Y20948D01*
X362757Y20770D01*
X362519Y19592D01*
X362343Y19330D01*
X362322Y19309D01*
X275017D01*
X273059Y21267D01*
Y145000D01*
X273059Y145000D01*
X272826Y146171D01*
X272163Y147163D01*
X269663Y149663D01*
X268671Y150326D01*
X267500Y150559D01*
X267500Y150559D01*
X208500D01*
Y153000D01*
D02*
G37*
G36*
X438000Y8250D02*
X418000D01*
Y6000D01*
Y4750D01*
X438000D01*
Y6000D01*
Y8250D01*
D02*
G37*
G36*
X52500Y36918D02*
Y2500D01*
X86918D01*
X86657Y5806D01*
X85298Y11469D01*
X83069Y16850D01*
X80026Y21815D01*
X76244Y26244D01*
X71815Y30026D01*
X66850Y33069D01*
X61469Y35298D01*
X55806Y36658D01*
X52500Y36918D01*
D02*
G37*
G36*
X251000Y77000D02*
X245000D01*
Y71500D01*
X251000D01*
Y77000D01*
D02*
G37*
G36*
X242000D02*
X236000D01*
Y71500D01*
X242000D01*
Y77000D01*
D02*
G37*
G36*
X209000Y83500D02*
X199000D01*
X189000D01*
Y79063D01*
X189000Y79000D01*
X189500Y77937D01*
X189500Y77730D01*
Y67000D01*
X198790D01*
X199939Y66232D01*
X201500Y65922D01*
X201500Y65922D01*
X211204D01*
X212854Y64819D01*
X215000Y64392D01*
X217146Y64819D01*
X218230Y65543D01*
X219500Y64865D01*
Y63500D01*
X233500D01*
Y76500D01*
X219500D01*
Y75135D01*
X218230Y74457D01*
X217146Y75181D01*
X215000Y75608D01*
X212854Y75181D01*
X211204Y74078D01*
X208500D01*
Y77730D01*
X208500Y77937D01*
X209000Y79000D01*
X209000Y79063D01*
Y83500D01*
D02*
G37*
G36*
X250500Y102500D02*
X236500D01*
Y89500D01*
X250500D01*
Y90865D01*
X251770Y91544D01*
X252854Y90819D01*
X255000Y90392D01*
X257146Y90819D01*
X258965Y92035D01*
X260181Y93854D01*
X260608Y96000D01*
X260181Y98146D01*
X258965Y99965D01*
X257146Y101181D01*
X255000Y101608D01*
X252854Y101181D01*
X251770Y100457D01*
X250500Y101135D01*
Y102500D01*
D02*
G37*
G36*
X208500Y103000D02*
X189500D01*
Y92270D01*
X189500Y92063D01*
X189000Y91000D01*
X189000Y90937D01*
Y86500D01*
X199000D01*
X209000D01*
Y90937D01*
X209000Y91000D01*
X208500Y92063D01*
X208500Y92270D01*
Y94441D01*
X219500D01*
Y89500D01*
X233500D01*
Y102500D01*
X219500D01*
Y100559D01*
X208500D01*
Y103000D01*
D02*
G37*
G36*
X446800Y213791D02*
X444059Y213430D01*
X441505Y212372D01*
X439311Y210689D01*
X437628Y208495D01*
X436570Y205941D01*
X436209Y203200D01*
X436570Y200459D01*
X437628Y197905D01*
X439311Y195711D01*
X441505Y194028D01*
X443741Y193102D01*
Y84437D01*
X443035Y83965D01*
X441819Y82146D01*
X441392Y80000D01*
X441819Y77854D01*
X443035Y76035D01*
X444854Y74819D01*
X447000Y74392D01*
X449146Y74819D01*
X450965Y76035D01*
X452181Y77854D01*
X452608Y80000D01*
X452181Y82146D01*
X450965Y83965D01*
X449859Y84705D01*
Y193102D01*
X452095Y194028D01*
X454289Y195711D01*
X455972Y197905D01*
X457030Y200459D01*
X457391Y203200D01*
X457030Y205941D01*
X455972Y208495D01*
X454289Y210689D01*
X452095Y212372D01*
X449541Y213430D01*
X446800Y213791D01*
D02*
G37*
G36*
X251000Y68500D02*
X245000D01*
Y63000D01*
X251000D01*
Y68500D01*
D02*
G37*
G36*
X420500Y64000D02*
X415000D01*
Y58000D01*
X420500D01*
Y64000D01*
D02*
G37*
G36*
X429000Y55000D02*
X423500D01*
Y49000D01*
X429000D01*
Y55000D01*
D02*
G37*
G36*
X420500D02*
X415000D01*
Y49000D01*
X420500D01*
Y55000D01*
D02*
G37*
G36*
X242000Y68500D02*
X236000D01*
Y63000D01*
X242000D01*
Y68500D01*
D02*
G37*
G36*
X407000Y73608D02*
X404854Y73181D01*
X403035Y71965D01*
X401819Y70146D01*
X401392Y68000D01*
X401819Y65854D01*
X402543Y64770D01*
X401865Y63500D01*
X400500D01*
Y60078D01*
X398500D01*
Y63500D01*
X385500D01*
Y60078D01*
X383500D01*
Y63500D01*
X370500D01*
Y60078D01*
X358796D01*
X357146Y61181D01*
X355000Y61608D01*
X352854Y61181D01*
X351035Y59965D01*
X349819Y58146D01*
X349392Y56000D01*
X349819Y53854D01*
X351035Y52035D01*
X352854Y50819D01*
X355000Y50392D01*
X357146Y50819D01*
X358796Y51922D01*
X370500D01*
Y49500D01*
X383500D01*
Y51922D01*
X385500D01*
Y49500D01*
X398500D01*
Y51922D01*
X400500D01*
Y49500D01*
X413500D01*
Y63500D01*
X412135D01*
X411457Y64770D01*
X412181Y65854D01*
X412608Y68000D01*
X412181Y70146D01*
X410965Y71965D01*
X409146Y73181D01*
X407000Y73608D01*
D02*
G37*
G36*
X429000Y64000D02*
X423500D01*
Y58000D01*
X429000D01*
Y64000D01*
D02*
G37*
%LPD*%
D10*
X243500Y96000D02*
D03*
X226500D02*
D03*
X243500Y-125000D02*
D03*
X226500D02*
D03*
X243500Y112000D02*
D03*
X226500D02*
D03*
X243500Y-110000D02*
D03*
X226500D02*
D03*
Y70000D02*
D03*
X243500D02*
D03*
X226500Y-149000D02*
D03*
X243500D02*
D03*
X243500Y-95000D02*
D03*
X226500D02*
D03*
D11*
X422000Y39500D02*
D03*
Y56500D02*
D03*
X407000Y39500D02*
D03*
Y56500D02*
D03*
X392000Y39500D02*
D03*
Y56500D02*
D03*
X377000D02*
D03*
Y39500D02*
D03*
D12*
X199000Y110000D02*
D03*
Y97500D02*
D03*
Y85000D02*
D03*
Y147500D02*
D03*
Y135000D02*
D03*
Y122500D02*
D03*
Y72500D02*
D03*
Y-110000D02*
D03*
Y-122500D02*
D03*
Y-135000D02*
D03*
Y-72500D02*
D03*
Y-85000D02*
D03*
Y-97500D02*
D03*
Y-147500D02*
D03*
D13*
X170000Y173000D02*
D03*
Y47000D02*
D03*
Y-47000D02*
D03*
Y-173000D02*
D03*
D14*
X372000Y22750D02*
D03*
D15*
Y16250D02*
D03*
Y9750D02*
D03*
Y3250D02*
D03*
Y-3250D02*
D03*
Y-9750D02*
D03*
Y-16250D02*
D03*
Y-22750D02*
D03*
X428000Y22750D02*
D03*
Y16250D02*
D03*
Y9750D02*
D03*
Y3250D02*
D03*
Y-3250D02*
D03*
Y-9750D02*
D03*
Y-16250D02*
D03*
Y-22750D02*
D03*
D16*
X270000Y20000D02*
Y145000D01*
X267500Y147500D02*
X270000Y145000D01*
X199000Y147500D02*
X267500D01*
X270000Y-69000D02*
Y6000D01*
X266500Y-72500D02*
X270000Y-69000D01*
X199000Y-72500D02*
X266500D01*
X273750Y9750D02*
X372000D01*
X270000Y6000D02*
X273750Y9750D01*
X273750Y16250D02*
X372000D01*
X270000Y20000D02*
X273750Y16250D01*
X257000Y-138000D02*
X520000D01*
X243500Y-95000D02*
X300000D01*
X573800Y-203200D02*
Y-89200D01*
X199000Y135000D02*
X215000D01*
X446800Y80200D02*
X447000Y80000D01*
X446800Y80200D02*
Y203200D01*
X472000Y203000D02*
X472200Y203200D01*
X472000Y96000D02*
Y203000D01*
X497000Y202600D02*
X497600Y203200D01*
X497000Y96000D02*
Y202600D01*
X523000Y112000D02*
Y203200D01*
X520000Y-138000D02*
X523000Y-141000D01*
Y-203200D02*
Y-141000D01*
X199000Y-97500D02*
X224000D01*
X545000Y-85000D02*
X548400Y-88400D01*
Y-203200D02*
Y-88400D01*
X199000Y-85000D02*
X545000D01*
X180000Y-98000D02*
X180500Y-97500D01*
X180000Y122000D02*
X180500Y122500D01*
X199000D01*
X180500Y-97500D02*
X199000D01*
X243500Y96000D02*
X255000D01*
X243500Y112000D02*
X255000D01*
X224500Y110000D02*
X226500Y112000D01*
X199000Y110000D02*
X224500D01*
X225000Y97500D02*
X226500Y96000D01*
X199000Y97500D02*
X225000D01*
X243500Y-125000D02*
X255000D01*
X243500Y-110000D02*
X255000D01*
X224000Y-97500D02*
X226500Y-95000D01*
X199000Y-110000D02*
X226500D01*
X224000Y-122500D02*
X226500Y-125000D01*
X199000Y-122500D02*
X224000D01*
X372000Y9750D02*
X404750D01*
X372000Y16250D02*
X389250D01*
X422000Y30000D02*
Y39500D01*
Y26000D02*
Y30000D01*
X366000Y41000D02*
X375500D01*
X407000Y12000D02*
Y39500D01*
X404750Y9750D02*
X407000Y12000D01*
X392000Y19000D02*
Y39000D01*
X389250Y16250D02*
X392000Y19000D01*
X371000Y22750D02*
X373750D01*
X377000Y26000D01*
Y39500D01*
X422000Y26000D02*
X425250Y22750D01*
X428000D01*
X386750Y3250D02*
X390000Y0D01*
X372000Y3250D02*
X386750D01*
D17*
X355000Y56000D02*
X406500D01*
X407000Y56500D02*
Y68000D01*
X215000Y-164000D02*
Y-149000D01*
X192800Y-186200D02*
X215000Y-164000D01*
X192800Y-203200D02*
Y-186200D01*
X199000Y-147500D02*
X200500Y-149000D01*
X215000D01*
X226500D01*
X199000Y72500D02*
X201500Y70000D01*
X215000D01*
X226500D01*
D18*
X50000Y0D02*
D03*
X600000D02*
D03*
X295000Y185000D02*
D03*
Y-185000D02*
D03*
D19*
X30000Y-60000D02*
D03*
Y-160000D02*
D03*
Y60000D02*
D03*
Y160000D02*
D03*
D20*
X497600Y203200D02*
D03*
X573800Y-203200D02*
D03*
X396000Y203200D02*
D03*
X345200Y-203200D02*
D03*
X548400D02*
D03*
X421400D02*
D03*
X523000D02*
D03*
X497600D02*
D03*
X472200D02*
D03*
X446800D02*
D03*
X396000D02*
D03*
X370600D02*
D03*
X243600D02*
D03*
X218200D02*
D03*
X192800D02*
D03*
Y203200D02*
D03*
X218200D02*
D03*
X243600D02*
D03*
X421400D02*
D03*
X446800D02*
D03*
X472200D02*
D03*
X523000D02*
D03*
X548400D02*
D03*
X573800D02*
D03*
X345200D02*
D03*
X370600D02*
D03*
D21*
X257000Y-138000D02*
D03*
X198000Y-163000D02*
D03*
X230000Y-162000D02*
D03*
X355000Y56000D02*
D03*
X327000Y-130000D02*
D03*
X180000Y-125000D02*
D03*
Y147000D02*
D03*
X215000Y157000D02*
D03*
Y123000D02*
D03*
X515000Y-150000D02*
D03*
X582000D02*
D03*
X561000D02*
D03*
X535000D02*
D03*
X541000Y126000D02*
D03*
X558000Y143000D02*
D03*
X460000Y-10000D02*
D03*
Y10000D02*
D03*
X400000Y-15000D02*
D03*
X327000Y0D02*
D03*
Y25000D02*
D03*
Y-95000D02*
D03*
Y-76000D02*
D03*
X300000Y-95000D02*
D03*
X460000Y144000D02*
D03*
X327000D02*
D03*
X573800Y-89200D02*
D03*
X327000Y65000D02*
D03*
X215000Y135000D02*
D03*
X460000Y88000D02*
D03*
Y104000D02*
D03*
Y123000D02*
D03*
X327000D02*
D03*
X392000Y70000D02*
D03*
X327000Y88000D02*
D03*
X447000Y80000D02*
D03*
X497000Y96000D02*
D03*
X327000Y104000D02*
D03*
X472000Y96000D02*
D03*
X523000Y112000D02*
D03*
X266000Y-110000D02*
D03*
X290000Y-60000D02*
D03*
X280000Y104000D02*
D03*
X290000Y25000D02*
D03*
Y0D02*
D03*
X190000Y-60000D02*
D03*
X210000D02*
D03*
X235000D02*
D03*
X255000D02*
D03*
X170000Y70000D02*
D03*
Y0D02*
D03*
X190000D02*
D03*
X210000D02*
D03*
X235000D02*
D03*
X255000D02*
D03*
X190000Y55000D02*
D03*
X210000D02*
D03*
X235000D02*
D03*
X255000D02*
D03*
X180000Y-98000D02*
D03*
X214000D02*
D03*
X180000Y122000D02*
D03*
X255000Y-125000D02*
D03*
Y-110000D02*
D03*
Y96000D02*
D03*
Y112000D02*
D03*
X215000Y-135000D02*
D03*
Y85000D02*
D03*
X366000Y41000D02*
D03*
X407000Y68000D02*
D03*
X422000Y30000D02*
D03*
X390000Y0D02*
D03*
X215000Y-149000D02*
D03*
Y70000D02*
D03*
X434000Y57000D02*
D03*
M02*
