G04 Layer_Physical_Order=2*
G04 Layer_Color=16711680*
%FSLAX44Y44*%
%MOMM*%
G71*
G01*
G75*
%ADD16C,0.3000*%
%ADD17C,0.5000*%
%ADD18C,7.0000*%
%ADD19C,4.0000*%
%ADD20C,1.8000*%
%ADD21C,0.8000*%
G36*
X629386Y217049D02*
X633603Y215770D01*
X637490Y213692D01*
X640897Y210897D01*
X643692Y207490D01*
X645770Y203603D01*
X647049Y199386D01*
X647471Y195102D01*
X647451Y195000D01*
Y-195000D01*
X647471Y-195102D01*
X647049Y-199386D01*
X645770Y-203603D01*
X643692Y-207490D01*
X640897Y-210897D01*
X637490Y-213692D01*
X633603Y-215770D01*
X629386Y-217049D01*
X625102Y-217471D01*
X625000Y-217451D01*
X315198D01*
X314853Y-216229D01*
X316815Y-215026D01*
X321244Y-211244D01*
X325026Y-206815D01*
X328069Y-201850D01*
X330298Y-196469D01*
X331657Y-190806D01*
X331918Y-187500D01*
X295000D01*
X258082D01*
X258342Y-190806D01*
X259702Y-196469D01*
X261931Y-201850D01*
X264974Y-206815D01*
X268756Y-211244D01*
X273185Y-215026D01*
X275147Y-216229D01*
X274802Y-217451D01*
X25000D01*
X24898Y-217471D01*
X20614Y-217049D01*
X16397Y-215770D01*
X12510Y-213692D01*
X9103Y-210897D01*
X6308Y-207490D01*
X4230Y-203603D01*
X2951Y-199386D01*
X2529Y-195102D01*
X2549Y-195000D01*
Y195000D01*
X2529Y195102D01*
X2951Y199386D01*
X4230Y203603D01*
X6308Y207490D01*
X9103Y210897D01*
X12510Y213692D01*
X16397Y215770D01*
X20614Y217049D01*
X24898Y217471D01*
X25000Y217451D01*
X274802D01*
X275147Y216229D01*
X273185Y215026D01*
X268756Y211244D01*
X264974Y206815D01*
X261931Y201850D01*
X259702Y196469D01*
X258342Y190806D01*
X258082Y187500D01*
X295000D01*
X331918D01*
X331657Y190806D01*
X330298Y196469D01*
X328069Y201850D01*
X325026Y206815D01*
X321244Y211244D01*
X316815Y215026D01*
X314853Y216229D01*
X315198Y217451D01*
X625000D01*
X625102Y217471D01*
X629386Y217049D01*
D02*
G37*
%LPC*%
G36*
X246100Y-192434D02*
Y-200700D01*
X254366D01*
X254317Y-200328D01*
X253209Y-197652D01*
X251445Y-195355D01*
X249147Y-193591D01*
X246472Y-192483D01*
X246100Y-192434D01*
D02*
G37*
G36*
X292500Y-148082D02*
X289194Y-148343D01*
X283531Y-149702D01*
X278150Y-151931D01*
X273185Y-154974D01*
X268756Y-158756D01*
X264974Y-163185D01*
X261931Y-168150D01*
X259702Y-173531D01*
X258342Y-179194D01*
X258082Y-182500D01*
X292500D01*
Y-148082D01*
D02*
G37*
G36*
X297500Y-148082D02*
Y-182500D01*
X331918D01*
X331657Y-179194D01*
X330298Y-173531D01*
X328069Y-168150D01*
X325026Y-163185D01*
X321244Y-158756D01*
X316815Y-154974D01*
X311850Y-151931D01*
X306469Y-149702D01*
X300806Y-148343D01*
X297500Y-148082D01*
D02*
G37*
G36*
X500100Y-192434D02*
Y-200700D01*
X508366D01*
X508317Y-200328D01*
X507209Y-197652D01*
X505445Y-195355D01*
X503147Y-193591D01*
X500472Y-192483D01*
X500100Y-192434D01*
D02*
G37*
G36*
X241100Y-192434D02*
X240728Y-192483D01*
X238053Y-193591D01*
X235755Y-195355D01*
X233992Y-197652D01*
X232883Y-200328D01*
X232834Y-200700D01*
X241100D01*
Y-192434D01*
D02*
G37*
G36*
X495100D02*
X494728Y-192483D01*
X492053Y-193591D01*
X489755Y-195355D01*
X487991Y-197652D01*
X486883Y-200328D01*
X486834Y-200700D01*
X495100D01*
Y-192434D01*
D02*
G37*
G36*
X423900Y-192434D02*
Y-200700D01*
X432166D01*
X432117Y-200328D01*
X431008Y-197652D01*
X429245Y-195355D01*
X426947Y-193591D01*
X424272Y-192483D01*
X423900Y-192434D01*
D02*
G37*
G36*
X597500Y-2500D02*
X563082D01*
X563343Y-5806D01*
X564702Y-11469D01*
X566931Y-16850D01*
X569974Y-21815D01*
X573756Y-26244D01*
X578185Y-30026D01*
X583150Y-33069D01*
X588531Y-35298D01*
X594194Y-36658D01*
X597500Y-36918D01*
Y-2500D01*
D02*
G37*
G36*
X30000Y-38396D02*
X25785Y-38811D01*
X21732Y-40040D01*
X17997Y-42037D01*
X14724Y-44724D01*
X12037Y-47997D01*
X10041Y-51733D01*
X8811Y-55785D01*
X8396Y-60000D01*
X8811Y-64215D01*
X10041Y-68267D01*
X12037Y-72003D01*
X14724Y-75276D01*
X17997Y-77963D01*
X21732Y-79960D01*
X25785Y-81189D01*
X30000Y-81604D01*
X34215Y-81189D01*
X38268Y-79960D01*
X42003Y-77963D01*
X45276Y-75276D01*
X47963Y-72003D01*
X49960Y-68267D01*
X51189Y-64215D01*
X51604Y-60000D01*
X51189Y-55785D01*
X49960Y-51733D01*
X47963Y-47997D01*
X45276Y-44724D01*
X42003Y-42037D01*
X38268Y-40040D01*
X34215Y-38811D01*
X30000Y-38396D01*
D02*
G37*
G36*
X86918Y-2500D02*
X52500D01*
Y-36918D01*
X55806Y-36658D01*
X61469Y-35298D01*
X66850Y-33069D01*
X71815Y-30026D01*
X76244Y-26244D01*
X80026Y-21815D01*
X83069Y-16850D01*
X85298Y-11469D01*
X86657Y-5806D01*
X86918Y-2500D01*
D02*
G37*
G36*
X47500D02*
X13082D01*
X13342Y-5806D01*
X14702Y-11469D01*
X16931Y-16850D01*
X19974Y-21815D01*
X23756Y-26244D01*
X28185Y-30026D01*
X33150Y-33069D01*
X38531Y-35298D01*
X44194Y-36658D01*
X47500Y-36918D01*
Y-2500D01*
D02*
G37*
G36*
X214000Y-92392D02*
X211854Y-92819D01*
X210035Y-94035D01*
X208819Y-95854D01*
X208392Y-98000D01*
X208819Y-100146D01*
X210035Y-101965D01*
X211854Y-103181D01*
X214000Y-103608D01*
X216146Y-103181D01*
X217965Y-101965D01*
X218571Y-101059D01*
X220733D01*
X221941Y-102267D01*
Y-134000D01*
X221941Y-134000D01*
X222174Y-135170D01*
X222837Y-136163D01*
X226837Y-140163D01*
X226837Y-140163D01*
X227829Y-140826D01*
X229000Y-141059D01*
X252429D01*
X253035Y-141965D01*
X254854Y-143181D01*
X257000Y-143608D01*
X259146Y-143181D01*
X260965Y-141965D01*
X262181Y-140146D01*
X262608Y-138000D01*
X262181Y-135854D01*
X260965Y-134035D01*
X259146Y-132819D01*
X257000Y-132392D01*
X254854Y-132819D01*
X253035Y-134035D01*
X252429Y-134941D01*
X230267D01*
X228059Y-132733D01*
Y-101000D01*
X227826Y-99830D01*
X227163Y-98837D01*
X224163Y-95837D01*
X223171Y-95174D01*
X222000Y-94941D01*
X222000Y-94941D01*
X218571D01*
X217965Y-94035D01*
X216146Y-92819D01*
X214000Y-92392D01*
D02*
G37*
G36*
X30000Y-138396D02*
X25785Y-138811D01*
X21732Y-140041D01*
X17997Y-142037D01*
X14724Y-144724D01*
X12037Y-147998D01*
X10041Y-151733D01*
X8811Y-155785D01*
X8396Y-160000D01*
X8811Y-164215D01*
X10041Y-168267D01*
X12037Y-172003D01*
X14724Y-175276D01*
X17997Y-177963D01*
X21732Y-179960D01*
X25785Y-181189D01*
X30000Y-181604D01*
X34215Y-181189D01*
X38268Y-179960D01*
X42003Y-177963D01*
X45276Y-175276D01*
X47963Y-172003D01*
X49960Y-168267D01*
X51189Y-164215D01*
X51604Y-160000D01*
X51189Y-155785D01*
X49960Y-151733D01*
X47963Y-147998D01*
X45276Y-144724D01*
X42003Y-142037D01*
X38268Y-140041D01*
X34215Y-138811D01*
X30000Y-138396D01*
D02*
G37*
G36*
X215000Y140608D02*
X212854Y140181D01*
X211035Y138965D01*
X209819Y137146D01*
X209392Y135000D01*
X209819Y132854D01*
X211035Y131035D01*
X212854Y129819D01*
X215000Y129392D01*
X217146Y129819D01*
X218965Y131035D01*
X219571Y131941D01*
X545733D01*
X546941Y130733D01*
Y-65000D01*
X546941Y-65000D01*
X547174Y-66171D01*
X547837Y-67163D01*
X568471Y-87797D01*
X568192Y-89200D01*
X568619Y-91346D01*
X569835Y-93165D01*
X571654Y-94381D01*
X573800Y-94808D01*
X575946Y-94381D01*
X577765Y-93165D01*
X578981Y-91346D01*
X579408Y-89200D01*
X578981Y-87054D01*
X577765Y-85235D01*
X575946Y-84019D01*
X573800Y-83592D01*
X573064Y-83739D01*
X553059Y-63733D01*
Y132000D01*
X552826Y133170D01*
X552163Y134163D01*
X549163Y137163D01*
X548171Y137826D01*
X547000Y138059D01*
X547000Y138059D01*
X219571D01*
X218965Y138965D01*
X217146Y140181D01*
X215000Y140608D01*
D02*
G37*
G36*
X180000Y127608D02*
X177854Y127181D01*
X176035Y125965D01*
X174819Y124146D01*
X174392Y122000D01*
X174819Y119854D01*
X176035Y118035D01*
X176941Y117429D01*
Y-93429D01*
X176035Y-94035D01*
X174819Y-95854D01*
X174392Y-98000D01*
X174819Y-100146D01*
X176035Y-101965D01*
X177854Y-103181D01*
X180000Y-103608D01*
X182146Y-103181D01*
X183965Y-101965D01*
X185181Y-100146D01*
X185608Y-98000D01*
X185181Y-95854D01*
X183965Y-94035D01*
X183059Y-93429D01*
Y117429D01*
X183965Y118035D01*
X185181Y119854D01*
X185608Y122000D01*
X185181Y124146D01*
X183965Y125965D01*
X182146Y127181D01*
X180000Y127608D01*
D02*
G37*
G36*
X495100Y-205700D02*
X486834D01*
X486883Y-206072D01*
X487991Y-208748D01*
X489755Y-211045D01*
X492053Y-212808D01*
X494728Y-213917D01*
X495100Y-213966D01*
Y-205700D01*
D02*
G37*
G36*
X418900D02*
X410634D01*
X410683Y-206072D01*
X411791Y-208748D01*
X413555Y-211045D01*
X415853Y-212808D01*
X418528Y-213917D01*
X418900Y-213966D01*
Y-205700D01*
D02*
G37*
G36*
X345200Y-192609D02*
X342459Y-192970D01*
X339905Y-194028D01*
X337711Y-195711D01*
X336028Y-197905D01*
X334970Y-200459D01*
X334609Y-203200D01*
X334970Y-205941D01*
X336028Y-208495D01*
X337711Y-210689D01*
X339905Y-212372D01*
X342459Y-213430D01*
X345200Y-213791D01*
X347941Y-213430D01*
X350495Y-212372D01*
X352689Y-210689D01*
X354372Y-208495D01*
X355430Y-205941D01*
X355791Y-203200D01*
X355430Y-200459D01*
X354372Y-197905D01*
X352689Y-195711D01*
X350495Y-194028D01*
X347941Y-192970D01*
X345200Y-192609D01*
D02*
G37*
G36*
X192800D02*
X190059Y-192970D01*
X187505Y-194028D01*
X185311Y-195711D01*
X183628Y-197905D01*
X182570Y-200459D01*
X182209Y-203200D01*
X182570Y-205941D01*
X183628Y-208495D01*
X185311Y-210689D01*
X187505Y-212372D01*
X190059Y-213430D01*
X192800Y-213791D01*
X195541Y-213430D01*
X198095Y-212372D01*
X200289Y-210689D01*
X201972Y-208495D01*
X203030Y-205941D01*
X203391Y-203200D01*
X203030Y-200459D01*
X201972Y-197905D01*
X200289Y-195711D01*
X198095Y-194028D01*
X195541Y-192970D01*
X192800Y-192609D01*
D02*
G37*
G36*
X432166Y-205700D02*
X423900D01*
Y-213966D01*
X424272Y-213917D01*
X426947Y-212808D01*
X429245Y-211045D01*
X431008Y-208748D01*
X432117Y-206072D01*
X432166Y-205700D01*
D02*
G37*
G36*
X254366D02*
X246100D01*
Y-213966D01*
X246472Y-213917D01*
X249147Y-212808D01*
X251445Y-211045D01*
X253209Y-208748D01*
X254317Y-206072D01*
X254366Y-205700D01*
D02*
G37*
G36*
X241100D02*
X232834D01*
X232883Y-206072D01*
X233992Y-208748D01*
X235755Y-211045D01*
X238053Y-212808D01*
X240728Y-213917D01*
X241100Y-213966D01*
Y-205700D01*
D02*
G37*
G36*
X508366D02*
X500100D01*
Y-213966D01*
X500472Y-213917D01*
X503147Y-212808D01*
X505445Y-211045D01*
X507209Y-208748D01*
X508317Y-206072D01*
X508366Y-205700D01*
D02*
G37*
G36*
X548400Y-192609D02*
X545659Y-192970D01*
X543105Y-194028D01*
X540911Y-195711D01*
X539228Y-197905D01*
X538170Y-200459D01*
X537809Y-203200D01*
X538170Y-205941D01*
X539228Y-208495D01*
X540911Y-210689D01*
X543105Y-212372D01*
X545659Y-213430D01*
X548400Y-213791D01*
X551141Y-213430D01*
X553695Y-212372D01*
X555889Y-210689D01*
X557572Y-208495D01*
X558630Y-205941D01*
X558991Y-203200D01*
X558630Y-200459D01*
X557572Y-197905D01*
X555889Y-195711D01*
X553695Y-194028D01*
X551141Y-192970D01*
X548400Y-192609D01*
D02*
G37*
G36*
X523000D02*
X520259Y-192970D01*
X517705Y-194028D01*
X515511Y-195711D01*
X513828Y-197905D01*
X512770Y-200459D01*
X512409Y-203200D01*
X512770Y-205941D01*
X513828Y-208495D01*
X515511Y-210689D01*
X517705Y-212372D01*
X520259Y-213430D01*
X523000Y-213791D01*
X525741Y-213430D01*
X528295Y-212372D01*
X530489Y-210689D01*
X532172Y-208495D01*
X533230Y-205941D01*
X533591Y-203200D01*
X533230Y-200459D01*
X532172Y-197905D01*
X530489Y-195711D01*
X528295Y-194028D01*
X525741Y-192970D01*
X523000Y-192609D01*
D02*
G37*
G36*
X418900Y-192434D02*
X418528Y-192483D01*
X415853Y-193591D01*
X413555Y-195355D01*
X411791Y-197652D01*
X410683Y-200328D01*
X410634Y-200700D01*
X418900D01*
Y-192434D01*
D02*
G37*
G36*
X573800Y-192609D02*
X571059Y-192970D01*
X568505Y-194028D01*
X566311Y-195711D01*
X564628Y-197905D01*
X563570Y-200459D01*
X563209Y-203200D01*
X563570Y-205941D01*
X564628Y-208495D01*
X566311Y-210689D01*
X568505Y-212372D01*
X571059Y-213430D01*
X573800Y-213791D01*
X576541Y-213430D01*
X579095Y-212372D01*
X581289Y-210689D01*
X582972Y-208495D01*
X584030Y-205941D01*
X584391Y-203200D01*
X584030Y-200459D01*
X582972Y-197905D01*
X581289Y-195711D01*
X579095Y-194028D01*
X576541Y-192970D01*
X573800Y-192609D01*
D02*
G37*
G36*
X396000D02*
X393259Y-192970D01*
X390705Y-194028D01*
X388511Y-195711D01*
X386828Y-197905D01*
X385770Y-200459D01*
X385409Y-203200D01*
X385770Y-205941D01*
X386828Y-208495D01*
X388511Y-210689D01*
X390705Y-212372D01*
X393259Y-213430D01*
X396000Y-213791D01*
X398741Y-213430D01*
X401295Y-212372D01*
X403489Y-210689D01*
X405172Y-208495D01*
X406230Y-205941D01*
X406591Y-203200D01*
X406230Y-200459D01*
X405172Y-197905D01*
X403489Y-195711D01*
X401295Y-194028D01*
X398741Y-192970D01*
X396000Y-192609D01*
D02*
G37*
G36*
X370600D02*
X367859Y-192970D01*
X365305Y-194028D01*
X363111Y-195711D01*
X361428Y-197905D01*
X360370Y-200459D01*
X360009Y-203200D01*
X360370Y-205941D01*
X361428Y-208495D01*
X363111Y-210689D01*
X365305Y-212372D01*
X367859Y-213430D01*
X370600Y-213791D01*
X373341Y-213430D01*
X375895Y-212372D01*
X378089Y-210689D01*
X379772Y-208495D01*
X380830Y-205941D01*
X381191Y-203200D01*
X380830Y-200459D01*
X379772Y-197905D01*
X378089Y-195711D01*
X375895Y-194028D01*
X373341Y-192970D01*
X370600Y-192609D01*
D02*
G37*
G36*
X472200D02*
X469459Y-192970D01*
X466905Y-194028D01*
X464711Y-195711D01*
X463028Y-197905D01*
X461970Y-200459D01*
X461609Y-203200D01*
X461970Y-205941D01*
X463028Y-208495D01*
X464711Y-210689D01*
X466905Y-212372D01*
X469459Y-213430D01*
X472200Y-213791D01*
X474941Y-213430D01*
X477495Y-212372D01*
X479689Y-210689D01*
X481372Y-208495D01*
X482430Y-205941D01*
X482791Y-203200D01*
X482430Y-200459D01*
X481372Y-197905D01*
X479689Y-195711D01*
X477495Y-194028D01*
X474941Y-192970D01*
X472200Y-192609D01*
D02*
G37*
G36*
X446800D02*
X444059Y-192970D01*
X441505Y-194028D01*
X439311Y-195711D01*
X437628Y-197905D01*
X436570Y-200459D01*
X436209Y-203200D01*
X436570Y-205941D01*
X437628Y-208495D01*
X439311Y-210689D01*
X441505Y-212372D01*
X444059Y-213430D01*
X446800Y-213791D01*
X449541Y-213430D01*
X452095Y-212372D01*
X454289Y-210689D01*
X455972Y-208495D01*
X457030Y-205941D01*
X457391Y-203200D01*
X457030Y-200459D01*
X455972Y-197905D01*
X454289Y-195711D01*
X452095Y-194028D01*
X449541Y-192970D01*
X446800Y-192609D01*
D02*
G37*
G36*
X636918Y-2500D02*
X602500D01*
Y-36918D01*
X605806Y-36658D01*
X611469Y-35298D01*
X616850Y-33069D01*
X621815Y-30026D01*
X626244Y-26244D01*
X630026Y-21815D01*
X633069Y-16850D01*
X635298Y-11469D01*
X636657Y-5806D01*
X636918Y-2500D01*
D02*
G37*
G36*
X345200Y213791D02*
X342459Y213430D01*
X339905Y212372D01*
X337711Y210689D01*
X336028Y208495D01*
X334970Y205941D01*
X334609Y203200D01*
X334970Y200459D01*
X336028Y197905D01*
X337711Y195711D01*
X339905Y194028D01*
X342459Y192970D01*
X345200Y192609D01*
X347941Y192970D01*
X350495Y194028D01*
X352689Y195711D01*
X354372Y197905D01*
X355430Y200459D01*
X355791Y203200D01*
X355430Y205941D01*
X354372Y208495D01*
X352689Y210689D01*
X350495Y212372D01*
X347941Y213430D01*
X345200Y213791D01*
D02*
G37*
G36*
X370600D02*
X367859Y213430D01*
X365305Y212372D01*
X363111Y210689D01*
X361428Y208495D01*
X360370Y205941D01*
X360009Y203200D01*
X360370Y200459D01*
X361428Y197905D01*
X363111Y195711D01*
X365305Y194028D01*
X367859Y192970D01*
X370600Y192609D01*
X373341Y192970D01*
X375895Y194028D01*
X378089Y195711D01*
X379772Y197905D01*
X380830Y200459D01*
X381191Y203200D01*
X380830Y205941D01*
X379772Y208495D01*
X378089Y210689D01*
X375895Y212372D01*
X373341Y213430D01*
X370600Y213791D01*
D02*
G37*
G36*
X396000D02*
X393259Y213430D01*
X390705Y212372D01*
X388511Y210689D01*
X386828Y208495D01*
X385770Y205941D01*
X385409Y203200D01*
X385770Y200459D01*
X386828Y197905D01*
X388511Y195711D01*
X390705Y194028D01*
X393259Y192970D01*
X396000Y192609D01*
X398741Y192970D01*
X401295Y194028D01*
X403489Y195711D01*
X405172Y197905D01*
X406230Y200459D01*
X406591Y203200D01*
X406230Y205941D01*
X405172Y208495D01*
X403489Y210689D01*
X401295Y212372D01*
X398741Y213430D01*
X396000Y213791D01*
D02*
G37*
G36*
X243600D02*
X240859Y213430D01*
X238305Y212372D01*
X236111Y210689D01*
X234428Y208495D01*
X233370Y205941D01*
X233009Y203200D01*
X233370Y200459D01*
X234428Y197905D01*
X236111Y195711D01*
X238305Y194028D01*
X240859Y192970D01*
X243600Y192609D01*
X246341Y192970D01*
X248895Y194028D01*
X251089Y195711D01*
X252772Y197905D01*
X253830Y200459D01*
X254191Y203200D01*
X253830Y205941D01*
X252772Y208495D01*
X251089Y210689D01*
X248895Y212372D01*
X246341Y213430D01*
X243600Y213791D01*
D02*
G37*
G36*
X418900Y200700D02*
X410634D01*
X410683Y200328D01*
X411791Y197652D01*
X413555Y195355D01*
X415853Y193591D01*
X418528Y192483D01*
X418900Y192434D01*
Y200700D01*
D02*
G37*
G36*
X192800Y213791D02*
X190059Y213430D01*
X187505Y212372D01*
X185311Y210689D01*
X183628Y208495D01*
X182570Y205941D01*
X182209Y203200D01*
X182570Y200459D01*
X183628Y197905D01*
X185311Y195711D01*
X187505Y194028D01*
X190059Y192970D01*
X192800Y192609D01*
X195541Y192970D01*
X198095Y194028D01*
X200289Y195711D01*
X201972Y197905D01*
X203030Y200459D01*
X203391Y203200D01*
X203030Y205941D01*
X201972Y208495D01*
X200289Y210689D01*
X198095Y212372D01*
X195541Y213430D01*
X192800Y213791D01*
D02*
G37*
G36*
X218200D02*
X215459Y213430D01*
X212905Y212372D01*
X210711Y210689D01*
X209028Y208495D01*
X207970Y205941D01*
X207609Y203200D01*
X207970Y200459D01*
X209028Y197905D01*
X210711Y195711D01*
X212905Y194028D01*
X215459Y192970D01*
X218200Y192609D01*
X220941Y192970D01*
X223495Y194028D01*
X225689Y195711D01*
X227372Y197905D01*
X228430Y200459D01*
X228791Y203200D01*
X228430Y205941D01*
X227372Y208495D01*
X225689Y210689D01*
X223495Y212372D01*
X220941Y213430D01*
X218200Y213791D01*
D02*
G37*
G36*
X446800D02*
X444059Y213430D01*
X441505Y212372D01*
X439311Y210689D01*
X437628Y208495D01*
X436570Y205941D01*
X436209Y203200D01*
X436570Y200459D01*
X437628Y197905D01*
X439311Y195711D01*
X441505Y194028D01*
X444059Y192970D01*
X446800Y192609D01*
X449541Y192970D01*
X452095Y194028D01*
X454289Y195711D01*
X455972Y197905D01*
X457030Y200459D01*
X457391Y203200D01*
X457030Y205941D01*
X455972Y208495D01*
X454289Y210689D01*
X452095Y212372D01*
X449541Y213430D01*
X446800Y213791D01*
D02*
G37*
G36*
X573800D02*
X571059Y213430D01*
X568505Y212372D01*
X566311Y210689D01*
X564628Y208495D01*
X563570Y205941D01*
X563209Y203200D01*
X563570Y200459D01*
X564628Y197905D01*
X566311Y195711D01*
X568505Y194028D01*
X571059Y192970D01*
X573800Y192609D01*
X576541Y192970D01*
X579095Y194028D01*
X581289Y195711D01*
X582972Y197905D01*
X584030Y200459D01*
X584391Y203200D01*
X584030Y205941D01*
X582972Y208495D01*
X581289Y210689D01*
X579095Y212372D01*
X576541Y213430D01*
X573800Y213791D01*
D02*
G37*
G36*
X418900Y213966D02*
X418528Y213917D01*
X415853Y212808D01*
X413555Y211045D01*
X411791Y208748D01*
X410683Y206072D01*
X410634Y205700D01*
X418900D01*
Y213966D01*
D02*
G37*
G36*
X423900Y213966D02*
Y205700D01*
X432166D01*
X432117Y206072D01*
X431008Y208748D01*
X429245Y211045D01*
X426947Y212808D01*
X424272Y213917D01*
X423900Y213966D01*
D02*
G37*
G36*
X548400Y213791D02*
X545659Y213430D01*
X543105Y212372D01*
X540911Y210689D01*
X539228Y208495D01*
X538170Y205941D01*
X537809Y203200D01*
X538170Y200459D01*
X539228Y197905D01*
X540911Y195711D01*
X543105Y194028D01*
X545659Y192970D01*
X548400Y192609D01*
X551141Y192970D01*
X553695Y194028D01*
X555889Y195711D01*
X557572Y197905D01*
X558630Y200459D01*
X558991Y203200D01*
X558630Y205941D01*
X557572Y208495D01*
X555889Y210689D01*
X553695Y212372D01*
X551141Y213430D01*
X548400Y213791D01*
D02*
G37*
G36*
X472200D02*
X469459Y213430D01*
X466905Y212372D01*
X464711Y210689D01*
X463028Y208495D01*
X461970Y205941D01*
X461609Y203200D01*
X461970Y200459D01*
X463028Y197905D01*
X464711Y195711D01*
X466905Y194028D01*
X469459Y192970D01*
X472200Y192609D01*
X474941Y192970D01*
X477495Y194028D01*
X479689Y195711D01*
X481372Y197905D01*
X482430Y200459D01*
X482791Y203200D01*
X482430Y205941D01*
X481372Y208495D01*
X479689Y210689D01*
X477495Y212372D01*
X474941Y213430D01*
X472200Y213791D01*
D02*
G37*
G36*
X497600D02*
X494859Y213430D01*
X492305Y212372D01*
X490111Y210689D01*
X488428Y208495D01*
X487370Y205941D01*
X487009Y203200D01*
X487370Y200459D01*
X488428Y197905D01*
X490111Y195711D01*
X492305Y194028D01*
X494859Y192970D01*
X497600Y192609D01*
X500341Y192970D01*
X502895Y194028D01*
X505089Y195711D01*
X506772Y197905D01*
X507830Y200459D01*
X508191Y203200D01*
X507830Y205941D01*
X506772Y208495D01*
X505089Y210689D01*
X502895Y212372D01*
X500341Y213430D01*
X497600Y213791D01*
D02*
G37*
G36*
X523000D02*
X520259Y213430D01*
X517705Y212372D01*
X515511Y210689D01*
X513828Y208495D01*
X512770Y205941D01*
X512409Y203200D01*
X512770Y200459D01*
X513828Y197905D01*
X515511Y195711D01*
X517705Y194028D01*
X520259Y192970D01*
X523000Y192609D01*
X525741Y192970D01*
X528295Y194028D01*
X530489Y195711D01*
X532172Y197905D01*
X533230Y200459D01*
X533591Y203200D01*
X533230Y205941D01*
X532172Y208495D01*
X530489Y210689D01*
X528295Y212372D01*
X525741Y213430D01*
X523000Y213791D01*
D02*
G37*
G36*
X432166Y200700D02*
X423900D01*
Y192434D01*
X424272Y192483D01*
X426947Y193591D01*
X429245Y195355D01*
X431008Y197652D01*
X432117Y200328D01*
X432166Y200700D01*
D02*
G37*
G36*
X497000Y101608D02*
X494854Y101181D01*
X493035Y99965D01*
X491819Y98146D01*
X491392Y96000D01*
X491819Y93854D01*
X493035Y92035D01*
X493941Y91429D01*
Y5267D01*
X491733Y3059D01*
X394571D01*
X393965Y3965D01*
X392146Y5181D01*
X390000Y5608D01*
X387854Y5181D01*
X386035Y3965D01*
X384819Y2146D01*
X384392Y0D01*
X384819Y-2146D01*
X386035Y-3965D01*
X387854Y-5181D01*
X390000Y-5608D01*
X392146Y-5181D01*
X393965Y-3965D01*
X394571Y-3059D01*
X493000D01*
X493000Y-3059D01*
X494170Y-2826D01*
X495163Y-2163D01*
X499163Y1837D01*
X499163Y1837D01*
X499826Y2829D01*
X500059Y4000D01*
Y91429D01*
X500965Y92035D01*
X502181Y93854D01*
X502608Y96000D01*
X502181Y98146D01*
X500965Y99965D01*
X499146Y101181D01*
X497000Y101608D01*
D02*
G37*
G36*
X407000Y73608D02*
X404854Y73181D01*
X403035Y71965D01*
X401819Y70146D01*
X401392Y68000D01*
X401819Y65854D01*
X403035Y64035D01*
X404854Y62819D01*
X407000Y62392D01*
X409146Y62819D01*
X410965Y64035D01*
X411571Y64941D01*
X417733D01*
X418941Y63733D01*
Y34571D01*
X418035Y33965D01*
X416819Y32146D01*
X416392Y30000D01*
X416819Y27854D01*
X418035Y26035D01*
X419854Y24819D01*
X422000Y24392D01*
X424146Y24819D01*
X425965Y26035D01*
X427181Y27854D01*
X427608Y30000D01*
X427181Y32146D01*
X425965Y33965D01*
X425059Y34571D01*
Y65000D01*
X425059Y65000D01*
X424826Y66171D01*
X424163Y67163D01*
X424163Y67163D01*
X421163Y70163D01*
X420171Y70826D01*
X419000Y71059D01*
X419000Y71059D01*
X411571D01*
X410965Y71965D01*
X409146Y73181D01*
X407000Y73608D01*
D02*
G37*
G36*
X30000Y81604D02*
X25785Y81189D01*
X21732Y79960D01*
X17997Y77963D01*
X14724Y75276D01*
X12037Y72003D01*
X10041Y68267D01*
X8811Y64215D01*
X8396Y60000D01*
X8811Y55785D01*
X10041Y51733D01*
X12037Y47997D01*
X14724Y44724D01*
X17997Y42037D01*
X21732Y40040D01*
X25785Y38811D01*
X30000Y38396D01*
X34215Y38811D01*
X38268Y40040D01*
X42003Y42037D01*
X45276Y44724D01*
X47963Y47997D01*
X49960Y51733D01*
X51189Y55785D01*
X51604Y60000D01*
X51189Y64215D01*
X49960Y68267D01*
X47963Y72003D01*
X45276Y75276D01*
X42003Y77963D01*
X38268Y79960D01*
X34215Y81189D01*
X30000Y81604D01*
D02*
G37*
G36*
X52500Y36918D02*
Y2500D01*
X86918D01*
X86657Y5806D01*
X85298Y11469D01*
X83069Y16850D01*
X80026Y21815D01*
X76244Y26244D01*
X71815Y30026D01*
X66850Y33069D01*
X61469Y35298D01*
X55806Y36658D01*
X52500Y36918D01*
D02*
G37*
G36*
X597500D02*
X594194Y36658D01*
X588531Y35298D01*
X583150Y33069D01*
X578185Y30026D01*
X573756Y26244D01*
X569974Y21815D01*
X566931Y16850D01*
X564702Y11469D01*
X563343Y5806D01*
X563082Y2500D01*
X597500D01*
Y36918D01*
D02*
G37*
G36*
X602500Y36918D02*
Y2500D01*
X636918D01*
X636657Y5806D01*
X635298Y11469D01*
X633069Y16850D01*
X630026Y21815D01*
X626244Y26244D01*
X621815Y30026D01*
X616850Y33069D01*
X611469Y35298D01*
X605806Y36658D01*
X602500Y36918D01*
D02*
G37*
G36*
X47500Y36918D02*
X44194Y36658D01*
X38531Y35298D01*
X33150Y33069D01*
X28185Y30026D01*
X23756Y26244D01*
X19974Y21815D01*
X16931Y16850D01*
X14702Y11469D01*
X13342Y5806D01*
X13082Y2500D01*
X47500D01*
Y36918D01*
D02*
G37*
G36*
X355000Y61608D02*
X352854Y61181D01*
X351204Y60078D01*
X303000D01*
X303000Y60078D01*
X301439Y59768D01*
X300116Y58884D01*
X300116Y58884D01*
X297116Y55884D01*
X296232Y54561D01*
X295922Y53000D01*
X295922Y53000D01*
Y-91204D01*
X294819Y-92854D01*
X294392Y-95000D01*
X294819Y-97146D01*
X295922Y-98796D01*
Y-113311D01*
X238311Y-170922D01*
X222000D01*
X222000Y-170922D01*
X220439Y-171232D01*
X219116Y-172116D01*
X219116Y-172116D01*
X215316Y-175916D01*
X214432Y-177239D01*
X214122Y-178800D01*
X214122Y-178800D01*
Y-193524D01*
X212905Y-194028D01*
X210711Y-195711D01*
X209028Y-197905D01*
X207970Y-200459D01*
X207609Y-203200D01*
X207970Y-205941D01*
X209028Y-208495D01*
X210711Y-210689D01*
X212905Y-212372D01*
X215459Y-213430D01*
X218200Y-213791D01*
X220941Y-213430D01*
X223495Y-212372D01*
X225689Y-210689D01*
X227372Y-208495D01*
X228430Y-205941D01*
X228791Y-203200D01*
X228430Y-200459D01*
X227372Y-197905D01*
X225689Y-195711D01*
X223495Y-194028D01*
X222278Y-193524D01*
Y-180489D01*
X223689Y-179078D01*
X240000D01*
X240000Y-179078D01*
X241561Y-178768D01*
X242884Y-177884D01*
X302884Y-117884D01*
X302884Y-117884D01*
X303768Y-116561D01*
X304078Y-115000D01*
Y-98796D01*
X305181Y-97146D01*
X305608Y-95000D01*
X305181Y-92854D01*
X304078Y-91204D01*
Y51311D01*
X304689Y51922D01*
X351204D01*
X352854Y50819D01*
X355000Y50392D01*
X357146Y50819D01*
X358965Y52035D01*
X360181Y53854D01*
X360608Y56000D01*
X360181Y58146D01*
X358965Y59965D01*
X357146Y61181D01*
X355000Y61608D01*
D02*
G37*
G36*
X30000Y181604D02*
X25785Y181189D01*
X21732Y179960D01*
X17997Y177963D01*
X14724Y175276D01*
X12037Y172003D01*
X10041Y168267D01*
X8811Y164215D01*
X8396Y160000D01*
X8811Y155785D01*
X10041Y151733D01*
X12037Y147998D01*
X14724Y144724D01*
X17997Y142037D01*
X21732Y140041D01*
X25785Y138811D01*
X30000Y138396D01*
X34215Y138811D01*
X38268Y140041D01*
X42003Y142037D01*
X45276Y144724D01*
X47963Y147998D01*
X49960Y151733D01*
X51189Y155785D01*
X51604Y160000D01*
X51189Y164215D01*
X49960Y168267D01*
X47963Y172003D01*
X45276Y175276D01*
X42003Y177963D01*
X38268Y179960D01*
X34215Y181189D01*
X30000Y181604D01*
D02*
G37*
G36*
X292500Y182500D02*
X258082D01*
X258342Y179194D01*
X259702Y173531D01*
X261931Y168150D01*
X264974Y163185D01*
X268756Y158756D01*
X273185Y154974D01*
X278150Y151931D01*
X283531Y149702D01*
X289194Y148343D01*
X292500Y148082D01*
Y182500D01*
D02*
G37*
G36*
X331918D02*
X297500D01*
Y148082D01*
X300806Y148343D01*
X306469Y149702D01*
X311850Y151931D01*
X316815Y154974D01*
X321244Y158756D01*
X325026Y163185D01*
X328069Y168150D01*
X330298Y173531D01*
X331657Y179194D01*
X331918Y182500D01*
D02*
G37*
G36*
X523000Y117608D02*
X520854Y117181D01*
X519035Y115965D01*
X518429Y115059D01*
X259571D01*
X258965Y115965D01*
X257146Y117181D01*
X255000Y117608D01*
X252854Y117181D01*
X251035Y115965D01*
X250429Y115059D01*
X248000D01*
X246829Y114826D01*
X245837Y114163D01*
X242837Y111163D01*
X242174Y110170D01*
X241941Y109000D01*
X241941Y109000D01*
Y-107000D01*
X241941Y-107000D01*
X242174Y-108170D01*
X242837Y-109163D01*
X245837Y-112163D01*
X246829Y-112826D01*
X248000Y-113059D01*
X250429D01*
X251035Y-113965D01*
X252854Y-115181D01*
X255000Y-115608D01*
X257146Y-115181D01*
X258965Y-113965D01*
X260181Y-112146D01*
X260608Y-110000D01*
X260181Y-107854D01*
X258965Y-106035D01*
X257146Y-104819D01*
X255000Y-104392D01*
X252854Y-104819D01*
X251035Y-106035D01*
X250496Y-106841D01*
X249238Y-106913D01*
X248059Y-105733D01*
Y107733D01*
X249238Y108913D01*
X250496Y108841D01*
X251035Y108035D01*
X252854Y106819D01*
X255000Y106392D01*
X257146Y106819D01*
X258965Y108035D01*
X259571Y108941D01*
X518429D01*
X519035Y108035D01*
X520854Y106819D01*
X523000Y106392D01*
X525146Y106819D01*
X526965Y108035D01*
X528181Y109854D01*
X528608Y112000D01*
X528181Y114146D01*
X526965Y115965D01*
X525146Y117181D01*
X523000Y117608D01*
D02*
G37*
G36*
X215000Y75608D02*
X212854Y75181D01*
X211204Y74078D01*
X205000D01*
X205000Y74078D01*
X203439Y73768D01*
X202116Y72884D01*
X197116Y67884D01*
X196232Y66561D01*
X195922Y65000D01*
X195922Y65000D01*
Y-145000D01*
X195922Y-145000D01*
X196232Y-146561D01*
X197116Y-147884D01*
X201116Y-151884D01*
X201116Y-151884D01*
X202439Y-152768D01*
X204000Y-153078D01*
X204000Y-153078D01*
X211204D01*
X212854Y-154181D01*
X215000Y-154608D01*
X217146Y-154181D01*
X218965Y-152965D01*
X220181Y-151146D01*
X220608Y-149000D01*
X220181Y-146854D01*
X218965Y-145035D01*
X217146Y-143819D01*
X215000Y-143392D01*
X212854Y-143819D01*
X211204Y-144922D01*
X205689D01*
X204078Y-143311D01*
Y63311D01*
X206689Y65922D01*
X211204D01*
X212854Y64819D01*
X215000Y64392D01*
X217146Y64819D01*
X218965Y66035D01*
X220181Y67854D01*
X220608Y70000D01*
X220181Y72146D01*
X218965Y73965D01*
X217146Y75181D01*
X215000Y75608D01*
D02*
G37*
G36*
X447000Y85608D02*
X444854Y85181D01*
X443035Y83965D01*
X442429Y83059D01*
X369000D01*
X367830Y82826D01*
X366837Y82163D01*
X363837Y79163D01*
X363174Y78170D01*
X362941Y77000D01*
X362941Y77000D01*
Y45571D01*
X362035Y44965D01*
X360819Y43146D01*
X360392Y41000D01*
X360819Y38854D01*
X362035Y37035D01*
X363854Y35819D01*
X366000Y35392D01*
X368146Y35819D01*
X369965Y37035D01*
X371181Y38854D01*
X371608Y41000D01*
X371181Y43146D01*
X369965Y44965D01*
X369059Y45571D01*
Y75733D01*
X370267Y76941D01*
X442429D01*
X443035Y76035D01*
X444854Y74819D01*
X447000Y74392D01*
X449146Y74819D01*
X450965Y76035D01*
X452181Y77854D01*
X452608Y80000D01*
X452181Y82146D01*
X450965Y83965D01*
X449146Y85181D01*
X447000Y85608D01*
D02*
G37*
G36*
X472000Y101608D02*
X469854Y101181D01*
X468035Y99965D01*
X467429Y99059D01*
X259571D01*
X258965Y99965D01*
X257146Y101181D01*
X255000Y101608D01*
X252854Y101181D01*
X251035Y99965D01*
X249819Y98146D01*
X249392Y96000D01*
X249819Y93854D01*
X251035Y92035D01*
X252854Y90819D01*
X255000Y90392D01*
X257146Y90819D01*
X258965Y92035D01*
X259571Y92941D01*
X276941D01*
Y-113733D01*
X268733Y-121941D01*
X259571D01*
X258965Y-121035D01*
X257146Y-119819D01*
X255000Y-119392D01*
X252854Y-119819D01*
X251035Y-121035D01*
X249819Y-122854D01*
X249392Y-125000D01*
X249819Y-127146D01*
X251035Y-128965D01*
X252854Y-130181D01*
X255000Y-130608D01*
X257146Y-130181D01*
X258965Y-128965D01*
X259571Y-128059D01*
X270000D01*
X270000Y-128059D01*
X271171Y-127826D01*
X272163Y-127163D01*
X282163Y-117163D01*
X282163Y-117163D01*
X282826Y-116171D01*
X283059Y-115000D01*
Y92941D01*
X467429D01*
X468035Y92035D01*
X469854Y90819D01*
X472000Y90392D01*
X474146Y90819D01*
X475965Y92035D01*
X477181Y93854D01*
X477608Y96000D01*
X477181Y98146D01*
X475965Y99965D01*
X474146Y101181D01*
X472000Y101608D01*
D02*
G37*
%LPD*%
D16*
X280000Y-115000D02*
Y96000D01*
X270000Y-125000D02*
X280000Y-115000D01*
X255000Y-125000D02*
X270000D01*
X255000Y96000D02*
X472000D01*
X229000Y-138000D02*
X257000D01*
X550000Y-65000D02*
X574000Y-89000D01*
X550000Y-65000D02*
Y132000D01*
X547000Y135000D02*
X550000Y132000D01*
X215000Y135000D02*
X547000D01*
X369000Y80000D02*
X447000D01*
X366000Y77000D02*
X369000Y80000D01*
X366000Y41000D02*
Y77000D01*
X497000Y4000D02*
Y96000D01*
X390000Y0D02*
X493000D01*
X225000Y-134000D02*
X229000Y-138000D01*
X255000Y112000D02*
X523000D01*
X248000D02*
X255000D01*
X245000Y109000D02*
X248000Y112000D01*
X245000Y-107000D02*
Y109000D01*
Y-107000D02*
X248000Y-110000D01*
X255000D01*
X214000Y-98000D02*
X222000D01*
X225000Y-101000D01*
Y-134000D02*
Y-101000D01*
X180000Y-98000D02*
Y122000D01*
X407000Y68000D02*
X419000D01*
X422000Y65000D01*
Y30000D02*
Y65000D01*
X493000Y0D02*
X497000Y4000D01*
D17*
X300000Y-115000D02*
Y-95000D01*
X240000Y-175000D02*
X300000Y-115000D01*
X222000Y-175000D02*
X240000D01*
X218200Y-178800D02*
X222000Y-175000D01*
X218200Y-203200D02*
Y-178800D01*
X303000Y56000D02*
X355000D01*
X300000Y53000D02*
X303000Y56000D01*
X300000Y-95000D02*
Y53000D01*
X205000Y70000D02*
X215000D01*
X200000Y65000D02*
X205000Y70000D01*
X200000Y-145000D02*
Y65000D01*
Y-145000D02*
X204000Y-149000D01*
X215000D01*
D18*
X50000Y0D02*
D03*
X600000D02*
D03*
X295000Y185000D02*
D03*
Y-185000D02*
D03*
D19*
X30000Y-60000D02*
D03*
Y-160000D02*
D03*
Y60000D02*
D03*
Y160000D02*
D03*
D20*
X497600Y203200D02*
D03*
X573800Y-203200D02*
D03*
X396000Y203200D02*
D03*
X345200Y-203200D02*
D03*
X548400D02*
D03*
X421400D02*
D03*
X523000D02*
D03*
X497600D02*
D03*
X472200D02*
D03*
X446800D02*
D03*
X396000D02*
D03*
X370600D02*
D03*
X243600D02*
D03*
X218200D02*
D03*
X192800D02*
D03*
Y203200D02*
D03*
X218200D02*
D03*
X243600D02*
D03*
X421400D02*
D03*
X446800D02*
D03*
X472200D02*
D03*
X523000D02*
D03*
X548400D02*
D03*
X573800D02*
D03*
X345200D02*
D03*
X370600D02*
D03*
D21*
X257000Y-138000D02*
D03*
X198000Y-163000D02*
D03*
X230000Y-162000D02*
D03*
X355000Y56000D02*
D03*
X327000Y-130000D02*
D03*
X180000Y-125000D02*
D03*
Y147000D02*
D03*
X215000Y157000D02*
D03*
Y123000D02*
D03*
X515000Y-150000D02*
D03*
X582000D02*
D03*
X561000D02*
D03*
X535000D02*
D03*
X541000Y126000D02*
D03*
X558000Y143000D02*
D03*
X460000Y-10000D02*
D03*
Y10000D02*
D03*
X400000Y-15000D02*
D03*
X327000Y0D02*
D03*
Y25000D02*
D03*
Y-95000D02*
D03*
Y-76000D02*
D03*
X300000Y-95000D02*
D03*
X460000Y144000D02*
D03*
X327000D02*
D03*
X573800Y-89200D02*
D03*
X327000Y65000D02*
D03*
X215000Y135000D02*
D03*
X460000Y88000D02*
D03*
Y104000D02*
D03*
Y123000D02*
D03*
X327000D02*
D03*
X392000Y70000D02*
D03*
X327000Y88000D02*
D03*
X447000Y80000D02*
D03*
X497000Y96000D02*
D03*
X327000Y104000D02*
D03*
X472000Y96000D02*
D03*
X523000Y112000D02*
D03*
X266000Y-110000D02*
D03*
X290000Y-60000D02*
D03*
X280000Y104000D02*
D03*
X290000Y25000D02*
D03*
Y0D02*
D03*
X190000Y-60000D02*
D03*
X210000D02*
D03*
X235000D02*
D03*
X255000D02*
D03*
X170000Y70000D02*
D03*
Y0D02*
D03*
X190000D02*
D03*
X210000D02*
D03*
X235000D02*
D03*
X255000D02*
D03*
X190000Y55000D02*
D03*
X210000D02*
D03*
X235000D02*
D03*
X255000D02*
D03*
X180000Y-98000D02*
D03*
X214000D02*
D03*
X180000Y122000D02*
D03*
X255000Y-125000D02*
D03*
Y-110000D02*
D03*
Y96000D02*
D03*
Y112000D02*
D03*
X215000Y-135000D02*
D03*
Y85000D02*
D03*
X366000Y41000D02*
D03*
X407000Y68000D02*
D03*
X422000Y30000D02*
D03*
X390000Y0D02*
D03*
X215000Y-149000D02*
D03*
Y70000D02*
D03*
X434000Y57000D02*
D03*
M02*
