G04 Layer_Physical_Order=6*
G04 Layer_Color=16711680*
%FSLAX44Y44*%
%MOMM*%
G71*
G01*
G75*
%ADD10R,1.4000X1.1000*%
%ADD18R,0.6350X0.5000*%
%ADD19R,0.5000X0.6350*%
%ADD21R,1.1000X1.4000*%
%ADD22R,1.1000X1.0000*%
%ADD44R,2.1590X2.7430*%
%ADD46R,1.1000X1.5000*%
%ADD47C,0.3000*%
%ADD48C,0.8000*%
%ADD49C,0.2000*%
%ADD50C,0.2500*%
%ADD51C,0.4000*%
%ADD52C,0.6000*%
%ADD53C,1.0000*%
%ADD54C,0.5500*%
%ADD56C,0.1500*%
%ADD57C,1.9000*%
%ADD58C,2.8000*%
%ADD59C,3.0000*%
%ADD60C,1.8000*%
%ADD62C,7.0000*%
%ADD63C,0.5500*%
%ADD64C,0.8000*%
%ADD65C,0.4000*%
%ADD66C,2.0000*%
%ADD68R,1.0500X2.4000*%
%ADD69R,6.3000X0.9500*%
%ADD70R,1.0000X0.4500*%
%ADD71R,1.4000X0.6000*%
%ADD72R,4.6000X0.6100*%
%ADD73R,4.6000X0.8100*%
%ADD74R,4.9000X3.0000*%
%ADD75R,1.2000X1.9000*%
%ADD76R,1.6000X1.8000*%
G36*
X479185Y216041D02*
X483210Y214820D01*
X486919Y212838D01*
X490170Y210170D01*
X492838Y206919D01*
X494820Y203210D01*
X496041Y199185D01*
X496446Y195074D01*
X496431Y195000D01*
Y-195000D01*
X496446Y-195074D01*
X496041Y-199185D01*
X494820Y-203210D01*
X492838Y-206919D01*
X490170Y-210170D01*
X486919Y-212838D01*
X483210Y-214820D01*
X479185Y-216041D01*
X475074Y-216446D01*
X475000Y-216431D01*
X25000D01*
X24927Y-216446D01*
X20815Y-216041D01*
X16790Y-214820D01*
X13081Y-212838D01*
X9830Y-210170D01*
X7162Y-206919D01*
X5180Y-203210D01*
X3959Y-199185D01*
X3554Y-195074D01*
X3569Y-195000D01*
Y195000D01*
X3554Y195074D01*
X3959Y199185D01*
X5180Y203210D01*
X7162Y206919D01*
X9830Y210170D01*
X13081Y212838D01*
X16790Y214820D01*
X20815Y216041D01*
X24927Y216446D01*
X25000Y216431D01*
X475000D01*
X475074Y216446D01*
X479185Y216041D01*
D02*
G37*
%LPC*%
G36*
X171000Y-72647D02*
X168952Y-73055D01*
X167215Y-74215D01*
X166055Y-75952D01*
X165647Y-78000D01*
X166055Y-80048D01*
X167215Y-81785D01*
X168952Y-82945D01*
X171000Y-83353D01*
X173048Y-82945D01*
X174785Y-81785D01*
X175945Y-80048D01*
X176353Y-78000D01*
X175945Y-75952D01*
X174785Y-74215D01*
X173048Y-73055D01*
X171000Y-72647D01*
D02*
G37*
G36*
X400000Y-81647D02*
X397952Y-82055D01*
X396215Y-83215D01*
X395055Y-84952D01*
X394647Y-87000D01*
X395055Y-89048D01*
X396215Y-90785D01*
X397952Y-91945D01*
X400000Y-92353D01*
X402048Y-91945D01*
X403785Y-90785D01*
X404945Y-89048D01*
X405353Y-87000D01*
X404945Y-84952D01*
X403785Y-83215D01*
X402048Y-82055D01*
X400000Y-81647D01*
D02*
G37*
G36*
X413000Y-14294D02*
X410952Y-14702D01*
X409215Y-15862D01*
X408055Y-17599D01*
X407647Y-19647D01*
X408055Y-21696D01*
X409215Y-23432D01*
Y-24215D01*
X408055Y-25952D01*
X407647Y-28000D01*
X408055Y-30048D01*
X409215Y-31785D01*
Y-32215D01*
X408055Y-33952D01*
X407647Y-36000D01*
X408055Y-38048D01*
X407448Y-39391D01*
X406215Y-40215D01*
X405055Y-41952D01*
X404647Y-44000D01*
X405055Y-46048D01*
X406215Y-47785D01*
X407952Y-48945D01*
X410000Y-49353D01*
X412048Y-48945D01*
X413785Y-47785D01*
X414945Y-46048D01*
X415353Y-44000D01*
X414945Y-41952D01*
X415552Y-40609D01*
X416785Y-39785D01*
X417945Y-38048D01*
X418353Y-36000D01*
X417945Y-33952D01*
X416785Y-32215D01*
Y-31785D01*
X417945Y-30048D01*
X418353Y-28000D01*
X417945Y-25952D01*
X416785Y-24215D01*
Y-23432D01*
X417945Y-21696D01*
X418353Y-19647D01*
X417945Y-17599D01*
X416785Y-15862D01*
X415048Y-14702D01*
X413000Y-14294D01*
D02*
G37*
G36*
X115343Y-66990D02*
X113295Y-67398D01*
X111558Y-68558D01*
X110398Y-70295D01*
X109990Y-72343D01*
X110398Y-74392D01*
X111558Y-76128D01*
X113295Y-77288D01*
X115343Y-77696D01*
X117392Y-77288D01*
X119128Y-76128D01*
X120288Y-74392D01*
X120696Y-72343D01*
X120288Y-70295D01*
X119128Y-68558D01*
X117392Y-67398D01*
X115343Y-66990D01*
D02*
G37*
G36*
X70000Y-97647D02*
X67952Y-98055D01*
X66215Y-99215D01*
X65055Y-100952D01*
X64647Y-103000D01*
X65055Y-105048D01*
X66215Y-106785D01*
X67952Y-107945D01*
X70000Y-108353D01*
X72048Y-107945D01*
X73785Y-106785D01*
X74945Y-105048D01*
X75353Y-103000D01*
X74945Y-100952D01*
X73785Y-99215D01*
X72048Y-98055D01*
X70000Y-97647D01*
D02*
G37*
G36*
Y-109647D02*
X67952Y-110055D01*
X66215Y-111215D01*
X65055Y-112952D01*
X64647Y-115000D01*
X65055Y-117048D01*
X66215Y-118785D01*
X67952Y-119945D01*
X70000Y-120353D01*
X72048Y-119945D01*
X73785Y-118785D01*
X74945Y-117048D01*
X75353Y-115000D01*
X74945Y-112952D01*
X73785Y-111215D01*
X72048Y-110055D01*
X70000Y-109647D01*
D02*
G37*
G36*
X358000Y-82647D02*
X355952Y-83055D01*
X354215Y-84215D01*
X353055Y-85952D01*
X352647Y-88000D01*
X353055Y-90048D01*
X354215Y-91785D01*
X355952Y-92945D01*
X358000Y-93353D01*
X360048Y-92945D01*
X361785Y-91785D01*
X362945Y-90048D01*
X363353Y-88000D01*
X362945Y-85952D01*
X361785Y-84215D01*
X360048Y-83055D01*
X358000Y-82647D01*
D02*
G37*
G36*
X97000Y-84647D02*
X94952Y-85055D01*
X93215Y-86215D01*
X92055Y-87952D01*
X91647Y-90000D01*
X92055Y-92048D01*
X93215Y-93785D01*
X94952Y-94945D01*
X97000Y-95353D01*
X99048Y-94945D01*
X100785Y-93785D01*
X101945Y-92048D01*
X102353Y-90000D01*
X101945Y-87952D01*
X100785Y-86215D01*
X99048Y-85055D01*
X97000Y-84647D01*
D02*
G37*
G36*
X390000Y-47647D02*
X387952Y-48055D01*
X386215Y-49215D01*
X385785D01*
X384048Y-48055D01*
X382000Y-47647D01*
X379952Y-48055D01*
X378215Y-49215D01*
X377055Y-50952D01*
X376647Y-53000D01*
X377055Y-55048D01*
X378215Y-56785D01*
X379952Y-57945D01*
X382000Y-58353D01*
X384048Y-57945D01*
X385785Y-56785D01*
X386215D01*
X387952Y-57945D01*
X390000Y-58353D01*
X392048Y-57945D01*
X393785Y-56785D01*
X394945Y-55048D01*
X395353Y-53000D01*
X394945Y-50952D01*
X393785Y-49215D01*
X392048Y-48055D01*
X390000Y-47647D01*
D02*
G37*
G36*
X352000Y97078D02*
X352000Y97078D01*
X323000D01*
X321439Y96768D01*
X320116Y95884D01*
X320116Y95884D01*
X316232Y92000D01*
X303500D01*
Y81000D01*
X309431D01*
Y75478D01*
X295522Y61569D01*
X282000D01*
X280634Y61297D01*
X279477Y60523D01*
X276477Y57523D01*
X275703Y56366D01*
X275645Y56072D01*
X275215Y55785D01*
X274055Y54048D01*
X273647Y52000D01*
X274055Y49952D01*
X275215Y48215D01*
X275908Y47752D01*
Y46248D01*
X275215Y45785D01*
X274055Y44048D01*
X273647Y42000D01*
X274055Y39952D01*
X274242Y39671D01*
X273653Y38569D01*
X268500D01*
Y50450D01*
X217500D01*
Y37350D01*
X241670D01*
X242148Y36195D01*
X227558Y21605D01*
X227048Y21945D01*
X225000Y22353D01*
X222952Y21945D01*
X221215Y20785D01*
X220055Y19048D01*
X219647Y17000D01*
X220055Y14952D01*
X221215Y13215D01*
X222105Y12620D01*
X221055Y11048D01*
X220647Y9000D01*
X221055Y6952D01*
X222215Y5215D01*
X223952Y4055D01*
X226000Y3647D01*
X226647Y3000D01*
X227055Y952D01*
X228215Y-785D01*
X229952Y-1945D01*
X232000Y-2353D01*
X234048Y-1945D01*
X235734Y-819D01*
X236065Y-650D01*
X236935D01*
X237266Y-819D01*
X238952Y-1945D01*
X241000Y-2353D01*
X243048Y-1945D01*
X244785Y-785D01*
X245945Y952D01*
X246353Y3000D01*
X245970Y4924D01*
X257478Y16431D01*
X288000D01*
X289366Y16703D01*
X290523Y17477D01*
X304076Y31030D01*
X306000Y30647D01*
X308048Y31055D01*
X309785Y32215D01*
X310945Y33952D01*
X311353Y36000D01*
X310945Y38048D01*
X309785Y39785D01*
X308475Y40660D01*
X308150Y42103D01*
X313701Y47654D01*
X315281Y47466D01*
X315756Y46756D01*
X317244Y45761D01*
X319000Y45412D01*
X320756Y45761D01*
X322244Y46756D01*
X323017Y47913D01*
X323244Y47761D01*
X325000Y47412D01*
X326181Y47647D01*
X327431Y46824D01*
Y42000D01*
X327703Y40634D01*
X328477Y39477D01*
X330477Y37477D01*
X331634Y36703D01*
X333000Y36431D01*
X335431D01*
Y-36522D01*
X332522Y-39431D01*
X319000D01*
X317634Y-39703D01*
X316477Y-40477D01*
X313477Y-43477D01*
X312703Y-44634D01*
X312431Y-46000D01*
Y-53431D01*
X301478D01*
X300569Y-52522D01*
Y-48569D01*
X300297Y-47203D01*
X299523Y-46045D01*
X296955Y-43477D01*
X295797Y-42703D01*
X295000Y-42544D01*
Y-40325D01*
X275000D01*
Y-41822D01*
X268500D01*
Y-39350D01*
X217500D01*
Y-52450D01*
X268500D01*
Y-49978D01*
X275000D01*
Y-51675D01*
X293431D01*
Y-54000D01*
X293703Y-55366D01*
X294477Y-56523D01*
X297477Y-59523D01*
X298634Y-60297D01*
X300000Y-60569D01*
X314000D01*
X315366Y-60297D01*
X316523Y-59523D01*
X318523Y-57523D01*
X319297Y-56366D01*
X319569Y-55000D01*
Y-47478D01*
X320478Y-46569D01*
X334000D01*
X335366Y-46297D01*
X336523Y-45523D01*
X341523Y-40523D01*
X342297Y-39366D01*
X342569Y-38000D01*
Y38000D01*
X342297Y39366D01*
X341523Y40523D01*
X339523Y42523D01*
X338366Y43297D01*
X337000Y43569D01*
X334569D01*
Y46824D01*
X335819Y47647D01*
X337000Y47412D01*
X338756Y47761D01*
X340000Y48592D01*
X341244Y47761D01*
X343000Y47412D01*
X344756Y47761D01*
X346000Y48592D01*
X347244Y47761D01*
X349000Y47412D01*
X350756Y47761D01*
X352000Y48592D01*
X353244Y47761D01*
X355000Y47412D01*
X356756Y47761D01*
X358244Y48756D01*
X359239Y50244D01*
X359588Y52000D01*
X359239Y53756D01*
X358244Y55244D01*
X356756Y56239D01*
X355000Y56588D01*
X353244Y56239D01*
X352000Y55408D01*
X350756Y56239D01*
X349000Y56588D01*
X347819Y56353D01*
X346569Y57176D01*
Y59000D01*
X346297Y60366D01*
X345752Y61181D01*
X346243Y62431D01*
X390522D01*
X391431Y61522D01*
Y56930D01*
X391215Y56785D01*
X390055Y55048D01*
X389647Y53000D01*
X390055Y50952D01*
X391215Y49215D01*
X392952Y48055D01*
X395000Y47647D01*
X396181Y47882D01*
X397431Y46922D01*
Y26000D01*
X397703Y24634D01*
X398477Y23477D01*
X400477Y21477D01*
X401634Y20703D01*
X403000Y20431D01*
X434070D01*
X434215Y20215D01*
X435952Y19055D01*
X438000Y18647D01*
X439075Y18861D01*
X440325Y17851D01*
Y13149D01*
X439075Y12139D01*
X438000Y12353D01*
X435952Y11945D01*
X434215Y10785D01*
X433055Y9048D01*
X432647Y7000D01*
X433055Y4952D01*
X434215Y3215D01*
X435952Y2055D01*
X438000Y1647D01*
X439075Y1861D01*
X440325Y851D01*
Y-8850D01*
X439075Y-9861D01*
X438000Y-9647D01*
X435952Y-10055D01*
X434215Y-11215D01*
X433055Y-12952D01*
X432647Y-15000D01*
X433055Y-17048D01*
X434215Y-18785D01*
X435952Y-19945D01*
X438000Y-20353D01*
X439075Y-20139D01*
X440325Y-21149D01*
Y-30000D01*
X451675D01*
Y-30000D01*
X452500D01*
Y-30000D01*
X462301D01*
X462995Y-31250D01*
X462647Y-33000D01*
Y-36311D01*
X461877Y-37464D01*
X461373Y-40000D01*
Y-49500D01*
X452500D01*
Y-72500D01*
X473500D01*
Y-59468D01*
X474123Y-58536D01*
X474627Y-56000D01*
Y-47000D01*
Y-40000D01*
X474123Y-37464D01*
X473353Y-36311D01*
Y-33000D01*
X472945Y-30952D01*
X471785Y-29215D01*
X470048Y-28055D01*
X468500Y-27747D01*
Y-11250D01*
X468500Y-10000D01*
X468500Y-8750D01*
Y8750D01*
X468500Y10000D01*
X468500D01*
Y10000D01*
X468500D01*
Y30000D01*
X452500D01*
X452500Y30000D01*
X451675Y30000D01*
Y30000D01*
X451250Y30000D01*
X440325D01*
Y30000D01*
X439075Y29139D01*
X438000Y29353D01*
X435952Y28945D01*
X434215Y27785D01*
X434070Y27569D01*
X404569D01*
Y65000D01*
X404297Y66366D01*
X403523Y67523D01*
X397523Y73523D01*
X396366Y74297D01*
X395000Y74569D01*
X354347D01*
X353758Y75671D01*
X353945Y75952D01*
X354353Y78000D01*
X354005Y79750D01*
X354698Y81000D01*
X370500D01*
Y92000D01*
X358768D01*
X354884Y95884D01*
X353561Y96768D01*
X353302Y96819D01*
X352000Y97078D01*
D02*
G37*
G36*
X135000Y16353D02*
X132952Y15945D01*
X131215Y14785D01*
X130055Y13048D01*
X129647Y11000D01*
X128520Y10257D01*
X126952Y9945D01*
X125215Y8785D01*
X124055Y7048D01*
X123647Y5000D01*
X124055Y2952D01*
X125215Y1215D01*
X126952Y55D01*
X129000Y-353D01*
X131048Y55D01*
X132785Y1215D01*
X133945Y2952D01*
X134353Y5000D01*
X135000Y5647D01*
X137048Y6055D01*
X138785Y7215D01*
X139945Y8952D01*
X140353Y11000D01*
X139945Y13048D01*
X138785Y14785D01*
X137048Y15945D01*
X135000Y16353D01*
D02*
G37*
G36*
X91000Y36353D02*
X88952Y35945D01*
X87215Y34785D01*
X86055Y33048D01*
X85647Y31000D01*
X86055Y28952D01*
X87215Y27215D01*
X88952Y26055D01*
X91000Y25647D01*
X93048Y26055D01*
X94785Y27215D01*
X95945Y28952D01*
X96353Y31000D01*
X95945Y33048D01*
X94785Y34785D01*
X93048Y35945D01*
X91000Y36353D01*
D02*
G37*
G36*
X308200Y26588D02*
X306444Y26239D01*
X304956Y25244D01*
X303961Y23756D01*
X303709Y22487D01*
X303200Y22588D01*
X301444Y22239D01*
X299956Y21244D01*
X298961Y19756D01*
X298612Y18000D01*
X298961Y16244D01*
X299291Y15750D01*
X298623Y14500D01*
X283750D01*
X283500Y14500D01*
X282500D01*
X282250Y14500D01*
X266500D01*
Y11588D01*
X264000D01*
X262244Y11239D01*
X260756Y10244D01*
X257830Y7319D01*
X255952Y6945D01*
X254215Y5785D01*
X253055Y4048D01*
X252647Y2000D01*
X253055Y-48D01*
X254215Y-1785D01*
X255952Y-2945D01*
X258000Y-3353D01*
X260048Y-2945D01*
X261785Y-1785D01*
X262067Y-1363D01*
X262244Y-1244D01*
X265250Y1761D01*
X266500Y1244D01*
Y-500D01*
X282250D01*
X282500Y-500D01*
X283500D01*
X283750Y-500D01*
X290000D01*
Y-9500D01*
X283750D01*
X283500Y-9500D01*
X282500D01*
X282250Y-9500D01*
X266500D01*
Y-11244D01*
X265250Y-11761D01*
X262244Y-8756D01*
X262067Y-8637D01*
X261785Y-8215D01*
X260048Y-7055D01*
X258000Y-6647D01*
X255952Y-7055D01*
X254215Y-8215D01*
X253055Y-9952D01*
X252647Y-12000D01*
X253055Y-14048D01*
X254215Y-15785D01*
X255952Y-16945D01*
X257830Y-17319D01*
X260756Y-20244D01*
X262244Y-21239D01*
X264000Y-21588D01*
X266500D01*
Y-24500D01*
X267372Y-24622D01*
Y-24622D01*
D01*
X267483Y-25750D01*
X267320Y-25782D01*
X265952Y-26055D01*
X264215Y-27215D01*
X263055Y-28952D01*
X262647Y-31000D01*
X263055Y-33048D01*
X264215Y-34785D01*
X265952Y-35945D01*
X268000Y-36353D01*
X270048Y-35945D01*
X271785Y-34785D01*
X272945Y-33048D01*
X273353Y-31000D01*
X272945Y-28952D01*
X271785Y-27215D01*
X270048Y-26055D01*
X268680Y-25782D01*
X268517Y-25750D01*
X268628Y-24622D01*
X269828Y-24500D01*
X282250D01*
X282500Y-24500D01*
X283500D01*
X283750Y-24500D01*
X298423D01*
X299091Y-25750D01*
X298761Y-26244D01*
X298412Y-28000D01*
X298761Y-29756D01*
X299756Y-31244D01*
X301244Y-32239D01*
X303000Y-32588D01*
X303509Y-32487D01*
X303761Y-33756D01*
X304756Y-35244D01*
X306244Y-36239D01*
X308000Y-36588D01*
X309756Y-36239D01*
X311244Y-35244D01*
X312239Y-33756D01*
X312588Y-32000D01*
X312239Y-30244D01*
X311244Y-28756D01*
X309756Y-27761D01*
X308000Y-27412D01*
X307491Y-27513D01*
X307239Y-26244D01*
X306408Y-25000D01*
X307239Y-23756D01*
X307491Y-22487D01*
X308000Y-22588D01*
X309756Y-22239D01*
X311244Y-21244D01*
X312239Y-19756D01*
X312588Y-18000D01*
X312239Y-16244D01*
X311244Y-14756D01*
X309756Y-13761D01*
X308000Y-13412D01*
X307491Y-13513D01*
X307239Y-12244D01*
X306408Y-11000D01*
X307239Y-9756D01*
X307588Y-8000D01*
X307239Y-6244D01*
X306408Y-5000D01*
X307239Y-3756D01*
X307588Y-2000D01*
X307239Y-244D01*
X306244Y1244D01*
Y1756D01*
X307239Y3244D01*
X307308Y3589D01*
X308200Y3412D01*
X309956Y3761D01*
X311444Y4756D01*
X312439Y6244D01*
X312788Y8000D01*
X312439Y9756D01*
X311444Y11244D01*
X309956Y12239D01*
X308200Y12588D01*
X307691Y12487D01*
X307439Y13756D01*
X306608Y15000D01*
X307439Y16244D01*
X307691Y17513D01*
X308200Y17412D01*
X309956Y17761D01*
X311444Y18756D01*
X312439Y20244D01*
X312788Y22000D01*
X312439Y23756D01*
X311444Y25244D01*
X309956Y26239D01*
X308200Y26588D01*
D02*
G37*
G36*
X143393Y-20647D02*
X141345Y-21055D01*
X139608Y-22215D01*
X138448Y-23952D01*
X138041Y-26000D01*
X138448Y-28048D01*
X139608Y-29785D01*
X141345Y-30945D01*
X143393Y-31353D01*
X145442Y-30945D01*
X147178Y-29785D01*
X148339Y-28048D01*
X148746Y-26000D01*
X148339Y-23952D01*
X147178Y-22215D01*
X145442Y-21055D01*
X143393Y-20647D01*
D02*
G37*
G36*
X355000Y-46412D02*
X353244Y-46761D01*
X351756Y-47756D01*
X351273Y-48478D01*
X350047Y-48722D01*
X349048Y-48055D01*
X347000Y-47647D01*
X344952Y-48055D01*
X343380Y-49105D01*
X342785Y-48215D01*
X341048Y-47055D01*
X339000Y-46647D01*
X336952Y-47055D01*
X335215Y-48215D01*
X334055Y-49952D01*
X333647Y-52000D01*
X334055Y-54048D01*
X335215Y-55785D01*
X336952Y-56945D01*
X339000Y-57353D01*
X341048Y-56945D01*
X342620Y-55895D01*
X343215Y-56785D01*
X344952Y-57945D01*
X347000Y-58353D01*
X349048Y-57945D01*
X350785Y-56785D01*
X351945Y-55048D01*
X352571Y-54789D01*
X353244Y-55239D01*
X355000Y-55588D01*
X356756Y-55239D01*
X358244Y-54244D01*
X359239Y-52756D01*
X359588Y-51000D01*
X359239Y-49244D01*
X358244Y-47756D01*
X356756Y-46761D01*
X355000Y-46412D01*
D02*
G37*
G36*
X413000Y2353D02*
X410952Y1945D01*
X409215Y785D01*
X408055Y-952D01*
X407647Y-3000D01*
X408055Y-5048D01*
X409215Y-6785D01*
X410952Y-7945D01*
X413000Y-8353D01*
X415048Y-7945D01*
X416785Y-6785D01*
X417945Y-5048D01*
X418353Y-3000D01*
X417945Y-952D01*
X416785Y785D01*
X415048Y1945D01*
X413000Y2353D01*
D02*
G37*
G36*
X218000Y-8647D02*
X215952Y-9055D01*
X214215Y-10215D01*
X213055Y-11952D01*
X212647Y-14000D01*
X213055Y-16048D01*
X214215Y-17785D01*
X215952Y-18945D01*
X218000Y-19353D01*
X220048Y-18945D01*
X221620Y-17895D01*
X222215Y-18785D01*
X223952Y-19945D01*
X226000Y-20353D01*
X228048Y-19945D01*
X229785Y-18785D01*
X230945Y-17048D01*
X231353Y-15000D01*
X230945Y-12952D01*
X229785Y-11215D01*
X228048Y-10055D01*
X226000Y-9647D01*
X223952Y-10055D01*
X222380Y-11105D01*
X221785Y-10215D01*
X220048Y-9055D01*
X218000Y-8647D01*
D02*
G37*
G36*
X254000Y-191601D02*
X250998Y-191996D01*
X248200Y-193155D01*
X245798Y-194998D01*
X243955Y-197400D01*
X242796Y-200198D01*
X242401Y-203200D01*
X242796Y-206202D01*
X243955Y-209000D01*
X245798Y-211402D01*
X248200Y-213245D01*
X250998Y-214404D01*
X254000Y-214799D01*
X257002Y-214404D01*
X259800Y-213245D01*
X262202Y-211402D01*
X264045Y-209000D01*
X265204Y-206202D01*
X265599Y-203200D01*
X265204Y-200198D01*
X264045Y-197400D01*
X262202Y-194998D01*
X259800Y-193155D01*
X257002Y-191996D01*
X254000Y-191601D01*
D02*
G37*
G36*
X203200D02*
X200198Y-191996D01*
X197400Y-193155D01*
X194998Y-194998D01*
X193155Y-197400D01*
X191996Y-200198D01*
X191601Y-203200D01*
X191996Y-206202D01*
X193155Y-209000D01*
X194998Y-211402D01*
X197400Y-213245D01*
X200198Y-214404D01*
X203200Y-214799D01*
X206202Y-214404D01*
X209000Y-213245D01*
X211402Y-211402D01*
X213245Y-209000D01*
X214404Y-206202D01*
X214799Y-203200D01*
X214404Y-200198D01*
X213245Y-197400D01*
X211402Y-194998D01*
X209000Y-193155D01*
X206202Y-191996D01*
X203200Y-191601D01*
D02*
G37*
G36*
X304800D02*
X301798Y-191996D01*
X299000Y-193155D01*
X296598Y-194998D01*
X294755Y-197400D01*
X293596Y-200198D01*
X293201Y-203200D01*
X293596Y-206202D01*
X294755Y-209000D01*
X296598Y-211402D01*
X299000Y-213245D01*
X301798Y-214404D01*
X304800Y-214799D01*
X307802Y-214404D01*
X310600Y-213245D01*
X313002Y-211402D01*
X314845Y-209000D01*
X316004Y-206202D01*
X316399Y-203200D01*
X316004Y-200198D01*
X314845Y-197400D01*
X313002Y-194998D01*
X310600Y-193155D01*
X307802Y-191996D01*
X304800Y-191601D01*
D02*
G37*
G36*
X279400D02*
X276398Y-191996D01*
X273600Y-193155D01*
X271198Y-194998D01*
X269355Y-197400D01*
X268196Y-200198D01*
X267801Y-203200D01*
X268196Y-206202D01*
X269355Y-209000D01*
X271198Y-211402D01*
X273600Y-213245D01*
X276398Y-214404D01*
X279400Y-214799D01*
X282402Y-214404D01*
X285200Y-213245D01*
X287602Y-211402D01*
X289445Y-209000D01*
X290604Y-206202D01*
X290999Y-203200D01*
X290604Y-200198D01*
X289445Y-197400D01*
X287602Y-194998D01*
X285200Y-193155D01*
X282402Y-191996D01*
X279400Y-191601D01*
D02*
G37*
G36*
X101600D02*
X98598Y-191996D01*
X95800Y-193155D01*
X93398Y-194998D01*
X91555Y-197400D01*
X90396Y-200198D01*
X90001Y-203200D01*
X90396Y-206202D01*
X91555Y-209000D01*
X93398Y-211402D01*
X95800Y-213245D01*
X98598Y-214404D01*
X101600Y-214799D01*
X104602Y-214404D01*
X107400Y-213245D01*
X109802Y-211402D01*
X111645Y-209000D01*
X112804Y-206202D01*
X113199Y-203200D01*
X112804Y-200198D01*
X111645Y-197400D01*
X109802Y-194998D01*
X107400Y-193155D01*
X104602Y-191996D01*
X101600Y-191601D01*
D02*
G37*
G36*
X76200D02*
X73198Y-191996D01*
X70400Y-193155D01*
X67998Y-194998D01*
X66155Y-197400D01*
X64996Y-200198D01*
X64601Y-203200D01*
X64996Y-206202D01*
X66155Y-209000D01*
X67998Y-211402D01*
X70400Y-213245D01*
X73198Y-214404D01*
X76200Y-214799D01*
X79202Y-214404D01*
X82000Y-213245D01*
X84402Y-211402D01*
X86245Y-209000D01*
X87404Y-206202D01*
X87799Y-203200D01*
X87404Y-200198D01*
X86245Y-197400D01*
X84402Y-194998D01*
X82000Y-193155D01*
X79202Y-191996D01*
X76200Y-191601D01*
D02*
G37*
G36*
X177800D02*
X174798Y-191996D01*
X172000Y-193155D01*
X169598Y-194998D01*
X167755Y-197400D01*
X166596Y-200198D01*
X166201Y-203200D01*
X166596Y-206202D01*
X167755Y-209000D01*
X169598Y-211402D01*
X172000Y-213245D01*
X174798Y-214404D01*
X177800Y-214799D01*
X180802Y-214404D01*
X183600Y-213245D01*
X186002Y-211402D01*
X187845Y-209000D01*
X189004Y-206202D01*
X189399Y-203200D01*
X189004Y-200198D01*
X187845Y-197400D01*
X186002Y-194998D01*
X183600Y-193155D01*
X180802Y-191996D01*
X177800Y-191601D01*
D02*
G37*
G36*
X127000D02*
X123998Y-191996D01*
X121200Y-193155D01*
X118798Y-194998D01*
X116955Y-197400D01*
X115796Y-200198D01*
X115401Y-203200D01*
X115796Y-206202D01*
X116955Y-209000D01*
X118798Y-211402D01*
X121200Y-213245D01*
X123998Y-214404D01*
X127000Y-214799D01*
X130002Y-214404D01*
X132800Y-213245D01*
X135202Y-211402D01*
X137045Y-209000D01*
X138204Y-206202D01*
X138599Y-203200D01*
X138204Y-200198D01*
X137045Y-197400D01*
X135202Y-194998D01*
X132800Y-193155D01*
X130002Y-191996D01*
X127000Y-191601D01*
D02*
G37*
G36*
X431800D02*
X428798Y-191996D01*
X426000Y-193155D01*
X423598Y-194998D01*
X421755Y-197400D01*
X420596Y-200198D01*
X420201Y-203200D01*
X420596Y-206202D01*
X421755Y-209000D01*
X423598Y-211402D01*
X426000Y-213245D01*
X428798Y-214404D01*
X431800Y-214799D01*
X434802Y-214404D01*
X437600Y-213245D01*
X440002Y-211402D01*
X441845Y-209000D01*
X443004Y-206202D01*
X443399Y-203200D01*
X443004Y-200198D01*
X441845Y-197400D01*
X440002Y-194998D01*
X437600Y-193155D01*
X434802Y-191996D01*
X431800Y-191601D01*
D02*
G37*
G36*
X472000Y-93000D02*
X404000D01*
Y-104754D01*
X403951Y-105000D01*
Y-117500D01*
X404145Y-118475D01*
X404698Y-119302D01*
X405525Y-119855D01*
X406500Y-120049D01*
X418000D01*
X418401Y-119969D01*
X418806Y-119918D01*
X418886Y-119873D01*
X418975Y-119855D01*
X419315Y-119628D01*
X419670Y-119426D01*
X419726Y-119353D01*
X419802Y-119302D01*
X420029Y-118963D01*
X420280Y-118640D01*
X421209Y-116782D01*
X422045Y-115527D01*
X424268Y-112861D01*
X426029Y-111539D01*
X426151Y-111404D01*
X426302Y-111302D01*
X426561Y-111044D01*
X429587Y-109315D01*
X433073Y-108007D01*
X437989Y-107561D01*
X442464Y-108008D01*
X445022Y-108861D01*
X446538Y-109619D01*
X446926Y-111210D01*
X446794Y-111392D01*
X442000D01*
X439854Y-111819D01*
X438035Y-113035D01*
X436819Y-114854D01*
X436392Y-117000D01*
Y-124000D01*
X436819Y-126146D01*
X438035Y-127965D01*
X439854Y-129181D01*
X442000Y-129608D01*
X442500Y-129508D01*
X443000Y-129608D01*
X449000D01*
X450000Y-129409D01*
X451000Y-129608D01*
X453146Y-129181D01*
X454965Y-127965D01*
X462882Y-120049D01*
X469500D01*
X470475Y-119855D01*
X471302Y-119302D01*
X471855Y-118475D01*
X472049Y-117500D01*
Y-105000D01*
X472000Y-104754D01*
Y-93000D01*
D02*
G37*
G36*
X469500Y-133951D02*
X458000D01*
X457752Y-134000D01*
X457500Y-134001D01*
X457270Y-134096D01*
X457025Y-134145D01*
X456815Y-134285D01*
X456582Y-134382D01*
X456405Y-134559D01*
X456198Y-134698D01*
X456057Y-134907D01*
X455879Y-135086D01*
X454879Y-136586D01*
X454856Y-136643D01*
X454814Y-136689D01*
X453476Y-138919D01*
X449439Y-142956D01*
X446454Y-144662D01*
X442464Y-145992D01*
X438014Y-146437D01*
X433952Y-145986D01*
X432286Y-145569D01*
X430045Y-144673D01*
X428140Y-143720D01*
X426510Y-142905D01*
X422981Y-139376D01*
X421121Y-136586D01*
X420121Y-135086D01*
X419943Y-134907D01*
X419802Y-134698D01*
X419595Y-134559D01*
X419418Y-134382D01*
X419185Y-134285D01*
X418975Y-134145D01*
X418731Y-134096D01*
X418500Y-134001D01*
X418247Y-134000D01*
X418000Y-133951D01*
X406500D01*
X405525Y-134145D01*
X404698Y-134698D01*
X404145Y-135525D01*
X403951Y-136500D01*
Y-149000D01*
X404000Y-149246D01*
Y-161000D01*
X429142D01*
Y-163500D01*
X426750D01*
Y-182500D01*
X442750D01*
Y-179627D01*
X444250D01*
Y-182500D01*
X444603D01*
Y-198250D01*
X444603Y-198250D01*
X445185Y-201176D01*
X445755Y-202029D01*
X445601Y-203200D01*
X445996Y-206202D01*
X447155Y-209000D01*
X448998Y-211402D01*
X451400Y-213245D01*
X454198Y-214404D01*
X457200Y-214799D01*
X460202Y-214404D01*
X463000Y-213245D01*
X465402Y-211402D01*
X465828Y-210847D01*
X474000D01*
X476926Y-210265D01*
X479407Y-208607D01*
X481065Y-206126D01*
X481647Y-203200D01*
Y-195000D01*
X481065Y-192074D01*
X479407Y-189593D01*
X476926Y-187935D01*
X474000Y-187353D01*
X471074Y-187935D01*
X468593Y-189593D01*
X466935Y-192074D01*
X466482Y-194352D01*
X466095Y-194584D01*
X465134Y-194793D01*
X463000Y-193155D01*
X460202Y-191996D01*
X459897Y-191956D01*
Y-182500D01*
X460250D01*
Y-163500D01*
X457858D01*
Y-161000D01*
X472000D01*
Y-159358D01*
X482000D01*
X484146Y-158931D01*
X484417Y-158750D01*
X494500D01*
Y-142750D01*
X475500D01*
Y-148142D01*
X472049D01*
Y-136500D01*
X471855Y-135525D01*
X471302Y-134698D01*
X470475Y-134145D01*
X469500Y-133951D01*
D02*
G37*
G36*
X160000Y-111647D02*
X157952Y-112055D01*
X156215Y-113215D01*
X155055Y-114952D01*
X154647Y-117000D01*
X155055Y-119048D01*
X156215Y-120785D01*
X157952Y-121945D01*
X160000Y-122353D01*
X162048Y-121945D01*
X163785Y-120785D01*
X164945Y-119048D01*
X165353Y-117000D01*
X164945Y-114952D01*
X163785Y-113215D01*
X162048Y-112055D01*
X160000Y-111647D01*
D02*
G37*
G36*
X379000Y-94500D02*
X363000D01*
Y-113500D01*
X363392D01*
Y-123000D01*
X363819Y-125146D01*
X365035Y-126965D01*
X366854Y-128181D01*
X369000Y-128608D01*
X371146Y-128181D01*
X372965Y-126965D01*
X374181Y-125146D01*
X374608Y-123000D01*
Y-113500D01*
X379000D01*
Y-94500D01*
D02*
G37*
G36*
X75000Y-72373D02*
X72464Y-72877D01*
X70314Y-74314D01*
X68877Y-76464D01*
X68373Y-79000D01*
Y-89000D01*
X68877Y-91536D01*
X70314Y-93686D01*
X72464Y-95123D01*
X73925Y-95413D01*
X77412Y-98900D01*
Y-121100D01*
X72756Y-125756D01*
X71761Y-127244D01*
X71412Y-129000D01*
Y-173417D01*
X71055Y-173951D01*
X70647Y-176000D01*
X71055Y-178048D01*
X72215Y-179785D01*
X73952Y-180945D01*
X76000Y-181353D01*
X78048Y-180945D01*
X79785Y-179785D01*
X80945Y-178048D01*
X81353Y-176000D01*
X80945Y-173951D01*
X80588Y-173417D01*
Y-149083D01*
X81838Y-148960D01*
X82055Y-150048D01*
X83177Y-151728D01*
Y-173000D01*
X83468Y-174463D01*
X84296Y-175704D01*
X87296Y-178704D01*
X88537Y-179532D01*
X90000Y-179823D01*
X123272D01*
X124952Y-180945D01*
X127000Y-181353D01*
X129048Y-180945D01*
X130785Y-179785D01*
X131945Y-178048D01*
X132353Y-176000D01*
X131945Y-173952D01*
X130785Y-172215D01*
X129048Y-171055D01*
X127000Y-170647D01*
X124952Y-171055D01*
X123272Y-172177D01*
X111027D01*
X110359Y-170927D01*
X110945Y-170048D01*
X111353Y-168000D01*
X110945Y-165952D01*
X109785Y-164215D01*
X108048Y-163055D01*
X106000Y-162647D01*
X103952Y-163055D01*
X102215Y-164215D01*
X101055Y-165952D01*
X100647Y-168000D01*
X101055Y-170048D01*
X101641Y-170927D01*
X100973Y-172177D01*
X91584D01*
X90823Y-171416D01*
Y-151728D01*
X91945Y-150048D01*
X92353Y-148000D01*
X91945Y-145951D01*
X90785Y-144215D01*
X89048Y-143055D01*
X87000Y-142647D01*
X84952Y-143055D01*
X83215Y-144215D01*
X82055Y-145951D01*
X81838Y-147040D01*
X80588Y-146917D01*
Y-130900D01*
X85244Y-126244D01*
X86239Y-124756D01*
X86588Y-123000D01*
Y-97000D01*
X86239Y-95244D01*
X85244Y-93756D01*
X81438Y-89950D01*
X81627Y-89000D01*
Y-79000D01*
X81123Y-76464D01*
X79686Y-74314D01*
X77536Y-72877D01*
X75000Y-72373D01*
D02*
G37*
G36*
X268500Y-171550D02*
X217500D01*
Y-184650D01*
X268500D01*
Y-171550D01*
D02*
G37*
G36*
X312500Y-106500D02*
X296500D01*
Y-115511D01*
X295756Y-116256D01*
X294761Y-117744D01*
X294412Y-119500D01*
Y-121417D01*
X294055Y-121952D01*
X293647Y-124000D01*
X294055Y-126048D01*
X294412Y-126583D01*
Y-136250D01*
X294761Y-138006D01*
X295756Y-139494D01*
X296000Y-139739D01*
Y-142261D01*
X295756Y-142506D01*
X294761Y-143994D01*
X294412Y-145750D01*
Y-157417D01*
X294055Y-157952D01*
X293647Y-160000D01*
X294055Y-162048D01*
X294412Y-162583D01*
Y-165500D01*
X294500Y-165943D01*
Y-176500D01*
X310500D01*
Y-167362D01*
X311239Y-166256D01*
X311588Y-164500D01*
Y-162583D01*
X311945Y-162048D01*
X312353Y-160000D01*
X311945Y-157952D01*
X311588Y-157417D01*
Y-144250D01*
X311500Y-143807D01*
Y-138193D01*
X311588Y-137750D01*
Y-129661D01*
X312691Y-129072D01*
X312854Y-129181D01*
X314500Y-129508D01*
Y-155500D01*
X330000D01*
Y-144043D01*
X330500Y-143000D01*
X347500D01*
Y-119000D01*
X341417D01*
X341146Y-118819D01*
X339000Y-118392D01*
X315000D01*
X313750Y-118641D01*
X312500Y-117667D01*
Y-106500D01*
D02*
G37*
G36*
X268500Y-153150D02*
X217500D01*
Y-166250D01*
X268500D01*
Y-153150D01*
D02*
G37*
G36*
X413000Y43353D02*
X410952Y42945D01*
X409215Y41785D01*
X408055Y40048D01*
X407647Y38000D01*
X408055Y35952D01*
X409215Y34215D01*
X410952Y33055D01*
X413000Y32647D01*
X415048Y33055D01*
X416785Y34215D01*
X417945Y35952D01*
X418353Y38000D01*
X417945Y40048D01*
X416785Y41785D01*
X415048Y42945D01*
X413000Y43353D01*
D02*
G37*
G36*
X464000Y151353D02*
X461952Y150945D01*
X460215Y149785D01*
X459055Y148048D01*
X458647Y146000D01*
X459055Y143952D01*
X460215Y142215D01*
X461952Y141055D01*
X464000Y140647D01*
X466048Y141055D01*
X467785Y142215D01*
X468945Y143952D01*
X469353Y146000D01*
X468945Y148048D01*
X467785Y149785D01*
X466048Y150945D01*
X464000Y151353D01*
D02*
G37*
G36*
Y139353D02*
X461952Y138945D01*
X460215Y137785D01*
X459055Y136048D01*
X458647Y134000D01*
X459055Y131952D01*
X460215Y130215D01*
X461952Y129055D01*
X464000Y128647D01*
X466048Y129055D01*
X467785Y130215D01*
X468945Y131952D01*
X469353Y134000D01*
X468945Y136048D01*
X467785Y137785D01*
X466048Y138945D01*
X464000Y139353D01*
D02*
G37*
G36*
X76200Y214799D02*
X73198Y214404D01*
X70400Y213245D01*
X67998Y211402D01*
X66155Y209000D01*
X64996Y206202D01*
X64601Y203200D01*
X64996Y200198D01*
X66155Y197400D01*
X67998Y194998D01*
X70400Y193155D01*
X73198Y191996D01*
X76200Y191601D01*
X79202Y191996D01*
X82000Y193155D01*
X84402Y194998D01*
X86245Y197400D01*
X87404Y200198D01*
X87799Y203200D01*
X87404Y206202D01*
X86245Y209000D01*
X84402Y211402D01*
X82000Y213245D01*
X79202Y214404D01*
X76200Y214799D01*
D02*
G37*
G36*
X457200D02*
X454198Y214404D01*
X451400Y213245D01*
X448998Y211402D01*
X447155Y209000D01*
X445996Y206202D01*
X445601Y203200D01*
X445996Y200198D01*
X447155Y197400D01*
X448998Y194998D01*
X449553Y194572D01*
Y188368D01*
X447832Y186647D01*
X410000D01*
X410000Y186647D01*
X407074Y186065D01*
X404593Y184407D01*
X404593Y184407D01*
X390593Y170407D01*
X388935Y167926D01*
X388353Y165000D01*
X388353Y165000D01*
Y155000D01*
X388935Y152074D01*
X390593Y149593D01*
X393074Y147935D01*
X396000Y147353D01*
X398926Y147935D01*
X401407Y149593D01*
X403065Y152074D01*
X403647Y155000D01*
Y161833D01*
X413167Y171353D01*
X451000D01*
X451000Y171353D01*
X453926Y171935D01*
X456407Y173593D01*
X462607Y179793D01*
X464265Y182274D01*
X464847Y185200D01*
X464847Y185200D01*
Y194572D01*
X465402Y194998D01*
X467245Y197400D01*
X468404Y200198D01*
X468799Y203200D01*
X468404Y206202D01*
X467245Y209000D01*
X465402Y211402D01*
X463000Y213245D01*
X460202Y214404D01*
X457200Y214799D01*
D02*
G37*
G36*
X198000Y134353D02*
X195952Y133945D01*
X194215Y132785D01*
X193055Y131048D01*
X192647Y129000D01*
X193055Y126952D01*
X194181Y125266D01*
X194350Y124935D01*
Y124065D01*
X194181Y123734D01*
X193055Y122048D01*
X192647Y120000D01*
X193055Y117952D01*
X194215Y116215D01*
X195952Y115055D01*
X198000Y114647D01*
X200048Y115055D01*
X201785Y116215D01*
X202945Y117952D01*
X203353Y120000D01*
X202945Y122048D01*
X201819Y123734D01*
X201650Y124065D01*
Y124935D01*
X201819Y125266D01*
X202945Y126952D01*
X203353Y129000D01*
X202945Y131048D01*
X201785Y132785D01*
X200048Y133945D01*
X198000Y134353D01*
D02*
G37*
G36*
X464000Y114353D02*
X461952Y113945D01*
X460215Y112785D01*
X459055Y111048D01*
X458647Y109000D01*
X459055Y106952D01*
X460215Y105215D01*
X461952Y104055D01*
X464000Y103647D01*
X466048Y104055D01*
X467785Y105215D01*
X468945Y106952D01*
X469353Y109000D01*
X468945Y111048D01*
X467785Y112785D01*
X466048Y113945D01*
X464000Y114353D01*
D02*
G37*
G36*
X100000Y117647D02*
X90000D01*
X87074Y117065D01*
X84593Y115407D01*
X82935Y112926D01*
X82353Y110000D01*
X82935Y107074D01*
X84593Y104593D01*
X87074Y102935D01*
X90000Y102353D01*
X100000D01*
X102926Y102935D01*
X105407Y104593D01*
X107065Y107074D01*
X107647Y110000D01*
X107065Y112926D01*
X105407Y115407D01*
X102926Y117065D01*
X100000Y117647D01*
D02*
G37*
G36*
X268500Y182650D02*
X217500D01*
Y169550D01*
X268500D01*
Y172022D01*
X275000D01*
Y170325D01*
X295000D01*
Y172431D01*
X300522D01*
X302431Y170522D01*
Y138930D01*
X302215Y138785D01*
X301055Y137048D01*
X300647Y135000D01*
X301055Y132952D01*
X302215Y131215D01*
X303659Y130250D01*
X303500Y129000D01*
X303500Y128967D01*
Y118000D01*
X322500D01*
Y119422D01*
X342015D01*
X342808Y118455D01*
X342647Y117647D01*
X343055Y115599D01*
X344215Y113862D01*
X345952Y112702D01*
X348000Y112294D01*
X350048Y112702D01*
X351785Y113862D01*
X352945Y115599D01*
X353353Y117647D01*
X353642Y118000D01*
X370500D01*
Y129000D01*
X351500D01*
Y127578D01*
X322500D01*
Y129000D01*
X308666D01*
X308341Y130250D01*
X309785Y131215D01*
X310945Y132952D01*
X311353Y135000D01*
X310945Y137048D01*
X309785Y138785D01*
X309569Y138930D01*
Y172000D01*
X309297Y173366D01*
X308523Y174523D01*
X304523Y178523D01*
X303366Y179297D01*
X302000Y179569D01*
X295000D01*
Y181675D01*
X275000D01*
Y180178D01*
X268500D01*
Y182650D01*
D02*
G37*
G36*
X420000Y121785D02*
X416569Y121447D01*
X413271Y120446D01*
X410230Y118821D01*
X407566Y116634D01*
X405379Y113969D01*
X404271Y111897D01*
X395500D01*
Y112250D01*
X376500D01*
Y96250D01*
X395500D01*
Y96603D01*
X404218D01*
X405379Y94431D01*
X407566Y91766D01*
X410230Y89579D01*
X412353Y88444D01*
Y61900D01*
X412353Y61900D01*
X412935Y58974D01*
X414593Y56493D01*
X420605Y50481D01*
Y31785D01*
X447195D01*
Y64215D01*
X428499D01*
X427647Y65068D01*
Y88444D01*
X429770Y89579D01*
X432434Y91766D01*
X434621Y94431D01*
X436246Y97471D01*
X437247Y100769D01*
X437585Y104200D01*
X437247Y107631D01*
X436246Y110929D01*
X434621Y113969D01*
X432434Y116634D01*
X429770Y118821D01*
X426729Y120446D01*
X423431Y121447D01*
X420000Y121785D01*
D02*
G37*
G36*
X279400Y214799D02*
X276398Y214404D01*
X273600Y213245D01*
X271198Y211402D01*
X269355Y209000D01*
X268196Y206202D01*
X267801Y203200D01*
X268196Y200198D01*
X269355Y197400D01*
X271198Y194998D01*
X273600Y193155D01*
X276398Y191996D01*
X279400Y191601D01*
X282402Y191996D01*
X285200Y193155D01*
X287602Y194998D01*
X289445Y197400D01*
X290604Y200198D01*
X290999Y203200D01*
X290604Y206202D01*
X289445Y209000D01*
X287602Y211402D01*
X285200Y213245D01*
X282402Y214404D01*
X279400Y214799D01*
D02*
G37*
G36*
X254000D02*
X250998Y214404D01*
X248200Y213245D01*
X245798Y211402D01*
X243955Y209000D01*
X242796Y206202D01*
X242401Y203200D01*
X242796Y200198D01*
X243955Y197400D01*
X245798Y194998D01*
X248200Y193155D01*
X250998Y191996D01*
X254000Y191601D01*
X257002Y191996D01*
X259800Y193155D01*
X262202Y194998D01*
X264045Y197400D01*
X265204Y200198D01*
X265599Y203200D01*
X265204Y206202D01*
X264045Y209000D01*
X262202Y211402D01*
X259800Y213245D01*
X257002Y214404D01*
X254000Y214799D01*
D02*
G37*
G36*
X431800D02*
X428798Y214404D01*
X426000Y213245D01*
X423598Y211402D01*
X421755Y209000D01*
X420596Y206202D01*
X420201Y203200D01*
X420596Y200198D01*
X421755Y197400D01*
X423598Y194998D01*
X426000Y193155D01*
X428798Y191996D01*
X431800Y191601D01*
X434802Y191996D01*
X437600Y193155D01*
X440002Y194998D01*
X441845Y197400D01*
X443004Y200198D01*
X443399Y203200D01*
X443004Y206202D01*
X441845Y209000D01*
X440002Y211402D01*
X437600Y213245D01*
X434802Y214404D01*
X431800Y214799D01*
D02*
G37*
G36*
X304800D02*
X301798Y214404D01*
X299000Y213245D01*
X296598Y211402D01*
X294755Y209000D01*
X293596Y206202D01*
X293201Y203200D01*
X293596Y200198D01*
X294755Y197400D01*
X296598Y194998D01*
X299000Y193155D01*
X301798Y191996D01*
X304800Y191601D01*
X307802Y191996D01*
X310600Y193155D01*
X313002Y194998D01*
X314845Y197400D01*
X316004Y200198D01*
X316399Y203200D01*
X316004Y206202D01*
X314845Y209000D01*
X313002Y211402D01*
X310600Y213245D01*
X307802Y214404D01*
X304800Y214799D01*
D02*
G37*
G36*
X203200D02*
X200198Y214404D01*
X197400Y213245D01*
X194998Y211402D01*
X193155Y209000D01*
X191996Y206202D01*
X191601Y203200D01*
X191996Y200198D01*
X193155Y197400D01*
X194998Y194998D01*
X197400Y193155D01*
X200198Y191996D01*
X203200Y191601D01*
X206202Y191996D01*
X209000Y193155D01*
X211402Y194998D01*
X213245Y197400D01*
X214404Y200198D01*
X214799Y203200D01*
X214404Y206202D01*
X213245Y209000D01*
X211402Y211402D01*
X209000Y213245D01*
X206202Y214404D01*
X203200Y214799D01*
D02*
G37*
G36*
X127000D02*
X123998Y214404D01*
X121200Y213245D01*
X118798Y211402D01*
X116955Y209000D01*
X115796Y206202D01*
X115401Y203200D01*
X115796Y200198D01*
X116955Y197400D01*
X118798Y194998D01*
X121200Y193155D01*
X123998Y191996D01*
X127000Y191601D01*
X130002Y191996D01*
X132800Y193155D01*
X135202Y194998D01*
X137045Y197400D01*
X138204Y200198D01*
X138599Y203200D01*
X138204Y206202D01*
X137045Y209000D01*
X135202Y211402D01*
X132800Y213245D01*
X130002Y214404D01*
X127000Y214799D01*
D02*
G37*
G36*
X101600D02*
X98598Y214404D01*
X95800Y213245D01*
X93398Y211402D01*
X91555Y209000D01*
X90396Y206202D01*
X90001Y203200D01*
X90396Y200198D01*
X91555Y197400D01*
X93398Y194998D01*
X95800Y193155D01*
X98598Y191996D01*
X101600Y191601D01*
X104602Y191996D01*
X107400Y193155D01*
X109802Y194998D01*
X111645Y197400D01*
X112804Y200198D01*
X113199Y203200D01*
X112804Y206202D01*
X111645Y209000D01*
X109802Y211402D01*
X107400Y213245D01*
X104602Y214404D01*
X101600Y214799D01*
D02*
G37*
G36*
X177800D02*
X174798Y214404D01*
X172000Y213245D01*
X169598Y211402D01*
X167755Y209000D01*
X166596Y206202D01*
X166201Y203200D01*
X166596Y200198D01*
X167755Y197400D01*
X169598Y194998D01*
X172000Y193155D01*
X174798Y191996D01*
X177800Y191601D01*
X180802Y191996D01*
X183600Y193155D01*
X186002Y194998D01*
X187845Y197400D01*
X189004Y200198D01*
X189399Y203200D01*
X189004Y206202D01*
X187845Y209000D01*
X186002Y211402D01*
X183600Y213245D01*
X180802Y214404D01*
X177800Y214799D01*
D02*
G37*
G36*
X152400D02*
X149398Y214404D01*
X146600Y213245D01*
X144198Y211402D01*
X142355Y209000D01*
X141196Y206202D01*
X140801Y203200D01*
X141196Y200198D01*
X142355Y197400D01*
X144198Y194998D01*
X146600Y193155D01*
X149398Y191996D01*
X152400Y191601D01*
X155402Y191996D01*
X158200Y193155D01*
X160602Y194998D01*
X162445Y197400D01*
X163604Y200198D01*
X163999Y203200D01*
X163604Y206202D01*
X162445Y209000D01*
X160602Y211402D01*
X158200Y213245D01*
X155402Y214404D01*
X152400Y214799D01*
D02*
G37*
G36*
X491395Y64215D02*
X464805D01*
Y61110D01*
X463555Y60442D01*
X462536Y61123D01*
X460000Y61627D01*
X457464Y61123D01*
X455314Y59686D01*
X453877Y57536D01*
X453373Y55000D01*
Y48000D01*
Y41000D01*
X453877Y38464D01*
X455314Y36314D01*
X457464Y34877D01*
X460000Y34373D01*
X462536Y34877D01*
X463555Y35558D01*
X464805Y34890D01*
Y31785D01*
X491395D01*
Y64215D01*
D02*
G37*
G36*
X379000Y58353D02*
X376952Y57945D01*
X375215Y56785D01*
X374785D01*
X373048Y57945D01*
X371000Y58353D01*
X368952Y57945D01*
X367215Y56785D01*
X366055Y55048D01*
X365647Y53000D01*
X366055Y50952D01*
X367215Y49215D01*
X368952Y48055D01*
X371000Y47647D01*
X373048Y48055D01*
X374785Y49215D01*
X375215D01*
X376952Y48055D01*
X379000Y47647D01*
X381048Y48055D01*
X382785Y49215D01*
X383945Y50952D01*
X384353Y53000D01*
X383945Y55048D01*
X382785Y56785D01*
X381048Y57945D01*
X379000Y58353D01*
D02*
G37*
G36*
X105000Y80627D02*
X95000D01*
X92464Y80123D01*
X90314Y78686D01*
X88877Y76536D01*
X88373Y74000D01*
X88877Y71464D01*
X90314Y69314D01*
X92464Y67877D01*
X95000Y67373D01*
X105000D01*
X107536Y67877D01*
X109686Y69314D01*
X111123Y71464D01*
X111627Y74000D01*
X111123Y76536D01*
X109686Y78686D01*
X107536Y80123D01*
X105000Y80627D01*
D02*
G37*
G36*
X470000Y77353D02*
X467952Y76945D01*
X466500Y75975D01*
X465048Y76945D01*
X463000Y77353D01*
X460952Y76945D01*
X459215Y75785D01*
X458055Y74048D01*
X457647Y72000D01*
X458055Y69952D01*
X459215Y68215D01*
X460952Y67055D01*
X463000Y66647D01*
X465048Y67055D01*
X466500Y68025D01*
X467952Y67055D01*
X470000Y66647D01*
X472048Y67055D01*
X473785Y68215D01*
X474945Y69952D01*
X475353Y72000D01*
X474945Y74048D01*
X473785Y75785D01*
X472048Y76945D01*
X470000Y77353D01*
D02*
G37*
G36*
X126000Y74353D02*
X123952Y73945D01*
X122215Y72785D01*
X121785D01*
X120048Y73945D01*
X118000Y74353D01*
X115952Y73945D01*
X114215Y72785D01*
X113055Y71048D01*
X112647Y69000D01*
X113055Y66952D01*
X114215Y65215D01*
X115952Y64055D01*
X118000Y63647D01*
X120048Y64055D01*
X121785Y65215D01*
X122215D01*
X123952Y64055D01*
X126000Y63647D01*
X128048Y64055D01*
X129785Y65215D01*
X130945Y66952D01*
X131353Y69000D01*
X130945Y71048D01*
X129785Y72785D01*
X128048Y73945D01*
X126000Y74353D01*
D02*
G37*
G36*
X194000Y56353D02*
X191952Y55945D01*
X190215Y54785D01*
X189055Y53048D01*
X188647Y51000D01*
X188662Y50924D01*
X187563Y50042D01*
X186000Y50353D01*
X183952Y49945D01*
X182215Y48785D01*
X181055Y47048D01*
X180647Y45000D01*
X181055Y42952D01*
X181474Y42324D01*
X180951Y40945D01*
X179215Y39785D01*
X178055Y38048D01*
X177647Y36000D01*
X178055Y33952D01*
X179215Y32215D01*
X180952Y31055D01*
X183000Y30647D01*
X185048Y31055D01*
X186785Y32215D01*
X187945Y33952D01*
X188353Y36000D01*
X187945Y38048D01*
X187526Y38676D01*
X188048Y40055D01*
X189785Y41215D01*
X190945Y42952D01*
X191353Y45000D01*
X191338Y45076D01*
X192437Y45958D01*
X194000Y45647D01*
X196048Y46055D01*
X197785Y47215D01*
X198945Y48952D01*
X199353Y51000D01*
X198945Y53048D01*
X197785Y54785D01*
X196048Y55945D01*
X194000Y56353D01*
D02*
G37*
G36*
X86000Y74000D02*
X53000D01*
Y46000D01*
X72811D01*
Y44000D01*
X87000D01*
Y61998D01*
X86000D01*
Y74000D01*
D02*
G37*
G36*
X170000Y56353D02*
X167952Y55945D01*
X166215Y54785D01*
X165055Y53048D01*
X164704Y51288D01*
X163765Y50201D01*
X163000Y50353D01*
X160952Y49945D01*
X159215Y48785D01*
X158055Y47048D01*
X157831Y45926D01*
X157113Y45027D01*
X156481Y45058D01*
X155000Y45353D01*
X152952Y44945D01*
X151215Y43785D01*
X150055Y42048D01*
X149647Y40000D01*
X149792Y39271D01*
X148729Y38208D01*
X148000Y38353D01*
X145952Y37945D01*
X144215Y36785D01*
X143055Y35048D01*
X142647Y33000D01*
X143055Y30952D01*
X144215Y29215D01*
X145952Y28055D01*
X148000Y27647D01*
X150048Y28055D01*
X151757Y29196D01*
X192431Y-11478D01*
Y-37653D01*
X191329Y-38242D01*
X191048Y-38055D01*
X189000Y-37647D01*
X186952Y-38055D01*
X185215Y-39215D01*
X184055Y-40952D01*
X183652Y-42976D01*
X182000Y-42647D01*
X180348Y-42976D01*
X179945Y-40952D01*
X178785Y-39215D01*
X177048Y-38055D01*
X175000Y-37647D01*
X173230Y-37999D01*
X172444Y-37460D01*
X172135Y-37097D01*
X172353Y-36000D01*
X171945Y-33952D01*
X170785Y-32215D01*
X169048Y-31055D01*
X167000Y-30647D01*
X164952Y-31055D01*
X164671Y-31242D01*
X163569Y-30653D01*
Y-30000D01*
X163297Y-28634D01*
X163243Y-28553D01*
X163353Y-28000D01*
X162945Y-25952D01*
X161785Y-24215D01*
X160048Y-23055D01*
X158000Y-22647D01*
X155952Y-23055D01*
X154215Y-24215D01*
X153055Y-25952D01*
X152647Y-28000D01*
X153055Y-30048D01*
X154215Y-31785D01*
X154567Y-32020D01*
X154689Y-33264D01*
X148477Y-39477D01*
X147703Y-40634D01*
X147431Y-42000D01*
Y-87959D01*
X146952Y-88055D01*
X145215Y-89215D01*
X144055Y-90952D01*
X143647Y-93000D01*
X144055Y-95048D01*
X145215Y-96785D01*
X145908Y-97248D01*
Y-98752D01*
X145215Y-99215D01*
X144055Y-100952D01*
X143647Y-103000D01*
X144055Y-105048D01*
X145215Y-106785D01*
X146952Y-107945D01*
X149000Y-108353D01*
X151048Y-107945D01*
X152785Y-106785D01*
X153945Y-105048D01*
X154353Y-103000D01*
X154302Y-102745D01*
X158523Y-98523D01*
X159297Y-97366D01*
X159569Y-96000D01*
Y-53571D01*
X160819Y-53192D01*
X161215Y-53785D01*
X162952Y-54945D01*
X165000Y-55353D01*
X165690Y-55216D01*
X166055Y-57048D01*
X167215Y-58785D01*
X168952Y-59945D01*
X171000Y-60353D01*
X173048Y-59945D01*
X174785Y-58785D01*
X175945Y-57048D01*
X176353Y-55000D01*
X175945Y-52952D01*
X174785Y-51215D01*
X173048Y-50055D01*
X171000Y-49647D01*
X170310Y-49784D01*
X169945Y-47952D01*
X168785Y-46215D01*
X167048Y-45055D01*
X165000Y-44647D01*
X162952Y-45055D01*
X161215Y-46215D01*
X160819Y-46808D01*
X159569Y-46429D01*
Y-44831D01*
X164054Y-40346D01*
X164952Y-40945D01*
X167000Y-41353D01*
X168770Y-41001D01*
X169556Y-41540D01*
X169865Y-41903D01*
X169647Y-43000D01*
X170055Y-45048D01*
X171215Y-46785D01*
X172952Y-47945D01*
X175000Y-48353D01*
X176652Y-48024D01*
X177055Y-50048D01*
X178215Y-51785D01*
X179952Y-52945D01*
X182000Y-53353D01*
X184048Y-52945D01*
X185785Y-51785D01*
X186945Y-50048D01*
X187348Y-48024D01*
X189000Y-48353D01*
X191048Y-47945D01*
X191329Y-47758D01*
X192431Y-48347D01*
Y-94000D01*
X192464Y-94165D01*
X191339Y-94917D01*
X190048Y-94055D01*
X188000Y-93647D01*
X185952Y-94055D01*
X184215Y-95215D01*
X183055Y-96952D01*
X182690Y-98784D01*
X182000Y-98647D01*
X181310Y-98784D01*
X180945Y-96952D01*
X179785Y-95215D01*
X178048Y-94055D01*
X176000Y-93647D01*
X173952Y-94055D01*
X172215Y-95215D01*
X171055Y-96952D01*
X170647Y-99000D01*
X171055Y-101048D01*
X172215Y-102785D01*
X173952Y-103945D01*
X176000Y-104353D01*
X176690Y-104216D01*
X177055Y-106048D01*
X178215Y-107785D01*
X179952Y-108945D01*
X182000Y-109353D01*
X184048Y-108945D01*
X185785Y-107785D01*
X186945Y-106048D01*
X187310Y-104216D01*
X188000Y-104353D01*
X190048Y-103945D01*
X191785Y-102785D01*
X192945Y-101048D01*
X193353Y-99000D01*
X193146Y-97961D01*
X194298Y-97345D01*
X195698Y-98745D01*
X195647Y-99000D01*
X196055Y-101048D01*
X197215Y-102785D01*
X198952Y-103945D01*
X201000Y-104353D01*
X203048Y-103945D01*
X204785Y-102785D01*
X204875Y-102650D01*
X206125D01*
X206215Y-102785D01*
X207952Y-103945D01*
X210000Y-104353D01*
X212048Y-103945D01*
X213785Y-102785D01*
X214945Y-101048D01*
X215353Y-99000D01*
X215058Y-97519D01*
X215027Y-96887D01*
X215926Y-96169D01*
X216250Y-96104D01*
X217500Y-97033D01*
Y-102250D01*
Y-112450D01*
Y-122650D01*
Y-132850D01*
Y-143050D01*
X268500D01*
Y-132479D01*
X269750Y-131811D01*
X269952Y-131945D01*
X272000Y-132353D01*
X273750Y-132005D01*
X275000Y-132675D01*
Y-132675D01*
X285000D01*
Y-122675D01*
Y-112675D01*
Y-102675D01*
Y-92675D01*
Y-82675D01*
Y-71325D01*
X275000D01*
Y-71325D01*
X273750Y-71995D01*
X272000Y-71647D01*
X269952Y-72055D01*
X269750Y-72189D01*
X268500Y-71941D01*
Y-70750D01*
X217500D01*
Y-84967D01*
X216250Y-85896D01*
X215000Y-85647D01*
X212952Y-86055D01*
X211215Y-87215D01*
X210055Y-88952D01*
X209647Y-91000D01*
X209854Y-92039D01*
X208702Y-92655D01*
X204569Y-88522D01*
Y-38347D01*
X205671Y-37758D01*
X205952Y-37945D01*
X208000Y-38353D01*
X210048Y-37945D01*
X211785Y-36785D01*
X212945Y-35048D01*
X213353Y-33000D01*
X214000Y-32353D01*
X216048Y-31945D01*
X217785Y-30785D01*
X218945Y-29048D01*
X219353Y-27000D01*
X218945Y-24952D01*
X217785Y-23215D01*
X216048Y-22055D01*
X214000Y-21647D01*
X211952Y-22055D01*
X210215Y-23215D01*
X209055Y-24952D01*
X208647Y-27000D01*
X208000Y-27647D01*
X205952Y-28055D01*
X205671Y-28242D01*
X204569Y-27653D01*
Y-9000D01*
X204297Y-7634D01*
X203523Y-6477D01*
X159605Y37442D01*
X159945Y37952D01*
X160169Y39074D01*
X160887Y39973D01*
X161519Y39942D01*
X163000Y39647D01*
X165048Y40055D01*
X166785Y41215D01*
X167945Y42952D01*
X168295Y44712D01*
X169235Y45799D01*
X170000Y45647D01*
X172048Y46055D01*
X173785Y47215D01*
X174945Y48952D01*
X175353Y51000D01*
X174945Y53048D01*
X173785Y54785D01*
X172048Y55945D01*
X170000Y56353D01*
D02*
G37*
G36*
X268500Y68850D02*
X217500D01*
Y55750D01*
X268500D01*
Y68850D01*
D02*
G37*
G36*
X136000Y63353D02*
X133952Y62945D01*
X132215Y61785D01*
X131055Y60048D01*
X130647Y58000D01*
X131055Y55952D01*
X132215Y54215D01*
X133952Y53055D01*
X136000Y52647D01*
X138048Y53055D01*
X139785Y54215D01*
X140945Y55952D01*
X141353Y58000D01*
X140945Y60048D01*
X139785Y61785D01*
X138048Y62945D01*
X136000Y63353D01*
D02*
G37*
G36*
X57000Y121353D02*
X54952Y120945D01*
X53215Y119785D01*
X52055Y118048D01*
X51647Y116000D01*
X52055Y113952D01*
X53215Y112215D01*
Y111785D01*
X52055Y110048D01*
X51647Y108000D01*
X52055Y105952D01*
X53215Y104215D01*
X54952Y103055D01*
X57000Y102647D01*
X59048Y103055D01*
X60785Y104215D01*
X61945Y105952D01*
X62041Y106431D01*
X63431D01*
Y95000D01*
X63703Y93634D01*
X64477Y92477D01*
X69477Y87477D01*
X70634Y86703D01*
X72000Y86431D01*
X112000D01*
X113366Y86703D01*
X114523Y87477D01*
X119478Y92431D01*
X163015D01*
X163138Y91181D01*
X161952Y90945D01*
X160215Y89785D01*
X159055Y88048D01*
X158647Y86000D01*
X159055Y83952D01*
X160215Y82215D01*
X161952Y81055D01*
X164000Y80647D01*
X166048Y81055D01*
X167620Y82105D01*
X168215Y81215D01*
X169952Y80055D01*
X172000Y79647D01*
X174048Y80055D01*
X175785Y81215D01*
X176215D01*
X177952Y80055D01*
X180000Y79647D01*
X182048Y80055D01*
X183785Y81215D01*
X184945Y82952D01*
X185353Y85000D01*
X184945Y87048D01*
X183785Y88785D01*
X182048Y89945D01*
X180000Y90353D01*
X177952Y89945D01*
X176215Y88785D01*
X175785D01*
X174048Y89945D01*
X172000Y90353D01*
X169952Y89945D01*
X168380Y88895D01*
X167785Y89785D01*
X166048Y90945D01*
X164862Y91181D01*
X164985Y92431D01*
X182959D01*
X183055Y91952D01*
X184215Y90215D01*
X185952Y89055D01*
X188000Y88647D01*
X190048Y89055D01*
X191785Y90215D01*
X192945Y91952D01*
X193353Y94000D01*
X192945Y96048D01*
X191785Y97785D01*
Y98215D01*
X192945Y99952D01*
X193353Y102000D01*
X192945Y104048D01*
X191785Y105785D01*
X190048Y106945D01*
X188000Y107353D01*
X185952Y106945D01*
X184215Y105785D01*
X183055Y104048D01*
X182959Y103569D01*
X116000D01*
X114634Y103297D01*
X113477Y102523D01*
X108522Y97569D01*
X75478D01*
X74569Y98478D01*
Y110000D01*
X74297Y111366D01*
X73523Y112523D01*
X69523Y116523D01*
X68366Y117297D01*
X67000Y117569D01*
X62041D01*
X61945Y118048D01*
X60785Y119785D01*
X59048Y120945D01*
X57000Y121353D01*
D02*
G37*
G36*
X464000Y101353D02*
X461952Y100945D01*
X460215Y99785D01*
X459055Y98048D01*
X458647Y96000D01*
X459055Y93952D01*
X460215Y92215D01*
X461952Y91055D01*
X464000Y90647D01*
X466048Y91055D01*
X467785Y92215D01*
X468945Y93952D01*
X469353Y96000D01*
X468945Y98048D01*
X467785Y99785D01*
X466048Y100945D01*
X464000Y101353D01*
D02*
G37*
G36*
X268500Y151250D02*
X217500D01*
Y140150D01*
Y129950D01*
Y119750D01*
Y109550D01*
Y99350D01*
Y89150D01*
Y78950D01*
X268500D01*
Y89521D01*
X269750Y90189D01*
X269952Y90055D01*
X272000Y89647D01*
X273750Y89995D01*
X275000Y89325D01*
Y89325D01*
X285000D01*
Y99325D01*
Y109325D01*
Y119325D01*
Y129325D01*
Y139325D01*
Y150675D01*
X275000D01*
Y150675D01*
X273750Y150005D01*
X272000Y150353D01*
X269952Y149945D01*
X269750Y149811D01*
X268500Y150059D01*
Y151250D01*
D02*
G37*
G36*
X196000Y88353D02*
X193952Y87945D01*
X192215Y86785D01*
X191055Y85048D01*
X190647Y83000D01*
X191055Y80952D01*
X192215Y79215D01*
X193952Y78055D01*
X196000Y77647D01*
X198048Y78055D01*
X199785Y79215D01*
X200945Y80952D01*
X201353Y83000D01*
X200945Y85048D01*
X199785Y86785D01*
X198048Y87945D01*
X196000Y88353D01*
D02*
G37*
G36*
X464000Y89353D02*
X461952Y88945D01*
X460215Y87785D01*
X459055Y86048D01*
X458647Y84000D01*
X459055Y81952D01*
X460215Y80215D01*
X461952Y79055D01*
X464000Y78647D01*
X466048Y79055D01*
X467785Y80215D01*
X468945Y81952D01*
X469353Y84000D01*
X468945Y86048D01*
X467785Y87785D01*
X466048Y88945D01*
X464000Y89353D01*
D02*
G37*
%LPD*%
G36*
X343980Y87672D02*
X343647Y86000D01*
X344055Y83952D01*
X345215Y82215D01*
Y81785D01*
X344055Y80048D01*
X343647Y78000D01*
X344055Y75952D01*
X344242Y75671D01*
X343653Y74569D01*
X318000D01*
X317819Y74532D01*
X316569Y75558D01*
Y81000D01*
X322500D01*
Y81000D01*
X323352Y81455D01*
X323952Y81055D01*
X326000Y80647D01*
X328048Y81055D01*
X329785Y82215D01*
X330945Y83952D01*
X331353Y86000D01*
X331020Y87672D01*
X331751Y88922D01*
X343249D01*
X343980Y87672D01*
D02*
G37*
G36*
X432500Y-105500D02*
X428500Y-107000D01*
X425000Y-109000D01*
X424500Y-109500D01*
X422500Y-111000D01*
X420000Y-114000D01*
X419000Y-115500D01*
X418000Y-117500D01*
X406500D01*
Y-105000D01*
X438000D01*
X432500Y-105500D01*
D02*
G37*
G36*
X469500Y-117500D02*
X458000D01*
X456500Y-115000D01*
X455000Y-113000D01*
X451500Y-109500D01*
X449000Y-108000D01*
X446000Y-106500D01*
X443000Y-105500D01*
X438000Y-105000D01*
X469500D01*
Y-117500D01*
D02*
G37*
G36*
X419000Y-138000D02*
X421000Y-141000D01*
X425000Y-145000D01*
X427000Y-146000D01*
X429000Y-147000D01*
X431500Y-148000D01*
X433500Y-148500D01*
X438000Y-149000D01*
X406500D01*
Y-136500D01*
X418000D01*
X419000Y-138000D01*
D02*
G37*
G36*
X469500Y-149000D02*
X438000D01*
X443000Y-148500D01*
X447500Y-147000D01*
X451000Y-145000D01*
X455500Y-140500D01*
X457000Y-138000D01*
X458000Y-136500D01*
X469500D01*
Y-149000D01*
D02*
G37*
D10*
X386000Y104250D02*
D03*
Y121750D02*
D03*
X485000Y-150750D02*
D03*
Y-133250D02*
D03*
D18*
X446000Y-25000D02*
D03*
Y-15000D02*
D03*
Y-5000D02*
D03*
Y5000D02*
D03*
Y15000D02*
D03*
Y25000D02*
D03*
D19*
X290000Y-46000D02*
D03*
X280000D02*
D03*
X290000Y176000D02*
D03*
X280000D02*
D03*
Y145000D02*
D03*
X290000D02*
D03*
X280000Y125000D02*
D03*
X290000D02*
D03*
X280000Y115000D02*
D03*
X290000D02*
D03*
X280000Y95000D02*
D03*
X290000D02*
D03*
X280000Y135000D02*
D03*
X290000D02*
D03*
X280000Y-117000D02*
D03*
X290000D02*
D03*
X295000Y-5000D02*
D03*
X285000D02*
D03*
X280000Y-87000D02*
D03*
X290000D02*
D03*
X280000Y-77000D02*
D03*
X290000D02*
D03*
X280000Y-97000D02*
D03*
X290000D02*
D03*
X280000Y-107000D02*
D03*
X290000D02*
D03*
X280000Y-127000D02*
D03*
X290000D02*
D03*
X280000Y105000D02*
D03*
X290000D02*
D03*
D21*
X353500Y-104000D02*
D03*
X371000D02*
D03*
X452250Y-173000D02*
D03*
X469750D02*
D03*
X434750D02*
D03*
X417250D02*
D03*
D22*
X274500Y7000D02*
D03*
X291500D02*
D03*
X291500Y-17000D02*
D03*
X274500D02*
D03*
X302500Y-169000D02*
D03*
X285500D02*
D03*
X321500Y-114000D02*
D03*
X304500D02*
D03*
D44*
X433900Y48000D02*
D03*
X478100D02*
D03*
D46*
X481500Y20000D02*
D03*
X460500D02*
D03*
X481500Y-20000D02*
D03*
X460500D02*
D03*
X481500Y-0D02*
D03*
X460500D02*
D03*
D47*
X323000Y93000D02*
X352000D01*
X316500Y86500D02*
X323000Y93000D01*
X313000Y86500D02*
X316500D01*
X358500D02*
X361000D01*
X352000Y93000D02*
X358500Y86500D01*
X359500D02*
X361000D01*
X272000Y-107000D02*
X280000D01*
X243000Y-106900D02*
X271900D01*
X272000Y-107000D01*
Y-127000D02*
X280000D01*
X243000Y-127300D02*
X271700D01*
X272000Y-127000D01*
Y-77000D02*
X280000D01*
X243000Y-76300D02*
X271300D01*
X272000Y-77000D01*
X272000Y-97000D02*
X280000D01*
X243000Y-96700D02*
X271700D01*
X272000Y-97000D01*
X272000Y-97000D01*
X279900Y176100D02*
X280000Y176000D01*
X243000Y176100D02*
X279900D01*
Y-45900D02*
X280000Y-46000D01*
X243000Y-45900D02*
X279900D01*
X272000Y-87000D02*
X280000D01*
X272000Y-117000D02*
X280000D01*
X271900Y-117100D02*
X272000Y-117000D01*
X243000Y-117100D02*
X271900D01*
X271500Y-86500D02*
X272000Y-87000D01*
X243000Y-86500D02*
X271500D01*
X272000Y95000D02*
X280000D01*
X271700Y94700D02*
X272000Y95000D01*
X243000Y94700D02*
X271700D01*
X272000Y105000D02*
X280000D01*
X271900Y104900D02*
X272000Y105000D01*
X243000Y104900D02*
X271900D01*
X272000Y115000D02*
X280000D01*
X271900Y115100D02*
X272000Y115000D01*
X243000Y115100D02*
X271900D01*
X272000Y125000D02*
X280000D01*
X271700Y125300D02*
X272000Y125000D01*
X243000Y125300D02*
X271700D01*
X272000Y145000D02*
X280000D01*
X272000Y135000D02*
X280000D01*
X271500Y135500D02*
X272000Y135000D01*
X243000Y135500D02*
X271500D01*
X271300Y145700D02*
X272000Y145000D01*
X243000Y145700D02*
X271300D01*
X348000Y117647D02*
Y123500D01*
X313000D02*
X348000D01*
X361000D01*
D48*
X95000Y74000D02*
X105000D01*
X75000Y-89000D02*
Y-79000D01*
X468000Y-47000D02*
Y-40000D01*
Y-56000D02*
Y-47000D01*
X463000Y-61000D02*
X468000Y-56000D01*
X460000Y48000D02*
Y55000D01*
Y41000D02*
Y48000D01*
X478100D01*
X434750Y-173000D02*
X452250D01*
D49*
X158000Y-28000D02*
X160000Y-30000D01*
Y-33000D02*
Y-30000D01*
X151000Y-42000D02*
X160000Y-33000D01*
X151000Y-91000D02*
Y-42000D01*
X149000Y-93000D02*
X151000Y-91000D01*
X149000Y-103000D02*
X156000Y-96000D01*
Y-43353D01*
X163353Y-36000D01*
X167000D01*
X67000Y95000D02*
Y108343D01*
X65343Y110000D02*
X67000Y108343D01*
X59000Y110000D02*
X65343D01*
X71000Y97000D02*
Y110000D01*
X67000Y114000D02*
X71000Y110000D01*
X59000Y114000D02*
X67000D01*
X72000Y90000D02*
X112000D01*
X67000Y95000D02*
X72000Y90000D01*
X74000Y94000D02*
X110000D01*
X71000Y97000D02*
X74000Y94000D01*
X118000Y96000D02*
X186000D01*
X112000Y90000D02*
X118000Y96000D01*
X116000Y100000D02*
X186000D01*
X110000Y94000D02*
X116000Y100000D01*
X186000Y96000D02*
X188000Y94000D01*
X186000Y100000D02*
X188000Y102000D01*
X186000Y96000D02*
X188000Y94000D01*
X57000Y108000D02*
X59000Y110000D01*
X57000Y116000D02*
X59000Y114000D01*
X304000Y36000D02*
X306000D01*
X286000Y25000D02*
X322000Y61000D01*
X288000Y20000D02*
X304000Y36000D01*
X322000Y61000D02*
X341000D01*
X302000Y176000D02*
X306000Y172000D01*
Y135000D02*
Y172000D01*
X290000Y176000D02*
X302000D01*
X226000Y9000D02*
X228132D01*
X232750Y13618D01*
X232000Y3000D02*
Y5000D01*
X241000Y3000D02*
Y5000D01*
X225000Y17000D02*
X228000D01*
X246000Y35000D01*
X232750Y13750D02*
X249181Y30181D01*
X232750Y13618D02*
Y13750D01*
X256000Y20000D02*
X288000D01*
X241000Y5000D02*
X256000Y20000D01*
X232000Y5000D02*
X252000Y25000D01*
X249181Y30181D02*
X284181D01*
X246000Y35000D02*
X282000D01*
X252000Y25000D02*
X286000D01*
X320000Y66000D02*
X392000D01*
X284181Y30181D02*
X320000Y66000D01*
X318000Y71000D02*
X395000D01*
X282000Y35000D02*
X318000Y71000D01*
X392000Y66000D02*
X395000Y63000D01*
X395000Y71000D02*
X401000Y65000D01*
X343000Y52000D02*
Y59000D01*
X341000Y61000D02*
X343000Y59000D01*
X395000Y53000D02*
Y63000D01*
X401000Y26000D02*
X403000Y24000D01*
X401000Y26000D02*
Y65000D01*
X295000Y-5000D02*
X298000Y-8000D01*
X303000D01*
X445000Y24000D02*
X446000Y25000D01*
X196000Y-94000D02*
Y-10000D01*
Y-94000D02*
X201000Y-99000D01*
Y-90000D02*
X210000Y-99000D01*
X313000Y74000D02*
Y86500D01*
X297000Y58000D02*
X313000Y74000D01*
X282000Y58000D02*
X297000D01*
X279000Y55000D02*
X282000Y58000D01*
X279000Y52000D02*
Y55000D01*
X201000Y-90000D02*
Y-9000D01*
X155000Y37000D02*
Y40000D01*
X148000Y33000D02*
X153000D01*
X196000Y-10000D01*
X155000Y37000D02*
X201000Y-9000D01*
X403000Y24000D02*
X438000D01*
X445000D01*
X331000Y42000D02*
Y52000D01*
Y42000D02*
X333000Y40000D01*
X337000D01*
X339000Y38000D01*
Y-38000D02*
Y38000D01*
X334000Y-43000D02*
X339000Y-38000D01*
X316000Y-46000D02*
X319000Y-43000D01*
X316000Y-55000D02*
Y-46000D01*
X314000Y-57000D02*
X316000Y-55000D01*
X300000Y-57000D02*
X314000D01*
X297000Y-54000D02*
X300000Y-57000D01*
X297000Y-54000D02*
Y-48569D01*
X294431Y-46000D02*
X297000Y-48569D01*
X290000Y-46000D02*
X294431D01*
X319000Y-43000D02*
X334000D01*
D50*
X90000Y-176000D02*
X127000D01*
X87000Y-173000D02*
Y-148000D01*
Y-173000D02*
X90000Y-176000D01*
X455500Y15000D02*
X460500Y20000D01*
X455500Y-5000D02*
X460500Y-0D01*
X455500Y-25000D02*
X460500Y-20000D01*
X438000Y7000D02*
X444000D01*
X446000Y15000D02*
X455500D01*
X446000Y-5000D02*
X455500D01*
X438000Y-15000D02*
X446000Y-15000D01*
X446000D01*
Y-25000D02*
X455500D01*
X444000Y7000D02*
X446000Y5000D01*
D51*
X75000Y-90000D02*
Y-89000D01*
Y-90000D02*
X82000Y-97000D01*
Y-123000D02*
Y-97000D01*
X258000Y-12000D02*
X259000D01*
X264000Y-17000D01*
X258000Y2000D02*
X259000D01*
X264000Y7000D01*
X264000Y-17000D02*
X274500D01*
X264000Y7000D02*
X274500D01*
X307000Y-160000D02*
Y-144250D01*
Y-164500D02*
Y-160000D01*
X299000D02*
Y-145750D01*
Y-165500D02*
Y-160000D01*
Y-165500D02*
X302500Y-169000D01*
X299000Y-145750D02*
X303750Y-141000D01*
X76000Y-129000D02*
X82000Y-123000D01*
X76000Y-176000D02*
Y-129000D01*
X302500Y-169000D02*
X307000Y-164500D01*
X303750Y-141000D02*
X307000Y-144250D01*
X299000Y-136250D02*
X303750Y-141000D01*
X299000Y-136250D02*
Y-124000D01*
X303750Y-141000D02*
X307000Y-137750D01*
Y-124000D01*
X304500Y-114000D02*
X307000Y-116500D01*
Y-124000D02*
Y-116500D01*
X299000Y-119500D02*
X304500Y-114000D01*
X299000Y-124000D02*
Y-119500D01*
X291500Y-17000D02*
X294500Y-14000D01*
X303000D01*
X291500Y7000D02*
X295000Y3500D01*
Y-5000D02*
Y3500D01*
D52*
X443707Y-122293D02*
G03*
X443000Y-124000I1707J-1707D01*
G01*
X451000Y-153750D02*
X482000D01*
X438000D02*
X451000D01*
X452250Y-155000D01*
Y-173000D02*
Y-155000D01*
X434750Y-157000D02*
X438000Y-153750D01*
X434750Y-173000D02*
Y-157000D01*
X464000Y-111000D02*
Y-100250D01*
X443707Y-122293D02*
X449000Y-117000D01*
X438000Y-100250D02*
X464000D01*
X443000Y-124000D02*
X449000D01*
X451000D02*
X458000Y-117000D01*
X452000Y-117000D02*
X458000Y-111000D01*
X449000Y-117000D02*
X452000D01*
X449000Y-117000D02*
Y-117000D01*
Y-124000D02*
Y-117000D01*
X458000D02*
X464000Y-111000D01*
X449000Y-117000D02*
X458000D01*
X442000Y-117000D02*
X449000D01*
X442000Y-124000D02*
Y-117000D01*
X482000Y-153750D02*
X485000Y-150750D01*
X369000Y-106000D02*
X371000Y-104000D01*
X369000Y-116000D02*
Y-106000D01*
Y-123000D02*
Y-116000D01*
X322000Y-124000D02*
X339000D01*
Y-131000D02*
Y-124000D01*
X322250Y-137000D02*
Y-124250D01*
Y-141000D02*
Y-137000D01*
X339000D01*
Y-131000D01*
X322000Y-124000D02*
X322250Y-124250D01*
X315000Y-124000D02*
X322000D01*
D53*
X90000Y110000D02*
X100000D01*
X396000Y155000D02*
Y165000D01*
X410000Y179000D01*
X451000D01*
X457200Y185200D01*
Y203200D01*
X419950Y104250D02*
X420000Y104200D01*
X386000Y104250D02*
X419950D01*
X452250Y-198250D02*
X457200Y-203200D01*
X452250Y-198250D02*
Y-173000D01*
X420000Y61900D02*
Y104200D01*
Y61900D02*
X433900Y48000D01*
X474000Y-203200D02*
Y-203000D01*
Y-195000D01*
X457200Y-203200D02*
X474000D01*
D54*
X468000Y-40000D02*
Y-33000D01*
D56*
X77287Y56570D02*
X77763Y57522D01*
X79191Y57998D01*
X80143D01*
X81572Y57522D01*
X82524Y56094D01*
X83000Y53713D01*
Y51333D01*
X82524Y49428D01*
X81572Y48476D01*
X80143Y48000D01*
X79667D01*
X78239Y48476D01*
X77287Y49428D01*
X76811Y50856D01*
Y51333D01*
X77287Y52761D01*
X78239Y53713D01*
X79667Y54189D01*
X80143D01*
X81572Y53713D01*
X82524Y52761D01*
X83000Y51333D01*
D57*
X14500Y-74250D02*
D03*
Y-145750D02*
D03*
Y145750D02*
D03*
Y74250D02*
D03*
D58*
X36100Y46500D02*
D03*
Y173500D02*
D03*
Y-175500D02*
D03*
Y-48500D02*
D03*
D59*
X420000Y155000D02*
D03*
Y104200D02*
D03*
D60*
X152400Y-203200D02*
D03*
X76200Y203200D02*
D03*
X254000Y-203200D02*
D03*
X304800Y203200D02*
D03*
X101600D02*
D03*
X228600D02*
D03*
X127000D02*
D03*
X152400D02*
D03*
X177800D02*
D03*
X203200D02*
D03*
X254000D02*
D03*
X279400D02*
D03*
X406400D02*
D03*
X431800D02*
D03*
X457200D02*
D03*
Y-203200D02*
D03*
X431800D02*
D03*
X406400D02*
D03*
X228600D02*
D03*
X203200D02*
D03*
X177800D02*
D03*
X127000D02*
D03*
X101600D02*
D03*
X76200D02*
D03*
X304800D02*
D03*
X279400D02*
D03*
D62*
X355000Y-185000D02*
D03*
Y185000D02*
D03*
D63*
X175000Y-70000D02*
D03*
X49000Y63000D02*
D03*
X106000Y62000D02*
D03*
X91000Y31000D02*
D03*
X214000Y-108000D02*
D03*
X176000Y-99000D02*
D03*
X188000D02*
D03*
X182000Y-104000D02*
D03*
X171000Y-78000D02*
D03*
X189000Y-43000D02*
D03*
X175000D02*
D03*
X182000Y-48000D02*
D03*
X214000Y-147000D02*
D03*
X158000Y-28000D02*
D03*
X167000Y-36000D02*
D03*
X127000Y-176000D02*
D03*
Y-148000D02*
D03*
Y-128000D02*
D03*
X107000Y-148000D02*
D03*
Y-128000D02*
D03*
X61000Y-97000D02*
D03*
X90000Y-83000D02*
D03*
X48000Y-68000D02*
D03*
X60000Y-57000D02*
D03*
X100310Y-26000D02*
D03*
X126000Y69000D02*
D03*
X118000D02*
D03*
X136000Y58000D02*
D03*
X164000Y86000D02*
D03*
X167000Y78000D02*
D03*
X180000Y85000D02*
D03*
X172000D02*
D03*
X53000Y96000D02*
D03*
X49000Y90000D02*
D03*
X29000Y96000D02*
D03*
X131000Y86000D02*
D03*
Y107000D02*
D03*
X160000D02*
D03*
X188000Y86000D02*
D03*
X198000Y107000D02*
D03*
Y120000D02*
D03*
Y129000D02*
D03*
X258000Y-12000D02*
D03*
Y2000D02*
D03*
X188000Y102000D02*
D03*
X196000Y83000D02*
D03*
X211000Y89000D02*
D03*
X188000Y94000D02*
D03*
X326000Y86000D02*
D03*
X57000Y169000D02*
D03*
Y150000D02*
D03*
X83000D02*
D03*
Y169000D02*
D03*
X57000Y108000D02*
D03*
Y116000D02*
D03*
X184000Y125000D02*
D03*
X198000Y139000D02*
D03*
X160000Y125000D02*
D03*
X198000Y163000D02*
D03*
X307000Y-160000D02*
D03*
X299000D02*
D03*
X195000Y-147000D02*
D03*
Y-173000D02*
D03*
X149000Y-103000D02*
D03*
Y-93000D02*
D03*
X188000Y57000D02*
D03*
X172000Y-7000D02*
D03*
X201000Y22000D02*
D03*
X306000Y36000D02*
D03*
Y135000D02*
D03*
X298000D02*
D03*
Y105000D02*
D03*
Y77000D02*
D03*
X241000Y3000D02*
D03*
X226000Y9000D02*
D03*
X225000Y17000D02*
D03*
X232000Y3000D02*
D03*
X160000Y163000D02*
D03*
X109000Y170000D02*
D03*
X113000Y148000D02*
D03*
Y122000D02*
D03*
X387000Y53000D02*
D03*
X349000Y86000D02*
D03*
Y78000D02*
D03*
X464000Y146000D02*
D03*
X395000Y53000D02*
D03*
X363000D02*
D03*
X279000Y42000D02*
D03*
X307000Y-49000D02*
D03*
X292000Y-30000D02*
D03*
X464000Y134000D02*
D03*
X131000Y125000D02*
D03*
Y170000D02*
D03*
X400000Y-87000D02*
D03*
X411000D02*
D03*
X298000Y-81000D02*
D03*
Y-70000D02*
D03*
Y-92000D02*
D03*
X272000Y-107000D02*
D03*
Y-127000D02*
D03*
Y-77000D02*
D03*
Y-97000D02*
D03*
X492000Y-95000D02*
D03*
X470000Y-84000D02*
D03*
X460000Y41000D02*
D03*
Y55000D02*
D03*
Y48000D02*
D03*
X468000Y-47000D02*
D03*
Y-40000D02*
D03*
Y-33000D02*
D03*
X470000Y72000D02*
D03*
X463000D02*
D03*
X480000Y-170000D02*
D03*
Y-177000D02*
D03*
Y-184000D02*
D03*
X407000D02*
D03*
Y-177000D02*
D03*
Y-170000D02*
D03*
X449000Y-124000D02*
D03*
X442000Y-117000D02*
D03*
X449000D02*
D03*
X442000Y-124000D02*
D03*
X418000Y-54000D02*
D03*
Y-61000D02*
D03*
X421000Y-68000D02*
D03*
Y-75000D02*
D03*
Y-82000D02*
D03*
Y-89000D02*
D03*
X463000Y-84000D02*
D03*
X456000D02*
D03*
X449000Y-89000D02*
D03*
Y-68000D02*
D03*
Y-75000D02*
D03*
Y-82000D02*
D03*
X492000Y-87000D02*
D03*
X480000Y-123000D02*
D03*
X490000D02*
D03*
X369000Y-116000D02*
D03*
Y-123000D02*
D03*
X333000Y-149000D02*
D03*
X360000Y-131000D02*
D03*
X343000Y-112000D02*
D03*
Y-103000D02*
D03*
X332000Y-110000D02*
D03*
X281000Y-160000D02*
D03*
X290000D02*
D03*
X299000Y-124000D02*
D03*
X307000D02*
D03*
X322000D02*
D03*
X371000Y53000D02*
D03*
X379000D02*
D03*
X413000Y38000D02*
D03*
Y-3000D02*
D03*
X438000Y-15000D02*
D03*
Y7000D02*
D03*
X388000Y0D02*
D03*
X332000D02*
D03*
X360000Y28000D02*
D03*
Y-28000D02*
D03*
X332000D02*
D03*
X388000D02*
D03*
Y28000D02*
D03*
X332000D02*
D03*
X287000Y52000D02*
D03*
X270000Y-5000D02*
D03*
X278000D02*
D03*
X358000Y-77000D02*
D03*
X347000D02*
D03*
X413000Y-19647D02*
D03*
X358000Y-88000D02*
D03*
X390000Y-53000D02*
D03*
X347000D02*
D03*
X268000Y-31000D02*
D03*
X272000Y-67000D02*
D03*
Y-137000D02*
D03*
X399000Y116000D02*
D03*
X247000Y-36000D02*
D03*
X109000Y37000D02*
D03*
X160000Y-117000D02*
D03*
X272000Y85000D02*
D03*
Y154000D02*
D03*
Y-87000D02*
D03*
Y-117000D02*
D03*
X70000Y-123000D02*
D03*
X155000Y-162000D02*
D03*
X164000Y-153000D02*
D03*
X146000D02*
D03*
X60000Y-140000D02*
D03*
Y-176000D02*
D03*
X50000Y-149000D02*
D03*
X60000Y-158000D02*
D03*
X94000Y-159000D02*
D03*
X272000Y105000D02*
D03*
Y135000D02*
D03*
X97000Y-90000D02*
D03*
X165000Y-50000D02*
D03*
X171000Y-55000D02*
D03*
X87000Y-31000D02*
D03*
X122000Y-67000D02*
D03*
X129000Y-61000D02*
D03*
X76000Y-176000D02*
D03*
X70000Y-115000D02*
D03*
Y-103000D02*
D03*
X29000Y-124000D02*
D03*
X49000Y-130000D02*
D03*
X53000Y-124000D02*
D03*
X88000Y-129000D02*
D03*
X272000Y145000D02*
D03*
Y125000D02*
D03*
Y115000D02*
D03*
Y95000D02*
D03*
X87000Y-148000D02*
D03*
X106000Y-168000D02*
D03*
X492000Y0D02*
D03*
Y-20000D02*
D03*
Y20000D02*
D03*
X397000Y-120000D02*
D03*
Y-127000D02*
D03*
Y-134000D02*
D03*
Y-141000D02*
D03*
Y-113000D02*
D03*
X339000Y-52000D02*
D03*
X315000Y-124000D02*
D03*
X345000Y28000D02*
D03*
X375000D02*
D03*
X388000Y-15000D02*
D03*
Y15000D02*
D03*
X332000D02*
D03*
Y-15000D02*
D03*
X345000Y-28000D02*
D03*
X375000D02*
D03*
X360000Y0D02*
D03*
X345000Y15000D02*
D03*
X375000D02*
D03*
Y0D02*
D03*
X345000D02*
D03*
Y-15000D02*
D03*
X360000D02*
D03*
Y15000D02*
D03*
X375000Y-15000D02*
D03*
X267000Y-191000D02*
D03*
X217000Y-192000D02*
D03*
X201000Y-99000D02*
D03*
X195000Y-106000D02*
D03*
X315000Y-159000D02*
D03*
X413000Y-36000D02*
D03*
X410000Y-44000D02*
D03*
X413000Y-28000D02*
D03*
X382000Y-53000D02*
D03*
X210000Y-99000D02*
D03*
X208000Y-87000D02*
D03*
X215000Y-91000D02*
D03*
X214000Y-27000D02*
D03*
X208000Y-33000D02*
D03*
X226000Y-15000D02*
D03*
X218000Y-14000D02*
D03*
X292000Y-190000D02*
D03*
X272000Y-154000D02*
D03*
X291000Y-149000D02*
D03*
X323000Y-106000D02*
D03*
X400000Y-76000D02*
D03*
X419000Y-44000D02*
D03*
X437000Y-26000D02*
D03*
X430000Y-11000D02*
D03*
X432000Y14000D02*
D03*
X409000Y47000D02*
D03*
X400000Y88000D02*
D03*
X348000Y117647D02*
D03*
X258000Y13000D02*
D03*
X252000Y-5000D02*
D03*
X235000Y-9000D02*
D03*
X279000Y52000D02*
D03*
X129000Y5000D02*
D03*
X135000Y11000D02*
D03*
X155000Y40000D02*
D03*
X148000Y33000D02*
D03*
X151000Y14000D02*
D03*
Y0D02*
D03*
X163000Y45000D02*
D03*
X170000Y51000D02*
D03*
X183000Y36000D02*
D03*
X177000Y45000D02*
D03*
X464000Y96000D02*
D03*
X186000Y45000D02*
D03*
X464000Y109000D02*
D03*
X194000Y51000D02*
D03*
X464000Y84000D02*
D03*
X115343Y-72343D02*
D03*
X143393Y-26000D02*
D03*
X337000Y86000D02*
D03*
X438000Y24000D02*
D03*
X93000Y-114000D02*
D03*
X146000Y-115000D02*
D03*
X243000Y-56000D02*
D03*
X315000Y-190000D02*
D03*
X388000Y-157000D02*
D03*
X214000Y-6000D02*
D03*
X413000Y15000D02*
D03*
X421000Y-32000D02*
D03*
X492000Y96000D02*
D03*
X480000Y195000D02*
D03*
X319000Y132000D02*
D03*
X273000Y63000D02*
D03*
X186000Y72000D02*
D03*
D64*
X95000Y74000D02*
D03*
X105000D02*
D03*
X75000Y-89000D02*
D03*
Y-79000D02*
D03*
X90000Y110000D02*
D03*
X100000D02*
D03*
X396000Y155000D02*
D03*
Y165000D02*
D03*
X474000Y-203000D02*
D03*
Y-195000D02*
D03*
D65*
X355000Y-51000D02*
D03*
X319000Y50000D02*
D03*
X308000Y-18000D02*
D03*
X303000Y-22000D02*
D03*
Y-28000D02*
D03*
X308000Y-32000D02*
D03*
X303000Y-8000D02*
D03*
Y-2000D02*
D03*
Y-14000D02*
D03*
Y5000D02*
D03*
X303200Y12000D02*
D03*
X308200Y8000D02*
D03*
Y22000D02*
D03*
X303200Y18000D02*
D03*
X325000Y52000D02*
D03*
X331000D02*
D03*
X337000D02*
D03*
X343000D02*
D03*
X349000D02*
D03*
X355000D02*
D03*
D66*
X50000Y0D02*
D03*
D68*
X303750Y-141000D02*
D03*
X322250D02*
D03*
D69*
X438000Y-100250D02*
D03*
Y-153750D02*
D03*
D70*
X337000Y80500D02*
D03*
Y129500D02*
D03*
D71*
X313000Y123500D02*
D03*
Y86500D02*
D03*
X361000D02*
D03*
Y123500D02*
D03*
D72*
X243000Y74300D02*
D03*
Y84500D02*
D03*
Y94700D02*
D03*
Y104900D02*
D03*
Y115100D02*
D03*
Y125300D02*
D03*
Y135500D02*
D03*
Y145700D02*
D03*
Y-147700D02*
D03*
Y-137500D02*
D03*
Y-127300D02*
D03*
Y-117100D02*
D03*
Y-106900D02*
D03*
Y-96700D02*
D03*
Y-86500D02*
D03*
Y-76300D02*
D03*
D73*
Y43900D02*
D03*
Y62300D02*
D03*
Y157700D02*
D03*
Y176100D02*
D03*
Y-178100D02*
D03*
Y-159700D02*
D03*
Y-64300D02*
D03*
Y-45900D02*
D03*
D74*
X36100Y20800D02*
D03*
Y199200D02*
D03*
Y-201200D02*
D03*
Y-22800D02*
D03*
D75*
X339000Y-131000D02*
D03*
X383000D02*
D03*
D76*
X433000Y-61000D02*
D03*
X463000D02*
D03*
M02*
