G04 Layer_Physical_Order=3*
G04 Layer_Color=16440176*
%FSLAX44Y44*%
%MOMM*%
G71*
G01*
G75*
%ADD48C,0.8000*%
%ADD49C,0.2000*%
%ADD52C,0.6000*%
%ADD53C,1.0000*%
%ADD56C,0.1500*%
%ADD57C,1.9000*%
%ADD58C,2.8000*%
%ADD59C,3.0000*%
%ADD60C,1.8000*%
%ADD63C,0.5500*%
%ADD64C,0.8000*%
%ADD65C,0.4000*%
%ADD66C,2.0000*%
%ADD67C,4.2000*%
G36*
X479185Y216041D02*
X483210Y214820D01*
X486919Y212838D01*
X490170Y210170D01*
X492838Y206919D01*
X494820Y203210D01*
X496041Y199185D01*
X496446Y195074D01*
X496431Y195000D01*
Y-195000D01*
X496446Y-195074D01*
X496041Y-199185D01*
X494820Y-203210D01*
X492838Y-206919D01*
X490170Y-210170D01*
X486919Y-212838D01*
X483210Y-214820D01*
X479185Y-216041D01*
X475074Y-216446D01*
X475000Y-216431D01*
X25000D01*
X24927Y-216446D01*
X20815Y-216041D01*
X16790Y-214820D01*
X13081Y-212838D01*
X9830Y-210170D01*
X7162Y-206919D01*
X5180Y-203210D01*
X3959Y-199185D01*
X3554Y-195074D01*
X3569Y-195000D01*
Y195000D01*
X3554Y195074D01*
X3959Y199185D01*
X5180Y203210D01*
X7162Y206919D01*
X9830Y210170D01*
X13081Y212838D01*
X16790Y214820D01*
X20815Y216041D01*
X24927Y216446D01*
X25000Y216431D01*
X475000D01*
X475074Y216446D01*
X479185Y216041D01*
D02*
G37*
%LPC*%
G36*
X101600Y-191601D02*
X98598Y-191996D01*
X95800Y-193155D01*
X93398Y-194998D01*
X91555Y-197400D01*
X90396Y-200198D01*
X90001Y-203200D01*
X90396Y-206202D01*
X91555Y-209000D01*
X93398Y-211402D01*
X95800Y-213245D01*
X98598Y-214404D01*
X101600Y-214799D01*
X104602Y-214404D01*
X107400Y-213245D01*
X109802Y-211402D01*
X111645Y-209000D01*
X112804Y-206202D01*
X113199Y-203200D01*
X112804Y-200198D01*
X111645Y-197400D01*
X109802Y-194998D01*
X107400Y-193155D01*
X104602Y-191996D01*
X101600Y-191601D01*
D02*
G37*
G36*
X127000D02*
X123998Y-191996D01*
X121200Y-193155D01*
X118798Y-194998D01*
X116955Y-197400D01*
X115796Y-200198D01*
X115401Y-203200D01*
X115796Y-206202D01*
X116955Y-209000D01*
X118798Y-211402D01*
X121200Y-213245D01*
X123998Y-214404D01*
X127000Y-214799D01*
X130002Y-214404D01*
X132800Y-213245D01*
X135202Y-211402D01*
X137045Y-209000D01*
X138204Y-206202D01*
X138599Y-203200D01*
X138204Y-200198D01*
X137045Y-197400D01*
X135202Y-194998D01*
X132800Y-193155D01*
X130002Y-191996D01*
X127000Y-191601D01*
D02*
G37*
G36*
X457200Y214799D02*
X454198Y214404D01*
X451400Y213245D01*
X448998Y211402D01*
X447155Y209000D01*
X445996Y206202D01*
X445601Y203200D01*
X445996Y200198D01*
X447155Y197400D01*
X448998Y194998D01*
X449553Y194572D01*
Y188221D01*
X448336Y187549D01*
X438427D01*
Y193790D01*
X440002Y194998D01*
X441845Y197400D01*
X443004Y200198D01*
X443399Y203200D01*
X443004Y206202D01*
X441845Y209000D01*
X440002Y211402D01*
X437600Y213245D01*
X434802Y214404D01*
X431800Y214799D01*
X428798Y214404D01*
X426000Y213245D01*
X423598Y211402D01*
X421755Y209000D01*
X420596Y206202D01*
X420201Y203200D01*
X420596Y200198D01*
X421755Y197400D01*
X423598Y194998D01*
X425173Y193790D01*
Y187549D01*
X378614D01*
X378246Y187476D01*
X377874Y187439D01*
X377762Y187380D01*
X377638Y187355D01*
X377327Y187147D01*
X376997Y186970D01*
X376916Y186873D01*
X376811Y186802D01*
X376603Y186491D01*
X376366Y186202D01*
X376329Y186081D01*
X376259Y185975D01*
X376186Y185608D01*
X376077Y185250D01*
X375648Y180893D01*
X374450Y176944D01*
X372504Y173304D01*
X369886Y170114D01*
X366696Y167496D01*
X363056Y165550D01*
X359107Y164352D01*
X355000Y163948D01*
X350893Y164352D01*
X346944Y165550D01*
X343304Y167496D01*
X340114Y170114D01*
X337495Y173304D01*
X335550Y176944D01*
X334352Y180893D01*
X333923Y185250D01*
X333814Y185608D01*
X333741Y185975D01*
X333671Y186081D01*
X333634Y186202D01*
X333397Y186491D01*
X333189Y186802D01*
X333083Y186873D01*
X333003Y186970D01*
X332673Y187147D01*
X332362Y187355D01*
X332238Y187380D01*
X332126Y187439D01*
X331754Y187476D01*
X331386Y187549D01*
X311448D01*
X310472Y187355D01*
X309645Y186802D01*
X309093Y185975D01*
X308724Y185864D01*
X306926Y187065D01*
X304000Y187647D01*
X304000Y187647D01*
X76000D01*
X76000Y187647D01*
X73074Y187065D01*
X70593Y185407D01*
X70593Y185407D01*
X64593Y179407D01*
X62935Y176926D01*
X62353Y174000D01*
X62353Y174000D01*
Y169167D01*
X62305Y169089D01*
X61284Y168239D01*
X61103Y168203D01*
X60853Y168228D01*
X60732Y168191D01*
X60606D01*
X60260Y168048D01*
X59901Y167939D01*
X59804Y167859D01*
X59687Y167810D01*
X59422Y167546D01*
X59133Y167308D01*
X59073Y167197D01*
X58984Y167107D01*
X58947Y167053D01*
X58054Y166456D01*
X57000Y166246D01*
X55946Y166456D01*
X55053Y167053D01*
X54511Y167864D01*
X54270Y168105D01*
X54061Y168374D01*
X53921Y168453D01*
X53807Y168567D01*
X53493Y168697D01*
X53197Y168866D01*
X53037Y168886D01*
X52889Y168948D01*
X52548D01*
X52210Y168990D01*
X50816Y168891D01*
X50422Y168783D01*
X50022Y168703D01*
X49945Y168652D01*
X49857Y168628D01*
X49534Y168378D01*
X49195Y168151D01*
X49144Y168074D01*
X49071Y168018D01*
X48869Y167663D01*
X48642Y167324D01*
X48286Y166464D01*
X46050Y163550D01*
X43136Y161314D01*
X39742Y159908D01*
X36100Y159429D01*
X32458Y159908D01*
X29064Y161314D01*
X26150Y163550D01*
X23914Y166464D01*
X22508Y169858D01*
X22029Y173500D01*
X22508Y177142D01*
X22722Y177658D01*
X22771Y177904D01*
X22867Y178136D01*
Y178387D01*
X22916Y178633D01*
X22867Y178879D01*
Y179130D01*
X22771Y179362D01*
X22722Y179608D01*
X22582Y179817D01*
X22486Y180049D01*
X22308Y180227D01*
X22169Y180435D01*
X21960Y180575D01*
X21783Y180752D01*
X20744Y181447D01*
X20512Y181543D01*
X20303Y181682D01*
X20057Y181731D01*
X19825Y181827D01*
X19574D01*
X19327Y181876D01*
X19081Y181827D01*
X18830D01*
X18598Y181731D01*
X18352Y181682D01*
X18143Y181543D01*
X17911Y181447D01*
X17734Y181269D01*
X17525Y181130D01*
X13198Y176802D01*
X12645Y175975D01*
X12451Y175000D01*
Y157788D01*
X12516Y157461D01*
X12538Y157128D01*
X12612Y156977D01*
X12645Y156812D01*
X12830Y156535D01*
X12978Y156236D01*
X13104Y156125D01*
X13198Y155985D01*
X13475Y155800D01*
X13726Y155580D01*
X13885Y155526D01*
X14025Y155433D01*
X14352Y155368D01*
X14667Y155260D01*
X16967Y154958D01*
X19266Y154005D01*
X21240Y152491D01*
X22755Y150516D01*
X23708Y148217D01*
X24033Y145750D01*
X23708Y143283D01*
X22755Y140984D01*
X21240Y139010D01*
X19266Y137494D01*
X16967Y136542D01*
X14667Y136240D01*
X14352Y136132D01*
X14025Y136067D01*
X13885Y135974D01*
X13726Y135920D01*
X13475Y135700D01*
X13198Y135515D01*
X13104Y135375D01*
X12978Y135264D01*
X12830Y134965D01*
X12645Y134688D01*
X12612Y134523D01*
X12538Y134372D01*
X12516Y134039D01*
X12451Y133712D01*
Y86288D01*
X12516Y85961D01*
X12538Y85628D01*
X12612Y85477D01*
X12645Y85312D01*
X12830Y85035D01*
X12978Y84736D01*
X13104Y84625D01*
X13198Y84485D01*
X13475Y84300D01*
X13726Y84080D01*
X13885Y84026D01*
X14025Y83933D01*
X14352Y83868D01*
X14667Y83760D01*
X16967Y83458D01*
X19266Y82506D01*
X21240Y80990D01*
X22755Y79016D01*
X23708Y76717D01*
X24033Y74250D01*
X23708Y71783D01*
X22755Y69484D01*
X21240Y67509D01*
X19266Y65995D01*
X16967Y65042D01*
X14667Y64739D01*
X14352Y64632D01*
X14025Y64567D01*
X13885Y64474D01*
X13726Y64420D01*
X13475Y64200D01*
X13198Y64015D01*
X13104Y63875D01*
X12978Y63764D01*
X12830Y63465D01*
X12645Y63188D01*
X12612Y63023D01*
X12538Y62872D01*
X12516Y62539D01*
X12451Y62212D01*
Y-62212D01*
X12516Y-62539D01*
X12538Y-62872D01*
X12612Y-63023D01*
X12645Y-63188D01*
X12830Y-63465D01*
X12978Y-63764D01*
X13104Y-63875D01*
X13198Y-64015D01*
X13475Y-64200D01*
X13726Y-64420D01*
X13885Y-64474D01*
X14025Y-64567D01*
X14352Y-64632D01*
X14667Y-64739D01*
X16967Y-65042D01*
X19266Y-65995D01*
X21240Y-67509D01*
X22755Y-69484D01*
X23708Y-71783D01*
X24033Y-74250D01*
X23708Y-76717D01*
X22755Y-79016D01*
X21240Y-80991D01*
X19266Y-82506D01*
X16967Y-83458D01*
X14667Y-83760D01*
X14352Y-83868D01*
X14025Y-83933D01*
X13885Y-84026D01*
X13726Y-84080D01*
X13475Y-84300D01*
X13198Y-84485D01*
X13104Y-84625D01*
X12978Y-84736D01*
X12830Y-85035D01*
X12645Y-85312D01*
X12612Y-85477D01*
X12538Y-85628D01*
X12516Y-85961D01*
X12451Y-86288D01*
Y-133712D01*
X12516Y-134039D01*
X12538Y-134372D01*
X12612Y-134523D01*
X12645Y-134688D01*
X12830Y-134965D01*
X12978Y-135264D01*
X13104Y-135375D01*
X13198Y-135515D01*
X13475Y-135700D01*
X13726Y-135920D01*
X13885Y-135974D01*
X14025Y-136067D01*
X14352Y-136132D01*
X14667Y-136240D01*
X16967Y-136542D01*
X19266Y-137494D01*
X21240Y-139010D01*
X22755Y-140984D01*
X23708Y-143283D01*
X24033Y-145750D01*
X23708Y-148217D01*
X22755Y-150516D01*
X21240Y-152491D01*
X19266Y-154005D01*
X16967Y-154958D01*
X14667Y-155260D01*
X14352Y-155368D01*
X14025Y-155433D01*
X13885Y-155526D01*
X13726Y-155580D01*
X13475Y-155800D01*
X13198Y-155985D01*
X13104Y-156125D01*
X12978Y-156236D01*
X12830Y-156535D01*
X12645Y-156812D01*
X12612Y-156977D01*
X12538Y-157128D01*
X12516Y-157461D01*
X12451Y-157788D01*
Y-175000D01*
X12645Y-175975D01*
X13198Y-176802D01*
X16803Y-180408D01*
X16874Y-180455D01*
X16925Y-180522D01*
X17285Y-180730D01*
X17630Y-180961D01*
X17713Y-180977D01*
X17786Y-181019D01*
X18198Y-181074D01*
X18606Y-181155D01*
X18689Y-181138D01*
X18772Y-181149D01*
X19174Y-181042D01*
X19581Y-180961D01*
X19651Y-180914D01*
X19733Y-180892D01*
X20917Y-180308D01*
X20984Y-180257D01*
X21064Y-180229D01*
X21377Y-179955D01*
X21706Y-179702D01*
X21748Y-179629D01*
X21812Y-179574D01*
X21996Y-179201D01*
X22203Y-178841D01*
X22214Y-178757D01*
X22252Y-178682D01*
X22279Y-178267D01*
X22333Y-177855D01*
X22311Y-177773D01*
X22317Y-177689D01*
X22029Y-175500D01*
X22508Y-171858D01*
X23914Y-168464D01*
X26150Y-165550D01*
X29064Y-163314D01*
X32458Y-161908D01*
X36100Y-161429D01*
X39742Y-161908D01*
X43136Y-163314D01*
X46050Y-165550D01*
X48286Y-168464D01*
X49692Y-171858D01*
X50171Y-175500D01*
X49692Y-179142D01*
X48158Y-182846D01*
X48147Y-182900D01*
X48055Y-183060D01*
X48044Y-183143D01*
X48006Y-183219D01*
X47979Y-183634D01*
X47925Y-184046D01*
X47947Y-184127D01*
X47941Y-184212D01*
X48075Y-184605D01*
X48182Y-185006D01*
X48735Y-186127D01*
X48988Y-186457D01*
X49219Y-186802D01*
X49289Y-186849D01*
X49341Y-186916D01*
X49700Y-187124D01*
X50046Y-187355D01*
X50129Y-187371D01*
X50202Y-187414D01*
X50614Y-187468D01*
X51021Y-187549D01*
X290226D01*
X290472Y-187500D01*
X290723D01*
X292000Y-187246D01*
X293277Y-187500D01*
X293528D01*
X293774Y-187549D01*
X313226D01*
X313472Y-187500D01*
X313724D01*
X315000Y-187246D01*
X316276Y-187500D01*
X316528D01*
X316774Y-187549D01*
X331386D01*
X331754Y-187476D01*
X332126Y-187439D01*
X332238Y-187380D01*
X332362Y-187355D01*
X332673Y-187147D01*
X333003Y-186970D01*
X333084Y-186873D01*
X333189Y-186802D01*
X333397Y-186491D01*
X333634Y-186202D01*
X333671Y-186081D01*
X333741Y-185975D01*
X333814Y-185608D01*
X333923Y-185250D01*
X334352Y-180893D01*
X335550Y-176944D01*
X337496Y-173304D01*
X340114Y-170114D01*
X343304Y-167496D01*
X346944Y-165550D01*
X350893Y-164352D01*
X355000Y-163948D01*
X359107Y-164352D01*
X363056Y-165550D01*
X366696Y-167496D01*
X369886Y-170114D01*
X372505Y-173304D01*
X374450Y-176944D01*
X375648Y-180893D01*
X376077Y-185250D01*
X376186Y-185608D01*
X376259Y-185975D01*
X376329Y-186081D01*
X376366Y-186202D01*
X376603Y-186491D01*
X376811Y-186802D01*
X376917Y-186873D01*
X376997Y-186970D01*
X377327Y-187147D01*
X377638Y-187355D01*
X377762Y-187380D01*
X377874Y-187439D01*
X378246Y-187476D01*
X378614Y-187549D01*
X400861D01*
X400985Y-187524D01*
X401111Y-187537D01*
X401469Y-187428D01*
X401836Y-187355D01*
X401941Y-187285D01*
X402062Y-187248D01*
X402352Y-187010D01*
X402663Y-186802D01*
X402733Y-186697D01*
X402831Y-186617D01*
X403624Y-185651D01*
X403684Y-185539D01*
X403773Y-185450D01*
X403916Y-185104D01*
X404093Y-184774D01*
X404105Y-184648D01*
X404154Y-184532D01*
X404154Y-184464D01*
X404456Y-182946D01*
X405144Y-181916D01*
X405524Y-180997D01*
Y-180003D01*
X405144Y-179084D01*
X404456Y-178054D01*
X404246Y-177000D01*
X404456Y-175946D01*
X405144Y-174916D01*
X405525Y-173997D01*
Y-173003D01*
X405144Y-172084D01*
X404456Y-171054D01*
X404246Y-170000D01*
X404456Y-168946D01*
X405053Y-168053D01*
X405946Y-167456D01*
X407000Y-167246D01*
X408054Y-167456D01*
X408947Y-168053D01*
X409544Y-168946D01*
X409754Y-170000D01*
X409544Y-171054D01*
X408856Y-172084D01*
X408856Y-172084D01*
X408475Y-173003D01*
X408475Y-173997D01*
X408856Y-174916D01*
X409544Y-175946D01*
X409754Y-177000D01*
X409544Y-178054D01*
X408856Y-179084D01*
X408475Y-180003D01*
Y-180997D01*
X408856Y-181916D01*
X409544Y-182946D01*
X409846Y-184464D01*
X409846Y-184532D01*
X409894Y-184648D01*
X409907Y-184774D01*
X410084Y-185104D01*
X410227Y-185450D01*
X410316Y-185539D01*
X410376Y-185651D01*
X411169Y-186617D01*
X411267Y-186697D01*
X411337Y-186802D01*
X411648Y-187010D01*
X411937Y-187248D01*
X412058Y-187285D01*
X412164Y-187355D01*
X412531Y-187428D01*
X412889Y-187537D01*
X413015Y-187524D01*
X413139Y-187549D01*
X425173D01*
Y-193790D01*
X423598Y-194998D01*
X421755Y-197400D01*
X420596Y-200198D01*
X420201Y-203200D01*
X420596Y-206202D01*
X421755Y-209000D01*
X423598Y-211402D01*
X426000Y-213245D01*
X428798Y-214404D01*
X431800Y-214799D01*
X434802Y-214404D01*
X437600Y-213245D01*
X440002Y-211402D01*
X441845Y-209000D01*
X443004Y-206202D01*
X443399Y-203200D01*
X443004Y-200198D01*
X441845Y-197400D01*
X440002Y-194998D01*
X438427Y-193790D01*
Y-187549D01*
X460269D01*
X460787Y-188799D01*
X457893Y-191692D01*
X457200Y-191601D01*
X454198Y-191996D01*
X451400Y-193155D01*
X448998Y-194998D01*
X447155Y-197400D01*
X445996Y-200198D01*
X445601Y-203200D01*
X445996Y-206202D01*
X447155Y-209000D01*
X448998Y-211402D01*
X451400Y-213245D01*
X454198Y-214404D01*
X457200Y-214799D01*
X460202Y-214404D01*
X463000Y-213245D01*
X465402Y-211402D01*
X467245Y-209000D01*
X467381Y-208672D01*
X468789Y-208538D01*
X471074Y-210065D01*
X474000Y-210647D01*
X476926Y-210065D01*
X479407Y-208407D01*
X481065Y-205926D01*
X481647Y-203000D01*
Y-195000D01*
X481065Y-192074D01*
X479407Y-189593D01*
X476926Y-187935D01*
X476647Y-187880D01*
Y-120168D01*
X479907Y-116907D01*
X479907Y-116907D01*
X485407Y-111407D01*
X485407Y-111407D01*
X487065Y-108926D01*
X487647Y-106000D01*
X487647Y-106000D01*
Y173000D01*
X487647Y173000D01*
X487065Y175926D01*
X485407Y178407D01*
X485407Y178407D01*
X478407Y185407D01*
X475926Y187065D01*
X473000Y187647D01*
X473000Y187647D01*
X465167D01*
X464847Y187967D01*
Y194572D01*
X465402Y194998D01*
X467245Y197400D01*
X468404Y200198D01*
X468799Y203200D01*
X468404Y206202D01*
X467245Y209000D01*
X465402Y211402D01*
X463000Y213245D01*
X460202Y214404D01*
X457200Y214799D01*
D02*
G37*
G36*
X76200Y-191601D02*
X73198Y-191996D01*
X70400Y-193155D01*
X67998Y-194998D01*
X66155Y-197400D01*
X64996Y-200198D01*
X64601Y-203200D01*
X64996Y-206202D01*
X66155Y-209000D01*
X67998Y-211402D01*
X70400Y-213245D01*
X73198Y-214404D01*
X76200Y-214799D01*
X79202Y-214404D01*
X82000Y-213245D01*
X84402Y-211402D01*
X86245Y-209000D01*
X87404Y-206202D01*
X87799Y-203200D01*
X87404Y-200198D01*
X86245Y-197400D01*
X84402Y-194998D01*
X82000Y-193155D01*
X79202Y-191996D01*
X76200Y-191601D01*
D02*
G37*
G36*
X177800D02*
X174798Y-191996D01*
X172000Y-193155D01*
X169598Y-194998D01*
X167755Y-197400D01*
X166596Y-200198D01*
X166201Y-203200D01*
X166596Y-206202D01*
X167755Y-209000D01*
X169598Y-211402D01*
X172000Y-213245D01*
X174798Y-214404D01*
X177800Y-214799D01*
X180802Y-214404D01*
X183600Y-213245D01*
X186002Y-211402D01*
X187845Y-209000D01*
X189004Y-206202D01*
X189399Y-203200D01*
X189004Y-200198D01*
X187845Y-197400D01*
X186002Y-194998D01*
X183600Y-193155D01*
X180802Y-191996D01*
X177800Y-191601D01*
D02*
G37*
G36*
X279400D02*
X276398Y-191996D01*
X273600Y-193155D01*
X271198Y-194998D01*
X269355Y-197400D01*
X268196Y-200198D01*
X267801Y-203200D01*
X268196Y-206202D01*
X269355Y-209000D01*
X271198Y-211402D01*
X273600Y-213245D01*
X276398Y-214404D01*
X279400Y-214799D01*
X282402Y-214404D01*
X285200Y-213245D01*
X287602Y-211402D01*
X289445Y-209000D01*
X290604Y-206202D01*
X290999Y-203200D01*
X290604Y-200198D01*
X289445Y-197400D01*
X287602Y-194998D01*
X285200Y-193155D01*
X282402Y-191996D01*
X279400Y-191601D01*
D02*
G37*
G36*
X304800D02*
X301798Y-191996D01*
X299000Y-193155D01*
X296598Y-194998D01*
X294755Y-197400D01*
X293596Y-200198D01*
X293201Y-203200D01*
X293596Y-206202D01*
X294755Y-209000D01*
X296598Y-211402D01*
X299000Y-213245D01*
X301798Y-214404D01*
X304800Y-214799D01*
X307802Y-214404D01*
X310600Y-213245D01*
X313002Y-211402D01*
X314845Y-209000D01*
X316004Y-206202D01*
X316399Y-203200D01*
X316004Y-200198D01*
X314845Y-197400D01*
X313002Y-194998D01*
X310600Y-193155D01*
X307802Y-191996D01*
X304800Y-191601D01*
D02*
G37*
G36*
X203200D02*
X200198Y-191996D01*
X197400Y-193155D01*
X194998Y-194998D01*
X193155Y-197400D01*
X191996Y-200198D01*
X191601Y-203200D01*
X191996Y-206202D01*
X193155Y-209000D01*
X194998Y-211402D01*
X197400Y-213245D01*
X200198Y-214404D01*
X203200Y-214799D01*
X206202Y-214404D01*
X209000Y-213245D01*
X211402Y-211402D01*
X213245Y-209000D01*
X214404Y-206202D01*
X214799Y-203200D01*
X214404Y-200198D01*
X213245Y-197400D01*
X211402Y-194998D01*
X209000Y-193155D01*
X206202Y-191996D01*
X203200Y-191601D01*
D02*
G37*
G36*
X254000D02*
X250998Y-191996D01*
X248200Y-193155D01*
X245798Y-194998D01*
X243955Y-197400D01*
X242796Y-200198D01*
X242401Y-203200D01*
X242796Y-206202D01*
X243955Y-209000D01*
X245798Y-211402D01*
X248200Y-213245D01*
X250998Y-214404D01*
X254000Y-214799D01*
X257002Y-214404D01*
X259800Y-213245D01*
X262202Y-211402D01*
X264045Y-209000D01*
X265204Y-206202D01*
X265599Y-203200D01*
X265204Y-200198D01*
X264045Y-197400D01*
X262202Y-194998D01*
X259800Y-193155D01*
X257002Y-191996D01*
X254000Y-191601D01*
D02*
G37*
G36*
X203200Y214799D02*
X200198Y214404D01*
X197400Y213245D01*
X194998Y211402D01*
X193155Y209000D01*
X191996Y206202D01*
X191601Y203200D01*
X191996Y200198D01*
X193155Y197400D01*
X194998Y194998D01*
X197400Y193155D01*
X200198Y191996D01*
X203200Y191601D01*
X206202Y191996D01*
X209000Y193155D01*
X211402Y194998D01*
X213245Y197400D01*
X214404Y200198D01*
X214799Y203200D01*
X214404Y206202D01*
X213245Y209000D01*
X211402Y211402D01*
X209000Y213245D01*
X206202Y214404D01*
X203200Y214799D01*
D02*
G37*
G36*
X177800D02*
X174798Y214404D01*
X172000Y213245D01*
X169598Y211402D01*
X167755Y209000D01*
X166596Y206202D01*
X166201Y203200D01*
X166596Y200198D01*
X167755Y197400D01*
X169598Y194998D01*
X172000Y193155D01*
X174798Y191996D01*
X177800Y191601D01*
X180802Y191996D01*
X183600Y193155D01*
X186002Y194998D01*
X187845Y197400D01*
X189004Y200198D01*
X189399Y203200D01*
X189004Y206202D01*
X187845Y209000D01*
X186002Y211402D01*
X183600Y213245D01*
X180802Y214404D01*
X177800Y214799D01*
D02*
G37*
G36*
X254000D02*
X250998Y214404D01*
X248200Y213245D01*
X245798Y211402D01*
X243955Y209000D01*
X242796Y206202D01*
X242401Y203200D01*
X242796Y200198D01*
X243955Y197400D01*
X245798Y194998D01*
X248200Y193155D01*
X250998Y191996D01*
X254000Y191601D01*
X257002Y191996D01*
X259800Y193155D01*
X262202Y194998D01*
X264045Y197400D01*
X265204Y200198D01*
X265599Y203200D01*
X265204Y206202D01*
X264045Y209000D01*
X262202Y211402D01*
X259800Y213245D01*
X257002Y214404D01*
X254000Y214799D01*
D02*
G37*
G36*
X304800D02*
X301798Y214404D01*
X299000Y213245D01*
X296598Y211402D01*
X294755Y209000D01*
X293596Y206202D01*
X293201Y203200D01*
X293596Y200198D01*
X294755Y197400D01*
X296598Y194998D01*
X299000Y193155D01*
X301798Y191996D01*
X304800Y191601D01*
X307802Y191996D01*
X310600Y193155D01*
X313002Y194998D01*
X314845Y197400D01*
X316004Y200198D01*
X316399Y203200D01*
X316004Y206202D01*
X314845Y209000D01*
X313002Y211402D01*
X310600Y213245D01*
X307802Y214404D01*
X304800Y214799D01*
D02*
G37*
G36*
X279400D02*
X276398Y214404D01*
X273600Y213245D01*
X271198Y211402D01*
X269355Y209000D01*
X268196Y206202D01*
X267801Y203200D01*
X268196Y200198D01*
X269355Y197400D01*
X271198Y194998D01*
X273600Y193155D01*
X276398Y191996D01*
X279400Y191601D01*
X282402Y191996D01*
X285200Y193155D01*
X287602Y194998D01*
X289445Y197400D01*
X290604Y200198D01*
X290999Y203200D01*
X290604Y206202D01*
X289445Y209000D01*
X287602Y211402D01*
X285200Y213245D01*
X282402Y214404D01*
X279400Y214799D01*
D02*
G37*
G36*
X152400D02*
X149398Y214404D01*
X146600Y213245D01*
X144198Y211402D01*
X142355Y209000D01*
X141196Y206202D01*
X140801Y203200D01*
X141196Y200198D01*
X142355Y197400D01*
X144198Y194998D01*
X146600Y193155D01*
X149398Y191996D01*
X152400Y191601D01*
X155402Y191996D01*
X158200Y193155D01*
X160602Y194998D01*
X162445Y197400D01*
X163604Y200198D01*
X163999Y203200D01*
X163604Y206202D01*
X162445Y209000D01*
X160602Y211402D01*
X158200Y213245D01*
X155402Y214404D01*
X152400Y214799D01*
D02*
G37*
G36*
X76200D02*
X73198Y214404D01*
X70400Y213245D01*
X67998Y211402D01*
X66155Y209000D01*
X64996Y206202D01*
X64601Y203200D01*
X64996Y200198D01*
X66155Y197400D01*
X67998Y194998D01*
X70400Y193155D01*
X73198Y191996D01*
X76200Y191601D01*
X79202Y191996D01*
X82000Y193155D01*
X84402Y194998D01*
X86245Y197400D01*
X87404Y200198D01*
X87799Y203200D01*
X87404Y206202D01*
X86245Y209000D01*
X84402Y211402D01*
X82000Y213245D01*
X79202Y214404D01*
X76200Y214799D01*
D02*
G37*
G36*
X101600D02*
X98598Y214404D01*
X95800Y213245D01*
X93398Y211402D01*
X91555Y209000D01*
X90396Y206202D01*
X90001Y203200D01*
X90396Y200198D01*
X91555Y197400D01*
X93398Y194998D01*
X95800Y193155D01*
X98598Y191996D01*
X101600Y191601D01*
X104602Y191996D01*
X107400Y193155D01*
X109802Y194998D01*
X111645Y197400D01*
X112804Y200198D01*
X113199Y203200D01*
X112804Y206202D01*
X111645Y209000D01*
X109802Y211402D01*
X107400Y213245D01*
X104602Y214404D01*
X101600Y214799D01*
D02*
G37*
G36*
X127000D02*
X123998Y214404D01*
X121200Y213245D01*
X118798Y211402D01*
X116955Y209000D01*
X115796Y206202D01*
X115401Y203200D01*
X115796Y200198D01*
X116955Y197400D01*
X118798Y194998D01*
X121200Y193155D01*
X123998Y191996D01*
X127000Y191601D01*
X130002Y191996D01*
X132800Y193155D01*
X135202Y194998D01*
X137045Y197400D01*
X138204Y200198D01*
X138599Y203200D01*
X138204Y206202D01*
X137045Y209000D01*
X135202Y211402D01*
X132800Y213245D01*
X130002Y214404D01*
X127000Y214799D01*
D02*
G37*
%LPD*%
G36*
X450054Y-65456D02*
X450947Y-66053D01*
X451544Y-66946D01*
X451754Y-68000D01*
X451544Y-69054D01*
X450856Y-70084D01*
X450856Y-70084D01*
X450475Y-71003D01*
X450476Y-71997D01*
X450856Y-72916D01*
X451544Y-73946D01*
X451754Y-75000D01*
X451544Y-76054D01*
X451186Y-76589D01*
X451014Y-77006D01*
X450826Y-77416D01*
X450824Y-77464D01*
X450806Y-77508D01*
Y-77959D01*
X450789Y-78410D01*
X450806Y-78455D01*
Y-78503D01*
X450978Y-78919D01*
X451135Y-79342D01*
X451504Y-79941D01*
X451749Y-80206D01*
X451965Y-80495D01*
X452422Y-80909D01*
X452583Y-81005D01*
X452716Y-81138D01*
X453006Y-81258D01*
X453276Y-81419D01*
X453461Y-81447D01*
X453635Y-81519D01*
X453949D01*
X454260Y-81565D01*
X454442Y-81519D01*
X454630D01*
X456000Y-81246D01*
X457054Y-81456D01*
X458084Y-82144D01*
X459003Y-82524D01*
X459997D01*
X460916Y-82144D01*
X461946Y-81456D01*
X463000Y-81246D01*
X464054Y-81456D01*
X465084Y-82144D01*
X466003Y-82525D01*
X466997D01*
X467916Y-82144D01*
X468946Y-81456D01*
X470000Y-81246D01*
X470606Y-81367D01*
X470715D01*
X470818Y-81400D01*
X471103Y-81376D01*
X471683Y-81469D01*
X472199Y-82114D01*
X472353Y-82429D01*
Y-85571D01*
X472199Y-85886D01*
X471683Y-86531D01*
X471103Y-86624D01*
X470818Y-86600D01*
X470715Y-86633D01*
X470606D01*
X470000Y-86754D01*
X468946Y-86544D01*
X467916Y-85856D01*
X467916Y-85856D01*
X466997Y-85475D01*
X466003Y-85476D01*
X465084Y-85856D01*
X464054Y-86544D01*
X463000Y-86754D01*
X461946Y-86544D01*
X460916Y-85856D01*
X459997Y-85476D01*
X459003D01*
X458084Y-85856D01*
X457054Y-86544D01*
X456000Y-86754D01*
X454845Y-86524D01*
X453851D01*
X452932Y-86905D01*
X452229Y-87608D01*
X451848Y-88527D01*
X451544Y-90054D01*
X450947Y-90947D01*
X450054Y-91544D01*
X449000Y-91754D01*
X447946Y-91544D01*
X447053Y-90947D01*
X446456Y-90054D01*
X446246Y-89000D01*
X446456Y-87946D01*
X447144Y-86916D01*
X447144Y-86916D01*
X447525Y-85997D01*
X447524Y-85003D01*
X447144Y-84084D01*
X446456Y-83054D01*
X446246Y-82000D01*
X446456Y-80946D01*
X447144Y-79916D01*
X447524Y-78997D01*
Y-78003D01*
X447144Y-77084D01*
X446456Y-76054D01*
X446246Y-75000D01*
X446456Y-73946D01*
X447144Y-72916D01*
X447525Y-71997D01*
Y-71003D01*
X447144Y-70084D01*
X446456Y-69054D01*
X446246Y-68000D01*
X446456Y-66946D01*
X447053Y-66053D01*
X447946Y-65456D01*
X449000Y-65246D01*
X450054Y-65456D01*
D02*
G37*
G36*
X417154Y-40337D02*
X417403Y-40634D01*
X417504Y-40686D01*
X417584Y-40767D01*
X417942Y-40915D01*
X418284Y-41094D01*
X418398Y-41104D01*
X418503Y-41147D01*
X420054Y-41456D01*
X420947Y-42053D01*
X421544Y-42946D01*
X421754Y-44000D01*
X421544Y-45054D01*
X420947Y-45947D01*
X420176Y-46463D01*
X420048Y-46590D01*
X419894Y-46681D01*
X419700Y-46938D01*
X419472Y-47166D01*
X419404Y-47332D01*
X419296Y-47476D01*
X419215Y-47788D01*
X419092Y-48085D01*
Y-48265D01*
X419047Y-48439D01*
X418965Y-49887D01*
X419010Y-50206D01*
Y-50528D01*
X419078Y-50694D01*
X419104Y-50872D01*
X419267Y-51150D01*
X419390Y-51447D01*
X419517Y-51574D01*
X419609Y-51729D01*
X419855Y-51914D01*
X420544Y-52946D01*
X420754Y-54000D01*
X420544Y-55054D01*
X419856Y-56084D01*
X419475Y-57003D01*
Y-57997D01*
X419856Y-58916D01*
X420544Y-59946D01*
X420754Y-61000D01*
X420448Y-62537D01*
Y-63200D01*
X420448Y-63532D01*
X420448Y-63532D01*
Y-63532D01*
X420660Y-64043D01*
X420829Y-64451D01*
X420829Y-64451D01*
X420829Y-64451D01*
X421180Y-64802D01*
X421532Y-65154D01*
X421532Y-65154D01*
X421532Y-65154D01*
X421717Y-65231D01*
X422947Y-66053D01*
X423544Y-66946D01*
X423754Y-68000D01*
X423544Y-69054D01*
X422856Y-70084D01*
X422856Y-70084D01*
X422475Y-71003D01*
X422476Y-71997D01*
X422856Y-72916D01*
X423544Y-73946D01*
X423754Y-75000D01*
X423544Y-76054D01*
X422856Y-77084D01*
X422476Y-78003D01*
Y-78997D01*
X422856Y-79916D01*
X423544Y-80946D01*
X423754Y-82000D01*
X423544Y-83054D01*
X422856Y-84084D01*
X422475Y-85003D01*
Y-85997D01*
X422856Y-86916D01*
X423544Y-87946D01*
X423754Y-89000D01*
X423544Y-90054D01*
X422947Y-90947D01*
X422054Y-91544D01*
X421000Y-91754D01*
X419946Y-91544D01*
X419053Y-90947D01*
X418211Y-89688D01*
X418161Y-89567D01*
X418161Y-89567D01*
X418161Y-89567D01*
X417771Y-89176D01*
X417458Y-88864D01*
X417458Y-88864D01*
X417458Y-88864D01*
X416981Y-88666D01*
X416539Y-88483D01*
X416539D01*
X416539Y-88483D01*
X415313Y-88239D01*
X414567D01*
X414319Y-88239D01*
X414319Y-88239D01*
X414318D01*
X413856Y-88431D01*
X413400Y-88620D01*
X413400Y-88620D01*
X413400Y-88620D01*
X413323Y-88696D01*
X412054Y-89544D01*
X411000Y-89754D01*
X409946Y-89544D01*
X409053Y-88947D01*
X408301Y-87823D01*
X408223Y-87678D01*
X408195Y-87579D01*
X408195Y-86420D01*
X408223Y-86322D01*
X408301Y-86177D01*
X409053Y-85053D01*
X409946Y-84456D01*
X411000Y-84246D01*
X412054Y-84456D01*
X413172Y-85203D01*
X413393Y-85295D01*
X413591Y-85429D01*
X413848Y-85483D01*
X414091Y-85583D01*
X414330D01*
X414565Y-85632D01*
X414823Y-85583D01*
X415085D01*
X415307Y-85492D01*
X415542Y-85447D01*
X416288Y-85146D01*
X416590Y-84949D01*
X416911Y-84785D01*
X417316Y-84467D01*
X417576Y-84163D01*
X417859Y-83880D01*
X417897Y-83787D01*
X417962Y-83711D01*
X418086Y-83331D01*
X418239Y-82961D01*
Y-82861D01*
X418270Y-82765D01*
X418239Y-82367D01*
Y-82034D01*
X418456Y-80946D01*
X419144Y-79916D01*
X419524Y-78997D01*
Y-78003D01*
X419144Y-77084D01*
X418456Y-76054D01*
X418246Y-75000D01*
X418456Y-73946D01*
X419144Y-72916D01*
X419525Y-71997D01*
Y-71003D01*
X419144Y-70084D01*
X418456Y-69054D01*
X418246Y-68000D01*
X418552Y-66463D01*
Y-65800D01*
X418552Y-65468D01*
X418552Y-65468D01*
Y-65468D01*
X418340Y-64957D01*
X418171Y-64549D01*
X418171Y-64549D01*
X418171Y-64549D01*
X417820Y-64198D01*
X417468Y-63846D01*
X417468Y-63846D01*
X417468Y-63846D01*
X417283Y-63769D01*
X416053Y-62947D01*
X415456Y-62054D01*
X415246Y-61000D01*
X415456Y-59946D01*
X416144Y-58916D01*
X416144Y-58916D01*
X416525Y-57997D01*
X416525Y-57003D01*
X416144Y-56084D01*
X415456Y-55054D01*
X415246Y-54000D01*
X415456Y-52946D01*
X416053Y-52053D01*
X416358Y-51849D01*
X416465Y-51742D01*
X416596Y-51668D01*
X416814Y-51393D01*
X417061Y-51145D01*
X417119Y-51006D01*
X417213Y-50888D01*
X417308Y-50550D01*
X417442Y-50226D01*
Y-50076D01*
X417483Y-49931D01*
X417595Y-48512D01*
X417580Y-48380D01*
X417603Y-48250D01*
X417522Y-47890D01*
X417479Y-47524D01*
X417414Y-47408D01*
X417385Y-47279D01*
X417173Y-46978D01*
X416993Y-46656D01*
X416889Y-46574D01*
X416813Y-46466D01*
X416120Y-45805D01*
X415726Y-45555D01*
X415337Y-45295D01*
X415307Y-45289D01*
X415281Y-45273D01*
X415140Y-45068D01*
X415353Y-44000D01*
X414945Y-41952D01*
X415552Y-40609D01*
X415710Y-40503D01*
X416881Y-40063D01*
X417154Y-40337D01*
D02*
G37*
G36*
X422931Y169735D02*
X425749Y168880D01*
X428346Y167491D01*
X430623Y165623D01*
X432491Y163346D01*
X433880Y160749D01*
X434735Y157931D01*
X435023Y155000D01*
X434735Y152069D01*
X433880Y149251D01*
X432491Y146653D01*
X430623Y144377D01*
X428346Y142508D01*
X425749Y141120D01*
X422931Y140265D01*
X420000Y139977D01*
X417069Y140265D01*
X414251Y141120D01*
X411654Y142508D01*
X409377Y144377D01*
X407509Y146654D01*
X406120Y149251D01*
X405654Y150788D01*
X405448Y151173D01*
X405262Y151566D01*
X405215Y151609D01*
X405185Y151665D01*
X404848Y151942D01*
X404525Y152234D01*
X404465Y152256D01*
X404416Y152296D01*
X403999Y152422D01*
X403589Y152569D01*
X403257Y153040D01*
X403647Y155000D01*
X403647Y155000D01*
Y160416D01*
X404003Y160837D01*
X404647Y161331D01*
X404958Y161362D01*
X405271Y161346D01*
X405449Y161410D01*
X405637Y161429D01*
X405913Y161576D01*
X406207Y161682D01*
X406347Y161808D01*
X406514Y161898D01*
X406712Y162139D01*
X406944Y162349D01*
X407025Y162520D01*
X407145Y162666D01*
X407509Y163347D01*
X409377Y165623D01*
X411654Y167491D01*
X414251Y168880D01*
X417069Y169735D01*
X420000Y170023D01*
X422931Y169735D01*
D02*
G37*
G36*
X449553Y184800D02*
X450135Y181874D01*
X451793Y179393D01*
X456593Y174593D01*
X456593Y174593D01*
X459074Y172935D01*
X462000Y172353D01*
X469832D01*
X472353Y169833D01*
Y39653D01*
X471198Y39174D01*
X466627Y43745D01*
Y55000D01*
X466123Y57536D01*
X464686Y59686D01*
X462536Y61123D01*
X460000Y61627D01*
X457464Y61123D01*
X455314Y59686D01*
X453877Y57536D01*
X453373Y55000D01*
Y48000D01*
Y41000D01*
X453877Y38464D01*
X455314Y36314D01*
X461373Y30255D01*
Y-33000D01*
Y-40000D01*
Y-47000D01*
X461877Y-49536D01*
X463314Y-51686D01*
X465464Y-53123D01*
X468000Y-53627D01*
X470536Y-53123D01*
X471251Y-52645D01*
X472353Y-53235D01*
Y-77869D01*
X471103Y-78867D01*
X470000Y-78647D01*
X467952Y-79055D01*
X466500Y-80025D01*
X465048Y-79055D01*
X463000Y-78647D01*
X460952Y-79055D01*
X459500Y-80025D01*
X458048Y-79055D01*
X456000Y-78647D01*
X454132Y-79019D01*
X453675Y-78605D01*
X453306Y-78006D01*
X453945Y-77048D01*
X454353Y-75000D01*
X453945Y-72952D01*
X452975Y-71500D01*
X453945Y-70048D01*
X454353Y-68000D01*
X453945Y-65952D01*
X452785Y-64215D01*
X451048Y-63055D01*
X449000Y-62647D01*
X446952Y-63055D01*
X445215Y-64215D01*
X444055Y-65952D01*
X443647Y-68000D01*
X444055Y-70048D01*
X445025Y-71500D01*
X444055Y-72952D01*
X443647Y-75000D01*
X444055Y-77048D01*
X445024Y-78500D01*
X444055Y-79952D01*
X443647Y-82000D01*
X444055Y-84048D01*
X445025Y-85500D01*
X444055Y-86952D01*
X443647Y-89000D01*
X444055Y-91048D01*
X445215Y-92785D01*
X446952Y-93945D01*
X449000Y-94353D01*
X451048Y-93945D01*
X452785Y-92785D01*
X453945Y-91048D01*
X454348Y-89024D01*
X456000Y-89353D01*
X458048Y-88945D01*
X459500Y-87976D01*
X460952Y-88945D01*
X463000Y-89353D01*
X465048Y-88945D01*
X466500Y-87975D01*
X467952Y-88945D01*
X470000Y-89353D01*
X471103Y-89133D01*
X472353Y-90131D01*
Y-98256D01*
X471103Y-98924D01*
X469536Y-97877D01*
X467000Y-97373D01*
X403569D01*
Y-90930D01*
X403785Y-90785D01*
X404818Y-89239D01*
X405500Y-89134D01*
X406182Y-89239D01*
X407215Y-90785D01*
X408952Y-91945D01*
X411000Y-92353D01*
X413048Y-91945D01*
X414785Y-90785D01*
X414816Y-90739D01*
X416042Y-90983D01*
X416055Y-91048D01*
X417215Y-92785D01*
X418952Y-93945D01*
X421000Y-94353D01*
X423048Y-93945D01*
X424785Y-92785D01*
X425945Y-91048D01*
X426353Y-89000D01*
X425945Y-86952D01*
X424975Y-85500D01*
X425945Y-84048D01*
X426353Y-82000D01*
X425945Y-79952D01*
X424976Y-78500D01*
X425945Y-77048D01*
X426353Y-75000D01*
X425945Y-72952D01*
X424975Y-71500D01*
X425945Y-70048D01*
X426353Y-68000D01*
X425945Y-65952D01*
X424785Y-64215D01*
X423048Y-63055D01*
X422948Y-63035D01*
X423353Y-61000D01*
X422945Y-58952D01*
X421975Y-57500D01*
X422945Y-56048D01*
X423353Y-54000D01*
X422945Y-51952D01*
X421785Y-50215D01*
X421510Y-50031D01*
X421592Y-48582D01*
X422785Y-47785D01*
X423945Y-46048D01*
X424353Y-44000D01*
X423945Y-41952D01*
X422785Y-40215D01*
X421048Y-39055D01*
X419000Y-38647D01*
X418927Y-37976D01*
X420044Y-37163D01*
X421000Y-37353D01*
X423048Y-36945D01*
X424785Y-35785D01*
X425945Y-34048D01*
X426353Y-32000D01*
X425945Y-29952D01*
X424785Y-28215D01*
X423048Y-27055D01*
X421000Y-26647D01*
X418952Y-27055D01*
X418094Y-26700D01*
X417945Y-25952D01*
X416785Y-24215D01*
X415048Y-23055D01*
X413000Y-22647D01*
X410952Y-23055D01*
X409215Y-24215D01*
X408055Y-25952D01*
X407647Y-28000D01*
X408055Y-30048D01*
X409215Y-31785D01*
Y-32215D01*
X408055Y-33952D01*
X407647Y-36000D01*
X408055Y-38048D01*
X407448Y-39391D01*
X406215Y-40215D01*
X405055Y-41952D01*
X404647Y-44000D01*
X405055Y-46048D01*
X406215Y-47785D01*
X407952Y-48945D01*
X410000Y-49353D01*
X412048Y-48945D01*
X413734Y-47819D01*
X414065Y-47650D01*
X414362D01*
X415054Y-48310D01*
X414942Y-49729D01*
X414215Y-50215D01*
X413055Y-51952D01*
X412647Y-54000D01*
X413055Y-56048D01*
X414025Y-57500D01*
X413055Y-58952D01*
X412647Y-61000D01*
X413055Y-63048D01*
X414215Y-64785D01*
X415952Y-65945D01*
X416052Y-65965D01*
X415647Y-68000D01*
X416055Y-70048D01*
X417025Y-71500D01*
X416055Y-72952D01*
X415647Y-75000D01*
X416055Y-77048D01*
X417024Y-78500D01*
X416055Y-79952D01*
X415647Y-82000D01*
X415739Y-82464D01*
X415335Y-82782D01*
X414588Y-83083D01*
X413048Y-82055D01*
X411000Y-81647D01*
X408952Y-82055D01*
X407215Y-83215D01*
X406182Y-84761D01*
X405500Y-84866D01*
X404818Y-84761D01*
X403785Y-83215D01*
X402239Y-82182D01*
X402134Y-81500D01*
X402239Y-80818D01*
X403785Y-79785D01*
X404945Y-78048D01*
X405353Y-76000D01*
X404945Y-73952D01*
X403785Y-72215D01*
X402048Y-71055D01*
X400000Y-70647D01*
X397952Y-71055D01*
X396215Y-72215D01*
X395055Y-73952D01*
X394647Y-76000D01*
X395055Y-78048D01*
X396215Y-79785D01*
X397761Y-80818D01*
X397866Y-81500D01*
X397761Y-82182D01*
X396215Y-83215D01*
X395055Y-84952D01*
X394647Y-87000D01*
X395055Y-89048D01*
X396215Y-90785D01*
X396431Y-90930D01*
Y-97373D01*
X377000D01*
X374464Y-97877D01*
X372314Y-99314D01*
X364314Y-107314D01*
X362877Y-109464D01*
X362373Y-112000D01*
Y-123000D01*
X362778Y-125039D01*
X362503Y-125422D01*
X361816Y-125994D01*
X361793Y-126004D01*
X360000Y-125647D01*
X357952Y-126055D01*
X356215Y-127215D01*
X355055Y-128952D01*
X354647Y-131000D01*
X355055Y-133048D01*
X356215Y-134785D01*
X357952Y-135945D01*
X360000Y-136353D01*
X362048Y-135945D01*
X363785Y-134785D01*
X364945Y-133048D01*
X365353Y-131000D01*
X365097Y-129713D01*
X366222Y-128961D01*
X366464Y-129123D01*
X369000Y-129627D01*
X371536Y-129123D01*
X373686Y-127686D01*
X375123Y-125536D01*
X375627Y-123000D01*
Y-114745D01*
X379745Y-110627D01*
X390882D01*
X391870Y-111877D01*
X391647Y-113000D01*
X392055Y-115048D01*
X393024Y-116500D01*
X392055Y-117952D01*
X391647Y-120000D01*
X392055Y-122048D01*
X393025Y-123500D01*
X392055Y-124952D01*
X391647Y-127000D01*
X392055Y-129048D01*
X393025Y-130500D01*
X392055Y-131952D01*
X391647Y-134000D01*
X392055Y-136048D01*
X393024Y-137500D01*
X392055Y-138952D01*
X391647Y-141000D01*
X392055Y-143048D01*
X393215Y-144785D01*
X394952Y-145945D01*
X397000Y-146353D01*
X399048Y-145945D01*
X400785Y-144785D01*
X401945Y-143048D01*
X402353Y-141000D01*
X401945Y-138952D01*
X400975Y-137500D01*
X401945Y-136048D01*
X402353Y-134000D01*
X401945Y-131952D01*
X400975Y-130500D01*
X401945Y-129048D01*
X402353Y-127000D01*
X401945Y-124952D01*
X400975Y-123500D01*
X401945Y-122048D01*
X402353Y-120000D01*
X401945Y-117952D01*
X400975Y-116500D01*
X401945Y-115048D01*
X402353Y-113000D01*
X402130Y-111877D01*
X403118Y-110627D01*
X440720D01*
X440843Y-111877D01*
X439952Y-112055D01*
X438215Y-113215D01*
X437055Y-114952D01*
X436647Y-117000D01*
X437055Y-119048D01*
X438025Y-120500D01*
X437055Y-121952D01*
X436647Y-124000D01*
X437055Y-126048D01*
X438215Y-127785D01*
X439952Y-128945D01*
X442000Y-129353D01*
X444048Y-128945D01*
X445500Y-127976D01*
X446952Y-128945D01*
X449000Y-129353D01*
X451048Y-128945D01*
X452785Y-127785D01*
X453945Y-126048D01*
X454353Y-124000D01*
X453945Y-121952D01*
X452975Y-120500D01*
X453945Y-119048D01*
X454353Y-117000D01*
X453945Y-114952D01*
X452785Y-113215D01*
X451048Y-112055D01*
X450157Y-111877D01*
X450280Y-110627D01*
X462790D01*
X463085Y-110981D01*
X463403Y-111877D01*
X461935Y-114074D01*
X461353Y-117000D01*
X461353Y-117000D01*
Y-185000D01*
X413139D01*
X412346Y-184034D01*
X412353Y-184000D01*
X411945Y-181952D01*
X410975Y-180500D01*
X411945Y-179048D01*
X412353Y-177000D01*
X411945Y-174952D01*
X410975Y-173500D01*
X411945Y-172048D01*
X412353Y-170000D01*
X411945Y-167952D01*
X410785Y-166215D01*
X409048Y-165055D01*
X407000Y-164647D01*
X404952Y-165055D01*
X403215Y-166215D01*
X402055Y-167952D01*
X401647Y-170000D01*
X402055Y-172048D01*
X403025Y-173500D01*
X402055Y-174952D01*
X401647Y-177000D01*
X402055Y-179048D01*
X403024Y-180500D01*
X402055Y-181952D01*
X401647Y-184000D01*
X401654Y-184034D01*
X400861Y-185000D01*
X378614D01*
X378160Y-180393D01*
X376816Y-175963D01*
X374634Y-171881D01*
X371697Y-168303D01*
X368119Y-165366D01*
X364037Y-163184D01*
X359607Y-161840D01*
X355000Y-161386D01*
X350393Y-161840D01*
X345963Y-163184D01*
X341881Y-165366D01*
X338303Y-168303D01*
X335366Y-171881D01*
X333184Y-175963D01*
X331840Y-180393D01*
X331386Y-185000D01*
X316774D01*
X315000Y-184647D01*
X313226Y-185000D01*
X293774D01*
X292000Y-184647D01*
X290226Y-185000D01*
X51021D01*
X50468Y-183879D01*
X50513Y-183821D01*
X52175Y-179807D01*
X52742Y-175500D01*
X52175Y-171193D01*
X50513Y-167179D01*
X47868Y-163732D01*
X44421Y-161087D01*
X40407Y-159425D01*
X36100Y-158858D01*
X31793Y-159425D01*
X27779Y-161087D01*
X24332Y-163732D01*
X21687Y-167179D01*
X20025Y-171193D01*
X19458Y-175500D01*
X19790Y-178022D01*
X18606Y-178606D01*
X15000Y-175000D01*
Y-157788D01*
X17633Y-157441D01*
X20552Y-156232D01*
X23059Y-154309D01*
X24982Y-151802D01*
X26191Y-148883D01*
X26604Y-145750D01*
X26191Y-142617D01*
X24982Y-139698D01*
X23059Y-137191D01*
X20552Y-135268D01*
X17633Y-134059D01*
X15000Y-133712D01*
Y-86288D01*
X17633Y-85941D01*
X20552Y-84732D01*
X23059Y-82809D01*
X24982Y-80302D01*
X26191Y-77383D01*
X26604Y-74250D01*
X26191Y-71117D01*
X24982Y-68198D01*
X23059Y-65691D01*
X20552Y-63768D01*
X17633Y-62559D01*
X15000Y-62212D01*
Y62212D01*
X17633Y62559D01*
X20552Y63768D01*
X23059Y65691D01*
X24982Y68198D01*
X26191Y71117D01*
X26604Y74250D01*
X26191Y77383D01*
X24982Y80302D01*
X23059Y82809D01*
X20552Y84732D01*
X17633Y85941D01*
X15000Y86288D01*
Y133712D01*
X17633Y134059D01*
X20552Y135268D01*
X23059Y137191D01*
X24982Y139698D01*
X26191Y142617D01*
X26604Y145750D01*
X26191Y148883D01*
X24982Y151802D01*
X23059Y154309D01*
X20552Y156232D01*
X17633Y157441D01*
X15000Y157788D01*
Y175000D01*
X19327Y179327D01*
X20367Y178633D01*
X20025Y177807D01*
X19458Y173500D01*
X20025Y169193D01*
X21687Y165179D01*
X24332Y161732D01*
X27779Y159087D01*
X31793Y157425D01*
X36100Y156858D01*
X40407Y157425D01*
X44421Y159087D01*
X47868Y161732D01*
X50513Y165179D01*
X50997Y166348D01*
X52391Y166448D01*
X53215Y165215D01*
X54952Y164055D01*
X57000Y163647D01*
X59048Y164055D01*
X60785Y165215D01*
X61103Y165691D01*
X62353Y165312D01*
Y153688D01*
X61103Y153309D01*
X60785Y153785D01*
X59048Y154945D01*
X57000Y155353D01*
X54952Y154945D01*
X53215Y153785D01*
X52055Y152048D01*
X51647Y150000D01*
X52055Y147952D01*
X53215Y146215D01*
X54952Y145055D01*
X57000Y144647D01*
X59048Y145055D01*
X60785Y146215D01*
X61103Y146691D01*
X62353Y146312D01*
Y124000D01*
X62353Y124000D01*
X62935Y121074D01*
X64593Y118593D01*
X78593Y104593D01*
X78593Y104593D01*
X81074Y102935D01*
X84000Y102353D01*
X100000D01*
X102926Y102935D01*
X105407Y104593D01*
X107065Y107074D01*
X107647Y110000D01*
X107065Y112926D01*
X105407Y115407D01*
X102926Y117065D01*
X100000Y117647D01*
X87167D01*
X77647Y127168D01*
Y146312D01*
X78897Y146691D01*
X79215Y146215D01*
X80952Y145055D01*
X83000Y144647D01*
X85048Y145055D01*
X86785Y146215D01*
X87945Y147952D01*
X88353Y150000D01*
X87945Y152048D01*
X86785Y153785D01*
X85048Y154945D01*
X83000Y155353D01*
X80952Y154945D01*
X79215Y153785D01*
X78897Y153309D01*
X77647Y153688D01*
Y165312D01*
X78897Y165691D01*
X79215Y165215D01*
X80952Y164055D01*
X83000Y163647D01*
X85048Y164055D01*
X86785Y165215D01*
X87945Y166952D01*
X88353Y169000D01*
X87945Y171048D01*
X87810Y171251D01*
X88399Y172353D01*
X102869D01*
X103867Y171103D01*
X103647Y170000D01*
X104055Y167952D01*
X105215Y166215D01*
X106952Y165055D01*
X109000Y164647D01*
X111048Y165055D01*
X112785Y166215D01*
X113945Y167952D01*
X114353Y170000D01*
X114133Y171103D01*
X115131Y172353D01*
X124869D01*
X125867Y171103D01*
X125647Y170000D01*
X126055Y167952D01*
X127215Y166215D01*
X128952Y165055D01*
X131000Y164647D01*
X133048Y165055D01*
X134785Y166215D01*
X135945Y167952D01*
X136353Y170000D01*
X136133Y171103D01*
X137131Y172353D01*
X300833D01*
X304353Y168832D01*
Y155000D01*
X304353Y155000D01*
X304935Y152074D01*
X306593Y149593D01*
X317923Y138263D01*
X317560Y137066D01*
X316952Y136945D01*
X315215Y135785D01*
X314055Y134048D01*
X313647Y132000D01*
X314055Y129952D01*
X315215Y128215D01*
X316952Y127055D01*
X319000Y126647D01*
X321048Y127055D01*
X322785Y128215D01*
X323945Y129952D01*
X324353Y132000D01*
X324224Y132647D01*
X325108Y133531D01*
X326000Y133353D01*
X382000D01*
X382000Y133353D01*
X384926Y133935D01*
X387407Y135593D01*
X401407Y149593D01*
X401407Y149593D01*
X401847Y150251D01*
X403215Y150048D01*
X403754Y148271D01*
X405379Y145231D01*
X407566Y142566D01*
X410230Y140379D01*
X413271Y138754D01*
X416569Y137753D01*
X420000Y137415D01*
X423431Y137753D01*
X426729Y138754D01*
X429770Y140379D01*
X432434Y142566D01*
X434621Y145231D01*
X436246Y148271D01*
X437247Y151569D01*
X437585Y155000D01*
X437247Y158431D01*
X436246Y161729D01*
X434621Y164769D01*
X432434Y167434D01*
X429770Y169621D01*
X426729Y171246D01*
X423431Y172247D01*
X420000Y172585D01*
X416569Y172247D01*
X413271Y171246D01*
X410230Y169621D01*
X407566Y167434D01*
X405379Y164769D01*
X404897Y163868D01*
X403647Y164181D01*
Y165000D01*
X403065Y167926D01*
X401407Y170407D01*
X398926Y172065D01*
X396000Y172647D01*
X393074Y172065D01*
X390593Y170407D01*
X388935Y167926D01*
X388353Y165000D01*
Y158167D01*
X378833Y148647D01*
X329167D01*
X319647Y158167D01*
Y172000D01*
X319647Y172000D01*
X319065Y174926D01*
X317407Y177407D01*
X317407Y177407D01*
X310969Y183845D01*
X311448Y185000D01*
X331386D01*
X331840Y180393D01*
X333184Y175963D01*
X335366Y171881D01*
X338303Y168303D01*
X341881Y165366D01*
X345963Y163184D01*
X350393Y161840D01*
X355000Y161386D01*
X359607Y161840D01*
X364037Y163184D01*
X368119Y165366D01*
X371697Y168303D01*
X374634Y171881D01*
X376816Y175963D01*
X378160Y180393D01*
X378614Y185000D01*
X448336D01*
X449553Y184800D01*
D02*
G37*
%LPC*%
G36*
X90000Y-77647D02*
X87952Y-78055D01*
X86215Y-79215D01*
X85055Y-80952D01*
X84647Y-83000D01*
X85055Y-85048D01*
X86215Y-86785D01*
X87952Y-87945D01*
X90000Y-88353D01*
X92048Y-87945D01*
X93785Y-86785D01*
X94945Y-85048D01*
X95353Y-83000D01*
X94945Y-80952D01*
X93785Y-79215D01*
X92048Y-78055D01*
X90000Y-77647D01*
D02*
G37*
G36*
X175000Y-64647D02*
X172952Y-65055D01*
X171215Y-66215D01*
X170055Y-67952D01*
X169647Y-70000D01*
X170055Y-72048D01*
X169699Y-72906D01*
X168952Y-73055D01*
X167215Y-74215D01*
X166055Y-75952D01*
X165647Y-78000D01*
X166055Y-80048D01*
X167215Y-81785D01*
X168952Y-82945D01*
X171000Y-83353D01*
X173048Y-82945D01*
X174785Y-81785D01*
X175945Y-80048D01*
X176353Y-78000D01*
X175945Y-75952D01*
X176301Y-75094D01*
X177048Y-74945D01*
X178785Y-73785D01*
X179945Y-72048D01*
X180353Y-70000D01*
X179945Y-67952D01*
X178785Y-66215D01*
X177048Y-65055D01*
X175000Y-64647D01*
D02*
G37*
G36*
X60000Y-51647D02*
X57952Y-52055D01*
X56215Y-53215D01*
X55055Y-54952D01*
X54647Y-57000D01*
X55055Y-59048D01*
X56215Y-60785D01*
X57952Y-61945D01*
X60000Y-62353D01*
X62048Y-61945D01*
X63785Y-60785D01*
X64945Y-59048D01*
X65353Y-57000D01*
X64945Y-54952D01*
X63785Y-53215D01*
X62048Y-52055D01*
X60000Y-51647D01*
D02*
G37*
G36*
X36100Y-31858D02*
X31793Y-32425D01*
X27779Y-34087D01*
X24332Y-36732D01*
X21687Y-40179D01*
X20025Y-44193D01*
X19458Y-48500D01*
X20025Y-52807D01*
X21687Y-56821D01*
X24332Y-60268D01*
X27779Y-62913D01*
X31793Y-64575D01*
X36100Y-65142D01*
X40407Y-64575D01*
X43419Y-63328D01*
X43734Y-63679D01*
X44089Y-64403D01*
X43055Y-65952D01*
X42647Y-68000D01*
X43055Y-70048D01*
X44215Y-71785D01*
X45952Y-72945D01*
X48000Y-73353D01*
X50048Y-72945D01*
X51785Y-71785D01*
X52945Y-70048D01*
X53353Y-68000D01*
X52945Y-65952D01*
X51785Y-64215D01*
X50048Y-63055D01*
X48000Y-62647D01*
X46408Y-62964D01*
X45878Y-61795D01*
X47868Y-60268D01*
X50513Y-56821D01*
X52175Y-52807D01*
X52742Y-48500D01*
X52175Y-44193D01*
X50513Y-40179D01*
X47868Y-36732D01*
X44421Y-34087D01*
X40407Y-32425D01*
X36100Y-31858D01*
D02*
G37*
G36*
X358000Y-71647D02*
X355952Y-72055D01*
X354215Y-73215D01*
X353182Y-74761D01*
X352500Y-74866D01*
X351818Y-74761D01*
X350785Y-73215D01*
X349048Y-72055D01*
X347000Y-71647D01*
X344952Y-72055D01*
X343215Y-73215D01*
X342055Y-74952D01*
X341647Y-77000D01*
X342055Y-79048D01*
X343215Y-80785D01*
X344952Y-81945D01*
X347000Y-82353D01*
X349048Y-81945D01*
X350785Y-80785D01*
X351818Y-79239D01*
X352500Y-79134D01*
X353182Y-79239D01*
X354215Y-80785D01*
X355952Y-81945D01*
X358000Y-82353D01*
X360048Y-81945D01*
X361785Y-80785D01*
X362945Y-79048D01*
X363353Y-77000D01*
X362945Y-74952D01*
X361785Y-73215D01*
X360048Y-72055D01*
X358000Y-71647D01*
D02*
G37*
G36*
X61000Y-91647D02*
X58952Y-92055D01*
X57215Y-93215D01*
X56055Y-94952D01*
X55647Y-97000D01*
X56055Y-99048D01*
X57215Y-100785D01*
X58952Y-101945D01*
X61000Y-102353D01*
X63048Y-101945D01*
X63664Y-101534D01*
X64789Y-102285D01*
X64647Y-103000D01*
X65055Y-105048D01*
X66215Y-106785D01*
X67952Y-107945D01*
X70000Y-108353D01*
X72048Y-107945D01*
X73785Y-106785D01*
X74945Y-105048D01*
X75353Y-103000D01*
X74945Y-100952D01*
X73785Y-99215D01*
X72048Y-98055D01*
X70000Y-97647D01*
X67952Y-98055D01*
X67336Y-98466D01*
X66211Y-97715D01*
X66353Y-97000D01*
X65945Y-94952D01*
X64785Y-93215D01*
X63048Y-92055D01*
X61000Y-91647D01*
D02*
G37*
G36*
X343000Y-97647D02*
X340952Y-98055D01*
X339215Y-99215D01*
X338055Y-100952D01*
X337647Y-103000D01*
X338055Y-105048D01*
X339181Y-106734D01*
X339350Y-107065D01*
Y-107935D01*
X339181Y-108266D01*
X338489Y-109302D01*
X337161Y-109038D01*
X336945Y-107952D01*
X335785Y-106215D01*
X334048Y-105055D01*
X332000Y-104647D01*
X329952Y-105055D01*
X329499Y-105357D01*
X328110Y-104782D01*
X327945Y-103952D01*
X326785Y-102215D01*
X325048Y-101055D01*
X323000Y-100647D01*
X320952Y-101055D01*
X319215Y-102215D01*
X318055Y-103952D01*
X317647Y-106000D01*
X318055Y-108048D01*
X319215Y-109785D01*
X320952Y-110945D01*
X323000Y-111353D01*
X325048Y-110945D01*
X325501Y-110643D01*
X326890Y-111219D01*
X327055Y-112048D01*
X328215Y-113785D01*
X329952Y-114945D01*
X332000Y-115353D01*
X334048Y-114945D01*
X335785Y-113785D01*
X336511Y-112698D01*
X337839Y-112962D01*
X338055Y-114048D01*
X339215Y-115785D01*
X340952Y-116945D01*
X343000Y-117353D01*
X345048Y-116945D01*
X346785Y-115785D01*
X347945Y-114048D01*
X348353Y-112000D01*
X347945Y-109952D01*
X346819Y-108266D01*
X346650Y-107935D01*
Y-107065D01*
X346819Y-106734D01*
X347945Y-105048D01*
X348353Y-103000D01*
X347945Y-100952D01*
X346785Y-99215D01*
X345048Y-98055D01*
X343000Y-97647D01*
D02*
G37*
G36*
X93000Y-108647D02*
X90952Y-109055D01*
X89215Y-110215D01*
X88055Y-111952D01*
X87647Y-114000D01*
X88055Y-116048D01*
X89215Y-117785D01*
X90952Y-118945D01*
X93000Y-119353D01*
X95048Y-118945D01*
X96785Y-117785D01*
X97945Y-116048D01*
X98353Y-114000D01*
X97945Y-111952D01*
X96785Y-110215D01*
X95048Y-109055D01*
X93000Y-108647D01*
D02*
G37*
G36*
X149000Y-87647D02*
X146952Y-88055D01*
X145215Y-89215D01*
X144055Y-90952D01*
X143647Y-93000D01*
X144055Y-95048D01*
X145215Y-96785D01*
X145908Y-97248D01*
Y-98752D01*
X145215Y-99215D01*
X144055Y-100952D01*
X143647Y-103000D01*
X144055Y-105048D01*
X145215Y-106785D01*
X146952Y-107945D01*
X149000Y-108353D01*
X151048Y-107945D01*
X152785Y-106785D01*
X153945Y-105048D01*
X154353Y-103000D01*
X153945Y-100952D01*
X152785Y-99215D01*
X152092Y-98752D01*
Y-97248D01*
X152785Y-96785D01*
X153945Y-95048D01*
X154353Y-93000D01*
X153945Y-90952D01*
X152785Y-89215D01*
X151048Y-88055D01*
X149000Y-87647D01*
D02*
G37*
G36*
X208000Y-81647D02*
X205952Y-82055D01*
X204215Y-83215D01*
X203055Y-84952D01*
X202647Y-87000D01*
X203055Y-89048D01*
X204215Y-90785D01*
X205952Y-91945D01*
X208000Y-92353D01*
X210048Y-91945D01*
X211785Y-90785D01*
X212945Y-89048D01*
X213353Y-87000D01*
X212945Y-84952D01*
X211785Y-83215D01*
X210048Y-82055D01*
X208000Y-81647D01*
D02*
G37*
G36*
X210000Y-93647D02*
X207952Y-94055D01*
X206266Y-95181D01*
X205935Y-95350D01*
X205065D01*
X204734Y-95181D01*
X203048Y-94055D01*
X201000Y-93647D01*
X198952Y-94055D01*
X197215Y-95215D01*
X196055Y-96952D01*
X195647Y-99000D01*
X195799Y-99765D01*
X194712Y-100704D01*
X194271Y-100792D01*
X193208Y-99729D01*
X193353Y-99000D01*
X192945Y-96952D01*
X191785Y-95215D01*
X190048Y-94055D01*
X188000Y-93647D01*
X185952Y-94055D01*
X184215Y-95215D01*
X183055Y-96952D01*
X182690Y-98784D01*
X182000Y-98647D01*
X181310Y-98784D01*
X180945Y-96952D01*
X179785Y-95215D01*
X178048Y-94055D01*
X176000Y-93647D01*
X173952Y-94055D01*
X172215Y-95215D01*
X171055Y-96952D01*
X170647Y-99000D01*
X171055Y-101048D01*
X172215Y-102785D01*
X173952Y-103945D01*
X176000Y-104353D01*
X176690Y-104216D01*
X177055Y-106048D01*
X178215Y-107785D01*
X179952Y-108945D01*
X182000Y-109353D01*
X184048Y-108945D01*
X185785Y-107785D01*
X186945Y-106048D01*
X187310Y-104216D01*
X188000Y-104353D01*
X188729Y-104208D01*
X189792Y-105271D01*
X189647Y-106000D01*
X190055Y-108048D01*
X191215Y-109785D01*
X192952Y-110945D01*
X195000Y-111353D01*
X197048Y-110945D01*
X198785Y-109785D01*
X199945Y-108048D01*
X200353Y-106000D01*
X200201Y-105235D01*
X201288Y-104296D01*
X203048Y-103945D01*
X204734Y-102819D01*
X205065Y-102650D01*
X205935D01*
X206266Y-102819D01*
X207952Y-103945D01*
X208782Y-104110D01*
X209357Y-105499D01*
X209055Y-105952D01*
X208647Y-108000D01*
X209055Y-110048D01*
X210215Y-111785D01*
X211952Y-112945D01*
X214000Y-113353D01*
X216048Y-112945D01*
X217785Y-111785D01*
X218945Y-110048D01*
X219353Y-108000D01*
X218945Y-105952D01*
X217785Y-104215D01*
X216048Y-103055D01*
X215219Y-102890D01*
X214643Y-101501D01*
X214945Y-101048D01*
X215353Y-99000D01*
X214945Y-96952D01*
X213785Y-95215D01*
X212048Y-94055D01*
X210000Y-93647D01*
D02*
G37*
G36*
X298000Y-64647D02*
X295952Y-65055D01*
X294215Y-66215D01*
X293055Y-67952D01*
X292647Y-70000D01*
X293055Y-72048D01*
X294215Y-73785D01*
X295761Y-74818D01*
X295866Y-75500D01*
X295761Y-76182D01*
X294215Y-77215D01*
X293055Y-78952D01*
X292647Y-81000D01*
X293055Y-83048D01*
X294215Y-84785D01*
X295761Y-85818D01*
X295866Y-86500D01*
X295761Y-87182D01*
X294215Y-88215D01*
X293055Y-89952D01*
X292647Y-92000D01*
X293055Y-94048D01*
X294215Y-95785D01*
X295952Y-96945D01*
X298000Y-97353D01*
X300048Y-96945D01*
X301785Y-95785D01*
X302945Y-94048D01*
X303353Y-92000D01*
X302945Y-89952D01*
X301785Y-88215D01*
X300239Y-87182D01*
X300134Y-86500D01*
X300239Y-85818D01*
X301785Y-84785D01*
X302945Y-83048D01*
X303353Y-81000D01*
X302945Y-78952D01*
X301785Y-77215D01*
X300239Y-76182D01*
X300134Y-75500D01*
X300239Y-74818D01*
X301785Y-73785D01*
X302945Y-72048D01*
X303353Y-70000D01*
X302945Y-67952D01*
X301785Y-66215D01*
X300048Y-65055D01*
X298000Y-64647D01*
D02*
G37*
G36*
X129000Y-55647D02*
X126952Y-56055D01*
X125215Y-57215D01*
X124055Y-58952D01*
X123705Y-60712D01*
X122765Y-61799D01*
X122000Y-61647D01*
X119952Y-62055D01*
X118215Y-63215D01*
X117055Y-64952D01*
X116647Y-67000D01*
X116439Y-67208D01*
X115343Y-66990D01*
X113295Y-67398D01*
X111558Y-68558D01*
X110398Y-70295D01*
X109990Y-72343D01*
X110398Y-74392D01*
X111558Y-76128D01*
X113295Y-77288D01*
X115343Y-77696D01*
X117392Y-77288D01*
X119128Y-76128D01*
X120288Y-74392D01*
X120696Y-72343D01*
X120904Y-72135D01*
X122000Y-72353D01*
X124048Y-71945D01*
X125785Y-70785D01*
X126945Y-69048D01*
X127296Y-67288D01*
X128235Y-66201D01*
X129000Y-66353D01*
X131048Y-65945D01*
X132785Y-64785D01*
X133945Y-63048D01*
X134353Y-61000D01*
X133945Y-58952D01*
X132785Y-57215D01*
X131048Y-56055D01*
X129000Y-55647D01*
D02*
G37*
G36*
X437000Y-20647D02*
X434952Y-21055D01*
X433215Y-22215D01*
X432055Y-23952D01*
X431647Y-26000D01*
X432055Y-28048D01*
X433215Y-29785D01*
X434952Y-30945D01*
X437000Y-31353D01*
X439048Y-30945D01*
X440785Y-29785D01*
X441945Y-28048D01*
X442353Y-26000D01*
X441945Y-23952D01*
X440785Y-22215D01*
X439048Y-21055D01*
X437000Y-20647D01*
D02*
G37*
G36*
X143393D02*
X141345Y-21055D01*
X139608Y-22215D01*
X138448Y-23952D01*
X138041Y-26000D01*
X138448Y-28048D01*
X139608Y-29785D01*
X141345Y-30945D01*
X143393Y-31353D01*
X145442Y-30945D01*
X147178Y-29785D01*
X148339Y-28048D01*
X148746Y-26000D01*
X148339Y-23952D01*
X147178Y-22215D01*
X145442Y-21055D01*
X143393Y-20647D01*
D02*
G37*
G36*
X100310D02*
X98261Y-21055D01*
X96524Y-22215D01*
X95364Y-23952D01*
X94957Y-26000D01*
X95364Y-28048D01*
X96524Y-29785D01*
X98261Y-30945D01*
X100310Y-31353D01*
X102358Y-30945D01*
X104095Y-29785D01*
X105255Y-28048D01*
X105662Y-26000D01*
X105255Y-23952D01*
X104095Y-22215D01*
X102358Y-21055D01*
X100310Y-20647D01*
D02*
G37*
G36*
X332000Y-9647D02*
X329952Y-10055D01*
X328215Y-11215D01*
X327055Y-12952D01*
X326647Y-15000D01*
X327055Y-17048D01*
X328215Y-18785D01*
X329952Y-19945D01*
X332000Y-20353D01*
X334048Y-19945D01*
X335785Y-18785D01*
X336945Y-17048D01*
X337353Y-15000D01*
X336945Y-12952D01*
X335785Y-11215D01*
X334048Y-10055D01*
X332000Y-9647D01*
D02*
G37*
G36*
X375000D02*
X372952Y-10055D01*
X371215Y-11215D01*
X370055Y-12952D01*
X369647Y-15000D01*
X370055Y-17048D01*
X371215Y-18785D01*
X372952Y-19945D01*
X375000Y-20353D01*
X377048Y-19945D01*
X378785Y-18785D01*
X379945Y-17048D01*
X380353Y-15000D01*
X379945Y-12952D01*
X378785Y-11215D01*
X377048Y-10055D01*
X375000Y-9647D01*
D02*
G37*
G36*
X360000D02*
X357952Y-10055D01*
X356215Y-11215D01*
X355055Y-12952D01*
X354647Y-15000D01*
X355055Y-17048D01*
X356215Y-18785D01*
X357952Y-19945D01*
X360000Y-20353D01*
X362048Y-19945D01*
X363785Y-18785D01*
X364945Y-17048D01*
X365353Y-15000D01*
X364945Y-12952D01*
X363785Y-11215D01*
X362048Y-10055D01*
X360000Y-9647D01*
D02*
G37*
G36*
X345000D02*
X342952Y-10055D01*
X341215Y-11215D01*
X340055Y-12952D01*
X339647Y-15000D01*
X340055Y-17048D01*
X341215Y-18785D01*
X342952Y-19945D01*
X345000Y-20353D01*
X347048Y-19945D01*
X348785Y-18785D01*
X349945Y-17048D01*
X350353Y-15000D01*
X349945Y-12952D01*
X348785Y-11215D01*
X347048Y-10055D01*
X345000Y-9647D01*
D02*
G37*
G36*
X382000Y-47647D02*
X379952Y-48055D01*
X378215Y-49215D01*
X377055Y-50952D01*
X376647Y-53000D01*
X377055Y-55048D01*
X378215Y-56785D01*
X379952Y-57945D01*
X382000Y-58353D01*
X384048Y-57945D01*
X385785Y-56785D01*
X386945Y-55048D01*
X387353Y-53000D01*
X386945Y-50952D01*
X385785Y-49215D01*
X384048Y-48055D01*
X382000Y-47647D01*
D02*
G37*
G36*
X165000Y-44647D02*
X162952Y-45055D01*
X161215Y-46215D01*
X160055Y-47952D01*
X159647Y-50000D01*
X160055Y-52048D01*
X161215Y-53785D01*
X162952Y-54945D01*
X165000Y-55353D01*
X165690Y-55216D01*
X166055Y-57048D01*
X167215Y-58785D01*
X168952Y-59945D01*
X171000Y-60353D01*
X173048Y-59945D01*
X174785Y-58785D01*
X175945Y-57048D01*
X176353Y-55000D01*
X175945Y-52952D01*
X174785Y-51215D01*
X173048Y-50055D01*
X171000Y-49647D01*
X170310Y-49784D01*
X169945Y-47952D01*
X168785Y-46215D01*
X167048Y-45055D01*
X165000Y-44647D01*
D02*
G37*
G36*
X243000Y-50647D02*
X240952Y-51055D01*
X239215Y-52215D01*
X238055Y-53952D01*
X237647Y-56000D01*
X238055Y-58048D01*
X239215Y-59785D01*
X240952Y-60945D01*
X243000Y-61353D01*
X245048Y-60945D01*
X246785Y-59785D01*
X247945Y-58048D01*
X248353Y-56000D01*
X247945Y-53952D01*
X246785Y-52215D01*
X245048Y-51055D01*
X243000Y-50647D01*
D02*
G37*
G36*
X167000Y-30647D02*
X164952Y-31055D01*
X163215Y-32215D01*
X162055Y-33952D01*
X161647Y-36000D01*
X162055Y-38048D01*
X163215Y-39785D01*
X164952Y-40945D01*
X167000Y-41353D01*
X168770Y-41001D01*
X169556Y-41540D01*
X169865Y-41903D01*
X169647Y-43000D01*
X170055Y-45048D01*
X171215Y-46785D01*
X172952Y-47945D01*
X175000Y-48353D01*
X176652Y-48024D01*
X177055Y-50048D01*
X178215Y-51785D01*
X179952Y-52945D01*
X182000Y-53353D01*
X184048Y-52945D01*
X185785Y-51785D01*
X186945Y-50048D01*
X187348Y-48024D01*
X189000Y-48353D01*
X191048Y-47945D01*
X192785Y-46785D01*
X193945Y-45048D01*
X194353Y-43000D01*
X193945Y-40952D01*
X192785Y-39215D01*
X191048Y-38055D01*
X189000Y-37647D01*
X186952Y-38055D01*
X185215Y-39215D01*
X184055Y-40952D01*
X183652Y-42976D01*
X182000Y-42647D01*
X180348Y-42976D01*
X179945Y-40952D01*
X178785Y-39215D01*
X177048Y-38055D01*
X175000Y-37647D01*
X173230Y-37999D01*
X172444Y-37460D01*
X172135Y-37097D01*
X172353Y-36000D01*
X171945Y-33952D01*
X170785Y-32215D01*
X169048Y-31055D01*
X167000Y-30647D01*
D02*
G37*
G36*
X158000Y-22647D02*
X155952Y-23055D01*
X154215Y-24215D01*
X153055Y-25952D01*
X152647Y-28000D01*
X153055Y-30048D01*
X154215Y-31785D01*
X155952Y-32945D01*
X158000Y-33353D01*
X160048Y-32945D01*
X161785Y-31785D01*
X162945Y-30048D01*
X163353Y-28000D01*
X162945Y-25952D01*
X161785Y-24215D01*
X160048Y-23055D01*
X158000Y-22647D01*
D02*
G37*
G36*
X214000Y-21647D02*
X211952Y-22055D01*
X210215Y-23215D01*
X209055Y-24952D01*
X208647Y-27000D01*
X208000Y-27647D01*
X205952Y-28055D01*
X204215Y-29215D01*
X203055Y-30952D01*
X202647Y-33000D01*
X203055Y-35048D01*
X204215Y-36785D01*
X205952Y-37945D01*
X208000Y-38353D01*
X210048Y-37945D01*
X211785Y-36785D01*
X212945Y-35048D01*
X213353Y-33000D01*
X214000Y-32353D01*
X216048Y-31945D01*
X217785Y-30785D01*
X218945Y-29048D01*
X219353Y-27000D01*
X218945Y-24952D01*
X217785Y-23215D01*
X216048Y-22055D01*
X214000Y-21647D01*
D02*
G37*
G36*
X247000Y-30647D02*
X244952Y-31055D01*
X243215Y-32215D01*
X242055Y-33952D01*
X241647Y-36000D01*
X242055Y-38048D01*
X243215Y-39785D01*
X244952Y-40945D01*
X247000Y-41353D01*
X249048Y-40945D01*
X250785Y-39785D01*
X251945Y-38048D01*
X252353Y-36000D01*
X251945Y-33952D01*
X250785Y-32215D01*
X249048Y-31055D01*
X247000Y-30647D01*
D02*
G37*
G36*
X322000Y-118647D02*
X319952Y-119055D01*
X318500Y-120025D01*
X317048Y-119055D01*
X315000Y-118647D01*
X312952Y-119055D01*
X311215Y-120215D01*
X310055Y-121952D01*
X309647Y-124000D01*
X310055Y-126048D01*
X311215Y-127785D01*
X312952Y-128945D01*
X315000Y-129353D01*
X317048Y-128945D01*
X318500Y-127976D01*
X319952Y-128945D01*
X322000Y-129353D01*
X324048Y-128945D01*
X325785Y-127785D01*
X326945Y-126048D01*
X327353Y-124000D01*
X326945Y-121952D01*
X325785Y-120215D01*
X324048Y-119055D01*
X322000Y-118647D01*
D02*
G37*
G36*
X388000Y-151647D02*
X385952Y-152055D01*
X384215Y-153215D01*
X383055Y-154952D01*
X382647Y-157000D01*
X383055Y-159048D01*
X384215Y-160785D01*
X385952Y-161945D01*
X388000Y-162353D01*
X390048Y-161945D01*
X391785Y-160785D01*
X392945Y-159048D01*
X393353Y-157000D01*
X392945Y-154952D01*
X391785Y-153215D01*
X390048Y-152055D01*
X388000Y-151647D01*
D02*
G37*
G36*
X60000Y-152647D02*
X57952Y-153055D01*
X56215Y-154215D01*
X55055Y-155952D01*
X54647Y-158000D01*
X55055Y-160048D01*
X56215Y-161785D01*
X57952Y-162945D01*
X60000Y-163353D01*
X62048Y-162945D01*
X63785Y-161785D01*
X64945Y-160048D01*
X65353Y-158000D01*
X64945Y-155952D01*
X63785Y-154215D01*
X62048Y-153055D01*
X60000Y-152647D01*
D02*
G37*
G36*
X315000Y-153647D02*
X312952Y-154055D01*
X311215Y-155215D01*
X310055Y-156952D01*
X309647Y-159000D01*
X310055Y-161048D01*
X311215Y-162785D01*
X312952Y-163945D01*
X315000Y-164353D01*
X317048Y-163945D01*
X318785Y-162785D01*
X319945Y-161048D01*
X320353Y-159000D01*
X319945Y-156952D01*
X318785Y-155215D01*
X317048Y-154055D01*
X315000Y-153647D01*
D02*
G37*
G36*
X146000Y-147647D02*
X143952Y-148055D01*
X142215Y-149215D01*
X141055Y-150952D01*
X140647Y-153000D01*
X141055Y-155048D01*
X142215Y-156785D01*
X143952Y-157945D01*
X146000Y-158353D01*
X148048Y-157945D01*
X149785Y-156785D01*
X150945Y-155048D01*
X151353Y-153000D01*
X150945Y-150952D01*
X149785Y-149215D01*
X148048Y-148055D01*
X146000Y-147647D01*
D02*
G37*
G36*
X50000Y-143647D02*
X47952Y-144055D01*
X46215Y-145215D01*
X45055Y-146952D01*
X44647Y-149000D01*
X45055Y-151048D01*
X46215Y-152785D01*
X47952Y-153945D01*
X50000Y-154353D01*
X52048Y-153945D01*
X53785Y-152785D01*
X54945Y-151048D01*
X55353Y-149000D01*
X54945Y-146952D01*
X53785Y-145215D01*
X52048Y-144055D01*
X50000Y-143647D01*
D02*
G37*
G36*
X291000D02*
X288952Y-144055D01*
X287215Y-145215D01*
X286055Y-146952D01*
X285647Y-149000D01*
X286055Y-151048D01*
X287215Y-152785D01*
X288532Y-153665D01*
X288280Y-154989D01*
X287952Y-155055D01*
X286266Y-156181D01*
X285935Y-156350D01*
X285065D01*
X284734Y-156181D01*
X283048Y-155055D01*
X281000Y-154647D01*
X278952Y-155055D01*
X278336Y-155466D01*
X277211Y-154714D01*
X277353Y-154000D01*
X276945Y-151952D01*
X275785Y-150215D01*
X274048Y-149055D01*
X272000Y-148647D01*
X269952Y-149055D01*
X268215Y-150215D01*
X267055Y-151952D01*
X266647Y-154000D01*
X267055Y-156048D01*
X268215Y-157785D01*
X269952Y-158945D01*
X272000Y-159353D01*
X274048Y-158945D01*
X274664Y-158534D01*
X275789Y-159285D01*
X275647Y-160000D01*
X276055Y-162048D01*
X277215Y-163785D01*
X278952Y-164945D01*
X281000Y-165353D01*
X283048Y-164945D01*
X284734Y-163819D01*
X285065Y-163650D01*
X285935D01*
X286266Y-163819D01*
X287952Y-164945D01*
X290000Y-165353D01*
X292048Y-164945D01*
X293785Y-163785D01*
X294945Y-162048D01*
X295353Y-160000D01*
X294945Y-157952D01*
X293785Y-156215D01*
X292468Y-155335D01*
X292720Y-154011D01*
X293048Y-153945D01*
X294785Y-152785D01*
X295945Y-151048D01*
X296353Y-149000D01*
X295945Y-146952D01*
X294785Y-145215D01*
X293048Y-144055D01*
X291000Y-143647D01*
D02*
G37*
G36*
X164000Y-147647D02*
X161952Y-148055D01*
X160215Y-149215D01*
X159055Y-150952D01*
X158647Y-153000D01*
X159055Y-155048D01*
X160215Y-156785D01*
X161952Y-157945D01*
X164000Y-158353D01*
X166048Y-157945D01*
X167785Y-156785D01*
X168945Y-155048D01*
X169353Y-153000D01*
X168945Y-150952D01*
X167785Y-149215D01*
X166048Y-148055D01*
X164000Y-147647D01*
D02*
G37*
G36*
X76000Y-170647D02*
X73952Y-171055D01*
X72215Y-172215D01*
X71055Y-173951D01*
X70647Y-176000D01*
X71055Y-178048D01*
X72215Y-179785D01*
X73952Y-180945D01*
X76000Y-181353D01*
X78048Y-180945D01*
X79785Y-179785D01*
X80945Y-178048D01*
X81353Y-176000D01*
X80945Y-173951D01*
X79785Y-172215D01*
X78048Y-171055D01*
X76000Y-170647D01*
D02*
G37*
G36*
X127000Y-170647D02*
X124952Y-171055D01*
X123215Y-172215D01*
X122055Y-173952D01*
X121647Y-176000D01*
X122055Y-178048D01*
X123215Y-179785D01*
X124952Y-180945D01*
X127000Y-181353D01*
X129048Y-180945D01*
X130785Y-179785D01*
X131945Y-178048D01*
X132353Y-176000D01*
X131945Y-173952D01*
X130785Y-172215D01*
X129048Y-171055D01*
X127000Y-170647D01*
D02*
G37*
G36*
X60000D02*
X57952Y-171055D01*
X56215Y-172215D01*
X55055Y-173952D01*
X54647Y-176000D01*
X55055Y-178048D01*
X56215Y-179785D01*
X57952Y-180945D01*
X60000Y-181353D01*
X62048Y-180945D01*
X63785Y-179785D01*
X64945Y-178048D01*
X65353Y-176000D01*
X64945Y-173952D01*
X63785Y-172215D01*
X62048Y-171055D01*
X60000Y-170647D01*
D02*
G37*
G36*
X195000Y-167647D02*
X192952Y-168055D01*
X191215Y-169215D01*
X190055Y-170952D01*
X189647Y-173000D01*
X190055Y-175048D01*
X191215Y-176785D01*
X192952Y-177945D01*
X195000Y-178353D01*
X197048Y-177945D01*
X198785Y-176785D01*
X199945Y-175048D01*
X200353Y-173000D01*
X199945Y-170952D01*
X198785Y-169215D01*
X197048Y-168055D01*
X195000Y-167647D01*
D02*
G37*
G36*
X94000Y-153647D02*
X91952Y-154055D01*
X90215Y-155215D01*
X89055Y-156952D01*
X88647Y-159000D01*
X89055Y-161048D01*
X90215Y-162785D01*
X91952Y-163945D01*
X94000Y-164353D01*
X96048Y-163945D01*
X97785Y-162785D01*
X98945Y-161048D01*
X99353Y-159000D01*
X98945Y-156952D01*
X97785Y-155215D01*
X96048Y-154055D01*
X94000Y-153647D01*
D02*
G37*
G36*
X155000Y-156647D02*
X152952Y-157055D01*
X151215Y-158215D01*
X150055Y-159952D01*
X149647Y-162000D01*
X150055Y-164048D01*
X151215Y-165785D01*
X152952Y-166945D01*
X155000Y-167353D01*
X157048Y-166945D01*
X158785Y-165785D01*
X159945Y-164048D01*
X160353Y-162000D01*
X159945Y-159952D01*
X158785Y-158215D01*
X157048Y-157055D01*
X155000Y-156647D01*
D02*
G37*
G36*
X106000Y-162647D02*
X103952Y-163055D01*
X102215Y-164215D01*
X101055Y-165952D01*
X100647Y-168000D01*
X101055Y-170048D01*
X102215Y-171785D01*
X103952Y-172945D01*
X106000Y-173353D01*
X108048Y-172945D01*
X109785Y-171785D01*
X110945Y-170048D01*
X111353Y-168000D01*
X110945Y-165952D01*
X109785Y-164215D01*
X108048Y-163055D01*
X106000Y-162647D01*
D02*
G37*
G36*
X333000Y-143647D02*
X330952Y-144055D01*
X329215Y-145215D01*
X328055Y-146952D01*
X327647Y-149000D01*
X328055Y-151048D01*
X329215Y-152785D01*
X330952Y-153945D01*
X333000Y-154353D01*
X335048Y-153945D01*
X336785Y-152785D01*
X337945Y-151048D01*
X338353Y-149000D01*
X337945Y-146952D01*
X336785Y-145215D01*
X335048Y-144055D01*
X333000Y-143647D01*
D02*
G37*
G36*
X107000Y-122647D02*
X104952Y-123055D01*
X103215Y-124215D01*
X102055Y-125952D01*
X101647Y-128000D01*
X102055Y-130048D01*
X103215Y-131785D01*
X104952Y-132945D01*
X107000Y-133353D01*
X109048Y-132945D01*
X110785Y-131785D01*
X111945Y-130048D01*
X112353Y-128000D01*
X111945Y-125952D01*
X110785Y-124215D01*
X109048Y-123055D01*
X107000Y-122647D01*
D02*
G37*
G36*
X88000Y-123647D02*
X85952Y-124055D01*
X84215Y-125215D01*
X83055Y-126952D01*
X82647Y-129000D01*
X83055Y-131048D01*
X84215Y-132785D01*
X85952Y-133945D01*
X88000Y-134353D01*
X90048Y-133945D01*
X91785Y-132785D01*
X92945Y-131048D01*
X93353Y-129000D01*
X92945Y-126952D01*
X91785Y-125215D01*
X90048Y-124055D01*
X88000Y-123647D01*
D02*
G37*
G36*
X53000Y-118647D02*
X50952Y-119055D01*
X49215Y-120215D01*
X48055Y-121952D01*
X47647Y-124000D01*
X47822Y-124881D01*
X46952Y-125055D01*
X45215Y-126215D01*
X44055Y-127952D01*
X43647Y-130000D01*
X44055Y-132048D01*
X45215Y-133785D01*
X46952Y-134945D01*
X49000Y-135353D01*
X51048Y-134945D01*
X52785Y-133785D01*
X53945Y-132048D01*
X54353Y-130000D01*
X54177Y-129119D01*
X55048Y-128945D01*
X56785Y-127785D01*
X57945Y-126048D01*
X58353Y-124000D01*
X57945Y-121952D01*
X56785Y-120215D01*
X55048Y-119055D01*
X53000Y-118647D01*
D02*
G37*
G36*
X127000Y-122647D02*
X124952Y-123055D01*
X123215Y-124215D01*
X122055Y-125952D01*
X121647Y-128000D01*
X122055Y-130048D01*
X123215Y-131785D01*
X124952Y-132945D01*
X127000Y-133353D01*
X129048Y-132945D01*
X130785Y-131785D01*
X131945Y-130048D01*
X132353Y-128000D01*
X131945Y-125952D01*
X130785Y-124215D01*
X129048Y-123055D01*
X127000Y-122647D01*
D02*
G37*
G36*
X146000Y-109647D02*
X143952Y-110055D01*
X142215Y-111215D01*
X141055Y-112952D01*
X140647Y-115000D01*
X141055Y-117048D01*
X142215Y-118785D01*
X143952Y-119945D01*
X146000Y-120353D01*
X148048Y-119945D01*
X149785Y-118785D01*
X150945Y-117048D01*
X151353Y-115000D01*
X150945Y-112952D01*
X149785Y-111215D01*
X148048Y-110055D01*
X146000Y-109647D01*
D02*
G37*
G36*
X70000D02*
X67952Y-110055D01*
X66215Y-111215D01*
X65055Y-112952D01*
X64647Y-115000D01*
X65055Y-117048D01*
X66215Y-118785D01*
Y-119215D01*
X65055Y-120952D01*
X64647Y-123000D01*
X65055Y-125048D01*
X66215Y-126785D01*
X67952Y-127945D01*
X70000Y-128353D01*
X72048Y-127945D01*
X73785Y-126785D01*
X74945Y-125048D01*
X75353Y-123000D01*
X74945Y-120952D01*
X73785Y-119215D01*
Y-118785D01*
X74945Y-117048D01*
X75353Y-115000D01*
X74945Y-112952D01*
X73785Y-111215D01*
X72048Y-110055D01*
X70000Y-109647D01*
D02*
G37*
G36*
X29000Y-118647D02*
X26952Y-119055D01*
X25215Y-120215D01*
X24055Y-121952D01*
X23647Y-124000D01*
X24055Y-126048D01*
X25215Y-127785D01*
X26952Y-128945D01*
X29000Y-129353D01*
X31048Y-128945D01*
X32785Y-127785D01*
X33945Y-126048D01*
X34353Y-124000D01*
X33945Y-121952D01*
X32785Y-120215D01*
X31048Y-119055D01*
X29000Y-118647D01*
D02*
G37*
G36*
X87000Y-142647D02*
X84952Y-143055D01*
X83215Y-144215D01*
X82055Y-145951D01*
X81647Y-148000D01*
X82055Y-150048D01*
X83215Y-151785D01*
X84952Y-152945D01*
X87000Y-153353D01*
X89048Y-152945D01*
X90785Y-151785D01*
X91945Y-150048D01*
X92353Y-148000D01*
X91945Y-145951D01*
X90785Y-144215D01*
X89048Y-143055D01*
X87000Y-142647D01*
D02*
G37*
G36*
X127000Y-142647D02*
X124952Y-143055D01*
X123215Y-144215D01*
X122055Y-145952D01*
X121647Y-148000D01*
X122055Y-150048D01*
X123215Y-151785D01*
X124952Y-152945D01*
X127000Y-153353D01*
X129048Y-152945D01*
X130785Y-151785D01*
X131945Y-150048D01*
X132353Y-148000D01*
X131945Y-145952D01*
X130785Y-144215D01*
X129048Y-143055D01*
X127000Y-142647D01*
D02*
G37*
G36*
X107000D02*
X104952Y-143055D01*
X103215Y-144215D01*
X102055Y-145952D01*
X101647Y-148000D01*
X102055Y-150048D01*
X103215Y-151785D01*
X104952Y-152945D01*
X107000Y-153353D01*
X109048Y-152945D01*
X110785Y-151785D01*
X111945Y-150048D01*
X112353Y-148000D01*
X111945Y-145952D01*
X110785Y-144215D01*
X109048Y-143055D01*
X107000Y-142647D01*
D02*
G37*
G36*
X195000Y-141647D02*
X192952Y-142055D01*
X191215Y-143215D01*
X190055Y-144952D01*
X189647Y-147000D01*
X190055Y-149048D01*
X191215Y-150785D01*
X192952Y-151945D01*
X195000Y-152353D01*
X197048Y-151945D01*
X198785Y-150785D01*
X199945Y-149048D01*
X200353Y-147000D01*
X199945Y-144952D01*
X198785Y-143215D01*
X197048Y-142055D01*
X195000Y-141647D01*
D02*
G37*
G36*
X272000Y-61647D02*
X269952Y-62055D01*
X268215Y-63215D01*
X267055Y-64952D01*
X266647Y-67000D01*
X267055Y-69048D01*
X268215Y-70785D01*
X268908Y-71248D01*
Y-72752D01*
X268215Y-73215D01*
X267055Y-74952D01*
X266647Y-77000D01*
X267055Y-79048D01*
X268215Y-80785D01*
X268908Y-81248D01*
Y-82752D01*
X268215Y-83215D01*
X267055Y-84952D01*
X266647Y-87000D01*
X267055Y-89048D01*
X268215Y-90785D01*
X268908Y-91248D01*
Y-92752D01*
X268215Y-93215D01*
X267055Y-94952D01*
X266647Y-97000D01*
X267055Y-99048D01*
X268215Y-100785D01*
X268908Y-101248D01*
Y-102752D01*
X268215Y-103215D01*
X267055Y-104952D01*
X266647Y-107000D01*
X267055Y-109048D01*
X268215Y-110785D01*
X268908Y-111248D01*
Y-112752D01*
X268215Y-113215D01*
X267055Y-114952D01*
X266647Y-117000D01*
X267055Y-119048D01*
X268215Y-120785D01*
X268908Y-121248D01*
Y-122752D01*
X268215Y-123215D01*
X267055Y-124952D01*
X266647Y-127000D01*
X267055Y-129048D01*
X268215Y-130785D01*
X268908Y-131248D01*
Y-132752D01*
X268215Y-133215D01*
X267055Y-134952D01*
X266647Y-137000D01*
X267055Y-139048D01*
X268215Y-140785D01*
X269952Y-141945D01*
X272000Y-142353D01*
X274048Y-141945D01*
X275785Y-140785D01*
X276945Y-139048D01*
X277353Y-137000D01*
X276945Y-134952D01*
X275785Y-133215D01*
X275092Y-132752D01*
Y-131248D01*
X275785Y-130785D01*
X276945Y-129048D01*
X277353Y-127000D01*
X276945Y-124952D01*
X275785Y-123215D01*
X275092Y-122752D01*
Y-121248D01*
X275785Y-120785D01*
X276945Y-119048D01*
X277353Y-117000D01*
X276945Y-114952D01*
X275785Y-113215D01*
X275092Y-112752D01*
Y-111248D01*
X275785Y-110785D01*
X276945Y-109048D01*
X277353Y-107000D01*
X276945Y-104952D01*
X275785Y-103215D01*
X275092Y-102752D01*
Y-101248D01*
X275785Y-100785D01*
X276945Y-99048D01*
X277353Y-97000D01*
X276945Y-94952D01*
X275785Y-93215D01*
X275092Y-92752D01*
Y-91248D01*
X275785Y-90785D01*
X276945Y-89048D01*
X277353Y-87000D01*
X276945Y-84952D01*
X275785Y-83215D01*
X275092Y-82752D01*
Y-81248D01*
X275785Y-80785D01*
X276945Y-79048D01*
X277353Y-77000D01*
X276945Y-74952D01*
X275785Y-73215D01*
X275092Y-72752D01*
Y-71248D01*
X275785Y-70785D01*
X276945Y-69048D01*
X277353Y-67000D01*
X276945Y-64952D01*
X275785Y-63215D01*
X274048Y-62055D01*
X272000Y-61647D01*
D02*
G37*
G36*
X60000Y-134647D02*
X57952Y-135055D01*
X56215Y-136215D01*
X55055Y-137952D01*
X54647Y-140000D01*
X55055Y-142048D01*
X56215Y-143785D01*
X57952Y-144945D01*
X60000Y-145353D01*
X62048Y-144945D01*
X63785Y-143785D01*
X64945Y-142048D01*
X65353Y-140000D01*
X64945Y-137952D01*
X63785Y-136215D01*
X62048Y-135055D01*
X60000Y-134647D01*
D02*
G37*
G36*
X214000Y-141647D02*
X211952Y-142055D01*
X210215Y-143215D01*
X209055Y-144952D01*
X208647Y-147000D01*
X209055Y-149048D01*
X210215Y-150785D01*
X211952Y-151945D01*
X214000Y-152353D01*
X216048Y-151945D01*
X217785Y-150785D01*
X218945Y-149048D01*
X219353Y-147000D01*
X218945Y-144952D01*
X217785Y-143215D01*
X216048Y-142055D01*
X214000Y-141647D01*
D02*
G37*
G36*
X53000Y101353D02*
X50952Y100945D01*
X49215Y99785D01*
X48055Y98048D01*
X47647Y96000D01*
X47822Y95119D01*
X46952Y94945D01*
X45215Y93785D01*
X44055Y92049D01*
X43647Y90000D01*
X44055Y87952D01*
X45215Y86215D01*
X46952Y85055D01*
X49000Y84647D01*
X51048Y85055D01*
X52785Y86215D01*
X53945Y87952D01*
X54353Y90000D01*
X54177Y90881D01*
X55048Y91055D01*
X56785Y92215D01*
X57945Y93952D01*
X58353Y96000D01*
X57945Y98048D01*
X56785Y99785D01*
X55048Y100945D01*
X53000Y101353D01*
D02*
G37*
G36*
X420000Y121785D02*
X416569Y121447D01*
X413271Y120446D01*
X410230Y118821D01*
X407566Y116634D01*
X405379Y113969D01*
X403754Y110929D01*
X402753Y107631D01*
X402415Y104200D01*
X402753Y100769D01*
X403754Y97471D01*
X405379Y94431D01*
X407566Y91766D01*
X410230Y89579D01*
X413271Y87954D01*
X416569Y86953D01*
X420000Y86615D01*
X423431Y86953D01*
X426729Y87954D01*
X429770Y89579D01*
X432434Y91766D01*
X434621Y94431D01*
X436246Y97471D01*
X437247Y100769D01*
X437585Y104200D01*
X437247Y107631D01*
X436246Y110929D01*
X434621Y113969D01*
X432434Y116634D01*
X429770Y118821D01*
X426729Y120446D01*
X423431Y121447D01*
X420000Y121785D01*
D02*
G37*
G36*
X400000Y93353D02*
X397952Y92945D01*
X396215Y91785D01*
X395055Y90048D01*
X394647Y88000D01*
X395055Y85952D01*
X396215Y84215D01*
X397952Y83055D01*
X400000Y82647D01*
X402048Y83055D01*
X403785Y84215D01*
X404945Y85952D01*
X405353Y88000D01*
X404945Y90048D01*
X403785Y91785D01*
X402048Y92945D01*
X400000Y93353D01*
D02*
G37*
G36*
X211000Y94353D02*
X208952Y93945D01*
X207215Y92785D01*
X206055Y91048D01*
X205647Y89000D01*
X206055Y86952D01*
X207215Y85215D01*
X208952Y84055D01*
X211000Y83647D01*
X213048Y84055D01*
X214785Y85215D01*
X215945Y86952D01*
X216353Y89000D01*
X215945Y91048D01*
X214785Y92785D01*
X213048Y93945D01*
X211000Y94353D01*
D02*
G37*
G36*
X464000Y101353D02*
X461952Y100945D01*
X460215Y99785D01*
X459055Y98048D01*
X458647Y96000D01*
X459055Y93952D01*
X460215Y92215D01*
X461952Y91055D01*
X464000Y90647D01*
X466048Y91055D01*
X467785Y92215D01*
X468945Y93952D01*
X469353Y96000D01*
X468945Y98048D01*
X467785Y99785D01*
X466048Y100945D01*
X464000Y101353D01*
D02*
G37*
G36*
X298000Y110353D02*
X295952Y109945D01*
X294215Y108785D01*
X293055Y107048D01*
X292647Y105000D01*
X293055Y102952D01*
X294215Y101215D01*
X295952Y100055D01*
X298000Y99647D01*
X300048Y100055D01*
X301785Y101215D01*
X302945Y102952D01*
X303353Y105000D01*
X302945Y107048D01*
X301785Y108785D01*
X300048Y109945D01*
X298000Y110353D01*
D02*
G37*
G36*
X337000Y91353D02*
X334952Y90945D01*
X333215Y89785D01*
X332182Y88239D01*
X331500Y88134D01*
X330818Y88239D01*
X329785Y89785D01*
X328048Y90945D01*
X326000Y91353D01*
X323952Y90945D01*
X322215Y89785D01*
X321055Y88048D01*
X320647Y86000D01*
X321055Y83952D01*
X322215Y82215D01*
X323952Y81055D01*
X326000Y80647D01*
X328048Y81055D01*
X329785Y82215D01*
X330818Y83761D01*
X331500Y83866D01*
X332182Y83761D01*
X333215Y82215D01*
X334952Y81055D01*
X337000Y80647D01*
X339048Y81055D01*
X340785Y82215D01*
X341945Y83952D01*
X342353Y86000D01*
X341945Y88048D01*
X340785Y89785D01*
X339048Y90945D01*
X337000Y91353D01*
D02*
G37*
G36*
X29000Y101353D02*
X26952Y100945D01*
X25215Y99785D01*
X24055Y98048D01*
X23647Y96000D01*
X24055Y93952D01*
X25215Y92215D01*
X26952Y91055D01*
X29000Y90647D01*
X31048Y91055D01*
X32785Y92215D01*
X33945Y93952D01*
X34353Y96000D01*
X33945Y98048D01*
X32785Y99785D01*
X31048Y100945D01*
X29000Y101353D01*
D02*
G37*
G36*
X298000Y82353D02*
X295952Y81945D01*
X294215Y80785D01*
X293055Y79048D01*
X292647Y77000D01*
X293055Y74952D01*
X294215Y73215D01*
X295952Y72055D01*
X298000Y71647D01*
X300048Y72055D01*
X301785Y73215D01*
X302945Y74952D01*
X303353Y77000D01*
X302945Y79048D01*
X301785Y80785D01*
X300048Y81945D01*
X298000Y82353D01*
D02*
G37*
G36*
X126000Y74353D02*
X123952Y73945D01*
X122215Y72785D01*
X121785D01*
X120048Y73945D01*
X118000Y74353D01*
X115952Y73945D01*
X114215Y72785D01*
X113055Y71048D01*
X112647Y69000D01*
X113055Y66952D01*
X114215Y65215D01*
X115952Y64055D01*
X118000Y63647D01*
X120048Y64055D01*
X121785Y65215D01*
X122215D01*
X123952Y64055D01*
X126000Y63647D01*
X128048Y64055D01*
X129785Y65215D01*
X130945Y66952D01*
X131353Y69000D01*
X130945Y71048D01*
X129785Y72785D01*
X128048Y73945D01*
X126000Y74353D01*
D02*
G37*
G36*
X273000Y68353D02*
X270952Y67945D01*
X269215Y66785D01*
X268055Y65048D01*
X267647Y63000D01*
X268055Y60952D01*
X269215Y59215D01*
X270952Y58055D01*
X273000Y57647D01*
X275048Y58055D01*
X276785Y59215D01*
X277945Y60952D01*
X278353Y63000D01*
X277945Y65048D01*
X276785Y66785D01*
X275048Y67945D01*
X273000Y68353D01*
D02*
G37*
G36*
X186000Y77353D02*
X183952Y76945D01*
X182215Y75785D01*
X181055Y74048D01*
X180647Y72000D01*
X181055Y69952D01*
X182215Y68215D01*
X183952Y67055D01*
X186000Y66647D01*
X188048Y67055D01*
X189785Y68215D01*
X190945Y69952D01*
X191353Y72000D01*
X190945Y74048D01*
X189785Y75785D01*
X188048Y76945D01*
X186000Y77353D01*
D02*
G37*
G36*
X131000Y91353D02*
X128952Y90945D01*
X127215Y89785D01*
X126055Y88048D01*
X125647Y86000D01*
X126055Y83952D01*
X127215Y82215D01*
X128952Y81055D01*
X131000Y80647D01*
X133048Y81055D01*
X134785Y82215D01*
X135945Y83952D01*
X136353Y86000D01*
X135945Y88048D01*
X134785Y89785D01*
X133048Y90945D01*
X131000Y91353D01*
D02*
G37*
G36*
X349000D02*
X346952Y90945D01*
X345215Y89785D01*
X344055Y88048D01*
X343647Y86000D01*
X344055Y83952D01*
X345215Y82215D01*
X346952Y81055D01*
X349000Y80647D01*
X351048Y81055D01*
X352785Y82215D01*
X353945Y83952D01*
X354353Y86000D01*
X353945Y88048D01*
X352785Y89785D01*
X351048Y90945D01*
X349000Y91353D01*
D02*
G37*
G36*
X464000Y89353D02*
X461952Y88945D01*
X460215Y87785D01*
X459055Y86048D01*
X458647Y84000D01*
X459055Y81952D01*
X460215Y80215D01*
X461952Y79055D01*
X464000Y78647D01*
X466048Y79055D01*
X467785Y80215D01*
X468945Y81952D01*
X469353Y84000D01*
X468945Y86048D01*
X467785Y87785D01*
X466048Y88945D01*
X464000Y89353D01*
D02*
G37*
G36*
X272000Y159353D02*
X269952Y158945D01*
X268215Y157785D01*
X267055Y156048D01*
X266647Y154000D01*
X267055Y151952D01*
X268181Y150266D01*
X268350Y149935D01*
Y149065D01*
X268181Y148734D01*
X267055Y147048D01*
X266647Y145000D01*
X267055Y142952D01*
X268215Y141215D01*
X268908Y140752D01*
Y139248D01*
X268215Y138785D01*
X267055Y137048D01*
X266647Y135000D01*
X267055Y132952D01*
X268215Y131215D01*
X268908Y130752D01*
Y129248D01*
X268215Y128785D01*
X267055Y127048D01*
X266647Y125000D01*
X267055Y122952D01*
X268215Y121215D01*
X268908Y120752D01*
Y119248D01*
X268215Y118785D01*
X267055Y117048D01*
X266647Y115000D01*
X267055Y112952D01*
X268215Y111215D01*
X268908Y110752D01*
Y109248D01*
X268215Y108785D01*
X267055Y107048D01*
X266647Y105000D01*
X267055Y102952D01*
X268215Y101215D01*
X268908Y100752D01*
Y99248D01*
X268215Y98785D01*
X267055Y97048D01*
X266647Y95000D01*
X267055Y92952D01*
X268215Y91215D01*
X268908Y90752D01*
Y89248D01*
X268215Y88785D01*
X267055Y87048D01*
X266647Y85000D01*
X267055Y82952D01*
X268215Y81215D01*
X269952Y80055D01*
X272000Y79647D01*
X274048Y80055D01*
X275785Y81215D01*
X276945Y82952D01*
X277353Y85000D01*
X276945Y87048D01*
X275785Y88785D01*
X275092Y89248D01*
Y90752D01*
X275785Y91215D01*
X276945Y92952D01*
X277353Y95000D01*
X276945Y97048D01*
X275785Y98785D01*
X275092Y99248D01*
Y100752D01*
X275785Y101215D01*
X276945Y102952D01*
X277353Y105000D01*
X276945Y107048D01*
X275785Y108785D01*
X275092Y109248D01*
Y110752D01*
X275785Y111215D01*
X276945Y112952D01*
X277353Y115000D01*
X276945Y117048D01*
X275785Y118785D01*
X275092Y119248D01*
Y120752D01*
X275785Y121215D01*
X276945Y122952D01*
X277353Y125000D01*
X276945Y127048D01*
X275785Y128785D01*
X275092Y129248D01*
Y130752D01*
X275785Y131215D01*
X276945Y132952D01*
X277353Y135000D01*
X276945Y137048D01*
X275785Y138785D01*
X275092Y139248D01*
Y140752D01*
X275785Y141215D01*
X276945Y142952D01*
X277353Y145000D01*
X276945Y147048D01*
X275819Y148734D01*
X275650Y149065D01*
Y149935D01*
X275819Y150266D01*
X276945Y151952D01*
X277353Y154000D01*
X276945Y156048D01*
X275785Y157785D01*
X274048Y158945D01*
X272000Y159353D01*
D02*
G37*
G36*
X131000Y112353D02*
X128952Y111945D01*
X127215Y110785D01*
X126055Y109048D01*
X125647Y107000D01*
X126055Y104952D01*
X127215Y103215D01*
X128952Y102055D01*
X131000Y101647D01*
X133048Y102055D01*
X134785Y103215D01*
X135945Y104952D01*
X136353Y107000D01*
X135945Y109048D01*
X134785Y110785D01*
X133048Y111945D01*
X131000Y112353D01*
D02*
G37*
G36*
X464000Y139353D02*
X461952Y138945D01*
X460215Y137785D01*
X459055Y136048D01*
X458647Y134000D01*
X459055Y131952D01*
X460215Y130215D01*
X461952Y129055D01*
X464000Y128647D01*
X466048Y129055D01*
X467785Y130215D01*
X468945Y131952D01*
X469353Y134000D01*
X468945Y136048D01*
X467785Y137785D01*
X466048Y138945D01*
X464000Y139353D01*
D02*
G37*
G36*
X306000Y140353D02*
X303952Y139945D01*
X302957Y139281D01*
X302000Y138876D01*
X301043Y139281D01*
X300048Y139945D01*
X298000Y140353D01*
X295952Y139945D01*
X294215Y138785D01*
X293055Y137048D01*
X292647Y135000D01*
X293055Y132952D01*
X294215Y131215D01*
X295952Y130055D01*
X298000Y129647D01*
X300048Y130055D01*
X301785Y131215D01*
X302215D01*
X303952Y130055D01*
X306000Y129647D01*
X308048Y130055D01*
X309785Y131215D01*
X310945Y132952D01*
X311353Y135000D01*
X310945Y137048D01*
X309785Y138785D01*
X308048Y139945D01*
X306000Y140353D01*
D02*
G37*
G36*
X160000Y130353D02*
X157952Y129945D01*
X156215Y128785D01*
X155055Y127048D01*
X154647Y125000D01*
X155055Y122952D01*
X156215Y121215D01*
X157952Y120055D01*
X160000Y119647D01*
X162048Y120055D01*
X163785Y121215D01*
X164945Y122952D01*
X165353Y125000D01*
X164945Y127048D01*
X163785Y128785D01*
X162048Y129945D01*
X160000Y130353D01*
D02*
G37*
G36*
X184000D02*
X181952Y129945D01*
X180215Y128785D01*
X179055Y127048D01*
X178647Y125000D01*
X179055Y122952D01*
X180215Y121215D01*
X181952Y120055D01*
X184000Y119647D01*
X186048Y120055D01*
X187785Y121215D01*
X188945Y122952D01*
X189353Y125000D01*
X188945Y127048D01*
X187785Y128785D01*
X186048Y129945D01*
X184000Y130353D01*
D02*
G37*
G36*
X160000Y168353D02*
X157952Y167945D01*
X156215Y166785D01*
X155055Y165048D01*
X154647Y163000D01*
X155055Y160952D01*
X156215Y159215D01*
X157952Y158055D01*
X160000Y157647D01*
X162048Y158055D01*
X163785Y159215D01*
X164945Y160952D01*
X165353Y163000D01*
X164945Y165048D01*
X163785Y166785D01*
X162048Y167945D01*
X160000Y168353D01*
D02*
G37*
G36*
X198000D02*
X195952Y167945D01*
X194215Y166785D01*
X193055Y165048D01*
X192647Y163000D01*
X193055Y160952D01*
X194215Y159215D01*
X195952Y158055D01*
X198000Y157647D01*
X200048Y158055D01*
X201785Y159215D01*
X202945Y160952D01*
X203353Y163000D01*
X202945Y165048D01*
X201785Y166785D01*
X200048Y167945D01*
X198000Y168353D01*
D02*
G37*
G36*
X464000Y151353D02*
X461952Y150945D01*
X460215Y149785D01*
X459055Y148048D01*
X458647Y146000D01*
X459055Y143952D01*
X460215Y142215D01*
X461952Y141055D01*
X464000Y140647D01*
X466048Y141055D01*
X467785Y142215D01*
X468945Y143952D01*
X469353Y146000D01*
X468945Y148048D01*
X467785Y149785D01*
X466048Y150945D01*
X464000Y151353D01*
D02*
G37*
G36*
X113000Y153353D02*
X110952Y152945D01*
X109215Y151785D01*
X108055Y150048D01*
X107647Y148000D01*
X108055Y145952D01*
X109215Y144215D01*
X110952Y143055D01*
X113000Y142647D01*
X115048Y143055D01*
X116785Y144215D01*
X117945Y145952D01*
X118353Y148000D01*
X117945Y150048D01*
X116785Y151785D01*
X115048Y152945D01*
X113000Y153353D01*
D02*
G37*
G36*
X464000Y114353D02*
X461952Y113945D01*
X460215Y112785D01*
X459055Y111048D01*
X458647Y109000D01*
X459055Y106952D01*
X460215Y105215D01*
X461952Y104055D01*
X464000Y103647D01*
X466048Y104055D01*
X467785Y105215D01*
X468945Y106952D01*
X469353Y109000D01*
X468945Y111048D01*
X467785Y112785D01*
X466048Y113945D01*
X464000Y114353D01*
D02*
G37*
G36*
X198000Y112353D02*
X195952Y111945D01*
X194215Y110785D01*
X193055Y109048D01*
X192647Y107000D01*
X192739Y106536D01*
X192335Y106218D01*
X191588Y105917D01*
X190048Y106945D01*
X188000Y107353D01*
X185952Y106945D01*
X184215Y105785D01*
X183055Y104048D01*
X182647Y102000D01*
X183055Y99952D01*
X184215Y98215D01*
Y97785D01*
X183055Y96048D01*
X182647Y94000D01*
X183055Y91952D01*
X184215Y90215D01*
Y90001D01*
X183224Y89160D01*
X182048Y89945D01*
X180000Y90353D01*
X177952Y89945D01*
X176215Y88785D01*
X175785D01*
X174048Y89945D01*
X172000Y90353D01*
X169952Y89945D01*
X168380Y88895D01*
X167785Y89785D01*
X166048Y90945D01*
X164000Y91353D01*
X161952Y90945D01*
X160215Y89785D01*
X159055Y88048D01*
X158647Y86000D01*
X159055Y83952D01*
X160215Y82215D01*
X161952Y81055D01*
X161999Y79771D01*
X161647Y78000D01*
X162055Y75952D01*
X163215Y74215D01*
X164952Y73055D01*
X167000Y72647D01*
X169048Y73055D01*
X170785Y74215D01*
X171945Y75952D01*
X172353Y78000D01*
X172024Y79652D01*
X174048Y80055D01*
X175785Y81215D01*
X176215D01*
X177952Y80055D01*
X180000Y79647D01*
X182048Y80055D01*
X183785Y81215D01*
X184380Y82105D01*
X185952Y81055D01*
X188000Y80647D01*
X190048Y81055D01*
X191785Y82215D01*
X192945Y83952D01*
X193353Y86000D01*
X192945Y88048D01*
X191785Y89785D01*
Y90215D01*
X192945Y91952D01*
X193353Y94000D01*
X192945Y96048D01*
X191785Y97785D01*
Y98215D01*
X192945Y99952D01*
X193353Y102000D01*
X193261Y102464D01*
X193665Y102782D01*
X194412Y103083D01*
X195952Y102055D01*
X198000Y101647D01*
X200048Y102055D01*
X201785Y103215D01*
X202945Y104952D01*
X203353Y107000D01*
X202945Y109048D01*
X201785Y110785D01*
X200048Y111945D01*
X198000Y112353D01*
D02*
G37*
G36*
X160000D02*
X157952Y111945D01*
X156215Y110785D01*
X155055Y109048D01*
X154647Y107000D01*
X155055Y104952D01*
X156215Y103215D01*
X157952Y102055D01*
X160000Y101647D01*
X162048Y102055D01*
X163785Y103215D01*
X164945Y104952D01*
X165353Y107000D01*
X164945Y109048D01*
X163785Y110785D01*
X162048Y111945D01*
X160000Y112353D01*
D02*
G37*
G36*
X57000Y121353D02*
X54952Y120945D01*
X53215Y119785D01*
X52055Y118048D01*
X51647Y116000D01*
X52055Y113952D01*
X53215Y112215D01*
Y111785D01*
X52055Y110048D01*
X51647Y108000D01*
X52055Y105952D01*
X53215Y104215D01*
X54952Y103055D01*
X57000Y102647D01*
X59048Y103055D01*
X60785Y104215D01*
X61945Y105952D01*
X62353Y108000D01*
X61945Y110048D01*
X60785Y111785D01*
Y112215D01*
X61945Y113952D01*
X62353Y116000D01*
X61945Y118048D01*
X60785Y119785D01*
X59048Y120945D01*
X57000Y121353D01*
D02*
G37*
G36*
X113000Y127353D02*
X110952Y126945D01*
X109215Y125785D01*
X108055Y124048D01*
X107647Y122000D01*
X108055Y119952D01*
X109215Y118215D01*
X110952Y117055D01*
X113000Y116647D01*
X115048Y117055D01*
X116785Y118215D01*
X117945Y119952D01*
X118353Y122000D01*
X117945Y124048D01*
X116785Y125785D01*
X115048Y126945D01*
X113000Y127353D01*
D02*
G37*
G36*
X131000Y130353D02*
X128952Y129945D01*
X127215Y128785D01*
X126055Y127048D01*
X125647Y125000D01*
X126055Y122952D01*
X127215Y121215D01*
X128952Y120055D01*
X131000Y119647D01*
X133048Y120055D01*
X134785Y121215D01*
X135945Y122952D01*
X136353Y125000D01*
X135945Y127048D01*
X134785Y128785D01*
X133048Y129945D01*
X131000Y130353D01*
D02*
G37*
G36*
X399000Y121353D02*
X396952Y120945D01*
X395215Y119785D01*
X394055Y118048D01*
X393647Y116000D01*
X394055Y113952D01*
X395215Y112215D01*
X396952Y111055D01*
X399000Y110647D01*
X401048Y111055D01*
X402785Y112215D01*
X403945Y113952D01*
X404353Y116000D01*
X403945Y118048D01*
X402785Y119785D01*
X401048Y120945D01*
X399000Y121353D01*
D02*
G37*
G36*
X198000Y144353D02*
X195952Y143945D01*
X194215Y142785D01*
X193055Y141048D01*
X192647Y139000D01*
X193055Y136952D01*
X194215Y135215D01*
X194908Y134752D01*
Y133248D01*
X194215Y132785D01*
X193055Y131048D01*
X192647Y129000D01*
X193055Y126952D01*
X194181Y125266D01*
X194350Y124935D01*
Y124065D01*
X194181Y123734D01*
X193055Y122048D01*
X192647Y120000D01*
X193055Y117952D01*
X194215Y116215D01*
X195952Y115055D01*
X198000Y114647D01*
X200048Y115055D01*
X201785Y116215D01*
X202945Y117952D01*
X203353Y120000D01*
X202945Y122048D01*
X201819Y123734D01*
X201650Y124065D01*
Y124935D01*
X201819Y125266D01*
X202945Y126952D01*
X203353Y129000D01*
X202945Y131048D01*
X201785Y132785D01*
X201092Y133248D01*
Y134752D01*
X201785Y135215D01*
X202945Y136952D01*
X203353Y139000D01*
X202945Y141048D01*
X201785Y142785D01*
X200048Y143945D01*
X198000Y144353D01*
D02*
G37*
G36*
X371000Y58608D02*
X368854Y58181D01*
X367035Y56965D01*
X365835Y57420D01*
X365048Y57945D01*
X363000Y58353D01*
X360952Y57945D01*
X359215Y56785D01*
X358204Y55272D01*
X356756Y56239D01*
X355000Y56588D01*
X353244Y56239D01*
X352000Y55408D01*
X350756Y56239D01*
X349000Y56588D01*
X347244Y56239D01*
X346000Y55408D01*
X344756Y56239D01*
X343000Y56588D01*
X341244Y56239D01*
X340000Y55408D01*
X338756Y56239D01*
X337000Y56588D01*
X335244Y56239D01*
X334000Y55408D01*
X332756Y56239D01*
X331000Y56588D01*
X329244Y56239D01*
X327756Y55244D01*
X326761Y53756D01*
X326412Y52000D01*
X326761Y50244D01*
X327756Y48756D01*
X329244Y47761D01*
X331000Y47412D01*
X332756Y47761D01*
X334000Y48592D01*
X335244Y47761D01*
X337000Y47412D01*
X338756Y47761D01*
X340000Y48592D01*
X341244Y47761D01*
X343000Y47412D01*
X344756Y47761D01*
X346000Y48592D01*
X347244Y47761D01*
X349000Y47412D01*
X350756Y47761D01*
X352000Y48592D01*
X353244Y47761D01*
X355000Y47412D01*
X356756Y47761D01*
X358244Y48756D01*
X359795Y48827D01*
X360952Y48055D01*
X363000Y47647D01*
X364142Y47874D01*
X365392Y46895D01*
Y43000D01*
X365819Y40854D01*
X367035Y39035D01*
X370035Y36035D01*
X371854Y34819D01*
X374000Y34392D01*
X373981Y33150D01*
X372952Y32945D01*
X371215Y31785D01*
X370055Y30048D01*
X369647Y28000D01*
X370055Y25952D01*
X371215Y24215D01*
X372952Y23055D01*
X375000Y22647D01*
X377048Y23055D01*
X378785Y24215D01*
X379945Y25952D01*
X380353Y28000D01*
X379945Y30048D01*
X378785Y31785D01*
X377048Y32945D01*
X376059Y33142D01*
X376182Y34392D01*
X386818D01*
X386941Y33142D01*
X385952Y32945D01*
X384215Y31785D01*
X383055Y30048D01*
X382647Y28000D01*
X383055Y25952D01*
X384215Y24215D01*
X385952Y23055D01*
X388000Y22647D01*
X390048Y23055D01*
X391785Y24215D01*
X392945Y25952D01*
X393142Y26941D01*
X394392Y26818D01*
Y16182D01*
X393142Y16059D01*
X392945Y17048D01*
X391785Y18785D01*
X390048Y19945D01*
X388000Y20353D01*
X385952Y19945D01*
X384215Y18785D01*
X383055Y17048D01*
X382647Y15000D01*
X383055Y12952D01*
X384215Y11215D01*
X385952Y10055D01*
X388000Y9647D01*
X390048Y10055D01*
X391785Y11215D01*
X392945Y12952D01*
X393142Y13941D01*
X394392Y13818D01*
Y1182D01*
X393142Y1059D01*
X392945Y2048D01*
X391785Y3785D01*
X390048Y4945D01*
X388000Y5353D01*
X385952Y4945D01*
X384215Y3785D01*
X383055Y2048D01*
X382647Y0D01*
X383055Y-2048D01*
X384215Y-3785D01*
X385952Y-4945D01*
X388000Y-5353D01*
X390048Y-4945D01*
X391785Y-3785D01*
X392945Y-2048D01*
X393142Y-1059D01*
X394392Y-1182D01*
Y-13818D01*
X393142Y-13941D01*
X392945Y-12952D01*
X391785Y-11215D01*
X390048Y-10055D01*
X388000Y-9647D01*
X385952Y-10055D01*
X384215Y-11215D01*
X383055Y-12952D01*
X382647Y-15000D01*
X383055Y-17048D01*
X384215Y-18785D01*
X385952Y-19945D01*
X388000Y-20353D01*
X390048Y-19945D01*
X391785Y-18785D01*
X392945Y-17048D01*
X393142Y-16059D01*
X394392Y-16182D01*
Y-26818D01*
X393142Y-26941D01*
X392945Y-25952D01*
X391785Y-24215D01*
X390048Y-23055D01*
X388000Y-22647D01*
X385952Y-23055D01*
X384215Y-24215D01*
X383055Y-25952D01*
X382647Y-28000D01*
X383055Y-30048D01*
X384215Y-31785D01*
X385952Y-32945D01*
X386941Y-33142D01*
X386818Y-34392D01*
X376182D01*
X376059Y-33142D01*
X377048Y-32945D01*
X378785Y-31785D01*
X379945Y-30048D01*
X380353Y-28000D01*
X379945Y-25952D01*
X378785Y-24215D01*
X377048Y-23055D01*
X375000Y-22647D01*
X372952Y-23055D01*
X371215Y-24215D01*
X370055Y-25952D01*
X369647Y-28000D01*
X370055Y-30048D01*
X371215Y-31785D01*
X372952Y-32945D01*
X373941Y-33142D01*
X373818Y-34392D01*
X361182D01*
X361059Y-33142D01*
X362048Y-32945D01*
X363785Y-31785D01*
X364945Y-30048D01*
X365353Y-28000D01*
X364945Y-25952D01*
X363785Y-24215D01*
X362048Y-23055D01*
X360000Y-22647D01*
X357952Y-23055D01*
X356215Y-24215D01*
X355055Y-25952D01*
X354647Y-28000D01*
X355055Y-30048D01*
X356215Y-31785D01*
X357952Y-32945D01*
X358941Y-33142D01*
X358818Y-34392D01*
X346182D01*
X346059Y-33142D01*
X347048Y-32945D01*
X348785Y-31785D01*
X349945Y-30048D01*
X350353Y-28000D01*
X349945Y-25952D01*
X348785Y-24215D01*
X347048Y-23055D01*
X345000Y-22647D01*
X342952Y-23055D01*
X341215Y-24215D01*
X340055Y-25952D01*
X339647Y-28000D01*
X340055Y-30048D01*
X341215Y-31785D01*
X342952Y-32945D01*
X343941Y-33142D01*
X343818Y-34392D01*
X333182D01*
X333059Y-33142D01*
X334048Y-32945D01*
X335785Y-31785D01*
X336945Y-30048D01*
X337353Y-28000D01*
X336945Y-25952D01*
X335785Y-24215D01*
X334048Y-23055D01*
X332000Y-22647D01*
X329952Y-23055D01*
X328215Y-24215D01*
X327055Y-25952D01*
X326647Y-28000D01*
X327055Y-30048D01*
X328215Y-31785D01*
X329952Y-32945D01*
X330941Y-33142D01*
X330818Y-34392D01*
X313203D01*
X312361Y-33142D01*
X312588Y-32000D01*
X312239Y-30244D01*
X311244Y-28756D01*
X309756Y-27761D01*
X308000Y-27412D01*
X307491Y-27513D01*
X307239Y-26244D01*
X306408Y-25000D01*
X307239Y-23756D01*
X307491Y-22487D01*
X308000Y-22588D01*
X309756Y-22239D01*
X311244Y-21244D01*
X312239Y-19756D01*
X312588Y-18000D01*
X312239Y-16244D01*
X311244Y-14756D01*
X309756Y-13761D01*
X308000Y-13412D01*
X307491Y-13513D01*
X307239Y-12244D01*
X306408Y-11000D01*
X307239Y-9756D01*
X307588Y-8000D01*
X307239Y-6244D01*
X306408Y-5000D01*
X307239Y-3756D01*
X307588Y-2000D01*
X307239Y-244D01*
X306244Y1244D01*
Y1756D01*
X307239Y3244D01*
X307308Y3589D01*
X308200Y3412D01*
X309956Y3761D01*
X311444Y4756D01*
X312439Y6244D01*
X312788Y8000D01*
X312439Y9756D01*
X311444Y11244D01*
X309956Y12239D01*
X308200Y12588D01*
X307691Y12487D01*
X307439Y13756D01*
X306608Y15000D01*
X307439Y16244D01*
X307691Y17513D01*
X308200Y17412D01*
X309956Y17761D01*
X311444Y18756D01*
X312439Y20244D01*
X312788Y22000D01*
X312439Y23756D01*
X311444Y25244D01*
X309956Y26239D01*
X308200Y26588D01*
X306444Y26239D01*
X304956Y25244D01*
X303961Y23756D01*
X303709Y22487D01*
X303200Y22588D01*
X301444Y22239D01*
X299956Y21244D01*
X298961Y19756D01*
X298612Y18000D01*
X298961Y16244D01*
X299792Y15000D01*
X298961Y13756D01*
X298612Y12000D01*
X298961Y10244D01*
X299436Y9534D01*
X299756Y8244D01*
X298761Y6756D01*
X298412Y5000D01*
X298761Y3244D01*
X299756Y1756D01*
Y1244D01*
X298761Y-244D01*
X298412Y-2000D01*
X298761Y-3756D01*
X299592Y-5000D01*
X298761Y-6244D01*
X298412Y-8000D01*
X298761Y-9756D01*
X299592Y-11000D01*
X298761Y-12244D01*
X298412Y-14000D01*
X298761Y-15756D01*
X299756Y-17244D01*
X299951Y-17375D01*
Y-18625D01*
X299756Y-18756D01*
X298761Y-20244D01*
X298412Y-22000D01*
X298761Y-23756D01*
X299592Y-25000D01*
X298761Y-26244D01*
X298412Y-28000D01*
X298761Y-29756D01*
X299756Y-31244D01*
X301244Y-32239D01*
X302564Y-32501D01*
X302968Y-33213D01*
X302517Y-34106D01*
X302199Y-34392D01*
X296883D01*
X296215Y-33142D01*
X296945Y-32048D01*
X297353Y-30000D01*
X296945Y-27952D01*
X295785Y-26215D01*
X294048Y-25055D01*
X292000Y-24647D01*
X289952Y-25055D01*
X288215Y-26215D01*
X287055Y-27952D01*
X286647Y-30000D01*
X287055Y-32048D01*
X287785Y-33142D01*
X287117Y-34392D01*
X285323D01*
X284608Y-33677D01*
Y-19000D01*
X284181Y-16854D01*
X282965Y-15035D01*
X279965Y-12035D01*
X279045Y-11420D01*
X279308Y-10093D01*
X280048Y-9945D01*
X281785Y-8785D01*
X282945Y-7048D01*
X283353Y-5000D01*
X282945Y-2952D01*
X281785Y-1215D01*
X280048Y-55D01*
X278000Y353D01*
X275952Y-55D01*
X274215Y-1215D01*
X273785D01*
X272048Y-55D01*
X270000Y353D01*
X267952Y-55D01*
X266215Y-1215D01*
X265055Y-2952D01*
X264647Y-5000D01*
X264720Y-5368D01*
X263595Y-6119D01*
X263146Y-5819D01*
X261000Y-5392D01*
X258854Y-5819D01*
X258405Y-6119D01*
X257275Y-5392D01*
X257353Y-5000D01*
X256945Y-2952D01*
X255785Y-1215D01*
X254048Y-55D01*
X252000Y353D01*
X249952Y-55D01*
X248215Y-1215D01*
X247055Y-2952D01*
X246647Y-5000D01*
X247055Y-7048D01*
X248215Y-8785D01*
X249952Y-9945D01*
X252000Y-10353D01*
X252600Y-10953D01*
X252392Y-12000D01*
X252819Y-14146D01*
X254035Y-15965D01*
X255854Y-17181D01*
X258000Y-17608D01*
X259677D01*
X262035Y-19965D01*
X263854Y-21181D01*
X266000Y-21608D01*
X273392D01*
Y-36000D01*
X273819Y-38146D01*
X275035Y-39965D01*
X279035Y-43965D01*
X280854Y-45181D01*
X283000Y-45608D01*
X301627D01*
X302216Y-46710D01*
X302055Y-46952D01*
X301647Y-49000D01*
X302055Y-51048D01*
X303215Y-52785D01*
X304952Y-53945D01*
X307000Y-54353D01*
X309048Y-53945D01*
X310785Y-52785D01*
X311945Y-51048D01*
X312353Y-49000D01*
X311945Y-46952D01*
X311784Y-46710D01*
X312373Y-45608D01*
X341392D01*
Y-53000D01*
X341819Y-55146D01*
X343035Y-56965D01*
X344854Y-58181D01*
X347000Y-58608D01*
X349146Y-58181D01*
X350965Y-56965D01*
X352181Y-55146D01*
X352608Y-53000D01*
Y-45608D01*
X397000D01*
X399146Y-45181D01*
X400965Y-43965D01*
X403965Y-40965D01*
X405181Y-39146D01*
X405608Y-37000D01*
Y-8608D01*
X413000D01*
X415146Y-8181D01*
X416965Y-6965D01*
X418181Y-5146D01*
X418608Y-3000D01*
X418181Y-854D01*
X416965Y965D01*
X415146Y2181D01*
X413000Y2608D01*
X405608D01*
Y37000D01*
X405181Y39146D01*
X403965Y40965D01*
X400965Y43965D01*
X399146Y45181D01*
X397000Y45608D01*
X376608D01*
Y53000D01*
X376181Y55146D01*
X374965Y56965D01*
X373146Y58181D01*
X371000Y58608D01*
D02*
G37*
G36*
X135000Y16353D02*
X132952Y15945D01*
X131215Y14785D01*
X130055Y13048D01*
X129647Y11000D01*
X129000Y10353D01*
X126952Y9945D01*
X125215Y8785D01*
X124055Y7048D01*
X123647Y5000D01*
X124055Y2952D01*
X125215Y1215D01*
X126952Y55D01*
X129000Y-353D01*
X131048Y55D01*
X132785Y1215D01*
X133945Y2952D01*
X134353Y5000D01*
X135000Y5647D01*
X137048Y6055D01*
X138785Y7215D01*
X139945Y8952D01*
X140353Y11000D01*
X139945Y13048D01*
X138785Y14785D01*
X137048Y15945D01*
X135000Y16353D01*
D02*
G37*
G36*
X258000Y18353D02*
X255952Y17945D01*
X254215Y16785D01*
X253055Y15048D01*
X252647Y13000D01*
X253055Y10952D01*
X254215Y9215D01*
X255952Y8055D01*
X258000Y7647D01*
X260048Y8055D01*
X261785Y9215D01*
X262945Y10952D01*
X263353Y13000D01*
X262945Y15048D01*
X261785Y16785D01*
X260048Y17945D01*
X258000Y18353D01*
D02*
G37*
G36*
X375000Y5353D02*
X372952Y4945D01*
X371215Y3785D01*
X370055Y2048D01*
X369647Y0D01*
X370055Y-2048D01*
X371215Y-3785D01*
X372952Y-4945D01*
X375000Y-5353D01*
X377048Y-4945D01*
X378785Y-3785D01*
X379945Y-2048D01*
X380353Y0D01*
X379945Y2048D01*
X378785Y3785D01*
X377048Y4945D01*
X375000Y5353D01*
D02*
G37*
G36*
X225000Y22353D02*
X222952Y21945D01*
X221215Y20785D01*
X220055Y19048D01*
X219647Y17000D01*
X220055Y14952D01*
X221215Y13215D01*
X222105Y12620D01*
X221055Y11048D01*
X220647Y9000D01*
X221055Y6952D01*
X222215Y5215D01*
X223952Y4055D01*
X226000Y3647D01*
X226647Y3000D01*
X227055Y952D01*
X228215Y-785D01*
X229952Y-1945D01*
X232000Y-2353D01*
X234048Y-1945D01*
X235734Y-819D01*
X236065Y-650D01*
X236935D01*
X237266Y-819D01*
X238952Y-1945D01*
X241000Y-2353D01*
X243048Y-1945D01*
X244785Y-785D01*
X245945Y952D01*
X246353Y3000D01*
X245945Y5048D01*
X244785Y6785D01*
X243048Y7945D01*
X241000Y8353D01*
X238952Y7945D01*
X237266Y6819D01*
X236935Y6650D01*
X236065D01*
X235734Y6819D01*
X234048Y7945D01*
X232000Y8353D01*
X231353Y9000D01*
X230945Y11048D01*
X229785Y12785D01*
X228895Y13380D01*
X229945Y14952D01*
X230353Y17000D01*
X229945Y19048D01*
X228785Y20785D01*
X227048Y21945D01*
X225000Y22353D01*
D02*
G37*
G36*
X345000Y20353D02*
X342952Y19945D01*
X341215Y18785D01*
X340055Y17048D01*
X339647Y15000D01*
X340055Y12952D01*
X341215Y11215D01*
X342952Y10055D01*
X345000Y9647D01*
X347048Y10055D01*
X348785Y11215D01*
X349945Y12952D01*
X350353Y15000D01*
X349945Y17048D01*
X348785Y18785D01*
X347048Y19945D01*
X345000Y20353D01*
D02*
G37*
G36*
X360000D02*
X357952Y19945D01*
X356215Y18785D01*
X355055Y17048D01*
X354647Y15000D01*
X355055Y12952D01*
X356215Y11215D01*
X357952Y10055D01*
X360000Y9647D01*
X362048Y10055D01*
X363785Y11215D01*
X364945Y12952D01*
X365353Y15000D01*
X364945Y17048D01*
X363785Y18785D01*
X362048Y19945D01*
X360000Y20353D01*
D02*
G37*
G36*
X151000Y19353D02*
X148952Y18945D01*
X147215Y17785D01*
X146055Y16048D01*
X145647Y14000D01*
X146055Y11952D01*
X147215Y10215D01*
X148952Y9055D01*
X151000Y8647D01*
X153048Y9055D01*
X154785Y10215D01*
X155945Y11952D01*
X156353Y14000D01*
X155945Y16048D01*
X154785Y17785D01*
X153048Y18945D01*
X151000Y19353D01*
D02*
G37*
G36*
X332000Y20353D02*
X329952Y19945D01*
X328215Y18785D01*
X327055Y17048D01*
X326647Y15000D01*
X327055Y12952D01*
X328215Y11215D01*
X329952Y10055D01*
X332000Y9647D01*
X334048Y10055D01*
X335785Y11215D01*
X336945Y12952D01*
X337353Y15000D01*
X336945Y17048D01*
X335785Y18785D01*
X334048Y19945D01*
X332000Y20353D01*
D02*
G37*
G36*
X50000Y12608D02*
X46737Y12178D01*
X43696Y10919D01*
X41085Y8915D01*
X39081Y6304D01*
X37822Y3263D01*
X37392Y0D01*
X37822Y-3263D01*
X39081Y-6304D01*
X41085Y-8915D01*
X43696Y-10919D01*
X46737Y-12178D01*
X50000Y-12608D01*
X53263Y-12178D01*
X56304Y-10919D01*
X58915Y-8915D01*
X60919Y-6304D01*
X62178Y-3263D01*
X62608Y0D01*
X62178Y3263D01*
X60919Y6304D01*
X58915Y8915D01*
X56304Y10919D01*
X53263Y12178D01*
X50000Y12608D01*
D02*
G37*
G36*
X172000Y-1647D02*
X169952Y-2055D01*
X168215Y-3215D01*
X167055Y-4952D01*
X166647Y-7000D01*
X167055Y-9048D01*
X168215Y-10785D01*
X169952Y-11945D01*
X172000Y-12353D01*
X174048Y-11945D01*
X175785Y-10785D01*
X176945Y-9048D01*
X177353Y-7000D01*
X176945Y-4952D01*
X175785Y-3215D01*
X174048Y-2055D01*
X172000Y-1647D01*
D02*
G37*
G36*
X430000Y-5647D02*
X427952Y-6055D01*
X426215Y-7215D01*
X425055Y-8952D01*
X424647Y-11000D01*
X425055Y-13048D01*
X426215Y-14785D01*
X427952Y-15945D01*
X430000Y-16353D01*
X432048Y-15945D01*
X433785Y-14785D01*
X434945Y-13048D01*
X435353Y-11000D01*
X434945Y-8952D01*
X433785Y-7215D01*
X432048Y-6055D01*
X430000Y-5647D01*
D02*
G37*
G36*
X214000Y-647D02*
X211952Y-1055D01*
X210215Y-2215D01*
X209055Y-3952D01*
X208647Y-6000D01*
X209055Y-8048D01*
X210215Y-9785D01*
X211952Y-10945D01*
X212293Y-11013D01*
X212961Y-12421D01*
X212647Y-14000D01*
X213055Y-16048D01*
X214215Y-17785D01*
X215952Y-18945D01*
X218000Y-19353D01*
X220048Y-18945D01*
X221620Y-17895D01*
X222215Y-18785D01*
X223952Y-19945D01*
X226000Y-20353D01*
X228048Y-19945D01*
X229785Y-18785D01*
X230945Y-17048D01*
X231353Y-15000D01*
X231211Y-14286D01*
X232336Y-13534D01*
X232952Y-13945D01*
X235000Y-14353D01*
X237048Y-13945D01*
X238785Y-12785D01*
X239945Y-11048D01*
X240353Y-9000D01*
X239945Y-6952D01*
X238785Y-5215D01*
X237048Y-4055D01*
X235000Y-3647D01*
X232952Y-4055D01*
X231215Y-5215D01*
X230055Y-6952D01*
X229647Y-9000D01*
X229789Y-9714D01*
X228664Y-10466D01*
X228048Y-10055D01*
X226000Y-9647D01*
X223952Y-10055D01*
X222380Y-11105D01*
X221785Y-10215D01*
X220048Y-9055D01*
X219707Y-8987D01*
X219039Y-7579D01*
X219353Y-6000D01*
X218945Y-3952D01*
X217785Y-2215D01*
X216048Y-1055D01*
X214000Y-647D01*
D02*
G37*
G36*
X345000Y5353D02*
X342952Y4945D01*
X341215Y3785D01*
X340055Y2048D01*
X339647Y0D01*
X340055Y-2048D01*
X341215Y-3785D01*
X342952Y-4945D01*
X345000Y-5353D01*
X347048Y-4945D01*
X348785Y-3785D01*
X349945Y-2048D01*
X350353Y0D01*
X349945Y2048D01*
X348785Y3785D01*
X347048Y4945D01*
X345000Y5353D01*
D02*
G37*
G36*
X360000D02*
X357952Y4945D01*
X356215Y3785D01*
X355055Y2048D01*
X354647Y0D01*
X355055Y-2048D01*
X356215Y-3785D01*
X357952Y-4945D01*
X360000Y-5353D01*
X362048Y-4945D01*
X363785Y-3785D01*
X364945Y-2048D01*
X365353Y0D01*
X364945Y2048D01*
X363785Y3785D01*
X362048Y4945D01*
X360000Y5353D01*
D02*
G37*
G36*
X151000D02*
X148952Y4945D01*
X147215Y3785D01*
X146055Y2048D01*
X145647Y0D01*
X146055Y-2048D01*
X147215Y-3785D01*
X148952Y-4945D01*
X151000Y-5353D01*
X153048Y-4945D01*
X154785Y-3785D01*
X155945Y-2048D01*
X156353Y0D01*
X155945Y2048D01*
X154785Y3785D01*
X153048Y4945D01*
X151000Y5353D01*
D02*
G37*
G36*
X332000D02*
X329952Y4945D01*
X328215Y3785D01*
X327055Y2048D01*
X326647Y0D01*
X327055Y-2048D01*
X328215Y-3785D01*
X329952Y-4945D01*
X332000Y-5353D01*
X334048Y-4945D01*
X335785Y-3785D01*
X336945Y-2048D01*
X337353Y0D01*
X336945Y2048D01*
X335785Y3785D01*
X334048Y4945D01*
X332000Y5353D01*
D02*
G37*
G36*
X409000Y52353D02*
X406952Y51945D01*
X405215Y50785D01*
X404055Y49048D01*
X403647Y47000D01*
X404055Y44952D01*
X405215Y43215D01*
X406952Y42055D01*
X409000Y41647D01*
X411048Y42055D01*
X412785Y43215D01*
X413945Y44952D01*
X414353Y47000D01*
X413945Y49048D01*
X412785Y50785D01*
X411048Y51945D01*
X409000Y52353D01*
D02*
G37*
G36*
X319000Y54588D02*
X317244Y54239D01*
X315756Y53244D01*
X314761Y51756D01*
X314412Y50000D01*
X314761Y48244D01*
X315756Y46756D01*
X317244Y45761D01*
X319000Y45412D01*
X320756Y45761D01*
X322244Y46756D01*
X323239Y48244D01*
X323588Y50000D01*
X323239Y51756D01*
X322244Y53244D01*
X320756Y54239D01*
X319000Y54588D01*
D02*
G37*
G36*
X306000Y41353D02*
X303952Y40945D01*
X302215Y39785D01*
X301055Y38048D01*
X300647Y36000D01*
X301055Y33952D01*
X302215Y32215D01*
X303952Y31055D01*
X306000Y30647D01*
X308048Y31055D01*
X309785Y32215D01*
X310945Y33952D01*
X311353Y36000D01*
X310945Y38048D01*
X309785Y39785D01*
X308048Y40945D01*
X306000Y41353D01*
D02*
G37*
G36*
X109000Y42353D02*
X106952Y41945D01*
X105215Y40785D01*
X104055Y39048D01*
X103647Y37000D01*
X104055Y34952D01*
X105215Y33215D01*
X106952Y32055D01*
X109000Y31647D01*
X111048Y32055D01*
X112785Y33215D01*
X113945Y34952D01*
X114353Y37000D01*
X113945Y39048D01*
X112785Y40785D01*
X111048Y41945D01*
X109000Y42353D01*
D02*
G37*
G36*
X136000Y63353D02*
X133952Y62945D01*
X132215Y61785D01*
X131055Y60048D01*
X130647Y58000D01*
X131055Y55952D01*
X132215Y54215D01*
X133952Y53055D01*
X136000Y52647D01*
X138048Y53055D01*
X139785Y54215D01*
X140945Y55952D01*
X141353Y58000D01*
X140945Y60048D01*
X139785Y61785D01*
X138048Y62945D01*
X136000Y63353D01*
D02*
G37*
G36*
X395000Y58353D02*
X392952Y57945D01*
X391215Y56785D01*
X390785D01*
X389048Y57945D01*
X387000Y58353D01*
X384952Y57945D01*
X383215Y56785D01*
X382055Y55048D01*
X381647Y53000D01*
X382055Y50952D01*
X383215Y49215D01*
X384952Y48055D01*
X387000Y47647D01*
X389048Y48055D01*
X390785Y49215D01*
X391215D01*
X392952Y48055D01*
X395000Y47647D01*
X397048Y48055D01*
X398785Y49215D01*
X399945Y50952D01*
X400353Y53000D01*
X399945Y55048D01*
X398785Y56785D01*
X397048Y57945D01*
X395000Y58353D01*
D02*
G37*
G36*
X105000Y80627D02*
X95000D01*
X92464Y80123D01*
X90314Y78686D01*
X88877Y76536D01*
X88373Y74000D01*
Y48745D01*
X87255Y47627D01*
X86000D01*
Y58000D01*
X86665D01*
Y75998D01*
X72000D01*
Y74000D01*
X53000D01*
Y68145D01*
X51750Y67477D01*
X51048Y67945D01*
X49000Y68353D01*
X46952Y67945D01*
X45215Y66785D01*
X44055Y65048D01*
X43647Y63000D01*
X43772Y62375D01*
X42805Y61582D01*
X40407Y62575D01*
X36100Y63142D01*
X31793Y62575D01*
X27779Y60913D01*
X24332Y58268D01*
X21687Y54821D01*
X20025Y50807D01*
X19458Y46500D01*
X20025Y42193D01*
X21687Y38179D01*
X24332Y34732D01*
X27779Y32087D01*
X31793Y30425D01*
X36100Y29858D01*
X40407Y30425D01*
X44421Y32087D01*
X47868Y34732D01*
X50513Y38179D01*
X52175Y42193D01*
X52537Y44942D01*
X53000Y46000D01*
X53804Y46000D01*
X73860D01*
X74378Y44750D01*
X70314Y40686D01*
X68877Y38536D01*
X68373Y36000D01*
Y-79000D01*
Y-89000D01*
X68877Y-91536D01*
X70314Y-93686D01*
X72464Y-95123D01*
X75000Y-95627D01*
X77536Y-95123D01*
X79686Y-93686D01*
X81123Y-91536D01*
X81627Y-89000D01*
Y-79000D01*
Y-34659D01*
X82877Y-34280D01*
X83215Y-34785D01*
X84952Y-35945D01*
X87000Y-36353D01*
X89048Y-35945D01*
X90785Y-34785D01*
X91945Y-33048D01*
X92353Y-31000D01*
X91945Y-28952D01*
X90785Y-27215D01*
X89048Y-26055D01*
X87000Y-25647D01*
X84952Y-26055D01*
X83215Y-27215D01*
X82877Y-27720D01*
X81627Y-27341D01*
Y33255D01*
X82745Y34373D01*
X90000D01*
X92536Y34877D01*
X94686Y36314D01*
X99686Y41314D01*
X101123Y43464D01*
X101627Y46000D01*
Y57104D01*
X102877Y57772D01*
X103952Y57055D01*
X106000Y56647D01*
X108048Y57055D01*
X109785Y58215D01*
X110945Y59952D01*
X111353Y62000D01*
X110945Y64048D01*
X109785Y65785D01*
X108214Y66835D01*
X108049Y67617D01*
X108049Y68220D01*
X109686Y69314D01*
X111123Y71464D01*
X111627Y74000D01*
X111123Y76536D01*
X109686Y78686D01*
X107536Y80123D01*
X105000Y80627D01*
D02*
G37*
G36*
X188000Y62353D02*
X185952Y61945D01*
X184215Y60785D01*
X183055Y59048D01*
X182647Y57000D01*
X183055Y54952D01*
X184215Y53215D01*
X185952Y52055D01*
X187652Y51716D01*
X187834Y51250D01*
X187689Y50969D01*
X186519Y50250D01*
X186000Y50353D01*
X183952Y49945D01*
X182266Y48819D01*
X181935Y48650D01*
X181065D01*
X180734Y48819D01*
X179048Y49945D01*
X177000Y50353D01*
X176235Y50201D01*
X175296Y51288D01*
X174945Y53048D01*
X173785Y54785D01*
X172048Y55945D01*
X170000Y56353D01*
X167952Y55945D01*
X166215Y54785D01*
X165055Y53048D01*
X164704Y51288D01*
X163765Y50201D01*
X163000Y50353D01*
X160952Y49945D01*
X159215Y48785D01*
X158055Y47048D01*
X157831Y45926D01*
X157113Y45027D01*
X156481Y45058D01*
X155000Y45353D01*
X152952Y44945D01*
X151215Y43785D01*
X150055Y42048D01*
X149647Y40000D01*
X149792Y39271D01*
X148729Y38208D01*
X148000Y38353D01*
X145952Y37945D01*
X144215Y36785D01*
X143055Y35048D01*
X142647Y33000D01*
X143055Y30952D01*
X144215Y29215D01*
X145952Y28055D01*
X148000Y27647D01*
X150048Y28055D01*
X151785Y29215D01*
X152945Y30952D01*
X153353Y33000D01*
X153208Y33729D01*
X154271Y34792D01*
X155000Y34647D01*
X157048Y35055D01*
X158785Y36215D01*
X159945Y37952D01*
X160169Y39074D01*
X160887Y39973D01*
X161519Y39942D01*
X163000Y39647D01*
X165048Y40055D01*
X166785Y41215D01*
X167945Y42952D01*
X168295Y44712D01*
X169235Y45799D01*
X170000Y45647D01*
X170765Y45799D01*
X171705Y44712D01*
X172055Y42952D01*
X173215Y41215D01*
X174952Y40055D01*
X177000Y39647D01*
X177715Y39789D01*
X178466Y38664D01*
X178055Y38048D01*
X177647Y36000D01*
X178055Y33952D01*
X179215Y32215D01*
X180952Y31055D01*
X183000Y30647D01*
X185048Y31055D01*
X186785Y32215D01*
X186930Y32431D01*
X198000D01*
X199366Y32703D01*
X200523Y33477D01*
X215478Y48431D01*
X275070D01*
X275215Y48215D01*
X276952Y47055D01*
X279000Y46647D01*
X281048Y47055D01*
X282043Y47719D01*
X283000Y48124D01*
X283957Y47719D01*
X284952Y47055D01*
X287000Y46647D01*
X289048Y47055D01*
X290785Y48215D01*
X291945Y49952D01*
X292353Y52000D01*
X291945Y54048D01*
X290785Y55785D01*
X289048Y56945D01*
X287000Y57353D01*
X284952Y56945D01*
X283957Y56281D01*
X283000Y55876D01*
X282043Y56281D01*
X281048Y56945D01*
X279000Y57353D01*
X276952Y56945D01*
X275215Y55785D01*
X275070Y55569D01*
X214000D01*
X212634Y55297D01*
X211477Y54523D01*
X196522Y39569D01*
X189571D01*
X189192Y40819D01*
X189785Y41215D01*
X190945Y42952D01*
X191353Y45000D01*
X191338Y45076D01*
X192437Y45958D01*
X194000Y45647D01*
X196048Y46055D01*
X197785Y47215D01*
X198945Y48952D01*
X199353Y51000D01*
X198945Y53048D01*
X197785Y54785D01*
X196048Y55945D01*
X194000Y56353D01*
X193353Y57000D01*
X192945Y59048D01*
X191785Y60785D01*
X190048Y61945D01*
X188000Y62353D01*
D02*
G37*
G36*
X201000Y27353D02*
X198952Y26945D01*
X197215Y25785D01*
X196055Y24048D01*
X195647Y22000D01*
X196055Y19952D01*
X197215Y18215D01*
X198952Y17055D01*
X201000Y16647D01*
X203048Y17055D01*
X204785Y18215D01*
X205945Y19952D01*
X206353Y22000D01*
X205945Y24048D01*
X204785Y25785D01*
X203048Y26945D01*
X201000Y27353D01*
D02*
G37*
G36*
X438000Y29353D02*
X435952Y28945D01*
X434215Y27785D01*
X433055Y26048D01*
X432647Y24000D01*
X433055Y21952D01*
X434215Y20215D01*
X434275Y20175D01*
X433787Y18997D01*
X432000Y19353D01*
X429952Y18945D01*
X428215Y17785D01*
X427055Y16048D01*
X426647Y14000D01*
X427055Y11952D01*
X428215Y10215D01*
X429952Y9055D01*
X431712Y8705D01*
X432799Y7765D01*
X432647Y7000D01*
X433055Y4952D01*
X434215Y3215D01*
X435952Y2055D01*
X438000Y1647D01*
X440048Y2055D01*
X441785Y3215D01*
X442945Y4952D01*
X443353Y7000D01*
X442945Y9048D01*
X441785Y10785D01*
X440048Y11945D01*
X438288Y12296D01*
X437201Y13235D01*
X437353Y14000D01*
X436945Y16048D01*
X435785Y17785D01*
X435725Y17825D01*
X436213Y19003D01*
X438000Y18647D01*
X440048Y19055D01*
X441785Y20215D01*
X442945Y21952D01*
X443353Y24000D01*
X442945Y26048D01*
X441785Y27785D01*
X440048Y28945D01*
X438000Y29353D01*
D02*
G37*
G36*
X375000Y20353D02*
X372952Y19945D01*
X371215Y18785D01*
X370055Y17048D01*
X369647Y15000D01*
X370055Y12952D01*
X371215Y11215D01*
X372952Y10055D01*
X375000Y9647D01*
X377048Y10055D01*
X378785Y11215D01*
X379945Y12952D01*
X380353Y15000D01*
X379945Y17048D01*
X378785Y18785D01*
X377048Y19945D01*
X375000Y20353D01*
D02*
G37*
G36*
X413000D02*
X410952Y19945D01*
X409215Y18785D01*
X408055Y17048D01*
X407647Y15000D01*
X408055Y12952D01*
X409215Y11215D01*
X410952Y10055D01*
X413000Y9647D01*
X415048Y10055D01*
X416785Y11215D01*
X417945Y12952D01*
X418353Y15000D01*
X417945Y17048D01*
X416785Y18785D01*
X415048Y19945D01*
X413000Y20353D01*
D02*
G37*
G36*
X345000Y33353D02*
X342952Y32945D01*
X341215Y31785D01*
X340055Y30048D01*
X339647Y28000D01*
X340055Y25952D01*
X341215Y24215D01*
X342952Y23055D01*
X345000Y22647D01*
X347048Y23055D01*
X348785Y24215D01*
X349945Y25952D01*
X350353Y28000D01*
X349945Y30048D01*
X348785Y31785D01*
X347048Y32945D01*
X345000Y33353D01*
D02*
G37*
G36*
X360000D02*
X357952Y32945D01*
X356215Y31785D01*
X355055Y30048D01*
X354647Y28000D01*
X355055Y25952D01*
X356215Y24215D01*
X357952Y23055D01*
X360000Y22647D01*
X362048Y23055D01*
X363785Y24215D01*
X364945Y25952D01*
X365353Y28000D01*
X364945Y30048D01*
X363785Y31785D01*
X362048Y32945D01*
X360000Y33353D01*
D02*
G37*
G36*
X332000D02*
X329952Y32945D01*
X328215Y31785D01*
X327055Y30048D01*
X326647Y28000D01*
X327055Y25952D01*
X328215Y24215D01*
X329952Y23055D01*
X332000Y22647D01*
X334048Y23055D01*
X335785Y24215D01*
X336945Y25952D01*
X337353Y28000D01*
X336945Y30048D01*
X335785Y31785D01*
X334048Y32945D01*
X332000Y33353D01*
D02*
G37*
%LPD*%
G36*
X39742Y-34908D02*
X43136Y-36314D01*
X46050Y-38550D01*
X48286Y-41464D01*
X49692Y-44858D01*
X50171Y-48500D01*
X49692Y-52142D01*
X48286Y-55536D01*
X46050Y-58450D01*
X44327Y-59773D01*
X44188Y-59930D01*
X44018Y-60052D01*
X43864Y-60300D01*
X43671Y-60520D01*
X43603Y-60719D01*
X43563Y-60784D01*
X43556Y-60783D01*
X43487Y-60793D01*
X43419Y-60779D01*
X42997Y-60863D01*
X42572Y-60924D01*
X42512Y-60959D01*
X42443Y-60973D01*
X39742Y-62092D01*
X36100Y-62571D01*
X32458Y-62092D01*
X29064Y-60686D01*
X26150Y-58450D01*
X23914Y-55536D01*
X22508Y-52142D01*
X22029Y-48500D01*
X22508Y-44858D01*
X23914Y-41464D01*
X26150Y-38550D01*
X29064Y-36314D01*
X32458Y-34908D01*
X36100Y-34429D01*
X39742Y-34908D01*
D02*
G37*
G36*
X52598Y9695D02*
X55019Y8692D01*
X57097Y7097D01*
X58692Y5019D01*
X59695Y2598D01*
X60037Y-0D01*
X59695Y-2598D01*
X58692Y-5019D01*
X57097Y-7097D01*
X55019Y-8692D01*
X52598Y-9695D01*
X50000Y-10037D01*
X47402Y-9695D01*
X44981Y-8692D01*
X42903Y-7097D01*
X41308Y-5019D01*
X40305Y-2598D01*
X39963Y0D01*
X40305Y2598D01*
X41308Y5019D01*
X42903Y7097D01*
X44981Y8692D01*
X47402Y9695D01*
X50000Y10037D01*
X52598Y9695D01*
D02*
G37*
G36*
X50054Y65544D02*
X50334Y65357D01*
X50680Y65214D01*
X51010Y65037D01*
X51136Y65025D01*
X51253Y64977D01*
X51627D01*
X52000Y64940D01*
X52585Y64509D01*
X53000Y63935D01*
Y48549D01*
X52536Y48457D01*
X52071Y48373D01*
X52049Y48360D01*
X52024Y48355D01*
X51631Y48092D01*
X51233Y47837D01*
X51219Y47816D01*
X51198Y47802D01*
X50935Y47410D01*
X50665Y47021D01*
X50202Y45963D01*
X50125Y45613D01*
X50010Y45274D01*
X49692Y42858D01*
X48286Y39464D01*
X46050Y36550D01*
X43136Y34314D01*
X39742Y32908D01*
X36100Y32429D01*
X32458Y32908D01*
X29064Y34314D01*
X26150Y36550D01*
X23914Y39464D01*
X22508Y42858D01*
X22029Y46500D01*
X22508Y50142D01*
X23914Y53536D01*
X26150Y56450D01*
X29064Y58686D01*
X32458Y60092D01*
X36100Y60571D01*
X39742Y60092D01*
X41830Y59227D01*
X42197Y59154D01*
X42555Y59045D01*
X42681Y59058D01*
X42805Y59033D01*
X43173Y59106D01*
X43545Y59143D01*
X43657Y59202D01*
X43781Y59227D01*
X44092Y59435D01*
X44422Y59612D01*
X45389Y60405D01*
X45626Y60694D01*
X45891Y60959D01*
X45939Y61076D01*
X46020Y61174D01*
X46128Y61532D01*
X46272Y61878D01*
Y62004D01*
X46308Y62125D01*
X46272Y62498D01*
Y62872D01*
X46246Y63000D01*
X46456Y64054D01*
X47053Y64947D01*
X47946Y65544D01*
X49000Y65754D01*
X50054Y65544D01*
D02*
G37*
D48*
X75000Y-79000D02*
Y36000D01*
X80000Y41000D01*
X90000D01*
X95000Y46000D01*
Y74000D01*
X105000D01*
X75000Y-89000D02*
Y-79000D01*
X400000Y-104000D02*
X467000D01*
X377000D02*
X400000D01*
X369000Y-112000D02*
X377000Y-104000D01*
X369000Y-116000D02*
Y-112000D01*
X467000Y-104000D02*
X474500Y-111500D01*
X369000Y-123000D02*
Y-116000D01*
X431800Y178200D02*
Y203200D01*
Y-203200D02*
Y-177200D01*
X460000Y48000D02*
Y55000D01*
Y41000D02*
Y48000D01*
X468000Y-33000D02*
Y33000D01*
X460000Y41000D02*
X468000Y33000D01*
Y-40000D02*
Y-33000D01*
Y-47000D02*
Y-40000D01*
D49*
X400000Y-104000D02*
Y-87000D01*
X214000Y52000D02*
X279000D01*
X183000Y36000D02*
X198000D01*
X214000Y52000D01*
D52*
X283000Y-40000D02*
X347000D01*
X279000Y-36000D02*
X283000Y-40000D01*
X258000Y-12000D02*
X260000D01*
X261000Y-11000D01*
X266000Y-16000D01*
X400000Y-3000D02*
Y37000D01*
Y-37000D02*
Y-3000D01*
X413000D01*
X347000Y-40000D02*
X397000D01*
X347000Y-53000D02*
Y-40000D01*
X266000Y-16000D02*
X276000D01*
X279000Y-19000D01*
Y-36000D02*
Y-19000D01*
X397000Y-40000D02*
X400000Y-37000D01*
X397000Y40000D02*
X400000Y37000D01*
X374000Y40000D02*
X397000D01*
X371000Y43000D02*
X374000Y40000D01*
X371000Y43000D02*
Y53000D01*
D53*
X84000Y110000D02*
X90000D01*
X70000Y124000D02*
X84000Y110000D01*
X70000Y124000D02*
Y174000D01*
X90000Y110000D02*
X100000D01*
X304000Y180000D02*
X312000Y172000D01*
Y155000D02*
Y172000D01*
Y155000D02*
X326000Y141000D01*
X382000D01*
X70000Y174000D02*
X76000Y180000D01*
X304000D01*
X382000Y141000D02*
X396000Y155000D01*
Y165000D01*
X474500Y-111500D02*
X480000Y-106000D01*
X469000Y-117000D02*
X474500Y-111500D01*
X457200Y-203200D02*
X468400Y-192000D01*
X469000D01*
Y-117000D01*
X480000Y-106000D02*
Y173000D01*
X473000Y180000D02*
X480000Y173000D01*
X462000Y180000D02*
X473000D01*
X457200Y184800D02*
X462000Y180000D01*
X457200Y184800D02*
Y203200D01*
X469000Y-192000D02*
X472000Y-195000D01*
X474000Y-203000D02*
Y-195000D01*
X472000D02*
X474000D01*
D56*
X76952Y71998D02*
X82189D01*
X79333Y68189D01*
X80761D01*
X81713Y67713D01*
X82189Y67237D01*
X82665Y65809D01*
Y64857D01*
X82189Y63428D01*
X81237Y62476D01*
X79809Y62000D01*
X78380D01*
X76952Y62476D01*
X76476Y62952D01*
X76000Y63904D01*
D57*
X14500Y-74250D02*
D03*
Y-145750D02*
D03*
Y145750D02*
D03*
Y74250D02*
D03*
D58*
X36100Y46500D02*
D03*
Y173500D02*
D03*
Y-175500D02*
D03*
Y-48500D02*
D03*
D59*
X420000Y155000D02*
D03*
D60*
X152400Y-203200D02*
D03*
X228600Y203200D02*
D03*
X406400D02*
D03*
X431800D02*
D03*
X457200D02*
D03*
Y-203200D02*
D03*
X431800D02*
D03*
X406400D02*
D03*
X228600D02*
D03*
D63*
X49000Y63000D02*
D03*
X91000Y31000D02*
D03*
X258000Y-12000D02*
D03*
Y2000D02*
D03*
X196000Y83000D02*
D03*
X57000Y169000D02*
D03*
X307000Y-160000D02*
D03*
X299000D02*
D03*
X349000Y78000D02*
D03*
X279000Y42000D02*
D03*
X400000Y-87000D02*
D03*
X411000D02*
D03*
X492000Y-95000D02*
D03*
X470000Y-84000D02*
D03*
X460000Y41000D02*
D03*
Y55000D02*
D03*
Y48000D02*
D03*
X468000Y-47000D02*
D03*
Y-40000D02*
D03*
Y-33000D02*
D03*
X470000Y72000D02*
D03*
X463000D02*
D03*
X480000Y-170000D02*
D03*
Y-177000D02*
D03*
Y-184000D02*
D03*
X407000D02*
D03*
Y-177000D02*
D03*
Y-170000D02*
D03*
X418000Y-54000D02*
D03*
Y-61000D02*
D03*
X421000Y-68000D02*
D03*
Y-75000D02*
D03*
Y-82000D02*
D03*
Y-89000D02*
D03*
X463000Y-84000D02*
D03*
X456000D02*
D03*
X449000Y-89000D02*
D03*
Y-68000D02*
D03*
Y-75000D02*
D03*
Y-82000D02*
D03*
X492000Y-87000D02*
D03*
X480000Y-123000D02*
D03*
X490000D02*
D03*
X369000Y-116000D02*
D03*
Y-123000D02*
D03*
X299000Y-124000D02*
D03*
X307000D02*
D03*
X371000Y53000D02*
D03*
X379000D02*
D03*
X413000Y38000D02*
D03*
Y-3000D02*
D03*
X438000Y-15000D02*
D03*
X413000Y-19647D02*
D03*
X358000Y-88000D02*
D03*
X390000Y-53000D02*
D03*
X347000D02*
D03*
X268000Y-31000D02*
D03*
X160000Y-117000D02*
D03*
X97000Y-90000D02*
D03*
X492000Y0D02*
D03*
Y-20000D02*
D03*
Y20000D02*
D03*
X339000Y-52000D02*
D03*
X267000Y-191000D02*
D03*
X217000Y-192000D02*
D03*
X215000Y-91000D02*
D03*
X292000Y-190000D02*
D03*
X419000Y-44000D02*
D03*
X348000Y117647D02*
D03*
X279000Y52000D02*
D03*
X183000Y36000D02*
D03*
X315000Y-190000D02*
D03*
X492000Y96000D02*
D03*
X480000Y195000D02*
D03*
D64*
X95000Y74000D02*
D03*
X105000D02*
D03*
X75000Y-89000D02*
D03*
Y-79000D02*
D03*
X90000Y110000D02*
D03*
X100000D02*
D03*
X396000Y155000D02*
D03*
Y165000D02*
D03*
X474000Y-203000D02*
D03*
Y-195000D02*
D03*
D65*
X355000Y-51000D02*
D03*
X325000Y52000D02*
D03*
D66*
X50000Y0D02*
D03*
D67*
X355000Y-185000D02*
D03*
Y185000D02*
D03*
M02*
