G04 Layer_Color=128*
%FSLAX44Y44*%
%MOMM*%
G71*
G01*
G75*
%ADD10R,1.4000X1.1000*%
%ADD18R,0.6350X0.5000*%
%ADD19R,0.5000X0.6350*%
%ADD21R,1.1000X1.4000*%
%ADD22R,1.1000X1.0000*%
%ADD44R,2.1590X2.7430*%
%ADD46R,1.1000X1.5000*%
%ADD68R,1.0500X2.4000*%
%ADD69R,6.3000X0.9500*%
%ADD70R,1.0000X0.4500*%
%ADD71R,1.4000X0.6000*%
%ADD72R,4.6000X0.6100*%
%ADD73R,4.6000X0.8100*%
%ADD74R,4.9000X3.0000*%
%ADD75R,1.2000X1.9000*%
%ADD76R,1.6000X1.8000*%
G36*
X469500Y-149000D02*
X438000D01*
X443000Y-148500D01*
X447500Y-147000D01*
X451000Y-145000D01*
X455500Y-140500D01*
X457000Y-138000D01*
X458000Y-136500D01*
X469500D01*
Y-149000D01*
D02*
G37*
G36*
X419000Y-138000D02*
X421000Y-141000D01*
X425000Y-145000D01*
X427000Y-146000D01*
X429000Y-147000D01*
X431500Y-148000D01*
X433500Y-148500D01*
X438000Y-149000D01*
X406500D01*
Y-136500D01*
X418000D01*
X419000Y-138000D01*
D02*
G37*
G36*
X469500Y-117500D02*
X458000D01*
X456500Y-115000D01*
X455000Y-113000D01*
X451500Y-109500D01*
X449000Y-108000D01*
X446000Y-106500D01*
X443000Y-105500D01*
X438000Y-105000D01*
X469500D01*
Y-117500D01*
D02*
G37*
G36*
X432500Y-105500D02*
X428500Y-107000D01*
X425000Y-109000D01*
X424500Y-109500D01*
X422500Y-111000D01*
X420000Y-114000D01*
X419000Y-115500D01*
X418000Y-117500D01*
X406500D01*
Y-105000D01*
X438000D01*
X432500Y-105500D01*
D02*
G37*
D10*
X386000Y104250D02*
D03*
Y121750D02*
D03*
X485000Y-150750D02*
D03*
Y-133250D02*
D03*
D18*
X446000Y-25000D02*
D03*
Y-15000D02*
D03*
Y-5000D02*
D03*
Y5000D02*
D03*
Y15000D02*
D03*
Y25000D02*
D03*
D19*
X290000Y-46000D02*
D03*
X280000D02*
D03*
X290000Y176000D02*
D03*
X280000D02*
D03*
Y145000D02*
D03*
X290000D02*
D03*
X280000Y125000D02*
D03*
X290000D02*
D03*
X280000Y115000D02*
D03*
X290000D02*
D03*
X280000Y95000D02*
D03*
X290000D02*
D03*
X280000Y135000D02*
D03*
X290000D02*
D03*
X280000Y-117000D02*
D03*
X290000D02*
D03*
X295000Y-5000D02*
D03*
X285000D02*
D03*
X280000Y-87000D02*
D03*
X290000D02*
D03*
X280000Y-77000D02*
D03*
X290000D02*
D03*
X280000Y-97000D02*
D03*
X290000D02*
D03*
X280000Y-107000D02*
D03*
X290000D02*
D03*
X280000Y-127000D02*
D03*
X290000D02*
D03*
X280000Y105000D02*
D03*
X290000D02*
D03*
D21*
X353500Y-104000D02*
D03*
X371000D02*
D03*
X452250Y-173000D02*
D03*
X469750D02*
D03*
X434750D02*
D03*
X417250D02*
D03*
D22*
X274500Y7000D02*
D03*
X291500D02*
D03*
X291500Y-17000D02*
D03*
X274500D02*
D03*
X302500Y-169000D02*
D03*
X285500D02*
D03*
X321500Y-114000D02*
D03*
X304500D02*
D03*
D44*
X433900Y48000D02*
D03*
X478100D02*
D03*
D46*
X481500Y20000D02*
D03*
X460500D02*
D03*
X481500Y-20000D02*
D03*
X460500D02*
D03*
X481500Y-0D02*
D03*
X460500D02*
D03*
D68*
X303750Y-141000D02*
D03*
X322250D02*
D03*
D69*
X438000Y-100250D02*
D03*
Y-153750D02*
D03*
D70*
X337000Y80500D02*
D03*
Y129500D02*
D03*
D71*
X313000Y123500D02*
D03*
Y86500D02*
D03*
X361000D02*
D03*
Y123500D02*
D03*
D72*
X243000Y74300D02*
D03*
Y84500D02*
D03*
Y94700D02*
D03*
Y104900D02*
D03*
Y115100D02*
D03*
Y125300D02*
D03*
Y135500D02*
D03*
Y145700D02*
D03*
Y-147700D02*
D03*
Y-137500D02*
D03*
Y-127300D02*
D03*
Y-117100D02*
D03*
Y-106900D02*
D03*
Y-96700D02*
D03*
Y-86500D02*
D03*
Y-76300D02*
D03*
D73*
Y43900D02*
D03*
Y62300D02*
D03*
Y157700D02*
D03*
Y176100D02*
D03*
Y-178100D02*
D03*
Y-159700D02*
D03*
Y-64300D02*
D03*
Y-45900D02*
D03*
D74*
X36100Y20800D02*
D03*
Y199200D02*
D03*
Y-201200D02*
D03*
Y-22800D02*
D03*
D75*
X339000Y-131000D02*
D03*
X383000D02*
D03*
D76*
X433000Y-61000D02*
D03*
X463000D02*
D03*
M02*
