G04 Layer_Physical_Order=2*
G04 Layer_Color=36540*
%FSLAX44Y44*%
%MOMM*%
G71*
G01*
G75*
%ADD56C,0.1500*%
%ADD57C,1.9000*%
%ADD58C,2.8000*%
%ADD59C,3.0000*%
%ADD60C,1.8000*%
%ADD63C,0.5500*%
%ADD66C,2.0000*%
%ADD67C,4.2000*%
G36*
X479185Y216041D02*
X483210Y214820D01*
X486919Y212838D01*
X490170Y210170D01*
X492838Y206919D01*
X494820Y203210D01*
X496041Y199185D01*
X496446Y195074D01*
X496431Y195000D01*
Y-195000D01*
X496446Y-195074D01*
X496041Y-199185D01*
X494820Y-203210D01*
X492838Y-206919D01*
X490170Y-210170D01*
X486919Y-212838D01*
X483210Y-214820D01*
X479185Y-216041D01*
X475074Y-216446D01*
X475000Y-216431D01*
X25000D01*
X24927Y-216446D01*
X20815Y-216041D01*
X16790Y-214820D01*
X13081Y-212838D01*
X9830Y-210170D01*
X7162Y-206919D01*
X5180Y-203210D01*
X3959Y-199185D01*
X3554Y-195074D01*
X3569Y-195000D01*
Y195000D01*
X3554Y195074D01*
X3959Y199185D01*
X5180Y203210D01*
X7162Y206919D01*
X9830Y210170D01*
X13081Y212838D01*
X16790Y214820D01*
X20815Y216041D01*
X24927Y216446D01*
X25000Y216431D01*
X475000D01*
X475074Y216446D01*
X479185Y216041D01*
D02*
G37*
%LPC*%
G36*
X165000Y-44647D02*
X162952Y-45055D01*
X161215Y-46215D01*
X160055Y-47952D01*
X159647Y-50000D01*
X160055Y-52048D01*
X161215Y-53785D01*
X162952Y-54945D01*
X165000Y-55353D01*
X165690Y-55216D01*
X166055Y-57048D01*
X167215Y-58785D01*
X168952Y-59945D01*
X171000Y-60353D01*
X173048Y-59945D01*
X174785Y-58785D01*
X175945Y-57048D01*
X176353Y-55000D01*
X175945Y-52952D01*
X174785Y-51215D01*
X173048Y-50055D01*
X171000Y-49647D01*
X170310Y-49784D01*
X169945Y-47952D01*
X168785Y-46215D01*
X167048Y-45055D01*
X165000Y-44647D01*
D02*
G37*
G36*
X115343Y-66990D02*
X113295Y-67398D01*
X111558Y-68558D01*
X110398Y-70295D01*
X109990Y-72343D01*
X110398Y-74392D01*
X111558Y-76128D01*
X113295Y-77288D01*
X115343Y-77696D01*
X117392Y-77288D01*
X119128Y-76128D01*
X120288Y-74392D01*
X120696Y-72343D01*
X120288Y-70295D01*
X119128Y-68558D01*
X117392Y-67398D01*
X115343Y-66990D01*
D02*
G37*
G36*
X468000Y-27647D02*
X465952Y-28055D01*
X464215Y-29215D01*
X463055Y-30952D01*
X462647Y-33000D01*
X463055Y-35048D01*
X464025Y-36500D01*
X463055Y-37952D01*
X462647Y-40000D01*
X463055Y-42048D01*
X464025Y-43500D01*
X463055Y-44952D01*
X462647Y-47000D01*
X463055Y-49048D01*
X464215Y-50785D01*
X465952Y-51945D01*
X468000Y-52353D01*
X470048Y-51945D01*
X471785Y-50785D01*
X472945Y-49048D01*
X473353Y-47000D01*
X472945Y-44952D01*
X471975Y-43500D01*
X472945Y-42048D01*
X473353Y-40000D01*
X472945Y-37952D01*
X471976Y-36500D01*
X472945Y-35048D01*
X473353Y-33000D01*
X472945Y-30952D01*
X471785Y-29215D01*
X470048Y-28055D01*
X468000Y-27647D01*
D02*
G37*
G36*
X390000Y-47647D02*
X387952Y-48055D01*
X386215Y-49215D01*
X385785D01*
X384048Y-48055D01*
X382000Y-47647D01*
X379952Y-48055D01*
X378215Y-49215D01*
X377055Y-50952D01*
X376647Y-53000D01*
X377055Y-55048D01*
X378215Y-56785D01*
X379952Y-57945D01*
X382000Y-58353D01*
X384048Y-57945D01*
X385785Y-56785D01*
X386215D01*
X387952Y-57945D01*
X390000Y-58353D01*
X392048Y-57945D01*
X393785Y-56785D01*
X394945Y-55048D01*
X395353Y-53000D01*
X394945Y-50952D01*
X393785Y-49215D01*
X392048Y-48055D01*
X390000Y-47647D01*
D02*
G37*
G36*
X413000Y-14294D02*
X410952Y-14702D01*
X409215Y-15862D01*
X408055Y-17599D01*
X407647Y-19647D01*
X408055Y-21696D01*
X409215Y-23432D01*
Y-24215D01*
X408055Y-25952D01*
X407647Y-28000D01*
X408055Y-30048D01*
X409215Y-31785D01*
Y-32215D01*
X408055Y-33952D01*
X407647Y-36000D01*
X408055Y-38048D01*
X407448Y-39391D01*
X406215Y-40215D01*
X405055Y-41952D01*
X404647Y-44000D01*
X405055Y-46048D01*
X406215Y-47785D01*
X407952Y-48945D01*
X410000Y-49353D01*
X412048Y-48945D01*
X413785Y-47785D01*
X414945Y-46048D01*
X415353Y-44000D01*
X414945Y-41952D01*
X415552Y-40609D01*
X416785Y-39785D01*
X417945Y-38048D01*
X418353Y-36000D01*
X417945Y-33952D01*
X416785Y-32215D01*
Y-31785D01*
X417945Y-30048D01*
X418353Y-28000D01*
X417945Y-25952D01*
X416785Y-24215D01*
Y-23432D01*
X417945Y-21696D01*
X418353Y-19647D01*
X417945Y-17599D01*
X416785Y-15862D01*
X415048Y-14702D01*
X413000Y-14294D01*
D02*
G37*
G36*
X171000Y-72647D02*
X168952Y-73055D01*
X167215Y-74215D01*
X166055Y-75952D01*
X165647Y-78000D01*
X166055Y-80048D01*
X167215Y-81785D01*
X168952Y-82945D01*
X171000Y-83353D01*
X173048Y-82945D01*
X174785Y-81785D01*
X175945Y-80048D01*
X176353Y-78000D01*
X175945Y-75952D01*
X174785Y-74215D01*
X173048Y-73055D01*
X171000Y-72647D01*
D02*
G37*
G36*
X97000Y-84647D02*
X94952Y-85055D01*
X93215Y-86215D01*
X92055Y-87952D01*
X91647Y-90000D01*
X92055Y-92048D01*
X93215Y-93785D01*
X94952Y-94945D01*
X97000Y-95353D01*
X99048Y-94945D01*
X100785Y-93785D01*
X101945Y-92048D01*
X102353Y-90000D01*
X101945Y-87952D01*
X100785Y-86215D01*
X99048Y-85055D01*
X97000Y-84647D01*
D02*
G37*
G36*
X75000Y-72373D02*
X72464Y-72877D01*
X70314Y-74314D01*
X68877Y-76464D01*
X68373Y-79000D01*
X68877Y-81536D01*
X69909Y-83081D01*
X70211Y-84000D01*
X69909Y-84919D01*
X68877Y-86464D01*
X68373Y-89000D01*
X68877Y-91536D01*
X70314Y-93686D01*
X72464Y-95123D01*
X75000Y-95627D01*
X77536Y-95123D01*
X79686Y-93686D01*
X81123Y-91536D01*
X81627Y-89000D01*
X81123Y-86464D01*
X80091Y-84919D01*
X79789Y-84000D01*
X80091Y-83081D01*
X81123Y-81536D01*
X81627Y-79000D01*
X81123Y-76464D01*
X79686Y-74314D01*
X77536Y-72877D01*
X75000Y-72373D01*
D02*
G37*
G36*
X215000Y-85647D02*
X212952Y-86055D01*
X211215Y-87215D01*
X210055Y-88952D01*
X209647Y-91000D01*
X209942Y-92481D01*
X209973Y-93113D01*
X209074Y-93831D01*
X207952Y-94055D01*
X206266Y-95181D01*
X205935Y-95350D01*
X205065D01*
X204734Y-95181D01*
X203048Y-94055D01*
X201000Y-93647D01*
X198952Y-94055D01*
X197215Y-95215D01*
X196055Y-96952D01*
X195647Y-99000D01*
X196055Y-101048D01*
X197215Y-102785D01*
X198952Y-103945D01*
X201000Y-104353D01*
X203048Y-103945D01*
X204734Y-102819D01*
X205065Y-102650D01*
X205935D01*
X206266Y-102819D01*
X207952Y-103945D01*
X210000Y-104353D01*
X212048Y-103945D01*
X213785Y-102785D01*
X214945Y-101048D01*
X215353Y-99000D01*
X215058Y-97519D01*
X215027Y-96887D01*
X215926Y-96169D01*
X217048Y-95945D01*
X218785Y-94785D01*
X219945Y-93048D01*
X220353Y-91000D01*
X219945Y-88952D01*
X218785Y-87215D01*
X217048Y-86055D01*
X215000Y-85647D01*
D02*
G37*
G36*
X400000Y-81647D02*
X397952Y-82055D01*
X396215Y-83215D01*
X395055Y-84952D01*
X394647Y-87000D01*
X395055Y-89048D01*
X396215Y-90785D01*
X397952Y-91945D01*
X400000Y-92353D01*
X402048Y-91945D01*
X403785Y-90785D01*
X404945Y-89048D01*
X405353Y-87000D01*
X404945Y-84952D01*
X403785Y-83215D01*
X402048Y-82055D01*
X400000Y-81647D01*
D02*
G37*
G36*
X358000Y-82647D02*
X355952Y-83055D01*
X354215Y-84215D01*
X353055Y-85952D01*
X352647Y-88000D01*
X353055Y-90048D01*
X354215Y-91785D01*
X355952Y-92945D01*
X358000Y-93353D01*
X360048Y-92945D01*
X361785Y-91785D01*
X362945Y-90048D01*
X363353Y-88000D01*
X362945Y-85952D01*
X361785Y-84215D01*
X360048Y-83055D01*
X358000Y-82647D01*
D02*
G37*
G36*
X355000Y-46412D02*
X353244Y-46761D01*
X351756Y-47756D01*
X351273Y-48478D01*
X350047Y-48722D01*
X349048Y-48055D01*
X347000Y-47647D01*
X344952Y-48055D01*
X343380Y-49105D01*
X342785Y-48215D01*
X341048Y-47055D01*
X339000Y-46647D01*
X336952Y-47055D01*
X335215Y-48215D01*
X334055Y-49952D01*
X333647Y-52000D01*
X334055Y-54048D01*
X335215Y-55785D01*
X336952Y-56945D01*
X339000Y-57353D01*
X341048Y-56945D01*
X342620Y-55895D01*
X343215Y-56785D01*
X344952Y-57945D01*
X347000Y-58353D01*
X349048Y-57945D01*
X350785Y-56785D01*
X351945Y-55048D01*
X352571Y-54789D01*
X353244Y-55239D01*
X355000Y-55588D01*
X356756Y-55239D01*
X358244Y-54244D01*
X359239Y-52756D01*
X359588Y-51000D01*
X359239Y-49244D01*
X358244Y-47756D01*
X356756Y-46761D01*
X355000Y-46412D01*
D02*
G37*
G36*
X258000Y-6647D02*
X255952Y-7055D01*
X254215Y-8215D01*
X253055Y-9952D01*
X252647Y-12000D01*
X253055Y-14048D01*
X254215Y-15785D01*
X255952Y-16945D01*
X258000Y-17353D01*
X260048Y-16945D01*
X261785Y-15785D01*
X262945Y-14048D01*
X263353Y-12000D01*
X262945Y-9952D01*
X261785Y-8215D01*
X260048Y-7055D01*
X258000Y-6647D01*
D02*
G37*
G36*
X438000Y-9647D02*
X435952Y-10055D01*
X434215Y-11215D01*
X433055Y-12952D01*
X432647Y-15000D01*
X433055Y-17048D01*
X434215Y-18785D01*
X435952Y-19945D01*
X438000Y-20353D01*
X440048Y-19945D01*
X441785Y-18785D01*
X442945Y-17048D01*
X443353Y-15000D01*
X442945Y-12952D01*
X441785Y-11215D01*
X440048Y-10055D01*
X438000Y-9647D01*
D02*
G37*
G36*
X413000Y2353D02*
X410952Y1945D01*
X409215Y785D01*
X408055Y-952D01*
X407647Y-3000D01*
X408055Y-5048D01*
X409215Y-6785D01*
X410952Y-7945D01*
X413000Y-8353D01*
X415048Y-7945D01*
X416785Y-6785D01*
X417945Y-5048D01*
X418353Y-3000D01*
X417945Y-952D01*
X416785Y785D01*
X415048Y1945D01*
X413000Y2353D01*
D02*
G37*
G36*
X225000Y22353D02*
X222952Y21945D01*
X221215Y20785D01*
X220055Y19048D01*
X219647Y17000D01*
X220055Y14952D01*
X221215Y13215D01*
X222105Y12620D01*
X221055Y11048D01*
X220647Y9000D01*
X221055Y6952D01*
X222215Y5215D01*
X223952Y4055D01*
X226000Y3647D01*
X226647Y3000D01*
X227055Y952D01*
X228215Y-785D01*
X229952Y-1945D01*
X232000Y-2353D01*
X234048Y-1945D01*
X235734Y-819D01*
X236065Y-650D01*
X236935D01*
X237266Y-819D01*
X238952Y-1945D01*
X241000Y-2353D01*
X243048Y-1945D01*
X244785Y-785D01*
X245945Y952D01*
X246353Y3000D01*
X245945Y5048D01*
X244785Y6785D01*
X243048Y7945D01*
X241000Y8353D01*
X238952Y7945D01*
X237266Y6819D01*
X236935Y6650D01*
X236065D01*
X235734Y6819D01*
X234048Y7945D01*
X232000Y8353D01*
X231353Y9000D01*
X230945Y11048D01*
X229785Y12785D01*
X228895Y13380D01*
X229945Y14952D01*
X230353Y17000D01*
X229945Y19048D01*
X228785Y20785D01*
X227048Y21945D01*
X225000Y22353D01*
D02*
G37*
G36*
X258000Y7353D02*
X255952Y6945D01*
X254215Y5785D01*
X253055Y4048D01*
X252647Y2000D01*
X253055Y-48D01*
X254215Y-1785D01*
X255952Y-2945D01*
X258000Y-3353D01*
X260048Y-2945D01*
X261785Y-1785D01*
X262945Y-48D01*
X263353Y2000D01*
X262945Y4048D01*
X261785Y5785D01*
X260048Y6945D01*
X258000Y7353D01*
D02*
G37*
G36*
X218000Y-8647D02*
X215952Y-9055D01*
X214215Y-10215D01*
X213055Y-11952D01*
X212647Y-14000D01*
X213055Y-16048D01*
X214215Y-17785D01*
X215952Y-18945D01*
X218000Y-19353D01*
X220048Y-18945D01*
X221620Y-17895D01*
X222215Y-18785D01*
X223952Y-19945D01*
X226000Y-20353D01*
X228048Y-19945D01*
X229785Y-18785D01*
X230945Y-17048D01*
X231353Y-15000D01*
X230945Y-12952D01*
X229785Y-11215D01*
X228048Y-10055D01*
X226000Y-9647D01*
X223952Y-10055D01*
X222380Y-11105D01*
X221785Y-10215D01*
X220048Y-9055D01*
X218000Y-8647D01*
D02*
G37*
G36*
X214000Y-21647D02*
X211952Y-22055D01*
X210215Y-23215D01*
X209055Y-24952D01*
X208647Y-27000D01*
X208000Y-27647D01*
X205952Y-28055D01*
X204215Y-29215D01*
X203055Y-30952D01*
X202647Y-33000D01*
X203055Y-35048D01*
X204215Y-36785D01*
X205952Y-37945D01*
X208000Y-38353D01*
X210048Y-37945D01*
X211785Y-36785D01*
X212945Y-35048D01*
X213353Y-33000D01*
X214000Y-32353D01*
X216048Y-31945D01*
X217785Y-30785D01*
X218945Y-29048D01*
X219353Y-27000D01*
X218945Y-24952D01*
X217785Y-23215D01*
X216048Y-22055D01*
X214000Y-21647D01*
D02*
G37*
G36*
X167000Y-30647D02*
X164952Y-31055D01*
X163215Y-32215D01*
X162055Y-33952D01*
X161647Y-36000D01*
X162055Y-38048D01*
X163215Y-39785D01*
X164952Y-40945D01*
X167000Y-41353D01*
X168770Y-41001D01*
X169556Y-41540D01*
X169865Y-41903D01*
X169647Y-43000D01*
X170055Y-45048D01*
X171215Y-46785D01*
X172952Y-47945D01*
X175000Y-48353D01*
X176652Y-48024D01*
X177055Y-50048D01*
X178215Y-51785D01*
X179952Y-52945D01*
X182000Y-53353D01*
X184048Y-52945D01*
X185785Y-51785D01*
X186945Y-50048D01*
X187348Y-48024D01*
X189000Y-48353D01*
X191048Y-47945D01*
X192785Y-46785D01*
X193945Y-45048D01*
X194353Y-43000D01*
X193945Y-40952D01*
X192785Y-39215D01*
X191048Y-38055D01*
X189000Y-37647D01*
X186952Y-38055D01*
X185215Y-39215D01*
X184055Y-40952D01*
X183652Y-42976D01*
X182000Y-42647D01*
X180348Y-42976D01*
X179945Y-40952D01*
X178785Y-39215D01*
X177048Y-38055D01*
X175000Y-37647D01*
X173230Y-37999D01*
X172444Y-37460D01*
X172135Y-37097D01*
X172353Y-36000D01*
X171945Y-33952D01*
X170785Y-32215D01*
X169048Y-31055D01*
X167000Y-30647D01*
D02*
G37*
G36*
X268000Y-25647D02*
X265952Y-26055D01*
X264215Y-27215D01*
X263055Y-28952D01*
X262647Y-31000D01*
X263055Y-33048D01*
X264215Y-34785D01*
X265952Y-35945D01*
X268000Y-36353D01*
X270048Y-35945D01*
X271785Y-34785D01*
X272945Y-33048D01*
X273353Y-31000D01*
X272945Y-28952D01*
X271785Y-27215D01*
X270048Y-26055D01*
X268000Y-25647D01*
D02*
G37*
G36*
X143393Y-20647D02*
X141345Y-21055D01*
X139608Y-22215D01*
X138448Y-23952D01*
X138041Y-26000D01*
X138448Y-28048D01*
X139608Y-29785D01*
X141345Y-30945D01*
X143393Y-31353D01*
X145442Y-30945D01*
X147178Y-29785D01*
X148339Y-28048D01*
X148746Y-26000D01*
X148339Y-23952D01*
X147178Y-22215D01*
X145442Y-21055D01*
X143393Y-20647D01*
D02*
G37*
G36*
X158000Y-22647D02*
X155952Y-23055D01*
X154215Y-24215D01*
X153055Y-25952D01*
X152647Y-28000D01*
X153055Y-30048D01*
X154215Y-31785D01*
X155952Y-32945D01*
X158000Y-33353D01*
X160048Y-32945D01*
X161785Y-31785D01*
X162945Y-30048D01*
X163353Y-28000D01*
X162945Y-25952D01*
X161785Y-24215D01*
X160048Y-23055D01*
X158000Y-22647D01*
D02*
G37*
G36*
X188000Y-93647D02*
X185952Y-94055D01*
X184215Y-95215D01*
X183055Y-96952D01*
X182690Y-98784D01*
X182000Y-98647D01*
X181310Y-98784D01*
X180945Y-96952D01*
X179785Y-95215D01*
X178048Y-94055D01*
X176000Y-93647D01*
X173952Y-94055D01*
X172215Y-95215D01*
X171055Y-96952D01*
X170647Y-99000D01*
X171055Y-101048D01*
X172215Y-102785D01*
X173952Y-103945D01*
X176000Y-104353D01*
X176690Y-104216D01*
X177055Y-106048D01*
X178215Y-107785D01*
X179952Y-108945D01*
X182000Y-109353D01*
X184048Y-108945D01*
X185785Y-107785D01*
X186945Y-106048D01*
X187310Y-104216D01*
X188000Y-104353D01*
X190048Y-103945D01*
X191785Y-102785D01*
X192945Y-101048D01*
X193353Y-99000D01*
X192945Y-96952D01*
X191785Y-95215D01*
X190048Y-94055D01*
X188000Y-93647D01*
D02*
G37*
G36*
X304800Y-191601D02*
X301798Y-191996D01*
X299000Y-193155D01*
X296598Y-194998D01*
X294755Y-197400D01*
X293596Y-200198D01*
X293201Y-203200D01*
X293596Y-206202D01*
X294755Y-209000D01*
X296598Y-211402D01*
X299000Y-213245D01*
X301798Y-214404D01*
X304800Y-214799D01*
X307802Y-214404D01*
X310600Y-213245D01*
X313002Y-211402D01*
X314845Y-209000D01*
X316004Y-206202D01*
X316399Y-203200D01*
X316004Y-200198D01*
X314845Y-197400D01*
X313002Y-194998D01*
X310600Y-193155D01*
X307802Y-191996D01*
X304800Y-191601D01*
D02*
G37*
G36*
X279400D02*
X276398Y-191996D01*
X273600Y-193155D01*
X271198Y-194998D01*
X269355Y-197400D01*
X268196Y-200198D01*
X267801Y-203200D01*
X268196Y-206202D01*
X269355Y-209000D01*
X271198Y-211402D01*
X273600Y-213245D01*
X276398Y-214404D01*
X279400Y-214799D01*
X282402Y-214404D01*
X285200Y-213245D01*
X287602Y-211402D01*
X289445Y-209000D01*
X290604Y-206202D01*
X290999Y-203200D01*
X290604Y-200198D01*
X289445Y-197400D01*
X287602Y-194998D01*
X285200Y-193155D01*
X282402Y-191996D01*
X279400Y-191601D01*
D02*
G37*
G36*
X431800D02*
X428798Y-191996D01*
X426000Y-193155D01*
X423598Y-194998D01*
X421755Y-197400D01*
X420596Y-200198D01*
X420201Y-203200D01*
X420596Y-206202D01*
X421755Y-209000D01*
X423598Y-211402D01*
X426000Y-213245D01*
X428798Y-214404D01*
X431800Y-214799D01*
X434802Y-214404D01*
X437600Y-213245D01*
X440002Y-211402D01*
X441845Y-209000D01*
X443004Y-206202D01*
X443399Y-203200D01*
X443004Y-200198D01*
X441845Y-197400D01*
X440002Y-194998D01*
X437600Y-193155D01*
X434802Y-191996D01*
X431800Y-191601D01*
D02*
G37*
G36*
X127000Y-170647D02*
X124952Y-171055D01*
X123215Y-172215D01*
X122055Y-173952D01*
X121647Y-176000D01*
X122055Y-178048D01*
X123215Y-179785D01*
X124952Y-180945D01*
X127000Y-181353D01*
X129048Y-180945D01*
X130785Y-179785D01*
X131945Y-178048D01*
X132353Y-176000D01*
X131945Y-173952D01*
X130785Y-172215D01*
X129048Y-171055D01*
X127000Y-170647D01*
D02*
G37*
G36*
X474000Y-188373D02*
X471464Y-188877D01*
X469314Y-190314D01*
X467877Y-192464D01*
X467373Y-195000D01*
X467510Y-195693D01*
X466341Y-196222D01*
X465402Y-194998D01*
X463000Y-193155D01*
X460202Y-191996D01*
X457200Y-191601D01*
X454198Y-191996D01*
X451400Y-193155D01*
X448998Y-194998D01*
X447155Y-197400D01*
X445996Y-200198D01*
X445601Y-203200D01*
X445996Y-206202D01*
X447155Y-209000D01*
X448998Y-211402D01*
X451400Y-213245D01*
X454198Y-214404D01*
X457200Y-214799D01*
X460202Y-214404D01*
X463000Y-213245D01*
X465402Y-211402D01*
X467245Y-209000D01*
X467865Y-207503D01*
X469109Y-207380D01*
X469314Y-207686D01*
X471464Y-209123D01*
X474000Y-209627D01*
X476536Y-209123D01*
X478686Y-207686D01*
X480123Y-205536D01*
X480627Y-203000D01*
X480123Y-200464D01*
X479145Y-199000D01*
X480123Y-197536D01*
X480627Y-195000D01*
X480123Y-192464D01*
X478686Y-190314D01*
X476536Y-188877D01*
X474000Y-188373D01*
D02*
G37*
G36*
X254000Y-191601D02*
X250998Y-191996D01*
X248200Y-193155D01*
X245798Y-194998D01*
X243955Y-197400D01*
X242796Y-200198D01*
X242401Y-203200D01*
X242796Y-206202D01*
X243955Y-209000D01*
X245798Y-211402D01*
X248200Y-213245D01*
X250998Y-214404D01*
X254000Y-214799D01*
X257002Y-214404D01*
X259800Y-213245D01*
X262202Y-211402D01*
X264045Y-209000D01*
X265204Y-206202D01*
X265599Y-203200D01*
X265204Y-200198D01*
X264045Y-197400D01*
X262202Y-194998D01*
X259800Y-193155D01*
X257002Y-191996D01*
X254000Y-191601D01*
D02*
G37*
G36*
X101600D02*
X98598Y-191996D01*
X95800Y-193155D01*
X93398Y-194998D01*
X91555Y-197400D01*
X90396Y-200198D01*
X90001Y-203200D01*
X90396Y-206202D01*
X91555Y-209000D01*
X93398Y-211402D01*
X95800Y-213245D01*
X98598Y-214404D01*
X101600Y-214799D01*
X104602Y-214404D01*
X107400Y-213245D01*
X109802Y-211402D01*
X111645Y-209000D01*
X112804Y-206202D01*
X113199Y-203200D01*
X112804Y-200198D01*
X111645Y-197400D01*
X109802Y-194998D01*
X107400Y-193155D01*
X104602Y-191996D01*
X101600Y-191601D01*
D02*
G37*
G36*
X76200D02*
X73198Y-191996D01*
X70400Y-193155D01*
X67998Y-194998D01*
X66155Y-197400D01*
X64996Y-200198D01*
X64601Y-203200D01*
X64996Y-206202D01*
X66155Y-209000D01*
X67998Y-211402D01*
X70400Y-213245D01*
X73198Y-214404D01*
X76200Y-214799D01*
X79202Y-214404D01*
X82000Y-213245D01*
X84402Y-211402D01*
X86245Y-209000D01*
X87404Y-206202D01*
X87799Y-203200D01*
X87404Y-200198D01*
X86245Y-197400D01*
X84402Y-194998D01*
X82000Y-193155D01*
X79202Y-191996D01*
X76200Y-191601D01*
D02*
G37*
G36*
X127000D02*
X123998Y-191996D01*
X121200Y-193155D01*
X118798Y-194998D01*
X116955Y-197400D01*
X115796Y-200198D01*
X115401Y-203200D01*
X115796Y-206202D01*
X116955Y-209000D01*
X118798Y-211402D01*
X121200Y-213245D01*
X123998Y-214404D01*
X127000Y-214799D01*
X130002Y-214404D01*
X132800Y-213245D01*
X135202Y-211402D01*
X137045Y-209000D01*
X138204Y-206202D01*
X138599Y-203200D01*
X138204Y-200198D01*
X137045Y-197400D01*
X135202Y-194998D01*
X132800Y-193155D01*
X130002Y-191996D01*
X127000Y-191601D01*
D02*
G37*
G36*
X203200D02*
X200198Y-191996D01*
X197400Y-193155D01*
X194998Y-194998D01*
X193155Y-197400D01*
X191996Y-200198D01*
X191601Y-203200D01*
X191996Y-206202D01*
X193155Y-209000D01*
X194998Y-211402D01*
X197400Y-213245D01*
X200198Y-214404D01*
X203200Y-214799D01*
X206202Y-214404D01*
X209000Y-213245D01*
X211402Y-211402D01*
X213245Y-209000D01*
X214404Y-206202D01*
X214799Y-203200D01*
X214404Y-200198D01*
X213245Y-197400D01*
X211402Y-194998D01*
X209000Y-193155D01*
X206202Y-191996D01*
X203200Y-191601D01*
D02*
G37*
G36*
X177800D02*
X174798Y-191996D01*
X172000Y-193155D01*
X169598Y-194998D01*
X167755Y-197400D01*
X166596Y-200198D01*
X166201Y-203200D01*
X166596Y-206202D01*
X167755Y-209000D01*
X169598Y-211402D01*
X172000Y-213245D01*
X174798Y-214404D01*
X177800Y-214799D01*
X180802Y-214404D01*
X183600Y-213245D01*
X186002Y-211402D01*
X187845Y-209000D01*
X189004Y-206202D01*
X189399Y-203200D01*
X189004Y-200198D01*
X187845Y-197400D01*
X186002Y-194998D01*
X183600Y-193155D01*
X180802Y-191996D01*
X177800Y-191601D01*
D02*
G37*
G36*
X76000Y-170647D02*
X73952Y-171055D01*
X72215Y-172215D01*
X71055Y-173951D01*
X70647Y-176000D01*
X71055Y-178048D01*
X72215Y-179785D01*
X73952Y-180945D01*
X76000Y-181353D01*
X78048Y-180945D01*
X79785Y-179785D01*
X80945Y-178048D01*
X81353Y-176000D01*
X80945Y-173951D01*
X79785Y-172215D01*
X78048Y-171055D01*
X76000Y-170647D01*
D02*
G37*
G36*
X322000Y-118647D02*
X319952Y-119055D01*
X318500Y-120025D01*
X317048Y-119055D01*
X315000Y-118647D01*
X312952Y-119055D01*
X311215Y-120215D01*
X310785D01*
X309048Y-119055D01*
X307000Y-118647D01*
X304952Y-119055D01*
X303215Y-120215D01*
X302785D01*
X301048Y-119055D01*
X299000Y-118647D01*
X296952Y-119055D01*
X295215Y-120215D01*
X294055Y-121952D01*
X293647Y-124000D01*
X294055Y-126048D01*
X295215Y-127785D01*
X296952Y-128945D01*
X299000Y-129353D01*
X301048Y-128945D01*
X302785Y-127785D01*
X303215D01*
X304952Y-128945D01*
X307000Y-129353D01*
X309048Y-128945D01*
X310785Y-127785D01*
X311215D01*
X312952Y-128945D01*
X315000Y-129353D01*
X317048Y-128945D01*
X318500Y-127976D01*
X319952Y-128945D01*
X322000Y-129353D01*
X324048Y-128945D01*
X325785Y-127785D01*
X326945Y-126048D01*
X327353Y-124000D01*
X326945Y-121952D01*
X325785Y-120215D01*
X324048Y-119055D01*
X322000Y-118647D01*
D02*
G37*
G36*
X70000Y-109647D02*
X67952Y-110055D01*
X66215Y-111215D01*
X65055Y-112952D01*
X64647Y-115000D01*
X65055Y-117048D01*
X66215Y-118785D01*
X67952Y-119945D01*
X70000Y-120353D01*
X72048Y-119945D01*
X73785Y-118785D01*
X74945Y-117048D01*
X75353Y-115000D01*
X74945Y-112952D01*
X73785Y-111215D01*
X72048Y-110055D01*
X70000Y-109647D01*
D02*
G37*
G36*
X449000Y-111647D02*
X446952Y-112055D01*
X445500Y-113025D01*
X444048Y-112055D01*
X442000Y-111647D01*
X439952Y-112055D01*
X438215Y-113215D01*
X437055Y-114952D01*
X436647Y-117000D01*
X437055Y-119048D01*
X438025Y-120500D01*
X437055Y-121952D01*
X436647Y-124000D01*
X437055Y-126048D01*
X438215Y-127785D01*
X439952Y-128945D01*
X442000Y-129353D01*
X444048Y-128945D01*
X445500Y-127976D01*
X446952Y-128945D01*
X449000Y-129353D01*
X451048Y-128945D01*
X452785Y-127785D01*
X453945Y-126048D01*
X454353Y-124000D01*
X453945Y-121952D01*
X452975Y-120500D01*
X453945Y-119048D01*
X454353Y-117000D01*
X453945Y-114952D01*
X452785Y-113215D01*
X451048Y-112055D01*
X449000Y-111647D01*
D02*
G37*
G36*
X149000Y-87647D02*
X146952Y-88055D01*
X145215Y-89215D01*
X144055Y-90952D01*
X143647Y-93000D01*
X144055Y-95048D01*
X145215Y-96785D01*
X145908Y-97248D01*
Y-98752D01*
X145215Y-99215D01*
X144055Y-100952D01*
X143647Y-103000D01*
X144055Y-105048D01*
X145215Y-106785D01*
X146952Y-107945D01*
X149000Y-108353D01*
X151048Y-107945D01*
X152785Y-106785D01*
X153945Y-105048D01*
X154353Y-103000D01*
X153945Y-100952D01*
X152785Y-99215D01*
X152092Y-98752D01*
Y-97248D01*
X152785Y-96785D01*
X153945Y-95048D01*
X154353Y-93000D01*
X153945Y-90952D01*
X152785Y-89215D01*
X151048Y-88055D01*
X149000Y-87647D01*
D02*
G37*
G36*
X70000Y-97647D02*
X67952Y-98055D01*
X66215Y-99215D01*
X65055Y-100952D01*
X64647Y-103000D01*
X65055Y-105048D01*
X66215Y-106785D01*
X67952Y-107945D01*
X70000Y-108353D01*
X72048Y-107945D01*
X73785Y-106785D01*
X74945Y-105048D01*
X75353Y-103000D01*
X74945Y-100952D01*
X73785Y-99215D01*
X72048Y-98055D01*
X70000Y-97647D01*
D02*
G37*
G36*
X160000Y-111647D02*
X157952Y-112055D01*
X156215Y-113215D01*
X155055Y-114952D01*
X154647Y-117000D01*
X155055Y-119048D01*
X156215Y-120785D01*
X157952Y-121945D01*
X160000Y-122353D01*
X162048Y-121945D01*
X163785Y-120785D01*
X164945Y-119048D01*
X165353Y-117000D01*
X164945Y-114952D01*
X163785Y-113215D01*
X162048Y-112055D01*
X160000Y-111647D01*
D02*
G37*
G36*
X307000Y-154647D02*
X304952Y-155055D01*
X303215Y-156215D01*
X302785D01*
X301048Y-155055D01*
X299000Y-154647D01*
X296952Y-155055D01*
X295215Y-156215D01*
X294055Y-157952D01*
X293647Y-160000D01*
X294055Y-162048D01*
X295215Y-163785D01*
X296952Y-164945D01*
X299000Y-165353D01*
X301048Y-164945D01*
X302785Y-163785D01*
X303215D01*
X304952Y-164945D01*
X307000Y-165353D01*
X309048Y-164945D01*
X310785Y-163785D01*
X311945Y-162048D01*
X312353Y-160000D01*
X311945Y-157952D01*
X310785Y-156215D01*
X309048Y-155055D01*
X307000Y-154647D01*
D02*
G37*
G36*
X106000Y-162647D02*
X103952Y-163055D01*
X102215Y-164215D01*
X101055Y-165952D01*
X100647Y-168000D01*
X101055Y-170048D01*
X102215Y-171785D01*
X103952Y-172945D01*
X106000Y-173353D01*
X108048Y-172945D01*
X109785Y-171785D01*
X110945Y-170048D01*
X111353Y-168000D01*
X110945Y-165952D01*
X109785Y-164215D01*
X108048Y-163055D01*
X106000Y-162647D01*
D02*
G37*
G36*
X87000Y-142647D02*
X84952Y-143055D01*
X83215Y-144215D01*
X82055Y-145951D01*
X81647Y-148000D01*
X82055Y-150048D01*
X83215Y-151785D01*
X84952Y-152945D01*
X87000Y-153353D01*
X89048Y-152945D01*
X90785Y-151785D01*
X91945Y-150048D01*
X92353Y-148000D01*
X91945Y-145951D01*
X90785Y-144215D01*
X89048Y-143055D01*
X87000Y-142647D01*
D02*
G37*
G36*
X369000Y-110647D02*
X366952Y-111055D01*
X365215Y-112215D01*
X364055Y-113952D01*
X363647Y-116000D01*
X364055Y-118048D01*
X365025Y-119500D01*
X364055Y-120952D01*
X363647Y-123000D01*
X364055Y-125048D01*
X365215Y-126785D01*
X366952Y-127945D01*
X369000Y-128353D01*
X371048Y-127945D01*
X372785Y-126785D01*
X373945Y-125048D01*
X374353Y-123000D01*
X373945Y-120952D01*
X372975Y-119500D01*
X373945Y-118048D01*
X374353Y-116000D01*
X373945Y-113952D01*
X372785Y-112215D01*
X371048Y-111055D01*
X369000Y-110647D01*
D02*
G37*
G36*
X272000Y-71647D02*
X269952Y-72055D01*
X268215Y-73215D01*
X267055Y-74952D01*
X266647Y-77000D01*
X267055Y-79048D01*
X268215Y-80785D01*
X268908Y-81248D01*
Y-82752D01*
X268215Y-83215D01*
X267055Y-84952D01*
X266647Y-87000D01*
X267055Y-89048D01*
X268215Y-90785D01*
X268908Y-91248D01*
Y-92752D01*
X268215Y-93215D01*
X267055Y-94952D01*
X266647Y-97000D01*
X267055Y-99048D01*
X268215Y-100785D01*
X268908Y-101248D01*
Y-102752D01*
X268215Y-103215D01*
X267055Y-104952D01*
X266647Y-107000D01*
X267055Y-109048D01*
X268215Y-110785D01*
X268908Y-111248D01*
Y-112752D01*
X268215Y-113215D01*
X267055Y-114952D01*
X266647Y-117000D01*
X267055Y-119048D01*
X268215Y-120785D01*
X268908Y-121248D01*
Y-122752D01*
X268215Y-123215D01*
X267055Y-124952D01*
X266647Y-127000D01*
X267055Y-129048D01*
X268215Y-130785D01*
X269952Y-131945D01*
X272000Y-132353D01*
X274048Y-131945D01*
X275785Y-130785D01*
X276945Y-129048D01*
X277353Y-127000D01*
X276945Y-124952D01*
X275785Y-123215D01*
X275092Y-122752D01*
Y-121248D01*
X275785Y-120785D01*
X276945Y-119048D01*
X277353Y-117000D01*
X276945Y-114952D01*
X275785Y-113215D01*
X275092Y-112752D01*
Y-111248D01*
X275785Y-110785D01*
X276945Y-109048D01*
X277353Y-107000D01*
X276945Y-104952D01*
X275785Y-103215D01*
X275092Y-102752D01*
Y-101248D01*
X275785Y-100785D01*
X276945Y-99048D01*
X277353Y-97000D01*
X276945Y-94952D01*
X275785Y-93215D01*
X275092Y-92752D01*
Y-91248D01*
X275785Y-90785D01*
X276945Y-89048D01*
X277353Y-87000D01*
X276945Y-84952D01*
X275785Y-83215D01*
X275092Y-82752D01*
Y-81248D01*
X275785Y-80785D01*
X276945Y-79048D01*
X277353Y-77000D01*
X276945Y-74952D01*
X275785Y-73215D01*
X274048Y-72055D01*
X272000Y-71647D01*
D02*
G37*
G36*
X135000Y16353D02*
X132952Y15945D01*
X131215Y14785D01*
X130055Y13048D01*
X129647Y11000D01*
X129000Y10353D01*
X126952Y9945D01*
X125215Y8785D01*
X124055Y7048D01*
X123647Y5000D01*
X124055Y2952D01*
X125215Y1215D01*
X126952Y55D01*
X129000Y-353D01*
X131048Y55D01*
X132785Y1215D01*
X133945Y2952D01*
X134353Y5000D01*
X135000Y5647D01*
X137048Y6055D01*
X138785Y7215D01*
X139945Y8952D01*
X140353Y11000D01*
X139945Y13048D01*
X138785Y14785D01*
X137048Y15945D01*
X135000Y16353D01*
D02*
G37*
G36*
X100000Y116627D02*
X97464Y116123D01*
X95919Y115091D01*
X95000Y114789D01*
X94081Y115091D01*
X92536Y116123D01*
X90000Y116627D01*
X87464Y116123D01*
X85314Y114686D01*
X83877Y112536D01*
X83373Y110000D01*
X83877Y107464D01*
X85314Y105314D01*
X87464Y103877D01*
X90000Y103373D01*
X92536Y103877D01*
X94081Y104909D01*
X95000Y105211D01*
X95919Y104909D01*
X97464Y103877D01*
X100000Y103373D01*
X102536Y103877D01*
X104686Y105314D01*
X106123Y107464D01*
X106627Y110000D01*
X106123Y112536D01*
X104686Y114686D01*
X102536Y116123D01*
X100000Y116627D01*
D02*
G37*
G36*
X198000Y134353D02*
X195952Y133945D01*
X194215Y132785D01*
X193055Y131048D01*
X192647Y129000D01*
X193055Y126952D01*
X194181Y125266D01*
X194350Y124935D01*
Y124065D01*
X194181Y123734D01*
X193055Y122048D01*
X192647Y120000D01*
X193055Y117952D01*
X194215Y116215D01*
X195952Y115055D01*
X198000Y114647D01*
X200048Y115055D01*
X201785Y116215D01*
X202945Y117952D01*
X203353Y120000D01*
X202945Y122048D01*
X201819Y123734D01*
X201650Y124065D01*
Y124935D01*
X201819Y125266D01*
X202945Y126952D01*
X203353Y129000D01*
X202945Y131048D01*
X201785Y132785D01*
X200048Y133945D01*
X198000Y134353D01*
D02*
G37*
G36*
X464000Y139353D02*
X461952Y138945D01*
X460215Y137785D01*
X459055Y136048D01*
X458647Y134000D01*
X459055Y131952D01*
X460215Y130215D01*
X461952Y129055D01*
X464000Y128647D01*
X466048Y129055D01*
X467785Y130215D01*
X468945Y131952D01*
X469353Y134000D01*
X468945Y136048D01*
X467785Y137785D01*
X466048Y138945D01*
X464000Y139353D01*
D02*
G37*
G36*
Y151353D02*
X461952Y150945D01*
X460215Y149785D01*
X459055Y148048D01*
X458647Y146000D01*
X459055Y143952D01*
X460215Y142215D01*
X461952Y141055D01*
X464000Y140647D01*
X466048Y141055D01*
X467785Y142215D01*
X468945Y143952D01*
X469353Y146000D01*
X468945Y148048D01*
X467785Y149785D01*
X466048Y150945D01*
X464000Y151353D01*
D02*
G37*
G36*
X306000Y142353D02*
X303952Y141945D01*
X302215Y140785D01*
X301055Y139048D01*
X300647Y137000D01*
X301055Y134952D01*
X302215Y133215D01*
X303952Y132055D01*
X306000Y131647D01*
X308048Y132055D01*
X309785Y133215D01*
X310945Y134952D01*
X311353Y137000D01*
X310945Y139048D01*
X309785Y140785D01*
X308048Y141945D01*
X306000Y142353D01*
D02*
G37*
G36*
X348000Y123000D02*
X345952Y122592D01*
X344215Y121432D01*
X343055Y119696D01*
X342647Y117647D01*
X343055Y115599D01*
X344215Y113862D01*
X345952Y112702D01*
X348000Y112294D01*
X350048Y112702D01*
X351785Y113862D01*
X352945Y115599D01*
X353353Y117647D01*
X352945Y119696D01*
X351785Y121432D01*
X350048Y122592D01*
X348000Y123000D01*
D02*
G37*
G36*
X272000Y150353D02*
X269952Y149945D01*
X268215Y148785D01*
X267055Y147048D01*
X266647Y145000D01*
X267055Y142952D01*
X268215Y141215D01*
X268908Y140752D01*
Y139248D01*
X268215Y138785D01*
X267055Y137048D01*
X266647Y135000D01*
X267055Y132952D01*
X268215Y131215D01*
X268908Y130752D01*
Y129248D01*
X268215Y128785D01*
X267055Y127048D01*
X266647Y125000D01*
X267055Y122952D01*
X268215Y121215D01*
X268908Y120752D01*
Y119248D01*
X268215Y118785D01*
X267055Y117048D01*
X266647Y115000D01*
X267055Y112952D01*
X268215Y111215D01*
X268908Y110752D01*
Y109248D01*
X268215Y108785D01*
X267055Y107048D01*
X266647Y105000D01*
X267055Y102952D01*
X268215Y101215D01*
X268908Y100752D01*
Y99248D01*
X268215Y98785D01*
X267055Y97048D01*
X266647Y95000D01*
X267055Y92952D01*
X268215Y91215D01*
X269952Y90055D01*
X272000Y89647D01*
X274048Y90055D01*
X275785Y91215D01*
X276945Y92952D01*
X277353Y95000D01*
X276945Y97048D01*
X275785Y98785D01*
X275092Y99248D01*
Y100752D01*
X275785Y101215D01*
X276945Y102952D01*
X277353Y105000D01*
X276945Y107048D01*
X275785Y108785D01*
X275092Y109248D01*
Y110752D01*
X275785Y111215D01*
X276945Y112952D01*
X277353Y115000D01*
X276945Y117048D01*
X275785Y118785D01*
X275092Y119248D01*
Y120752D01*
X275785Y121215D01*
X276945Y122952D01*
X277353Y125000D01*
X276945Y127048D01*
X275785Y128785D01*
X275092Y129248D01*
Y130752D01*
X275785Y131215D01*
X276945Y132952D01*
X277353Y135000D01*
X276945Y137048D01*
X275785Y138785D01*
X275092Y139248D01*
Y140752D01*
X275785Y141215D01*
X276945Y142952D01*
X277353Y145000D01*
X276945Y147048D01*
X275785Y148785D01*
X274048Y149945D01*
X272000Y150353D01*
D02*
G37*
G36*
X188000Y107353D02*
X185952Y106945D01*
X184215Y105785D01*
X183055Y104048D01*
X182647Y102000D01*
X183055Y99952D01*
X184215Y98215D01*
Y97785D01*
X183055Y96048D01*
X182647Y94000D01*
X183055Y91952D01*
X184215Y90215D01*
X185952Y89055D01*
X188000Y88647D01*
X190048Y89055D01*
X191785Y90215D01*
X192945Y91952D01*
X193353Y94000D01*
X192945Y96048D01*
X191785Y97785D01*
Y98215D01*
X192945Y99952D01*
X193353Y102000D01*
X192945Y104048D01*
X191785Y105785D01*
X190048Y106945D01*
X188000Y107353D01*
D02*
G37*
G36*
X464000Y101353D02*
X461952Y100945D01*
X460215Y99785D01*
X459055Y98048D01*
X458647Y96000D01*
X459055Y93952D01*
X460215Y92215D01*
X461952Y91055D01*
X464000Y90647D01*
X466048Y91055D01*
X467785Y92215D01*
X468945Y93952D01*
X469353Y96000D01*
X468945Y98048D01*
X467785Y99785D01*
X466048Y100945D01*
X464000Y101353D01*
D02*
G37*
G36*
Y114353D02*
X461952Y113945D01*
X460215Y112785D01*
X459055Y111048D01*
X458647Y109000D01*
X459055Y106952D01*
X460215Y105215D01*
X461952Y104055D01*
X464000Y103647D01*
X466048Y104055D01*
X467785Y105215D01*
X468945Y106952D01*
X469353Y109000D01*
X468945Y111048D01*
X467785Y112785D01*
X466048Y113945D01*
X464000Y114353D01*
D02*
G37*
G36*
X57000Y121353D02*
X54952Y120945D01*
X53215Y119785D01*
X52055Y118048D01*
X51647Y116000D01*
X52055Y113952D01*
X53215Y112215D01*
Y111785D01*
X52055Y110048D01*
X51647Y108000D01*
X52055Y105952D01*
X53215Y104215D01*
X54952Y103055D01*
X57000Y102647D01*
X59048Y103055D01*
X60785Y104215D01*
X61945Y105952D01*
X62353Y108000D01*
X61945Y110048D01*
X60785Y111785D01*
Y112215D01*
X61945Y113952D01*
X62353Y116000D01*
X61945Y118048D01*
X60785Y119785D01*
X59048Y120945D01*
X57000Y121353D01*
D02*
G37*
G36*
X396000Y171627D02*
X393464Y171123D01*
X391314Y169686D01*
X389877Y167536D01*
X389373Y165000D01*
X389877Y162464D01*
X390909Y160919D01*
X391211Y160000D01*
X390909Y159081D01*
X389877Y157536D01*
X389373Y155000D01*
X389877Y152464D01*
X391314Y150314D01*
X393464Y148877D01*
X396000Y148373D01*
X398536Y148877D01*
X400686Y150314D01*
X402123Y152464D01*
X402627Y155000D01*
X402123Y157536D01*
X401091Y159081D01*
X400789Y160000D01*
X401091Y160919D01*
X402123Y162464D01*
X402627Y165000D01*
X402123Y167536D01*
X400686Y169686D01*
X398536Y171123D01*
X396000Y171627D01*
D02*
G37*
G36*
X279400Y214799D02*
X276398Y214404D01*
X273600Y213245D01*
X271198Y211402D01*
X269355Y209000D01*
X268196Y206202D01*
X267801Y203200D01*
X268196Y200198D01*
X269355Y197400D01*
X271198Y194998D01*
X273600Y193155D01*
X276398Y191996D01*
X279400Y191601D01*
X282402Y191996D01*
X285200Y193155D01*
X287602Y194998D01*
X289445Y197400D01*
X290604Y200198D01*
X290999Y203200D01*
X290604Y206202D01*
X289445Y209000D01*
X287602Y211402D01*
X285200Y213245D01*
X282402Y214404D01*
X279400Y214799D01*
D02*
G37*
G36*
X254000D02*
X250998Y214404D01*
X248200Y213245D01*
X245798Y211402D01*
X243955Y209000D01*
X242796Y206202D01*
X242401Y203200D01*
X242796Y200198D01*
X243955Y197400D01*
X245798Y194998D01*
X248200Y193155D01*
X250998Y191996D01*
X254000Y191601D01*
X257002Y191996D01*
X259800Y193155D01*
X262202Y194998D01*
X264045Y197400D01*
X265204Y200198D01*
X265599Y203200D01*
X265204Y206202D01*
X264045Y209000D01*
X262202Y211402D01*
X259800Y213245D01*
X257002Y214404D01*
X254000Y214799D01*
D02*
G37*
G36*
X304800D02*
X301798Y214404D01*
X299000Y213245D01*
X296598Y211402D01*
X294755Y209000D01*
X293596Y206202D01*
X293201Y203200D01*
X293596Y200198D01*
X294755Y197400D01*
X296598Y194998D01*
X299000Y193155D01*
X301798Y191996D01*
X304800Y191601D01*
X307802Y191996D01*
X310600Y193155D01*
X313002Y194998D01*
X314845Y197400D01*
X316004Y200198D01*
X316399Y203200D01*
X316004Y206202D01*
X314845Y209000D01*
X313002Y211402D01*
X310600Y213245D01*
X307802Y214404D01*
X304800Y214799D01*
D02*
G37*
G36*
X457200D02*
X454198Y214404D01*
X451400Y213245D01*
X448998Y211402D01*
X447155Y209000D01*
X445996Y206202D01*
X445601Y203200D01*
X445996Y200198D01*
X447155Y197400D01*
X448998Y194998D01*
X451400Y193155D01*
X454198Y191996D01*
X457200Y191601D01*
X460202Y191996D01*
X463000Y193155D01*
X465402Y194998D01*
X467245Y197400D01*
X468404Y200198D01*
X468799Y203200D01*
X468404Y206202D01*
X467245Y209000D01*
X465402Y211402D01*
X463000Y213245D01*
X460202Y214404D01*
X457200Y214799D01*
D02*
G37*
G36*
X406400D02*
X403398Y214404D01*
X400600Y213245D01*
X398198Y211402D01*
X396355Y209000D01*
X395196Y206202D01*
X394801Y203200D01*
X395196Y200198D01*
X396355Y197400D01*
X398198Y194998D01*
X400600Y193155D01*
X403398Y191996D01*
X406400Y191601D01*
X409402Y191996D01*
X412200Y193155D01*
X414602Y194998D01*
X416445Y197400D01*
X417604Y200198D01*
X417999Y203200D01*
X417604Y206202D01*
X416445Y209000D01*
X414602Y211402D01*
X412200Y213245D01*
X409402Y214404D01*
X406400Y214799D01*
D02*
G37*
G36*
X203200D02*
X200198Y214404D01*
X197400Y213245D01*
X194998Y211402D01*
X193155Y209000D01*
X191996Y206202D01*
X191601Y203200D01*
X191996Y200198D01*
X193155Y197400D01*
X194998Y194998D01*
X197400Y193155D01*
X200198Y191996D01*
X203200Y191601D01*
X206202Y191996D01*
X209000Y193155D01*
X211402Y194998D01*
X213245Y197400D01*
X214404Y200198D01*
X214799Y203200D01*
X214404Y206202D01*
X213245Y209000D01*
X211402Y211402D01*
X209000Y213245D01*
X206202Y214404D01*
X203200Y214799D01*
D02*
G37*
G36*
X101600D02*
X98598Y214404D01*
X95800Y213245D01*
X93398Y211402D01*
X91555Y209000D01*
X90396Y206202D01*
X90001Y203200D01*
X90396Y200198D01*
X91555Y197400D01*
X93398Y194998D01*
X95800Y193155D01*
X98598Y191996D01*
X101600Y191601D01*
X104602Y191996D01*
X107400Y193155D01*
X109802Y194998D01*
X111645Y197400D01*
X112804Y200198D01*
X113199Y203200D01*
X112804Y206202D01*
X111645Y209000D01*
X109802Y211402D01*
X107400Y213245D01*
X104602Y214404D01*
X101600Y214799D01*
D02*
G37*
G36*
X76200D02*
X73198Y214404D01*
X70400Y213245D01*
X67998Y211402D01*
X66155Y209000D01*
X64996Y206202D01*
X64601Y203200D01*
X64996Y200198D01*
X66155Y197400D01*
X67998Y194998D01*
X70400Y193155D01*
X73198Y191996D01*
X76200Y191601D01*
X79202Y191996D01*
X82000Y193155D01*
X84402Y194998D01*
X86245Y197400D01*
X87404Y200198D01*
X87799Y203200D01*
X87404Y206202D01*
X86245Y209000D01*
X84402Y211402D01*
X82000Y213245D01*
X79202Y214404D01*
X76200Y214799D01*
D02*
G37*
G36*
X127000D02*
X123998Y214404D01*
X121200Y213245D01*
X118798Y211402D01*
X116955Y209000D01*
X115796Y206202D01*
X115401Y203200D01*
X115796Y200198D01*
X116955Y197400D01*
X118798Y194998D01*
X121200Y193155D01*
X123998Y191996D01*
X127000Y191601D01*
X130002Y191996D01*
X132800Y193155D01*
X135202Y194998D01*
X137045Y197400D01*
X138204Y200198D01*
X138599Y203200D01*
X138204Y206202D01*
X137045Y209000D01*
X135202Y211402D01*
X132800Y213245D01*
X130002Y214404D01*
X127000Y214799D01*
D02*
G37*
G36*
X177800D02*
X174798Y214404D01*
X172000Y213245D01*
X169598Y211402D01*
X167755Y209000D01*
X166596Y206202D01*
X166201Y203200D01*
X166596Y200198D01*
X167755Y197400D01*
X169598Y194998D01*
X172000Y193155D01*
X174798Y191996D01*
X177800Y191601D01*
X180802Y191996D01*
X183600Y193155D01*
X186002Y194998D01*
X187845Y197400D01*
X189004Y200198D01*
X189399Y203200D01*
X189004Y206202D01*
X187845Y209000D01*
X186002Y211402D01*
X183600Y213245D01*
X180802Y214404D01*
X177800Y214799D01*
D02*
G37*
G36*
X152400D02*
X149398Y214404D01*
X146600Y213245D01*
X144198Y211402D01*
X142355Y209000D01*
X141196Y206202D01*
X140801Y203200D01*
X141196Y200198D01*
X142355Y197400D01*
X144198Y194998D01*
X146600Y193155D01*
X149398Y191996D01*
X152400Y191601D01*
X155402Y191996D01*
X158200Y193155D01*
X160602Y194998D01*
X162445Y197400D01*
X163604Y200198D01*
X163999Y203200D01*
X163604Y206202D01*
X162445Y209000D01*
X160602Y211402D01*
X158200Y213245D01*
X155402Y214404D01*
X152400Y214799D01*
D02*
G37*
G36*
X420000Y121785D02*
X416569Y121447D01*
X413271Y120446D01*
X410230Y118821D01*
X407566Y116634D01*
X405379Y113969D01*
X403754Y110929D01*
X402753Y107631D01*
X402415Y104200D01*
X402753Y100769D01*
X403754Y97471D01*
X405379Y94431D01*
X407566Y91766D01*
X410230Y89579D01*
X413271Y87954D01*
X416569Y86953D01*
X420000Y86615D01*
X423431Y86953D01*
X426729Y87954D01*
X429770Y89579D01*
X432434Y91766D01*
X434621Y94431D01*
X436246Y97471D01*
X437247Y100769D01*
X437585Y104200D01*
X437247Y107631D01*
X436246Y110929D01*
X434621Y113969D01*
X432434Y116634D01*
X429770Y118821D01*
X426729Y120446D01*
X423431Y121447D01*
X420000Y121785D01*
D02*
G37*
G36*
X279000Y57353D02*
X276952Y56945D01*
X275215Y55785D01*
X274055Y54048D01*
X273647Y52000D01*
X274055Y49952D01*
X275215Y48215D01*
X275908Y47752D01*
Y46248D01*
X275215Y45785D01*
X274055Y44048D01*
X273647Y42000D01*
X274055Y39952D01*
X275215Y38215D01*
X276952Y37055D01*
X279000Y36647D01*
X281048Y37055D01*
X282785Y38215D01*
X283945Y39952D01*
X284353Y42000D01*
X283945Y44048D01*
X282785Y45785D01*
X282092Y46248D01*
Y47752D01*
X282785Y48215D01*
X283945Y49952D01*
X284353Y52000D01*
X283945Y54048D01*
X282785Y55785D01*
X281048Y56945D01*
X279000Y57353D01*
D02*
G37*
G36*
X460000Y60353D02*
X457952Y59945D01*
X456215Y58785D01*
X455055Y57048D01*
X454647Y55000D01*
X455055Y52952D01*
X456025Y51500D01*
X455055Y50048D01*
X454647Y48000D01*
X455055Y45952D01*
X456025Y44500D01*
X455055Y43048D01*
X454647Y41000D01*
X455055Y38952D01*
X456215Y37215D01*
X457952Y36055D01*
X460000Y35647D01*
X462048Y36055D01*
X463785Y37215D01*
X464945Y38952D01*
X465353Y41000D01*
X464945Y43048D01*
X463975Y44500D01*
X464945Y45952D01*
X465353Y48000D01*
X464945Y50048D01*
X463975Y51500D01*
X464945Y52952D01*
X465353Y55000D01*
X464945Y57048D01*
X463785Y58785D01*
X462048Y59945D01*
X460000Y60353D01*
D02*
G37*
G36*
X76665Y75998D02*
X62000D01*
Y74000D01*
X53000D01*
Y46000D01*
X86000D01*
Y74000D01*
X76665D01*
Y75998D01*
D02*
G37*
G36*
X194000Y56353D02*
X191952Y55945D01*
X190215Y54785D01*
X189055Y53048D01*
X188647Y51000D01*
X188662Y50924D01*
X187563Y50042D01*
X186000Y50353D01*
X183952Y49945D01*
X182215Y48785D01*
X181055Y47048D01*
X180647Y45000D01*
X181055Y42952D01*
X181474Y42324D01*
X180951Y40945D01*
X179215Y39785D01*
X178055Y38048D01*
X177647Y36000D01*
X178055Y33952D01*
X179215Y32215D01*
X180952Y31055D01*
X183000Y30647D01*
X185048Y31055D01*
X186785Y32215D01*
X187945Y33952D01*
X188353Y36000D01*
X187945Y38048D01*
X187526Y38676D01*
X188048Y40055D01*
X189785Y41215D01*
X190945Y42952D01*
X191353Y45000D01*
X191338Y45076D01*
X192437Y45958D01*
X194000Y45647D01*
X196048Y46055D01*
X197785Y47215D01*
X198945Y48952D01*
X199353Y51000D01*
X198945Y53048D01*
X197785Y54785D01*
X196048Y55945D01*
X194000Y56353D01*
D02*
G37*
G36*
X395000Y58353D02*
X392952Y57945D01*
X391215Y56785D01*
X390055Y55048D01*
X389647Y53000D01*
X390055Y50952D01*
X391215Y49215D01*
X392952Y48055D01*
X395000Y47647D01*
X397048Y48055D01*
X398785Y49215D01*
X399945Y50952D01*
X400353Y53000D01*
X399945Y55048D01*
X398785Y56785D01*
X397048Y57945D01*
X395000Y58353D01*
D02*
G37*
G36*
X413000Y43353D02*
X410952Y42945D01*
X409215Y41785D01*
X408055Y40048D01*
X407647Y38000D01*
X408055Y35952D01*
X409215Y34215D01*
X410952Y33055D01*
X413000Y32647D01*
X415048Y33055D01*
X416785Y34215D01*
X417945Y35952D01*
X418353Y38000D01*
X417945Y40048D01*
X416785Y41785D01*
X415048Y42945D01*
X413000Y43353D01*
D02*
G37*
G36*
X438000Y29353D02*
X435952Y28945D01*
X434215Y27785D01*
X433055Y26048D01*
X432647Y24000D01*
X433055Y21952D01*
X434215Y20215D01*
X435952Y19055D01*
X438000Y18647D01*
X440048Y19055D01*
X441785Y20215D01*
X442945Y21952D01*
X443353Y24000D01*
X442945Y26048D01*
X441785Y27785D01*
X440048Y28945D01*
X438000Y29353D01*
D02*
G37*
G36*
Y12353D02*
X435952Y11945D01*
X434215Y10785D01*
X433055Y9048D01*
X432647Y7000D01*
X433055Y4952D01*
X434215Y3215D01*
X435952Y2055D01*
X438000Y1647D01*
X440048Y2055D01*
X441785Y3215D01*
X442945Y4952D01*
X443353Y7000D01*
X442945Y9048D01*
X441785Y10785D01*
X440048Y11945D01*
X438000Y12353D01*
D02*
G37*
G36*
X308200Y26588D02*
X306444Y26239D01*
X304956Y25244D01*
X303961Y23756D01*
X303709Y22487D01*
X303200Y22588D01*
X301444Y22239D01*
X299956Y21244D01*
X298961Y19756D01*
X298612Y18000D01*
X298961Y16244D01*
X299792Y15000D01*
X298961Y13756D01*
X298612Y12000D01*
X298961Y10244D01*
X299436Y9534D01*
X299756Y8244D01*
X298761Y6756D01*
X298412Y5000D01*
X298761Y3244D01*
X299756Y1756D01*
Y1244D01*
X298761Y-244D01*
X298412Y-2000D01*
X298761Y-3756D01*
X299592Y-5000D01*
X298761Y-6244D01*
X298412Y-8000D01*
X298761Y-9756D01*
X299592Y-11000D01*
X298761Y-12244D01*
X298412Y-14000D01*
X298761Y-15756D01*
X299756Y-17244D01*
X299951Y-17375D01*
Y-18625D01*
X299756Y-18756D01*
X298761Y-20244D01*
X298412Y-22000D01*
X298761Y-23756D01*
X299592Y-25000D01*
X298761Y-26244D01*
X298412Y-28000D01*
X298761Y-29756D01*
X299756Y-31244D01*
X301244Y-32239D01*
X303000Y-32588D01*
X303509Y-32487D01*
X303761Y-33756D01*
X304756Y-35244D01*
X306244Y-36239D01*
X308000Y-36588D01*
X309756Y-36239D01*
X311244Y-35244D01*
X312239Y-33756D01*
X312588Y-32000D01*
X312239Y-30244D01*
X311244Y-28756D01*
X309756Y-27761D01*
X308000Y-27412D01*
X307491Y-27513D01*
X307239Y-26244D01*
X306408Y-25000D01*
X307239Y-23756D01*
X307491Y-22487D01*
X308000Y-22588D01*
X309756Y-22239D01*
X311244Y-21244D01*
X312239Y-19756D01*
X312588Y-18000D01*
X312239Y-16244D01*
X311244Y-14756D01*
X309756Y-13761D01*
X308000Y-13412D01*
X307491Y-13513D01*
X307239Y-12244D01*
X306408Y-11000D01*
X307239Y-9756D01*
X307588Y-8000D01*
X307239Y-6244D01*
X306408Y-5000D01*
X307239Y-3756D01*
X307588Y-2000D01*
X307239Y-244D01*
X306244Y1244D01*
Y1756D01*
X307239Y3244D01*
X307308Y3589D01*
X308200Y3412D01*
X309956Y3761D01*
X311444Y4756D01*
X312439Y6244D01*
X312788Y8000D01*
X312439Y9756D01*
X311444Y11244D01*
X309956Y12239D01*
X308200Y12588D01*
X307691Y12487D01*
X307439Y13756D01*
X306608Y15000D01*
X307439Y16244D01*
X307691Y17513D01*
X308200Y17412D01*
X309956Y17761D01*
X311444Y18756D01*
X312439Y20244D01*
X312788Y22000D01*
X312439Y23756D01*
X311444Y25244D01*
X309956Y26239D01*
X308200Y26588D01*
D02*
G37*
G36*
X306000Y41353D02*
X303952Y40945D01*
X302215Y39785D01*
X301055Y38048D01*
X300647Y36000D01*
X301055Y33952D01*
X302215Y32215D01*
X303952Y31055D01*
X306000Y30647D01*
X308048Y31055D01*
X309785Y32215D01*
X310945Y33952D01*
X311353Y36000D01*
X310945Y38048D01*
X309785Y39785D01*
X308048Y40945D01*
X306000Y41353D01*
D02*
G37*
G36*
X91000Y36353D02*
X88952Y35945D01*
X87215Y34785D01*
X86055Y33048D01*
X85647Y31000D01*
X86055Y28952D01*
X87215Y27215D01*
X88952Y26055D01*
X91000Y25647D01*
X93048Y26055D01*
X94785Y27215D01*
X95945Y28952D01*
X96353Y31000D01*
X95945Y33048D01*
X94785Y34785D01*
X93048Y35945D01*
X91000Y36353D01*
D02*
G37*
G36*
X170000Y56353D02*
X167952Y55945D01*
X166215Y54785D01*
X165055Y53048D01*
X164704Y51288D01*
X163765Y50201D01*
X163000Y50353D01*
X160952Y49945D01*
X159215Y48785D01*
X158055Y47048D01*
X157831Y45926D01*
X157113Y45027D01*
X156481Y45058D01*
X155000Y45353D01*
X152952Y44945D01*
X151215Y43785D01*
X150055Y42048D01*
X149647Y40000D01*
X149792Y39271D01*
X148729Y38208D01*
X148000Y38353D01*
X145952Y37945D01*
X144215Y36785D01*
X143055Y35048D01*
X142647Y33000D01*
X143055Y30952D01*
X144215Y29215D01*
X145952Y28055D01*
X148000Y27647D01*
X150048Y28055D01*
X151785Y29215D01*
X152945Y30952D01*
X153353Y33000D01*
X153208Y33729D01*
X154271Y34792D01*
X155000Y34647D01*
X157048Y35055D01*
X158785Y36215D01*
X159945Y37952D01*
X160169Y39074D01*
X160887Y39973D01*
X161519Y39942D01*
X163000Y39647D01*
X165048Y40055D01*
X166785Y41215D01*
X167945Y42952D01*
X168295Y44712D01*
X169235Y45799D01*
X170000Y45647D01*
X172048Y46055D01*
X173785Y47215D01*
X174945Y48952D01*
X175353Y51000D01*
X174945Y53048D01*
X173785Y54785D01*
X172048Y55945D01*
X170000Y56353D01*
D02*
G37*
G36*
X464000Y89353D02*
X461952Y88945D01*
X460215Y87785D01*
X459055Y86048D01*
X458647Y84000D01*
X459055Y81952D01*
X460215Y80215D01*
X461952Y79055D01*
X464000Y78647D01*
X466048Y79055D01*
X467785Y80215D01*
X468945Y81952D01*
X469353Y84000D01*
X468945Y86048D01*
X467785Y87785D01*
X466048Y88945D01*
X464000Y89353D01*
D02*
G37*
G36*
X196000Y88353D02*
X193952Y87945D01*
X192215Y86785D01*
X191055Y85048D01*
X190647Y83000D01*
X191055Y80952D01*
X192215Y79215D01*
X193952Y78055D01*
X196000Y77647D01*
X198048Y78055D01*
X199785Y79215D01*
X200945Y80952D01*
X201353Y83000D01*
X200945Y85048D01*
X199785Y86785D01*
X198048Y87945D01*
X196000Y88353D01*
D02*
G37*
G36*
X105000Y80627D02*
X102464Y80123D01*
X100919Y79091D01*
X100000Y78789D01*
X99081Y79091D01*
X97536Y80123D01*
X95000Y80627D01*
X92464Y80123D01*
X90314Y78686D01*
X88877Y76536D01*
X88373Y74000D01*
X88877Y71464D01*
X90314Y69314D01*
X92464Y67877D01*
X95000Y67373D01*
X97536Y67877D01*
X99081Y68909D01*
X100000Y69211D01*
X100919Y68909D01*
X102464Y67877D01*
X105000Y67373D01*
X107536Y67877D01*
X109686Y69314D01*
X111123Y71464D01*
X111627Y74000D01*
X111123Y76536D01*
X109686Y78686D01*
X107536Y80123D01*
X105000Y80627D01*
D02*
G37*
G36*
X326000Y91353D02*
X323952Y90945D01*
X322215Y89785D01*
X321055Y88048D01*
X320647Y86000D01*
X321055Y83952D01*
X322215Y82215D01*
X323952Y81055D01*
X326000Y80647D01*
X328048Y81055D01*
X329785Y82215D01*
X330945Y83952D01*
X331353Y86000D01*
X330945Y88048D01*
X329785Y89785D01*
X328048Y90945D01*
X326000Y91353D01*
D02*
G37*
G36*
X164000D02*
X161952Y90945D01*
X160215Y89785D01*
X159055Y88048D01*
X158647Y86000D01*
X159055Y83952D01*
X160215Y82215D01*
X161952Y81055D01*
X164000Y80647D01*
X166048Y81055D01*
X167620Y82105D01*
X168215Y81215D01*
X169952Y80055D01*
X172000Y79647D01*
X174048Y80055D01*
X175785Y81215D01*
X176215D01*
X177952Y80055D01*
X180000Y79647D01*
X182048Y80055D01*
X183785Y81215D01*
X184945Y82952D01*
X185353Y85000D01*
X184945Y87048D01*
X183785Y88785D01*
X182048Y89945D01*
X180000Y90353D01*
X177952Y89945D01*
X176215Y88785D01*
X175785D01*
X174048Y89945D01*
X172000Y90353D01*
X169952Y89945D01*
X168380Y88895D01*
X167785Y89785D01*
X166048Y90945D01*
X164000Y91353D01*
D02*
G37*
G36*
X470000Y77353D02*
X467952Y76945D01*
X466500Y75975D01*
X465048Y76945D01*
X463000Y77353D01*
X460952Y76945D01*
X459215Y75785D01*
X458055Y74048D01*
X457647Y72000D01*
X458055Y69952D01*
X459215Y68215D01*
X460952Y67055D01*
X463000Y66647D01*
X465048Y67055D01*
X466500Y68025D01*
X467952Y67055D01*
X470000Y66647D01*
X472048Y67055D01*
X473785Y68215D01*
X474945Y69952D01*
X475353Y72000D01*
X474945Y74048D01*
X473785Y75785D01*
X472048Y76945D01*
X470000Y77353D01*
D02*
G37*
G36*
X355000Y56588D02*
X353244Y56239D01*
X352000Y55408D01*
X350756Y56239D01*
X349000Y56588D01*
X347244Y56239D01*
X346000Y55408D01*
X344756Y56239D01*
X343000Y56588D01*
X341244Y56239D01*
X340000Y55408D01*
X338756Y56239D01*
X337000Y56588D01*
X335244Y56239D01*
X334000Y55408D01*
X332756Y56239D01*
X331000Y56588D01*
X329244Y56239D01*
X328000Y55408D01*
X326756Y56239D01*
X325000Y56588D01*
X323244Y56239D01*
X321756Y55244D01*
X320983Y54087D01*
X320756Y54239D01*
X319000Y54588D01*
X317244Y54239D01*
X315756Y53244D01*
X314761Y51756D01*
X314412Y50000D01*
X314761Y48244D01*
X315756Y46756D01*
X317244Y45761D01*
X319000Y45412D01*
X320756Y45761D01*
X322244Y46756D01*
X323017Y47913D01*
X323244Y47761D01*
X325000Y47412D01*
X326756Y47761D01*
X328000Y48592D01*
X329244Y47761D01*
X331000Y47412D01*
X332756Y47761D01*
X334000Y48592D01*
X335244Y47761D01*
X337000Y47412D01*
X338756Y47761D01*
X340000Y48592D01*
X341244Y47761D01*
X343000Y47412D01*
X344756Y47761D01*
X346000Y48592D01*
X347244Y47761D01*
X349000Y47412D01*
X350756Y47761D01*
X352000Y48592D01*
X353244Y47761D01*
X355000Y47412D01*
X356756Y47761D01*
X358244Y48756D01*
X359239Y50244D01*
X359588Y52000D01*
X359239Y53756D01*
X358244Y55244D01*
X356756Y56239D01*
X355000Y56588D01*
D02*
G37*
G36*
X136000Y63353D02*
X133952Y62945D01*
X132215Y61785D01*
X131055Y60048D01*
X130647Y58000D01*
X131055Y55952D01*
X132215Y54215D01*
X133952Y53055D01*
X136000Y52647D01*
X138048Y53055D01*
X139785Y54215D01*
X140945Y55952D01*
X141353Y58000D01*
X140945Y60048D01*
X139785Y61785D01*
X138048Y62945D01*
X136000Y63353D01*
D02*
G37*
G36*
X379000Y58353D02*
X376952Y57945D01*
X375215Y56785D01*
X374785D01*
X373048Y57945D01*
X371000Y58353D01*
X368952Y57945D01*
X367215Y56785D01*
X366055Y55048D01*
X365647Y53000D01*
X366055Y50952D01*
X367215Y49215D01*
X368952Y48055D01*
X371000Y47647D01*
X373048Y48055D01*
X374785Y49215D01*
X375215D01*
X376952Y48055D01*
X379000Y47647D01*
X381048Y48055D01*
X382785Y49215D01*
X383945Y50952D01*
X384353Y53000D01*
X383945Y55048D01*
X382785Y56785D01*
X381048Y57945D01*
X379000Y58353D01*
D02*
G37*
G36*
X126000Y74353D02*
X123952Y73945D01*
X122215Y72785D01*
X121785D01*
X120048Y73945D01*
X118000Y74353D01*
X115952Y73945D01*
X114215Y72785D01*
X113055Y71048D01*
X112647Y69000D01*
X113055Y66952D01*
X114215Y65215D01*
X115952Y64055D01*
X118000Y63647D01*
X120048Y64055D01*
X121785Y65215D01*
X122215D01*
X123952Y64055D01*
X126000Y63647D01*
X128048Y64055D01*
X129785Y65215D01*
X130945Y66952D01*
X131353Y69000D01*
X130945Y71048D01*
X129785Y72785D01*
X128048Y73945D01*
X126000Y74353D01*
D02*
G37*
G36*
X349000Y91353D02*
X346952Y90945D01*
X345215Y89785D01*
X344055Y88048D01*
X343647Y86000D01*
X344055Y83952D01*
X345215Y82215D01*
Y81785D01*
X344055Y80048D01*
X343647Y78000D01*
X344055Y75952D01*
X345215Y74215D01*
X346952Y73055D01*
X349000Y72647D01*
X351048Y73055D01*
X352785Y74215D01*
X353945Y75952D01*
X354353Y78000D01*
X353945Y80048D01*
X352785Y81785D01*
Y82215D01*
X353945Y83952D01*
X354353Y86000D01*
X353945Y88048D01*
X352785Y89785D01*
X351048Y90945D01*
X349000Y91353D01*
D02*
G37*
%LPD*%
D56*
X66476Y69617D02*
Y70093D01*
X66952Y71046D01*
X67428Y71522D01*
X68380Y71998D01*
X70285D01*
X71237Y71522D01*
X71713Y71046D01*
X72189Y70093D01*
Y69141D01*
X71713Y68189D01*
X70761Y66761D01*
X66000Y62000D01*
X72665D01*
D57*
X14500Y-74250D02*
D03*
Y-145750D02*
D03*
Y145750D02*
D03*
Y74250D02*
D03*
D58*
X36100Y46500D02*
D03*
Y173500D02*
D03*
Y-175500D02*
D03*
Y-48500D02*
D03*
D59*
X420000Y155000D02*
D03*
D60*
X152400Y-203200D02*
D03*
X228600Y203200D02*
D03*
X431800D02*
D03*
X406400Y-203200D02*
D03*
X228600D02*
D03*
D63*
X175000Y-70000D02*
D03*
X49000Y63000D02*
D03*
X106000Y62000D02*
D03*
X214000Y-108000D02*
D03*
Y-147000D02*
D03*
X127000Y-148000D02*
D03*
Y-128000D02*
D03*
X107000Y-148000D02*
D03*
Y-128000D02*
D03*
X61000Y-97000D02*
D03*
X90000Y-83000D02*
D03*
X48000Y-68000D02*
D03*
X60000Y-57000D02*
D03*
X100310Y-26000D02*
D03*
X167000Y78000D02*
D03*
X53000Y96000D02*
D03*
X49000Y90000D02*
D03*
X29000Y96000D02*
D03*
X131000Y86000D02*
D03*
Y107000D02*
D03*
X160000D02*
D03*
X188000Y86000D02*
D03*
X198000Y107000D02*
D03*
X211000Y89000D02*
D03*
X57000Y169000D02*
D03*
Y150000D02*
D03*
X83000D02*
D03*
Y169000D02*
D03*
X184000Y125000D02*
D03*
X198000Y139000D02*
D03*
X160000Y125000D02*
D03*
X198000Y163000D02*
D03*
X195000Y-147000D02*
D03*
Y-173000D02*
D03*
X188000Y57000D02*
D03*
X172000Y-7000D02*
D03*
X201000Y22000D02*
D03*
X298000Y135000D02*
D03*
Y105000D02*
D03*
Y77000D02*
D03*
X160000Y163000D02*
D03*
X109000Y170000D02*
D03*
X113000Y148000D02*
D03*
Y122000D02*
D03*
X387000Y53000D02*
D03*
X363000D02*
D03*
X307000Y-49000D02*
D03*
X292000Y-30000D02*
D03*
X131000Y125000D02*
D03*
Y170000D02*
D03*
X411000Y-87000D02*
D03*
X298000Y-81000D02*
D03*
Y-70000D02*
D03*
Y-92000D02*
D03*
X492000Y-95000D02*
D03*
X470000Y-84000D02*
D03*
X480000Y-170000D02*
D03*
Y-177000D02*
D03*
Y-184000D02*
D03*
X407000D02*
D03*
Y-177000D02*
D03*
Y-170000D02*
D03*
X418000Y-54000D02*
D03*
Y-61000D02*
D03*
X421000Y-68000D02*
D03*
Y-75000D02*
D03*
Y-82000D02*
D03*
Y-89000D02*
D03*
X463000Y-84000D02*
D03*
X456000D02*
D03*
X449000Y-89000D02*
D03*
Y-68000D02*
D03*
Y-75000D02*
D03*
Y-82000D02*
D03*
X492000Y-87000D02*
D03*
X480000Y-123000D02*
D03*
X490000D02*
D03*
X333000Y-149000D02*
D03*
X360000Y-131000D02*
D03*
X343000Y-112000D02*
D03*
Y-103000D02*
D03*
X332000Y-110000D02*
D03*
X281000Y-160000D02*
D03*
X290000D02*
D03*
X388000Y0D02*
D03*
X332000D02*
D03*
X360000Y28000D02*
D03*
Y-28000D02*
D03*
X332000D02*
D03*
X388000D02*
D03*
Y28000D02*
D03*
X332000D02*
D03*
X287000Y52000D02*
D03*
X270000Y-5000D02*
D03*
X278000D02*
D03*
X358000Y-77000D02*
D03*
X347000D02*
D03*
X272000Y-67000D02*
D03*
Y-137000D02*
D03*
X399000Y116000D02*
D03*
X247000Y-36000D02*
D03*
X109000Y37000D02*
D03*
X272000Y85000D02*
D03*
Y154000D02*
D03*
X70000Y-123000D02*
D03*
X155000Y-162000D02*
D03*
X164000Y-153000D02*
D03*
X146000D02*
D03*
X60000Y-140000D02*
D03*
Y-176000D02*
D03*
X50000Y-149000D02*
D03*
X60000Y-158000D02*
D03*
X94000Y-159000D02*
D03*
X87000Y-31000D02*
D03*
X122000Y-67000D02*
D03*
X129000Y-61000D02*
D03*
X29000Y-124000D02*
D03*
X49000Y-130000D02*
D03*
X53000Y-124000D02*
D03*
X88000Y-129000D02*
D03*
X492000Y0D02*
D03*
Y-20000D02*
D03*
Y20000D02*
D03*
X397000Y-120000D02*
D03*
Y-127000D02*
D03*
Y-134000D02*
D03*
Y-141000D02*
D03*
Y-113000D02*
D03*
X345000Y28000D02*
D03*
X375000D02*
D03*
X388000Y-15000D02*
D03*
Y15000D02*
D03*
X332000D02*
D03*
Y-15000D02*
D03*
X345000Y-28000D02*
D03*
X375000D02*
D03*
X360000Y0D02*
D03*
X345000Y15000D02*
D03*
X375000D02*
D03*
Y0D02*
D03*
X345000D02*
D03*
Y-15000D02*
D03*
X360000D02*
D03*
Y15000D02*
D03*
X375000Y-15000D02*
D03*
X267000Y-191000D02*
D03*
X217000Y-192000D02*
D03*
X195000Y-106000D02*
D03*
X315000Y-159000D02*
D03*
X208000Y-87000D02*
D03*
X292000Y-190000D02*
D03*
X272000Y-154000D02*
D03*
X291000Y-149000D02*
D03*
X323000Y-106000D02*
D03*
X400000Y-76000D02*
D03*
X419000Y-44000D02*
D03*
X437000Y-26000D02*
D03*
X430000Y-11000D02*
D03*
X432000Y14000D02*
D03*
X409000Y47000D02*
D03*
X400000Y88000D02*
D03*
X258000Y13000D02*
D03*
X251000Y-5000D02*
D03*
X235000Y-9000D02*
D03*
X151000Y14000D02*
D03*
Y0D02*
D03*
X177000Y45000D02*
D03*
X337000Y86000D02*
D03*
X93000Y-114000D02*
D03*
X146000Y-115000D02*
D03*
X243000Y-56000D02*
D03*
X315000Y-190000D02*
D03*
X388000Y-157000D02*
D03*
X214000Y-6000D02*
D03*
X413000Y15000D02*
D03*
X421000Y-32000D02*
D03*
X492000Y96000D02*
D03*
X480000Y195000D02*
D03*
X319000Y132000D02*
D03*
X273000Y63000D02*
D03*
X186000Y72000D02*
D03*
X329000Y113000D02*
D03*
D66*
X50000Y0D02*
D03*
D67*
X355000Y-185000D02*
D03*
Y185000D02*
D03*
M02*
