M48
;Layer_Color=9474304
;FILE_FORMAT=4:4
METRIC,LZ
;TYPE=PLATED
T1F00S00C0.2000
T2F00S00C0.2500
T3F00S00C0.4000
T4F00S00C1.0000
T5F00S00C1.2000
T6F00S00C1.3000
T7F00S00C1.6000
T8F00S00C2.8000
T9F00S00C3.2000
%
T01
X00303Y-00028
Y-00022
Y-00014
Y-00008
Y-00002
Y00005
X003032Y00012
Y00018
X003082Y00022
Y00008
X00308Y-00018
Y-00032
X00355Y-00051
Y00052
X00349
X00343
X00337
X00331
X00325
X00319Y0005
T02
X0048Y-00184
Y-00177
Y-0017
Y-00123
X0049
X00492Y-00095
Y-00087
X0047Y-00084
X00463
X00456
X00449Y-00082
Y-00075
Y-00068
Y-00089
Y-00117
X00442
Y-00124
X00449
X00421Y-00089
Y-00082
Y-00075
Y-00068
X00418Y-00061
X00411Y-00087
X004
Y-00076
X00397Y-00113
Y-0012
Y-00127
Y-00134
Y-00141
X00388Y-00157
X00407Y-0017
Y-00177
Y-00184
X00315Y-0019
X00292
X00267Y-00191
X00272Y-00154
X00281Y-0016
X0029
X00299
X00307
X00315Y-00159
X00333Y-00149
X00322Y-00124
X00315
X00307
X00299
X00272Y-00127
Y-00137
Y-00117
Y-00107
Y-00097
Y-00087
Y-00077
Y-00067
X00298Y-0007
Y-00081
Y-00092
X00323Y-00106
X00332Y-0011
X00343Y-00112
Y-00103
X00347Y-00077
X00358
Y-00088
X00369Y-00116
Y-00123
X0036Y-00131
X00291Y-00149
X00214Y-00147
X00195
Y-00173
X00217Y-00192
X00214Y-00108
X0021Y-00099
X00201
X00188
X00182Y-00104
X00176Y-00099
X00195Y-00106
X00208Y-00087
X00215Y-00091
X00171Y-00078
X00175Y-0007
X00149Y-00093
Y-00103
X00146Y-00115
X0016Y-00117
X00164Y-00153
X00155Y-00162
X00146Y-00153
X00127Y-00148
Y-00128
X00107
X00088Y-00129
X00087Y-00148
X00094Y-00159
X00106Y-00168
X00107Y-00148
X00127Y-00176
X00076Y-00176
X0006Y-00176
Y-00158
Y-0014
X0005Y-00149
X00049Y-0013
X00053Y-00124
X0007Y-00123
Y-00115
Y-00103
X00061Y-00097
X0006Y-00057
X00048Y-00068
X0009Y-00083
X00097Y-0009
X00093Y-00114
X00115343Y-00072343
X00122Y-00067
X00129Y-00061
X00029Y-00124
X00087Y-00031
X0010031Y-00026
X00143393
X00158Y-00028
X00167Y-00036
X00175Y-00043
X00182Y-00048
X00189Y-00043
X00208Y-00033
X00214Y-00027
X00218Y-00014
X00226Y-00015
X00235Y-00009
X00232Y00003
X00241
X00258Y00002
Y00013
X00251Y-00005
X00258Y-00012
X0027Y-00005
X00278
X00268Y-00031
X00292Y-0003
X00307Y-00049
X00339Y-00052
X00347Y-00053
X00345Y-00028
X00332
Y-00015
X00345
Y0
X00332
Y00015
Y00028
X00345
Y00015
X0036
Y00028
X00375
X00388
Y00015
X00375
Y0
X00388
Y-00015
Y-00028
X00375
Y-00015
X0036
Y-00028
Y0
X00363Y00053
X00371
X00379
X00387
X00395
X00409Y00047
X004Y00088
X00399Y00116
X00348Y00117647
X00329Y00113
X00319Y00132
X00306Y00137
X00298Y00135
X00272
Y00145
Y00154
Y00125
Y00115
Y00105
Y00095
Y00085
X00273Y00063
X00279Y00052
X00287
X00279Y00042
X00306Y00036
X00298Y00077
Y00105
X00326Y00086
X00337
X00349
Y00078
X00211Y00089
X00196Y00083
X00188Y00086
Y00094
Y00102
X00198Y00107
Y0012
Y00129
Y00139
Y00163
X0016
X00131Y0017
X00109
X00113Y00148
Y00122
X00131Y00125
Y00107
Y00086
X00126Y00069
X00118
X00106Y00062
X00109Y00037
X00091Y00031
X00148Y00033
X00155Y0004
X00163Y00045
X0017Y00051
X00177Y00045
X00186
X00183Y00036
X00188Y00057
X00194Y00051
X00186Y00072
X0018Y00085
X00172
X00164Y00086
X00167Y00078
X0016Y00107
Y00125
X00184
X00136Y00058
X00135Y00011
X00129Y00005
X00151Y0
Y00014
X00172Y-00007
X00214Y-00006
X00226Y00009
X00225Y00017
X00201Y00022
X00247Y-00036
X00243Y-00056
X00171Y-00055
X00165Y-0005
X00382Y-00053
X0039
X0041Y-00044
X00049Y00063
Y0009
X00053Y00096
X00057Y00108
Y00116
Y0015
Y00169
X00083
Y0015
X00029Y00096
X00464
Y00084
X00463Y00072
X0047
X0046Y00055
Y00048
Y00041
X00438Y00024
X00432Y00014
X00438Y00007
Y-00015
X0043Y-00011
X00437Y-00026
X00421Y-00032
X00413Y-00036
Y-00028
Y-00019647
Y-00003
Y00015
Y00038
X00419Y-00044
X00418Y-00054
X00468Y-00047
Y-0004
Y-00033
X00492Y-0002
Y0
Y0002
Y00096
X00464Y00109
Y00134
Y00146
X0048Y00195
T03
X00474Y-00203
Y-00195
X00075Y-00089
Y-00079
X00095Y00074
X00105
X001Y0011
X0009
X00396Y00155
Y00165
T04
X004318Y-002032
X004572
X004064
X003048
X002794
X00254
X002286
X002032
X001778
X001524
X00127
X001016
X000762
Y002032
X001016
X00127
X001524
X001778
X002032
X002286
X00254
X002794
X003048
X004064
X004318
X004572
T05
X0005Y0
T06
X000145Y-0014575
Y-0007425
Y0007425
Y0014575
T07
X0042Y001042
Y00155
T08
X000361Y-001755
Y-000485
Y000465
Y001735
T09
X00355Y-00185
Y00185
M30
