M48
;Layer_Color=9474304
;FILE_FORMAT=4:4
METRIC,LZ
;TYPE=PLATED
T1F00S00C0.4000
T2F00S00C1.0000
T3F00S00C3.2000
;TYPE=NON_PLATED
T4F00S00C4.0000
%
T01
X00515Y-0015
X00535
X00561
X00582
X005738Y-000892
X00497Y00096
X00472
X0046Y00088
X00447Y0008
X00434Y00057
X00407Y00068
X00392Y0007
X00355Y00056
X00366Y00041
X00327Y00025
Y0
X0029
Y00025
X00255Y0
X00235
X0021
X0019
X0017
Y0007
X0019Y00055
X0021
X00215Y0007
Y00085
X00235Y00055
X00255
Y00096
X00327Y00088
Y00065
X0039Y0
X004Y-00015
X0046Y-0001
Y0001
X00422Y0003
X00327Y-00076
Y-00095
X003
X0029Y-0006
X00255
X00235
X0021
X0019
X0018Y-00098
Y-00125
X00215Y-00135
Y-00149
X0023Y-00162
X00198Y-00163
X00214Y-00098
X00255Y-0011
X00266
X00255Y-00125
X00257Y-00138
X00327Y-0013
Y00104
Y00123
Y00144
X0028Y00104
X00255Y00112
X00215Y00123
Y00135
Y00157
X0018Y00147
Y00122
X0046Y00123
Y00104
Y00144
X00523Y00112
X00541Y00126
X00558Y00143
T02
X004722Y-002032
X004976
X00523
X005484
X005738
X004468
X004214
X00396
X003706
X003452
X002436
X002182
X001928
Y002032
X002182
X002436
X003452
X003706
X00396
X004214
X004468
X004722
X004976
X00523
X005484
X005738
T03
X006Y0
X00295Y-00185
X0005Y0
X00295Y00185
T04
X0003Y-0016
Y-0006
Y0006
Y0016
M30
